<svg width="28" height="30" viewBox="0 0 28 30" fill="none" xmlns="http://www.w3.org/2000/svg">
<path d="M2 7.33325H4.66667H26" stroke="#5891FC" stroke-width="2.6" stroke-linecap="round" stroke-linejoin="round"/>
<path d="M8.66672 7.33333V4.66667C8.66672 3.95942 8.94767 3.28115 9.44777 2.78105C9.94786 2.28095 10.6261 2 11.3334 2H16.6667C17.374 2 18.0522 2.28095 18.5523 2.78105C19.0524 3.28115 19.3334 3.95942 19.3334 4.66667V7.33333M23.3334 7.33333V26C23.3334 26.7072 23.0524 27.3855 22.5523 27.8856C22.0522 28.3857 21.374 28.6667 20.6667 28.6667H7.33338C6.62614 28.6667 5.94786 28.3857 5.44777 27.8856C4.94767 27.3855 4.66672 26.7072 4.66672 26V7.33333H23.3334Z" stroke="#5891FC" stroke-width="2.6" stroke-linecap="round" stroke-linejoin="round"/>
<path d="M11.3335 14V22" stroke="#5891FC" stroke-width="2.6" stroke-linecap="round" stroke-linejoin="round"/>
<path d="M16.6667 14V22" stroke="#5891FC" stroke-width="2.6" stroke-linecap="round" stroke-linejoin="round"/>
</svg>
