<svg xmlns="http://www.w3.org/2000/svg" xmlns:xlink="http://www.w3.org/1999/xlink" viewBox="0 0 52 72"><defs><style>.cls-1{fill:none;}.cls-2{fill:#78c8ef;}.cls-3{fill:#1e88e5;}.cls-4{fill:#42a5f5;}.cls-5{clip-path:url(#clip-path);}.cls-6{fill:#a5e2f9;opacity:0.26;}.cls-7{fill:#fff;}</style><clipPath id="clip-path"><path class="cls-1" d="M46.46,49.84h0l-.14-18.5A20.57,20.57,0,0,0,31.35,11.79a5.74,5.74,0,0,0-11.46.09A20.57,20.57,0,0,0,5.28,31.66l.14,18.5a5.5,5.5,0,0,0,.12,11l13.5-.1h0a7,7,0,1,0,14-.11l13.5-.1A5.52,5.52,0,0,0,52,55.3h0A5.52,5.52,0,0,0,46.46,49.84Z"/></clipPath></defs><title>Asset 3</title><g id="Layer_2" data-name="Layer 2"><g id="Layer_1-2" data-name="Layer 1"><circle class="cls-2" cx="25.63" cy="12.25" r="5.75" transform="translate(-0.09 0.2) rotate(-0.44)"/><circle class="cls-3" cx="26.04" cy="61" r="7" transform="translate(-0.47 0.2) rotate(-0.44)"/><path class="cls-4" d="M46.46,49.84h0l-.14-18.5A20.56,20.56,0,0,0,25.62,11h0A20.56,20.56,0,0,0,5.28,31.66l.14,18.5a5.5,5.5,0,0,0,.12,11l41-.31A5.52,5.52,0,0,0,52,55.3h0A5.52,5.52,0,0,0,46.46,49.84Z"/><g class="cls-5"><rect class="cls-6" x="0.09" width="26" height="72"/></g><path class="cls-7" d="M17.93,24h8.74a17.53,17.53,0,0,1,3.62.37,8.92,8.92,0,0,1,3.07,1.23,6.32,6.32,0,0,1,2.11,2.31,7.5,7.5,0,0,1,.79,3.62,8.08,8.08,0,0,1-.84,4,6,6,0,0,1-2.28,2.33,9.51,9.51,0,0,1-3.32,1.12,25.67,25.67,0,0,1-3.95.29H22.55V50H17.93Zm7.42,11.27q1,0,2.06-.07a6.31,6.31,0,0,0,2-.44,3.49,3.49,0,0,0,1.47-1.1,3.29,3.29,0,0,0,.57-2.06,3.24,3.24,0,0,0-.51-1.93,3.41,3.41,0,0,0-1.32-1.1,5.58,5.58,0,0,0-1.8-.5A17.29,17.29,0,0,0,25.86,28H22.55v7.31Z"/></g></g></svg>