<?xml version="1.0" encoding="utf-8"?>
<!-- Generator: Adobe Illustrator 22.1.0, SVG Export Plug-In . SVG Version: 6.00 Build 0)  -->
<svg version="1.1" id="Layer_1" xmlns="http://www.w3.org/2000/svg" xmlns:xlink="http://www.w3.org/1999/xlink" x="0px" y="0px"
	 viewBox="0 0 100 100" style="enable-background:new 0 0 100 100;" xml:space="preserve">
<style type="text/css">
	.st0{fill:#FFFFFF;stroke:#C6C6C6;stroke-width:3;stroke-miterlimit:10;}
</style>
<path class="st0" d="M64.3,34.7c-1-0.5-2-0.8-3.2-0.9c-1.2-0.1-2.3-0.2-3.4-0.2h-5.9v13.1h5c1.2,0,2.4,0,3.7-0.1
	c1.3-0.1,2.4-0.3,3.5-0.8c1.1-0.4,1.9-1.1,2.6-2c0.7-0.9,1-2.1,1-3.7c0-1.4-0.3-2.6-0.9-3.4C66,35.8,65.2,35.1,64.3,34.7z"/>
<path class="st0" d="M79.2,5.6H27.7c-8.9,0-16.3,7.3-16.3,16.3v56.4c0,8.9,7.3,16.3,16.3,16.3h51.6c8.9,0,16.3-7.3,16.3-16.3V21.8
	C95.5,12.9,88.2,5.6,79.2,5.6z M74.7,47c-1,1.8-2.4,3.2-4.1,4.2c-1.7,1-3.7,1.7-5.9,2c-2.3,0.4-4.6,0.5-7,0.5h-5.9v19.2h-8.3V26.5
	h15.6c2.2,0,4.4,0.2,6.5,0.7c2.1,0.4,3.9,1.2,5.5,2.2c1.6,1,2.8,2.4,3.8,4.1c0.9,1.7,1.4,3.9,1.4,6.5C76.2,42.9,75.7,45.2,74.7,47z"
	/>
<circle class="st0" cx="22" cy="24.8" r="7.4"/>
<circle class="st0" cx="22" cy="45.2" r="7.4"/>
<path class="st0" d="M22.2,49.8H9.1c-2.6,0-4.6-2.1-4.6-4.6v0c0-2.6,2.1-4.6,4.6-4.6h13.1c2.6,0,4.6,2.1,4.6,4.6v0
	C26.8,47.7,24.7,49.8,22.2,49.8z"/>
<circle class="st0" cx="22" cy="67.5" r="7.4"/>
<path class="st0" d="M22.2,72.1H9.1c-2.6,0-4.6-2.1-4.6-4.6v0c0-2.6,2.1-4.6,4.6-4.6h13.1c2.6,0,4.6,2.1,4.6,4.6v0
	C26.8,70,24.7,72.1,22.2,72.1z"/>
<path class="st0" d="M22.2,29.4H9.1c-2.6,0-4.6-2.1-4.6-4.6v0c0-2.6,2.1-4.6,4.6-4.6h13.1c2.6,0,4.6,2.1,4.6,4.6v0
	C26.8,27.3,24.7,29.4,22.2,29.4z"/>
</svg>
