<?xml version="1.0" encoding="utf-8"?>
<!-- Generator: Adobe Illustrator 22.1.0, SVG Export Plug-In . SVG Version: 6.00 Build 0)  -->
<svg version="1.1" id="Layer_1" xmlns="http://www.w3.org/2000/svg" xmlns:xlink="http://www.w3.org/1999/xlink" x="0px" y="0px"
	 viewBox="0 0 983.2 1075.4" style="enable-background:new 0 0 983.2 1075.4;" xml:space="preserve">
<style type="text/css">
	.st0{fill:#E9EDFF;}
	.st1{fill:none;stroke:#B2B2B2;stroke-width:4;stroke-linecap:round;stroke-miterlimit:10;}
	.st2{fill:none;stroke:#B2B2B2;stroke-width:4;stroke-linecap:round;stroke-miterlimit:10;stroke-dasharray:10.1646,20.3293;}
	.st3{fill:none;stroke:#B2B2B2;stroke-width:8;stroke-linecap:round;stroke-linejoin:round;stroke-miterlimit:10;}
	.st4{fill:#FFFFFF;}
	.st5{fill:none;stroke:#E8E8E8;stroke-width:4;stroke-linecap:round;stroke-linejoin:round;stroke-miterlimit:10;}
	.st6{fill:#B2B2B2;}
	.st7{fill:none;stroke:#7B84E6;stroke-width:5;stroke-linecap:round;stroke-miterlimit:10;}
	.st8{fill:none;stroke:#B2B2B2;stroke-width:8.9109;stroke-linecap:round;stroke-linejoin:round;stroke-miterlimit:10;}
	.st9{fill:#FFFFFF;stroke:#B2B2B2;stroke-width:8;stroke-linecap:round;stroke-linejoin:round;stroke-miterlimit:10;}
	.st10{fill:none;stroke:#B2B2B2;stroke-width:8.4748;stroke-linecap:round;stroke-linejoin:round;stroke-miterlimit:10;}
	.st11{fill:none;stroke:#B2B2B2;stroke-width:7.5021;stroke-linecap:round;stroke-linejoin:round;stroke-miterlimit:10;}
</style>
<line class="st5" x1="939.6" y1="1003.1" x2="245.5" y2="1003.1"/>
<line class="st5" x1="68" y1="1003.1" x2="232.1" y2="1003.1"/>
<line class="st5" x1="41" y1="1003" x2="53.1" y2="1003"/>
<path class="st7" d="M592.3,655.1c0,0-3.3,6.2-18.4,6.5"/>
<path class="st7" d="M584.7,671.3c0,0,23.7-5,33.6,5.1"/>
<path class="st7" d="M848.8,246.4c0,0-0.8,6.9-14.7,12.8"/>
<path class="st7" d="M849.9,266.8c0,0,23.9-3.6,33.3,7"/>
<path class="st7" d="M301.1,122.4c0,0,6.9-0.9,16,11.1"/>
<path class="st7" d="M320.6,116.2c0,0-9.4-22.3-1.4-34"/>
<g>
	<line class="st7" x1="887.5" y1="549.2" x2="885.7" y2="555.2"/>
	<line class="st7" x1="880.7" y1="572.3" x2="878.9" y2="578.3"/>
	<line class="st7" x1="868.8" y1="559.4" x2="874.9" y2="561.3"/>
	<line class="st7" x1="891.3" y1="566.1" x2="897.6" y2="568"/>
</g>
<g>
	<line class="st7" x1="536.5" y1="830.4" x2="534.7" y2="836.5"/>
	<line class="st7" x1="529.6" y1="853.5" x2="527.8" y2="859.6"/>
	<line class="st7" x1="517.7" y1="840.7" x2="523.9" y2="842.5"/>
	<line class="st7" x1="540.2" y1="847.4" x2="546.6" y2="849.2"/>
</g>
<g>
	<line class="st7" x1="477.5" y1="275.1" x2="475.7" y2="281.2"/>
	<line class="st7" x1="470.6" y1="298.2" x2="468.8" y2="304.2"/>
	<line class="st7" x1="458.7" y1="285.4" x2="464.8" y2="287.2"/>
	<line class="st7" x1="481.2" y1="292" x2="487.6" y2="293.9"/>
</g>
<g>
	<line class="st7" x1="146.3" y1="576.5" x2="144.5" y2="582.6"/>
	<line class="st7" x1="139.4" y1="599.6" x2="137.6" y2="605.7"/>
	<line class="st7" x1="127.5" y1="586.8" x2="133.7" y2="588.6"/>
	<line class="st7" x1="150" y1="593.4" x2="156.4" y2="595.3"/>
</g>
<circle class="st7" cx="668.5" cy="423.2" r="8.4"/>
<circle class="st7" cx="388.2" cy="577.8" r="8.4"/>
<circle class="st7" cx="153.2" cy="314.7" r="8.4"/>
<circle class="st7" cx="785.7" cy="775.5" r="8.4"/>
<circle class="st7" cx="640" cy="82.2" r="8.4"/>
<polygon class="st0" points="157.8,825 189.8,875.1 377.9,779.7 335.3,709 "/>
<polyline class="st3" points="374.3,778.8 189.8,875.1 158.8,823.3 275.9,747.4 335.3,709 "/>
<path class="st8" d="M413.2,771.1l-21.4,12.4c-4.9,2.8-11.1,1.1-13.9-3.7l-44.2-76.5c-2.8-4.9-1.1-11.1,3.7-13.9l21.4-12.4
	c4.9-2.8,11.1-1.1,13.9,3.7l44.2,76.5C419.7,762.1,418,768.3,413.2,771.1z"/>
<circle class="st9" cx="267.2" cy="830.6" r="15.2"/>
<line class="st3" x1="291.4" y1="775.5" x2="275.9" y2="747.4"/>
<line class="st3" x1="213.4" y1="820.6" x2="229.8" y2="854.2"/>
<circle class="st6" cx="300.3" cy="791.1" r="3.9"/>
<circle class="st6" cx="252.3" cy="868.8" r="3.9"/>
<line class="st3" x1="245.6" y1="885.1" x2="208.1" y2="981.9"/>
<line class="st3" x1="186.2" y1="981.9" x2="241.9" y2="981.9"/>
<line class="st3" x1="300.3" y1="981.9" x2="356" y2="981.9"/>
<line class="st3" x1="273.5" y1="844.4" x2="325.9" y2="981.9"/>
<rect x="142.7" y="843.1" transform="matrix(0.866 -0.5 0.5 0.866 -407.4092 194.5375)" class="st10" width="33.2" height="28.9"/>
<polygon class="st0" points="110.4,857.5 130.5,843.2 154.2,888.8 135,900.4 "/>
<path class="st11" d="M157.6,890.2l-17,9.8c-3.1,1.8-7,0.7-8.8-2.4l-20.7-35.9c-1.8-3.1-0.7-7,2.4-8.8l17-9.8L157.6,890.2z"/>
<polyline class="st11" points="239.7,770.9 222.4,740.5 244.5,728.2 260.9,757.2 "/>
<line class="st11" x1="253.1" y1="723.3" x2="212.1" y2="746.5"/>
</svg>
