<svg xmlns="http://www.w3.org/2000/svg" viewBox="0 0 787.43 944.57"><title>Prof 1</title><g id="Layer_2" data-name="Layer 2"><g id="Draw_Layer" data-name="Draw Layer"><path d="M450.15,676l-15,0h-1.64c-4.49,0-9.12,0-13.68.11s-9.4.37-14,.64l-1.27.07c-.94.06-2,.09-3.24.09l-2,0H388.77c-1.78,0-3.26,0-4.79.09a16.14,16.14,0,0,0-7,1.75,12.14,12.14,0,0,0-4.87,5.15,40.54,40.54,0,0,1-3.27,4.82l-.61.78-.18.24-.62.8-.81,1-1,1.21.32-.42-.68.86c-.76,1-1.51,1.93-2.23,2.92a70.49,70.49,0,0,1-5.85,6.63c-.91.89-1.88,1.74-2.81,2.56-.71.62-1.42,1.25-2.11,1.89l-.86.8c-.72.68-1.43,1.36-2.17,2a44.35,44.35,0,0,1-6.44,3.53c-1.58.6-3,1.09-4.45,1.47a46.68,46.68,0,0,1-5.22,1c-1.9.19-4,.28-6.29.28-1,0-1.92,0-2.89,0-2.5-.06-5.79-.18-9.09-.52-1.42-.25-2.84-.57-4.22-.87l-.68-.15c-1-.22-2-.4-3-.57s-2-.33-2.93-.55a80.65,80.65,0,0,1-10.38-2.91c-1-.53-2-1.13-2.89-1.71s-1.79-1.12-2.71-1.62l-.2-.11c-1.65-.9-3.35-1.83-4.92-2.88A28.58,28.58,0,0,1,280.7,702l-1.86-2.47c-.89-1.26-1.72-2.57-2.49-3.81a9.25,9.25,0,0,0,.1-1.38,10.82,10.82,0,0,0-3.15-7.61,11,11,0,0,0-7.61-3.15l-.37,0c-1.37-.07-2.8-.14-4.19-.14a25.79,25.79,0,0,0-3.55.21c-1.95.25-3.91.57-5.8.88l-3.38.53-5,.64-.42.05-6.52.88c-2.33.27-4.7.48-7,.68s-4.79.42-7.18.7c-4.25.51-8.54,1.16-12.7,1.79l-5.17.78h.08l-3.28.45c-4.42.57-8.81,1-13.07,1.36-2.2.17-4.44.26-6.61.35l-.81,0c-2,.08-3.92.22-5.83.36l-2.09.14c-2.13.15-4.27.26-6.41.36-2.83.15-5.75.3-8.62.53-4.62.37-9.26,1.11-13.75,1.83l-4.24.66-1.11.15-1.08.15c-2.23.28-4.45.54-6.68.79-2.73.32-5.47.64-8.19,1-7.12.93-12.55,1.83-17.61,2.9a133.92,133.92,0,0,0-14.67,4.2l-4.78,1.57c-3.13,1-6.37,2.07-9.53,3.17l-3.51,1.22c-8.74,3-17.77,6.16-26.15,10.41A44.17,44.17,0,0,0,39,727.3a32.11,32.11,0,0,0-4.56,4.61,84.63,84.63,0,0,0-9.57,14.2,125.15,125.15,0,0,0-7.08,15C16.36,765,15.22,769,14.12,773l-.58,2.09c-1.2,4.25-2.31,9-3.5,14.8A141.52,141.52,0,0,0,7.4,807.7c-.36,4.69-.43,9.39-.48,14.59v1c0,.82,0,1.65,0,2.48L7,826a23,23,0,0,1,.64,5.16,29.66,29.66,0,0,1,.72,6.45c0,.92.11,1.83.15,2.74.08,2.14.17,4.27.27,6.41q.35,7.32.66,14.64c.35,8.33,1,16.65,1.55,25,.37,5.49.67,11,1,16.48.19,3.18.39,6.37.55,9.56.15.84.31,1.67.47,2.49l.05.23A13,13,0,0,0,15,920,17.64,17.64,0,0,0,17.5,923h615c.53-.23,1.06-.46,1.56-.7a35.74,35.74,0,0,0,9.13-5.85,28.74,28.74,0,0,0,3.21-3.56,72.34,72.34,0,0,0,4.25-5.92c.72-1.11,1.52-2.29,2.55-3.73a16.78,16.78,0,0,0,2.72-5.85c.12-.52.26-1.05.4-1.57s.31-1.14.44-1.71c-.23-2.53-.41-5.07-.61-7.61q-1.39-8.13-2.81-16.28c-.32-1.86-.63-3.72-.91-5.58-.15-.62-.31-1.23-.47-1.84-.24-.94-.48-1.87-.69-2.81-.24-1.09-.45-2.19-.67-3.28l-.36-1.87c-.61-3-1.25-6-1.89-9l-.3-1.43-.47-2.19c-.51-2.32-1-4.72-1.43-7.11v.09c-.13-1-.29-2-.44-3l-.08-.75c-.22-2-.45-4-.87-6a38.41,38.41,0,0,0-1.29-4.29c-.2-.58-.4-1.16-.59-1.74-1.52-4.72-2.62-9.54-3.5-13.63l-.21-1c-.43-2-.86-4.07-1.47-6.07l-.14-.45c-.62-2-1.24-4-1.88-6-.71-2.2-1.3-4.47-1.88-6.67s-1.14-4.38-1.83-6.53c-1-3.05-2.27-6-3.51-8.93l-.61-1.41-.44-1.06c-1.45-3.47-2.94-7-4.63-10.49-.55-1.11-1.2-2.2-1.83-3.25-.38-.63-.75-1.25-1.1-1.88L619,750.6c-.65-1.18-1.33-2.4-2-3.58a107.25,107.25,0,0,0-10-13.27c-1.44-1.72-2.92-3.5-4.34-5.29s-3.05-3.94-4.81-6c-1.25-1.49-2.63-2.91-4-4.29l-.87-.9c-3.75-3.89-7.83-7.94-12.79-11-.87-.54-1.76-1.06-2.63-1.59-1.22-.73-2.44-1.45-3.65-2.19s-2.68-1.73-4-2.61l-2.07-1.4a75.72,75.72,0,0,0-13-6.35l-1.84-.76c-1.78-.74-3.92-1.62-6.08-2.38-1.87-.65-3.82-1.18-5.7-1.7l-.81-.23a144.6,144.6,0,0,0-14.49-3.37c-12.08-2-21.93-3.43-31-4.49-4.24-.49-8.83-1-14.44-1.5-1.39-.12-2.77-.26-4.15-.41-3.61-.36-7.33-.74-11-.93-5.28-.27-10.22-.41-15.12-.41Z" fill="#f87d49"/><path d="M26.57,872.78a10.43,10.43,0,0,0-1.43,1.78,9.3,9.3,0,0,0-1.85.33c-2.24.61-3.12,1.48-4.91,2.89-1.3,1-2.45,3.52-2.92,5a7.6,7.6,0,0,0-.29,1.32c-.22,1.57-.45,3.13-.56,4.72-.09,1.21-.15,2.43-.19,3.66a11,11,0,0,0-2.72,6.13l.24,4.15c.28,4.91.59,9.82.78,14.73.11.82.22,1.64.34,2.47.14,1,.29,2,.43,3H616a2.23,2.23,0,0,0,.09-.32,10.8,10.8,0,0,0-1.08-8.28c-1.28-2.19-3.81-4.52-6.42-4.94-3.25-.53-6.45-1.12-9.73-1.47-2.91-.31-5.88-.37-8.82-.44-6-.14-11.94,0-17.9.06-6.27,0-12.54.16-18.8.43s-12.74.4-19.12.42c-6,0-12.06,0-18.08.19s-11.9.63-17.85.73-11.94.19-17.9.63c-5.73.42-11.46,1-17.19,1.34-2.75.18-5.51.27-8.26.52s-5.68.46-8.52.61c-6,.31-11.9.38-17.86.38-12.32,0-24.64-.05-36.95.08-5.92.07-11.84.16-17.76.42-6.17.27-12.31.38-18.48.39-12.56,0-25.11.08-37.66.6-8.9.36-17.82.34-26.73.32-3.48,0-7,0-10.44,0-6.28,0-12.58.08-18.86.22-5.89.13-11.75.58-17.63.42s-11.89-.64-17.83-.66-12,0-18,0h-36.9q-17.91,0-35.83,0c-6.06,0-12.11,0-18.16.12-5.73.09-11.45.41-17.17.68s-11.67.08-17.48.08H45.48c-.13-2.57-.45-5.12-.81-7.66-.11-1.7,0-3.44,0-5.13,0-2,0-4,0-6q0-8.18.25-16.35c.17-5.86-5-10.75-10.75-10.75a10.78,10.78,0,0,0-7.6,3.15Z" fill="#f87d49"/><path d="M637.32,859.69a3.26,3.26,0,0,0-2.27,4c.58,1.66,1.25,3.3,1.79,5s1,3.44,1.36,5.19c.72,3.25,1.34,6.52,1.95,9.79s1.23,6.79,1.87,10.18c.6,3.14,1.06,6.33,1.88,9.42a10,10,0,0,0,.34,1.22,3.18,3.18,0,0,0,.83,1.43,3.26,3.26,0,0,0,2.3,1,3.33,3.33,0,0,0,2.48-1.15,6.61,6.61,0,0,0,.49,1.25,3.19,3.19,0,0,0,1.94,1.5l.33.07c0,.25.07.51.11.76a15.44,15.44,0,0,0,.78,3.32c.09.36.16.72.22,1.08s.07.81.08,1.22c0,0,0,.05,0,.08a15.39,15.39,0,0,0-3.38.28c-1.65.41-3.26.92-4.94,1.2-1,.11-2,.21-3,.39s-1.7.31-2.56.45c-1.49.17-3,.24-4.48.28-.92,0-1.85,0-2.77.09s-1.93.24-2.89.38c-1.44.18-2.88.3-4.33.36s-2.76,0-4.14.18-2.85.36-4.28.46a25.84,25.84,0,0,1-4.57-.15c-1.15-.16-2.29-.32-3.44-.46-4.2-.62-8.42-1.13-12.64-1.63a3.1,3.1,0,0,0-2.3.95,3.26,3.26,0,0,0,0,4.6l.66.51.17.09h50.67a24.27,24.27,0,0,0,3.29-.54c1.19-.3,2.35-.67,3.54-.93.4,0,.8,0,1.21,0h.82a14.94,14.94,0,0,0,2.5-.27,4.13,4.13,0,0,0,.65-.22,5.41,5.41,0,0,0,1.74-1q-1.26-12.6-2.46-25.2c-.19-2-.35-4-.5-5.94-.31-1.27-.63-2.53-.94-3.79-.12-.73-.26-1.46-.4-2.18-.32-1.61-.69-3.21-1-4.81s-.69-2.92-1-4.38c-.19-.78-.37-1.56-.57-2.33a7,7,0,0,0-1.46-3.4,3.22,3.22,0,0,0-1.86-.91c-.18-.75-.38-1.49-.59-2.23a7.62,7.62,0,0,0-.63-1.81,3.5,3.5,0,0,0-3-1.78,3.22,3.22,0,0,0-3,2l0-.1-.42-1.21a3.42,3.42,0,0,0-1.5-1.94,3.19,3.19,0,0,0-1.64-.45,3.13,3.13,0,0,0-.86.12Z" fill="#f87d49"/><path d="M645.83,866.62a3.27,3.27,0,0,0-1.16,4.44c1,1.58,1.83,3.16,2.62,4.81a55.44,55.44,0,0,1,2.81,12.35c.06.55.13,1.1.18,1.65a2.79,2.79,0,0,0-.9.12,3.27,3.27,0,0,0-2.27,2.26,11,11,0,0,0-.26,2.81c0,.74,0,1.48.08,2.22,0,.46.06.93.08,1.39a3.33,3.33,0,0,0-1.46,2.71,49,49,0,0,0,.53,6.62q.18,1.54.33,3.09c-.65.16-1.29.35-1.95.53-1.32.38-2.62.8-4,1.13a39.25,39.25,0,0,1-4,.74l-1.25.16-.86.12a3.11,3.11,0,0,0-1.43.84l-.07.07-.19,0a3.29,3.29,0,0,0-2,1.5,3.5,3.5,0,0,0-.32,2.5.13.13,0,0,0,0,.06,3.2,3.2,0,0,0,2.27,2.27,10.91,10.91,0,0,0,3.74.07c.54,0,1.08,0,1.62,0a27.28,27.28,0,0,0,4.51-.39,19,19,0,0,0,3.94-.95c.53-.21,1.07-.41,1.59-.63a15.18,15.18,0,0,0,1.77-.42,6.16,6.16,0,0,0,2-1.24,6,6,0,0,0,.67-.92,2.33,2.33,0,0,0,.26-.55l.22-.29a3.08,3.08,0,0,0,.49-1.68,3.34,3.34,0,0,0,1.93-2.13v0a2.84,2.84,0,0,0,.57-.1,3.24,3.24,0,0,0,1.94-1.5,3.31,3.31,0,0,0,.28-.61q-.74-7.47-1.45-14.93c-.26-2.78-.46-5.56-.67-8.34q-.79-4.68-1.61-9.36a32.12,32.12,0,0,0-1.7-4.63,49.6,49.6,0,0,0-2.57-4.69,3.36,3.36,0,0,0-2.84-1.6,3.18,3.18,0,0,0-1.61.44Zm1.37,27.47c0-.14,0-.28-.05-.42l.06.42Z" fill="#f87d49"/><path d="M653.8,923.91H13.08c.26,2.17.52,4.34.76,6.5H660c0-1.56-.09-3.12-.16-4.68l-.18-1.82Z" fill="#f87d49"/><path d="M452.49,916.91H20.78a10.27,10.27,0,0,0-8,3.84c0,.46,0,.93,0,1.39.52,4.32,1,8.64,1.49,13a10.17,10.17,0,0,0,6.42,2.3H660.3c-.2-3.91-.26-7.84-.42-11.76q-.45-4.36-.88-8.74Z" fill="#f87d49"/><path d="M34.1,744.56c-2.76,3.15-5.46,6.33-8,9.64-.91,1.19-1.8,2.39-2.62,3.65s-1.38,2.48-2.05,3.72c-1.52,2.78-2.89,5.56-4.14,8.44-1.74,4.15-3.34,8.33-5,12.54-1.29,3.36-2.53,6.73-3.55,10.19s-2,7-2.84,10.53c-.37,1.59-.78,3.16-1.21,4.73a38.16,38.16,0,0,0-1,5.53,115.76,115.76,0,0,0-1.52,11.73c-.17,3.08,0,6.19-.32,9.26-.3,2.23-.56,4.47-.67,6.73-.11,2.44,0,4.92-.19,7.34a80.59,80.59,0,0,0-.82,8.06c-.1,2.61-.09,5.24-.1,7.86q0,7.31,0,14.61v47.17a10.35,10.35,0,0,0,10.25,10.25,10.34,10.34,0,0,0,10.25-10.25V882.73q0-7.32,0-14.65A145.8,145.8,0,0,1,21,852.72c.23-1.55.47-3.09.59-4.65s0-3,.07-4.54q.06-3.35.44-6.64a37.66,37.66,0,0,0,.47-4.62c0-1.22,0-2.44,0-3.67,0-2.2.14-4.41.37-6.6s.71-4.32,1-6.5c-.08.64-.17,1.27-.25,1.9.44-3.14,1.4-6.17,2.12-9.25.78-3.35,1.78-6.64,2.7-10a98.21,98.21,0,0,1,3.32-9.56c1.31-3.33,2.49-6.71,3.87-10l-.07.15.09-.19c1-2.15,2.05-4.23,3.18-6.3a59,59,0,0,1,3.71-6.22c1.94-2.37,4-4.7,6-7a10.7,10.7,0,0,0,3-7.25,10.24,10.24,0,0,0-10.25-10.25,10,10,0,0,0-7.25,3ZM16.3,772.28c.32-.74.63-1.49.95-2.24-.32.74-.64,1.49-.95,2.24Zm.95-2.24v0l.08-.18-.09.21Zm8.41-15.31c.14-.18.27-.36.41-.53l0,0-.43.56Zm.43-.56,1.18-1.52-1.18,1.52Z" fill="#f87d49"/><path d="M492.57,924.07H8.42A10.29,10.29,0,0,0,0,928.53q.57,6.38,1,12.76a10.22,10.22,0,0,0,7.46,3.28H660.75c-.1-1.65-.21-3.3-.32-4.94-.34-5.11-.36-10.24-.62-15.35v-.21Z" fill="#f87d49"/></g><g id="Draw_Layer-2" data-name="Draw Layer"><path d="M376.52,532.68a39.52,39.52,0,0,0-7.28.78,36.87,36.87,0,0,0-6.24,1.71c-2.8,1.06-5.58,2.29-8.28,3.48l-3,1.32a61.24,61.24,0,0,1-6.18,2.1c-2.28.63-4.61,1.11-6.67,1.52-2.95.61-5.91,1.18-8.87,1.75l-5.11,1c-6.29,1.24-12.67,2.61-18.83,3.94q-5.16,1.11-10.31,2.19l-2.6.54c-3.23.67-6.57,1.35-9.81,2.19a43.32,43.32,0,0,0-6.47,2.31,38.5,38.5,0,0,0-4.5,2.45l0-.15.36-2a4.82,4.82,0,0,0-.45-3.48,4.63,4.63,0,0,0-2.7-2.07,4.74,4.74,0,0,0-1.19-.16,4.54,4.54,0,0,0-4.36,3.31c-.31,1.69-.62,3.49-.91,5.36h.11l3.16,0c2.4,0,4.36-.09,6.18-.17l3.14-.16,3.46-.25c1.06-.09,2.11-.2,3.17-.32l1.77-.2.34,0,.34,0,.26,0,.48,0,.45,0,1.13-.1,1.73-.11c1.14-.08,2.27-.14,3.41-.2l1.15,0h47.72c1,0,2,0,3,.08l.74.06.31,0,.2.05.15.06a.57.57,0,0,1,.21.14.52.52,0,0,1,.1.2.2.2,0,0,1,0,.13.67.67,0,0,1-.09.22.83.83,0,0,1-.16.2l-.14.14-.14.13-.52.48c-.4.35-.8.7-1.23,1-.23.18-.48.36-.71.52l-.54.41-.89.72-1.27,1-.43.36-.23.2-.57.47-.54.44-.66.54c-.27.21-.54.44-.8.66l-.42.34-1.26,1-1.25,1-1.19,1-.38.3-.91.7-1.12.87c-.76.59-1.54,1.18-2.31,1.76l-.32.25-.34.26-.34.26-.43.33-.19.13c-.42.32-.86.62-1.3.92l-.67.46-.66.46-.43.29-.26.17-.36.25-.26.18-1.08.78-.17.13-.28.2c-.12.08-.25.17-.36.26l-.45.34-.13.11-.2.16-.57.45-.44.33-.44.33-1,.72-.75.58-1.72,1.3-.83.63-.72.55-1.11.84-1.58,1.22-.43.31-.27.2-.52.39-.12.1c-.41.31-.84.61-1.26.91l-.45.32-.19.12-.3.22-.31.21c-.43.3-.86.6-1.28.91s-.91.65-1.38,1l-1.37.94-.93.66-.36.25c-.18.14-.37.26-.55.39l-.13.09-.32.22-.32.21-.45.3-.23.15-.44.29-.18.12-1.31.86c-.33.22-.67.43-1,.64l-.31.18-.67.41-.6.35c-.91.55-1.81,1.12-2.7,1.7l-.35.22-.34.23-.28.18-.38.25-.67.45-.18.12-.48.32-.65.45-.66.45-.67.46-.41.28-.26.17-1.32.89-1.33.9-.68.49c-.21.15-.42.3-.62.46l-.64.47-.61.45c-.4.31-.8.62-1.19.94l-.58.48-.59.48-.37.33-.2.17-.4.36-.13.12-.33.3-.22.21-.52.47-2.25,2-.75.63-.36.3-.46.38-.63.53-1.07.92-.15.13c-.38.32-.77.65-1.14,1l-.56.53-.29.27-.3.27-1.2,1.17-.43.44-.1.11-.44.46L266.06,621l-.36.37-.76.82-1.57,1.64a.23.23,0,0,1-.15.06h-.12a.26.26,0,0,1,0,.32l-.09.08-.19.15-.09.07-.09.06a1.57,1.57,0,0,1-.45.25,1.28,1.28,0,0,1-.38.1l-.41-.05a1.38,1.38,0,0,1-.29-.08.77.77,0,0,1-.18-.1.52.52,0,0,1-.24-.37c0-.13,0-.25,0-.38v-.39c-.07,1.21-.13,2.43-.18,3.65-.13,3-.31,6-.49,8.92-.11,1.79-.22,3.58-.32,5.37-.23,4.27-.38,8.92-.46,14.21q-.06,3.4-.07,6.81c0,1.79.1,3.6.21,5.36l.07,1.24c.36,6.09.79,10.78,1.36,15.21v0l0,.17,0,.42,0-.55a56.87,56.87,0,0,0,3.06,13.28,32.14,32.14,0,0,0,3.2,6.23,43.41,43.41,0,0,0,5.19,6.17,98.88,98.88,0,0,0,11.13,9.45c1.5,1.14,3.18,2.3,5.26,3.65,1.37.88,2.83,1.65,4.23,2.39l1.2.63a65.4,65.4,0,0,0,13.49,5.8l.2.06c2.13.59,4.33,1.2,6.52,1.67a48.17,48.17,0,0,0,7.2,1c.62,0,1.25.06,1.88.06a37.08,37.08,0,0,0,11.15-1.82l.44-.13c1.94-.62,3.95-1.25,5.9-2a49,49,0,0,0,6.43-2.95,56.77,56.77,0,0,0,11.61-8.36,89.23,89.23,0,0,0,8.07-9l.52-.65c1.35-1.65,2.75-3.5,4.39-5.83a39.16,39.16,0,0,0,3.32-5.46A109.63,109.63,0,0,0,380.4,686c.53-1.56.94-3.21,1.34-4.79.15-.62.3-1.23.46-1.84.49-1.89,1-4,1.42-6.34.19-1,.4-2,.6-3s.48-2.27.69-3.41.36-2,.54-3,.35-2,.54-3c.42-2.22.76-4.49,1-6.94.11-1,.23-1.92.35-2.89.16-1.28.33-2.56.45-3.85.23-2.31.33-4.68.42-6.72.06-1.65.22-3.32.38-4.94.06-.58.11-1.15.16-1.73.54-6.09.53-12.3.52-18.31,0-2.31,0-4.61,0-6.91a23.17,23.17,0,0,1,.21-2.51l.08-.72c.11-1.1.22-2.2.3-3.31.16-2.27.2-4.56.24-6.52,0-.65,0-1.29,0-1.94,0-1.39,0-2.82.09-4.23.1-1.95.29-4.06.55-6.27v-.11c.41-3.41.84-6.93,1-10.43,0-.5,0-1,.06-1.49,0-1.1.07-2.24.17-3.35.05-.59.11-1.17.17-1.75.11-1.09.22-2.18.3-3.27.06-.79.1-1.59.14-2.38.05-1,.1-1.94.18-2.91s.19-1.86.3-2.78.24-2.11.33-3.18c.05-.57.08-1.14.12-1.71.07-1.13.14-2.3.29-3.44.25-1.9.46-3.77.61-5.57a4.41,4.41,0,0,0-1.32-3.19,4.48,4.48,0,0,0-5.31-.78,9,9,0,0,0-3.18-2.41,19.59,19.59,0,0,0-8.09-1.45Z" fill="#ffd0af"/><path d="M630.94,700.7a2,2,0,0,0,.11.2l.37-.36c0-.09-.09-.18-.14-.26l-.34.42Z" fill="#404040"/><path d="M324.69,559H293.82l-.38,0-1.15,0c-1.14.05-2.27.12-3.41.19l-1.73.11-1.13.1-.45,0-.48,0-.26,0-.34,0-.35,0-1.76.21c-1.06.11-2.11.22-3.17.31l-3.46.25c-1.05.07-2.09.11-3.14.16-1.82.08-3.78.14-6.18.17l-3.16,0h-.61l-.3,0a1.1,1.1,0,0,0-.32.1l-.12.06-.13.09-.18.15-.12.18a2.1,2.1,0,0,0-.13.26l-.07.18a6.77,6.77,0,0,0-.21.89l0,.2a2.91,2.91,0,0,0,0,.31v.1l0,.19,0,.19c-.1,1.08-.15,2.14-.19,3.3s-.06,2.08-.07,3.12c0,2.09,0,4.19,0,6.28v6.94c0,.4,0,.79,0,1.18,0,.07,0,.13,0,.19l0,.24v.17l0,.2v.1l0,.15v.15l-.13.87c-.1.73-.2,1.45-.29,2.17-.11,1-.19,2-.25,3.23-.1,2-.1,4.11-.1,6.11,0,.36,0,.71,0,1.06v.17c0,.23,0,.46,0,.69a6.76,6.76,0,0,0,.1.77l0,.11a3.4,3.4,0,0,0,.07.34l0,.13.13.68c.07.36.12.73.17,1.09s.12,1,.16,1.47.08,1.06.1,1.59q.08,1.55.09,3.09c0,2,0,4.07,0,6.1V624c0,.13,0,.25,0,.38a.52.52,0,0,0,.24.37l.18.1a1.38,1.38,0,0,0,.29.08,3.5,3.5,0,0,0,.41.05,1.32,1.32,0,0,0,.38-.09,2.14,2.14,0,0,0,.45-.26l.09-.06.09-.07.19-.15.09-.08a.26.26,0,0,0,0-.32h.11a.24.24,0,0,0,.16-.06l1.57-1.65.76-.81.35-.37,1.13-1.21.44-.46.1-.11.43-.44,1.2-1.17.3-.27.29-.27.56-.53c.37-.35.76-.68,1.14-1l.15-.13,1.07-.92.63-.53.46-.38.36-.31.74-.62c.76-.67,1.51-1.35,2.25-2l.53-.47.22-.21.33-.3.13-.12.4-.36.19-.17.38-.33.59-.48.58-.48c.39-.32.79-.63,1.19-.94l.61-.45.63-.47.63-.46.68-.49,1.33-.9,1.33-.89.25-.17.41-.28.67-.46.66-.45.65-.45.48-.32.18-.12.67-.45c.12-.09.25-.17.38-.25l.28-.18.34-.23.35-.22c.89-.58,1.79-1.15,2.71-1.7l.59-.35.67-.41.31-.18,1-.64,1.3-.86.18-.12.45-.29.22-.15.46-.3.31-.22.32-.21L301,594l.55-.38.36-.26.93-.66,1.38-.94,1.37-1c.42-.31.85-.61,1.29-.91l.3-.21.3-.21.19-.14.45-.31c.42-.3.85-.6,1.26-.91l.12-.1.52-.39.27-.2.43-.31,1.58-1.22,1.11-.84.72-.55.83-.63,1.71-1.3.76-.58,1-.72.43-.33.43-.33.58-.45.2-.16.13-.11.45-.34c.11-.09.24-.18.36-.26l.28-.2.17-.13,1.08-.78.26-.18.36-.25.26-.17.43-.29.67-.46.66-.45c.44-.31.88-.61,1.3-.93l.18-.13.44-.33.34-.26.33-.26.34-.25c.76-.58,1.54-1.16,2.3-1.76l1.12-.87.91-.7.38-.3,1.19-1,1.25-1,1.26-1,.42-.35.8-.65.66-.54.54-.44.57-.47.23-.2.43-.36,1.26-1,.9-.72c.17-.14.35-.27.54-.41s.47-.34.71-.52c.42-.32.83-.67,1.23-1l.52-.48.14-.13.14-.14a1.46,1.46,0,0,0,.16-.19.79.79,0,0,0,.09-.23.29.29,0,0,0,0-.13.67.67,0,0,0-.11-.2.57.57,0,0,0-.21-.14l-.15-.06-.19-.05-.32,0-.74-.06c-1-.06-2-.07-3-.08H324.69Zm-62.19,2.31h.58a85.36,85.36,0,0,0-1,9.73c-.06,1.71-.1,3.44-.13,5.16l0,.54V577c-.05,2.67-.11,5.43-.27,8.13-.33,5.39-.52,9.84-.61,14,0,1.91-.07,3.88-.09,6q0-.87-.15-1.74c-.06-.48-.13-1-.22-1.44l-.1-.54q-.11-.5-.18-1c0-.22,0-.43-.05-.66v-1.19c0-.49,0-1,0-1.49,0-1,0-2,0-3s.06-1.93.11-2.9.14-1.89.29-3c.08-.56.15-1.08.23-1.6l.09-.72,0-.15,0-.15v-.12a2.89,2.89,0,0,0,0-.29c0-.16,0-.33,0-.5v-.29c0-.31,0-.61,0-.92v-8c0-2.09,0-4.18.05-6.27,0-1,0-2,.09-3v-.32c0-.42.05-.85.08-1.27l.06-.74c0-.32.06-.59.1-.85l.07-.39a4.48,4.48,0,0,1,.21-.77,1,1,0,0,1,.15-.27l.08-.09a1,1,0,0,1,.29-.16h0l.13,0Z" fill="#404040"/><path d="M262.07,563.28a.26.26,0,0,0-.12.15c-.06.44-.13.88-.2,1.33a.25.25,0,0,0-.21.18c0,.22-.09.45-.12.67s0,.24,0,.37l-.07.54a1,1,0,0,0,0,.24c0,.32-.06.63-.08,1,0,.14,0,.29,0,.43v-4.07a.26.26,0,0,0-.25-.25.25.25,0,0,0-.25.25c0,2.16,0,4.32,0,6.48V577c0,1.19,0,2.38,0,3.57,0,.49,0,1,0,1.48s0,1.1-.08,1.66c-.13,2.18-.27,4.36-.39,6.54,0,.58-.06,1.17-.08,1.76,0,.25,0,.52,0,.77s0,.55,0,.83c0,1,.15,2,.24,3a2.28,2.28,0,0,1,0,.26l-.06.52a1.8,1.8,0,0,1,0,.22c0,.1,0,.2,0,.3a2,2,0,0,1,0,.24.41.41,0,0,0,.07.11.24.24,0,0,0,.16.07q.06.79.09,1.59.07,1.53.09,3.06c0,.87,0,1.73,0,2.59a.26.26,0,0,0,.25.25.25.25,0,0,0,.25-.25c0-.48,0-1,0-1.45v-13c0-.54,0-1.09,0-1.63v-1.65c0-1,0-2,0-3q0-3.31.08-6.62c0-.59,0-1.18,0-1.77l0-1.27c0-.65,0-1.31.05-2l0-.2c0-.54.07-1.09.1-1.64l0-.27v19.3c0,2.65,0,5.29,0,7.93a.22.22,0,0,0,0,.08c0,.15,0,.29,0,.44a.25.25,0,0,0,.25.25.26.26,0,0,0,.25-.25c0-.57,0-1.15,0-1.72s0-1,0-1.5l.06-3.43c0-2.13.1-4.27.18-6.4,0-.88.07-1.75.11-2.63,0,3.31,0,6.62.06,9.93,0,.61,0,1.23,0,1.84,0,.27,0,.54,0,.81s0,.34,0,.52,0,.25,0,.37a1.84,1.84,0,0,0,0,.33.53.53,0,0,0,.06.24.23.23,0,0,0,.23.18.25.25,0,0,0,.25-.18l.06-.37c0-.16,0-.32,0-.48s0-.27,0-.42,0-.51.07-.76c0-.59.09-1.18.14-1.77,0-.31.06-.61.08-.92,0,.31,0,.63,0,.94,0,.54.06,1.08.09,1.61s.06.92.1,1.38.07.69.11,1c0,.14,0,.28.07.42l0,.15a1.88,1.88,0,0,0,.06.31l0,.05a.5.5,0,0,0,.1.19,1.39,1.39,0,0,0,.19.15.26.26,0,0,0,.35-.09,2,2,0,0,0,.16-.29.78.78,0,0,1,.05-.14,1.53,1.53,0,0,0,.07-.29,5.13,5.13,0,0,0,.13-.66c0-.27.07-.53.11-.8s.05-.48.07-.73l0,.57c0,1.08.08,2.16.14,3.24l.15,2.76a.25.25,0,0,0,.25.25.25.25,0,0,0,.25-.25c-.07-1.28-.14-2.57-.2-3.85-.05-1.09-.1-2.17-.13-3.25s-.07-2.22-.1-3.33v-.13l0-.3c.05-.56.08-1.13.12-1.69s.05-1.09.07-1.64c.05-1,.09-2,.15-3.08s.1-2,.16-3c0-.84.1-1.68.14-2.53l.09-1.74c0-.14,0-.27,0-.4v-.89c0-.47,0-.94,0-1.42s0-1,0-1.56a.28.28,0,0,0-.19-.25.32.32,0,0,0-.19,0,.3.3,0,0,0-.12.15l0,.31c0,.1,0,.21,0,.31s0,.29,0,.44l0,.82c0,.54,0,1.08-.05,1.62,0,1-.06,2.09-.1,3.13-.09,2.17-.19,4.34-.32,6.5,0,.57-.07,1.14-.1,1.71l-.06,1c0,.25,0,.49,0,.73s0,.35,0,.52a1.28,1.28,0,0,0,0,.19v1.09l0,.35c-.07.89-.16,1.78-.25,2.66s-.18,1.69-.29,2.53v-.06a6.69,6.69,0,0,1-.16.75v-.07c0-.16-.06-.32-.08-.49a.06.06,0,0,0,0,0c-.09-.68-.14-1.37-.2-2.06l0-.67-.06-1c0-.17,0-.35,0-.53,0-.39,0-.79,0-1.18s0-1,0-1.49c0-.66,0-1.32,0-2l.15-1.5c.06-.57.1-1.15.16-1.73l0-.56.06-1.1q.11-1.57.18-3.15c0-.5.05-1,.07-1.5s.05-1.06.05-1.59c0-2.25,0-4.5-.09-6.76,0-.18,0-.36,0-.55s0-.25,0-.37,0-.36-.05-.53a.24.24,0,0,0-.07-.18.25.25,0,0,0-.24-.07.34.34,0,0,0-.16.08.65.65,0,0,0-.11.22v.06c0,.09,0,.19,0,.28s0,.09,0,.13c0,.28-.06.56-.08.84l-.12,1.48c-.08,1.13-.16,2.25-.23,3.38,0,.24,0,.49,0,.73l0,.69c0,.54,0,1.07,0,1.6,0,1.08,0,2.16,0,3.24,0,2.24.05,4.49.09,6.72v.16l0,.3q-.18,1.65-.33,3.3c0,.43-.08.85-.11,1.28v-.13c0-1.1,0-2.19,0-3.29q0-3.21,0-6.44,0-6.5,0-13v-3.75a.23.23,0,0,0,0-.14v-1c0-.22,0-.43,0-.65v-.41l0-.24a.61.61,0,0,0-.05-.12.24.24,0,0,0-.28-.11.26.26,0,0,0-.18.24c0,.63-.07,1.27-.1,1.9l-.06,1.46-.12,2.6v-4c0-.07,0-.15,0-.23l.12-.89c.08-.52.15-1,.24-1.58a.25.25,0,0,0,0-.19.26.26,0,0,0-.15-.12h-.06a.28.28,0,0,0-.13,0Zm-.51,1.79Zm2.34,15.64c0-.56,0-1.11,0-1.65v-.93c0-.25,0-.5,0-.74s0-.49,0-.73l.05-1,.09-1.6c0-.44.06-.88.1-1.33l0,1.26c0,.6,0,1.19,0,1.79s0,1.18,0,1.77c0,.19,0,.37,0,.56,0,.38,0,.77,0,1.15s-.06,1.07-.08,1.6l-.09,1.48c0,.3,0,.61-.05.91,0-.85,0-1.71,0-2.56Z" fill="#404040"/></g><g id="Draw_Layer-3" data-name="Draw Layer"><path d="M292.74,0h-.91A48,48,0,0,0,277.52,2.6c-2.07.69-4.53,1.55-7,2.61a27.3,27.3,0,0,0-5.18,2.7A75.26,75.26,0,0,0,258.13,14l-.22.21c-.78.72-1.54,1.47-2.29,2.22l-1,1a37.21,37.21,0,0,1-2.83,2.49,34.93,34.93,0,0,1-5.89,3.41l-3.36,1.53c-.48.22-1,.46-1.44.7l-.11.05-.11.06-.15.07-.26.13-1.06.53a12,12,0,0,1-1.46.45h-.1l-.56,0a17.4,17.4,0,0,1-3.05-.79c-.73-.26-1.43-.55-2.14-.84l-.14-.06c-1.69-.73-3.33-1.5-4.85-2.3-2.19-1.15-4.21-2.1-6.18-2.9a44.85,44.85,0,0,0-13.68-3.52c-.81-.06-1.67-.09-2.63-.09-1.19,0-2.45.05-3.82.14a44.32,44.32,0,0,0-7.77,1A47.93,47.93,0,0,0,185.91,20a43.89,43.89,0,0,0-5.62,2.9,40.93,40.93,0,0,0-5.84,4.56A62,62,0,0,0,169.92,32a58.35,58.35,0,0,0-8.5,11.67l-.58,1.08-.05.09c-.83,1.54-1.68,3.13-2.37,4.77l-.23.54,0,.09a62.7,62.7,0,0,0-2.25,5.88,54.29,54.29,0,0,0-2.15,13.72c-.06,1.54,0,3.07,0,4.55l0,1.42v.51c0,1.86,0,3.72.09,5.58s.16,3.9.33,6.55c.15,2.4.19,4.73.22,6.5,0,2.46.07,4.22.17,6.06.13,2.29.37,4.66.74,7.24a40.17,40.17,0,0,0,1.3,5.71c.15.55.34,1.1.52,1.65a25.81,25.81,0,0,1,.82,2.83,12.42,12.42,0,0,1,0,1.62l0,.15-.09.17a10.08,10.08,0,0,0-.61,1.49,23.07,23.07,0,0,1-.79,2.24c-.1.23-.19.45-.29.67s-.27.63-.41,1l-.21.48-.12.27c-.66,1.49-1.4,3.17-2,4.89a47.87,47.87,0,0,0-1.54,5.59,55.68,55.68,0,0,0-1,6.9c-.16,1.76-.15,3.55-.14,5.27v2.83c0,3.68,0,7.37,0,11.06a82.63,82.63,0,0,0,.91,12.84l.18,1.1a41.66,41.66,0,0,0,1.63,7.22,46.25,46.25,0,0,0,2.19,5l.68,1.39a10.44,10.44,0,0,1,.42,1.5c0,.35,0,.7,0,1.06v10.41c0,3.79,0,8,.4,12.14l0,.41c.23,2.37.43,4.5.57,6.67s.22,4.33.24,6.64c0,2.59.06,4.76.17,6.94.06,1.26.15,2.52.25,3.78.09,1.06.16,2.08.22,3.11.05.81.07,1.61.1,2.42,0,1,.07,2.08.14,3.12.13,1.84.35,3.67.57,5.38s.37,3.14.55,4.71c.29,2.52.57,5,.9,7.5.2,1.81.39,3.65.57,5.44l.12,1.15c.2,1.92.49,3.8.85,6.06l.09.54,0,.12c.12.77.24,1.54.35,2.31h0s0,.12,0,.12l0-.11c.37,3,.85,5.95,1.48,9.7l.08.48c.25,1.43.49,2.83.77,4.16.36,1.65.9,3.33,1.37,4.81l.15.46a4.64,4.64,0,0,0,3.32,4,4.36,4.36,0,0,0,1.18.16,4.62,4.62,0,0,0,4.37-3.31c.39-1.24.75-2.48,1.11-3.72.31-1.07.62-2.14.95-3.21.69-2.23,1.47-4.43,2.07-6.09l.6-1.64c.53-1.44,1.06-2.89,1.55-4.35.76-2.28,1.45-4.62,2-6.63,1-3.61,2.32-7.2,3.56-10.67l.55-1.53c1.26-3.53,2.4-7.17,3.5-10.69l.76-2.45.56-1.76c1.16-3.66,2.35-7.45,3.36-11.23.53-2,1-3.92,1.5-5.89.66-2.64,1.34-5.38,2.1-8,.7-2.45,1.39-4.91,2.07-7.36l1.62-5.78c.6-2.12,1.23-4.23,1.86-6.35.36-1.19.74-2.38,1.11-3.56.31-1,.62-1.91.91-2.87.64-2.11,1.23-4.27,1.79-6.35.24-.87.47-1.74.72-2.61.84-3.06,1.81-6.37,3-10.14,1.08-3.53,2.15-6.67,3.28-9.58l1-2.64c.69-1.82,1.4-3.69,2.15-5.52.7-.21,1.43-.38,2.16-.56l.76-.18c1.55-.38,3.08-.8,4.69-1.3,1.1-.34,2.19-.69,3.28-1.05,1.6-.52,3.24-1.06,4.88-1.53a141.22,141.22,0,0,1,18.3-3.86c4-.51,8.6-1.08,13.12-1.46,2.8-.24,5.65-.32,8.41-.39,1.77,0,3.54-.09,5.32-.18,4.68-.23,9.45-.68,13.56-1.08,2.17-.22,4.34-.4,6.52-.59,2.44-.21,4.89-.41,7.33-.66s4.72-.58,7-.91l1-.14c3.6-.41,7.26-.56,10.8-.69l2.62-.11,4.19-.2c3-.16,6.17-.32,9.27-.36l4.16,0c3.3,0,6.73,0,10.09-.23,4-.22,8.27-.34,13.53-.39h.78c2.19,0,4.46,0,6.69-.16l1.16-.06c1.85-.1,3.76-.2,5.63-.35,2.43-.2,4.9-.48,7.28-.75,2-.23,4.13-.46,6.2-.65,4.22-.37,8.54-.41,12.72-.45h8.43c1.81,0,3.95,0,6.09-.06,1.42,0,2.87-.11,4.26-.19l2.62-.13c2-.09,4.08-.15,6.63-.19q3.23,0,6.47,0c2,0,4-.12,5.91-.22l.75,0c2-.11,4.08-.17,6.12-.24,2.43-.07,4.94-.15,7.41-.3,3.7-.23,7.67-.35,12.88-.4l8.78,0h4.68c2,0,4.2,0,6.4-.16l1.47-.09c1.06-.05,2.12-.11,3.18-.21l1.2-.12c1.47-.14,3-.29,4.51-.39s3-.23,4.29-.38,2.55-.36,3.82-.56l2-.31a20.47,20.47,0,0,1,2.57-.2h.19c.33.19.65.41,1,.63l.36.32a16.19,16.19,0,0,1,.88,1.63,20.89,20.89,0,0,1,1,3.22l.13.69c.19,1,.38,1.92.54,2.88a31.78,31.78,0,0,1,.16,5.88c-.13,1.88-.38,3.79-.63,5.64l0,.3c-.55,3.71-1.28,7.44-2,11.05l-.38,1.93-.47,2.44-.69,3.56c-.31,1.57-.68,3.16-1,4.69l-.35,1.51c-1.14,5-2.1,9.48-2.93,13.77-.22,1.12-.42,2.24-.63,3.36-.22,1.28-.45,2.55-.7,3.82q-.67,3.42-1.37,6.86l-.59,2.94c-.85,4.17-1.72,8.48-2.39,12.76l-.2,1.27c-.16,1-.32,2-.44,3-.09.75-.16,1.51-.23,2.26-.05.48-.09,1-.14,1.44l-.12,1.09c-.2,1.94-.4,3.88-.64,5.81-.92,5.85-2.21,11.73-3.45,17.42-.35,1.55-.69,3.11-1,4.67-.26,1.18-.51,2.37-.77,3.55l-.38,1.77c-.11.52-.21,1-.3,1.55l-.18,1c-.07.38-.15.76-.23,1.13-.16.74-.32,1.5-.43,2.25s-.31,1.78-.52,2.77l-.09.42a7.83,7.83,0,0,0-.16,4,5.27,5.27,0,0,0,2.35,3.16,5.49,5.49,0,0,0,2.67.7,7,7,0,0,0,1.32-.14,9.6,9.6,0,0,0,2.75-1.18l1.18-.68c1.46-.84,3-1.7,4.51-2.44l.68-.27,1.74-.7a23.28,23.28,0,0,1,4.22-1.18c.69-.07,1.39-.15,2.07-.28a4.37,4.37,0,0,0,1.24,2.54,4.67,4.67,0,0,0,3.27,1.31,4.23,4.23,0,0,0,3.14-1.32,8.24,8.24,0,0,0,1.58-2.6l.16-.3a6.25,6.25,0,0,0,.65-1.68c.11-.59.27-1.18.42-1.71.3-1.11.64-2.19,1-3.22l0-.12.16-.49c.11-.33.21-.66.31-1,.44-1.4.88-2.8,1.33-4.2.8-2.53,1.62-5.15,2.4-7.77.6-2,1.13-4,1.75-6.35.46-1.75.92-3.49,1.42-5.22.58-2,1.25-4,1.91-6l.09-.28,0-.13c.58-1.7,1.18-3.45,1.71-5.23.36-1.17.75-2.35,1.15-3.51.23-.68.45-1.36.67-2,.39-1.19.75-2.39,1.11-3.59.25-.82.5-1.63.76-2.45.36-1.14.72-2.28,1.09-3.42l.07-.22c.94-2.94,1.89-5.9,2.69-8.85,1.09-4,1.95-7.93,2.95-12.64q.53-2.57,1-5.13l.21-1.06q.27-1.4.57-2.79c.22-1.07.44-2.13.65-3.2.13-.69.27-1.38.41-2.07l.07-.36c.25-1.24.53-2.64.75-4,.47-2.88.89-5.65,1.23-8.26a.17.17,0,0,0-.06.11l.33-1.93c.28-2,.56-4,.83-6l-.1.26c.14-.7.22-1.42.3-2.15l.21-1.85q.22-1.55.48-3.09l.08-.51.07-.41c.28-1.73.54-3.37.77-5,.06-.46.13-.95.19-1.46l.08-.59.05-.42.16-1.29c.18-1.31.35-2.64.52-4,.15-1,.35-1.95.54-2.91l.05-.26,0-.2a42.55,42.55,0,0,0,1-6.2c.08-1.7.2-3.3.36-4.88a38.47,38.47,0,0,0,.12-4.55v-.54c0-.31,0-.61,0-.91,0-3.7,0-6.77-.29-10-.06-.84-.17-1.7-.28-2.52l0-.21,0-.21c-.08-.64-.16-1.28-.21-1.92-.15-1.84-.43-3.66-.7-5.42l0-.1-.14-.94c-.11-.78-.23-1.56-.35-2.33l-.09-.54L567.1,100v.44c-.06-.88-.2-1.75-.34-2.6l-.08-.48c-.11-.69-.21-1.33-.3-2a32.66,32.66,0,0,0-1.32-5.58c-.55-1.69-1.09-3.4-1.63-5.1l-.19-.59-.09-.32-.33-1-.1-.34-1-3c-1-3-2-5.87-3.09-8.62-.78-2-1.72-4-2.86-6.27-.09-.19-.18-.37-.26-.56l-.13-.28a17.62,17.62,0,0,0-.85-1.64,23.62,23.62,0,0,0-1.62-2.26c-.94-1.29-1.68-2.37-2.31-3.39a33,33,0,0,0-3.15-4.22l-.37-.43a29.4,29.4,0,0,0-2.46-2.65,45.4,45.4,0,0,0-3.81-3l-.55-.4-1.76-1.43-.16-.13-.2-.16c-.8-.66-1.61-1.32-2.43-1.95-1.68-1.29-3.4-2.44-5-3.48a60.76,60.76,0,0,0-10.43-5.09l-1.73-.75c-1.1-.49-2.2-1-3.3-1.43-1.7-.71-3.48-1.35-5-1.9-2.07-.74-3.68-1.31-5.35-1.86-2.06-.68-4.29-1.25-5.76-1.63l-1.63-.43c-1.39-.37-2.87-.76-4.33-1.08l-2.64-.55-.81-.17L486.68,23c-1.2-.26-2.4-.54-3.6-.82-1-.23-2-.47-3-.69-1.86-.42-3.68-.74-5.84-1.09-2.74-.46-5.44-.85-8.27-1.2-1.23-.16-2.47-.28-3.71-.4l-.39,0-.35,0c-1.14-.11-2.28-.22-3.42-.35l-.87-.13h-.1c-1.87-.28-4-.58-6.08-.8-1.66-.16-3.36-.24-5-.31h-.25l-1.4-.07-2.53-.13-.48,0c-1.27-.08-2.55-.15-3.83-.2s-2.56-.07-3.84-.09-2.23,0-3.34-.08c-1.7-.06-3.4-.15-5.1-.24l-1.37-.08c-1.47-.07-3-.08-4.23-.08H416.9c-4.62,0-9.25,0-13.88.06-5.16,0-9.33.22-13.12.54-.94.09-1.87.15-2.81.21l-.4,0-.41,0-.63,0-1.91.13-2.9.23c-1.31.12-2.6.23-3.89.31-5.21.34-9.44.76-13.31,1.3-2.27.32-4.57.69-6.56,1l-.59.09c-1.74.29-3.47.57-5.2.82l-3,.41c-1.1.14-1.94.25-2.8.41l-.93.2-.14,0-1.11.23-1.59.29-1.55.28h-.45l-.17-.25-.11-.15-.25-.33c-.47-.61-1-1.18-1.51-1.73l-.37-.41a23.4,23.4,0,0,0-3.07-2.63l-.4-.31-.22-.17a24.28,24.28,0,0,0-2.92-2c-1-.53-1.91-1.1-2.85-1.66l-.14-.09-.35-.21-.35-.21-.28-.17c-.86-.51-1.72-1-2.61-1.51A35.3,35.3,0,0,0,319,8.74l-.28-.1c-.55-.2-1.1-.4-1.64-.62-.95-.44-1.8-.87-2.61-1.33-.53-.31-1.05-.63-1.57-1s-1-.63-1.52-.92a32.43,32.43,0,0,0-6.47-3A42.24,42.24,0,0,0,292.74,0Z" fill="#404040"/></g><g id="Draw_Layer-4" data-name="Draw Layer"><path d="M517.14,134.34l-.81,0c-1.37,0-2.74,0-4.11.06-2.45.05-5.35.12-8.31.27s-5.91.45-8.93.82c-1.75.22-3.58.5-5.07.73h0a51.66,51.66,0,0,0-2.32,5.18,15.58,15.58,0,0,0,1.24,14,19,19,0,0,0,5.14,5,19.45,19.45,0,0,0,5.72,2.82,27.07,27.07,0,0,0,5.56.86l.3,0a17.82,17.82,0,0,0,1.84.08,29.57,29.57,0,0,0,4.44-.37,35,35,0,0,0,4.43-1l-.06.1a45.13,45.13,0,0,0-4.6,4.75c-2.09,2.53-4.06,5.36-4.31,8.87a7.23,7.23,0,0,0,3.5,7.11,5.86,5.86,0,0,0,2.76.67,9.79,9.79,0,0,0,5.48-2,28.88,28.88,0,0,0,3.25-2.48c.83-.76,1.6-1.56,2.56-2.6.47-.49.92-1,1.35-1.53l0,.08V176c-.09,1.95-.24,3.93-.38,5.85l0,.26c-.12,1.47-.23,3-.31,4.49l-.13,2.05-.12,2-.11,1.17c0,.52-.09,1.05-.14,1.6l.68-.89a4.55,4.55,0,0,0,.63-2.3c.14-1.15.26-2.3.38-3.45l0-.34,0-.35c.11-1.07.21-2.1.35-3.14a47.16,47.16,0,0,0,.29-6.23c0-5.61,0-9.25-.14-13.22-.15-5.27-.43-9.59-.89-13.57-.2-1.67-.45-3.3-.69-4.89l0-.25-.13-.86-.08-.54c-.05-.39-.11-.79-.17-1.18a12.84,12.84,0,0,0-.67-3,17.69,17.69,0,0,0-.92-2.08,5.23,5.23,0,0,0-4.43-2.78l-.95,0Z" fill="#f3d4ca"/><path d="M276.9,227.17c-1,.16-2.1.34-3.15.53l-.63.1-2.34.39-.37.06a47.24,47.24,0,0,0-6,1.18c-2,.59-4,1.29-6,2s-4.06,1.37-6.47,2.06a4.49,4.49,0,0,0,1.21,8.81,4.59,4.59,0,0,0,1.17-.16c2.28-.66,4.17-1.22,6.09-1.92l.5-.19c1.8-.65,3.66-1.33,5.54-1.86.92-.27,2-.57,3-.77.74-.14,1.48-.25,2.23-.36l1.11-.17c1.09-.16,2.18-.35,3.28-.54l.58-.09c.89-.16,1.77-.3,2.66-.44a4.31,4.31,0,0,0,2.68-2.06,4.48,4.48,0,0,0-1.61-6.13l-1.08-.46a4.77,4.77,0,0,0-1.18-.15,4.5,4.5,0,0,0-1.2.16Z" fill="#f3d4ca"/><path d="M402.4,241.39a58.85,58.85,0,0,0-7,1.16,38.26,38.26,0,0,0-4.83,1.53l-.71.26c-1.19.43-2.37.89-3.55,1.35l-.51.2c-.76.3-1.53.6-2.3.88a4.88,4.88,0,0,0-2.68,2.06,4.59,4.59,0,0,0-.45,3.46,4.54,4.54,0,0,0,2.06,2.68,4.84,4.84,0,0,0,2.34.64,3.19,3.19,0,0,0,1.11-.19l2.41-.93c1.94-.76,3.94-1.54,5.94-2.22l.46-.15a28,28,0,0,1,3.43-1l1.05-.21c.86-.18,1.72-.35,2.59-.5,2.48-.26,4.92-.34,7-.39a4.48,4.48,0,1,0,0-9c-2,0-4.17.1-6.3.32Z" fill="#f3d4ca"/><path d="M393.91,286.49a4.81,4.81,0,0,0-2.47,1.25c-2,1.75-3.9,3.51-5,6a23.08,23.08,0,0,0-1.3,3.65,34.65,34.65,0,0,0-.64,3.83c-.32,2.66-.53,5,.22,7.29a7.67,7.67,0,0,0,5.23,5,6.19,6.19,0,0,0,1.61.22,7.36,7.36,0,0,0,5.53-2.77,14.83,14.83,0,0,0,2.09-3.23,33.35,33.35,0,0,0,1.57-4.14,39.19,39.19,0,0,0,1.42-6.13l.09-.62a17.59,17.59,0,0,0,.14-6.34,7,7,0,0,0-1.77-3.27,5.27,5.27,0,0,0-3.84-1.6,5.08,5.08,0,0,0-2.91.89Z" fill="#f3d4ca"/><path d="M263.44,288.23a4.75,4.75,0,0,0-2.06,2.68c-.22.6-.45,1.2-.71,1.83a29.17,29.17,0,0,0-1.16,3.21,38.18,38.18,0,0,0-1.1,6.24c-.1.85-.17,1.69-.2,2.49a17,17,0,0,0,.32,4,7.47,7.47,0,0,0,1.61,3.16,6.64,6.64,0,0,0,3,2c.5.09,1,.16,1.51.21a7.53,7.53,0,0,0,1.81-.27,6.89,6.89,0,0,0,3.19-2.19A17.6,17.6,0,0,0,273,304c.27-1.16.47-2.15.61-3.09l.08-.47a20.12,20.12,0,0,0,.33-3.1,13.67,13.67,0,0,0-.17-2.11,7.52,7.52,0,0,0-1.22-3.84,8.06,8.06,0,0,0-4.5-3.32,5.09,5.09,0,0,0-.83-.13l-.43-.14a5,5,0,0,0-1.17-.14,4.52,4.52,0,0,0-2.28.6Z" fill="#f3d4ca"/><path d="M532.82,307.27l-.63.08a4.6,4.6,0,0,0-2,1.15A12.54,12.54,0,0,0,528,311l-.44.58,0-.06c-1.4,1.82-2.8,3.75-4,5.44s-2.3,3.16-3.48,4.73-2.59,3.43-3.75,5.32a61.31,61.31,0,0,0-3,5.6l-.38.78a4.64,4.64,0,0,0-.45,3.45A4.53,4.53,0,0,0,518.1,340a4.44,4.44,0,0,0,2.68-2.06l.35-.73.09-.19c.8-1.65,1.63-3.36,2.59-5s2-3,3-4.45l.8-1.09c.42-.58.86-1.15,1.3-1.73l.19-.26c.56-.74,1.13-1.48,1.67-2.23,1.57-2.22,2.82-3.94,4.07-5.6l.13-.16a10.46,10.46,0,0,1,1.54-1.65,4.29,4.29,0,0,0,1.31-3.17,4.46,4.46,0,0,0-4.47-4.47l-.56.07Z" fill="#f3d4ca"/><path d="M324.73,330.65a4.37,4.37,0,0,0-2.69,2.07,102.9,102.9,0,0,0-5,13c-.41,1.42-.8,2.84-1.2,4.27l-.06.23c-.72,2.59-1.46,5.26-2.3,7.86-1.14,3.57-2.17,7.46-3.33,12.61-.74,3.24-1.69,6.44-2.61,9.54-.32,1.08-.64,2.15-.95,3.22l-.35,1.24c-.4,1.38-.84,2.94-1.36,4.47l-.77,2.32-.41,1.21-.61,1.81c-.1.33-.21.67-.3,1-.16.51-.31,1-.5,1.53-.09.26-.19.53-.29.79-.16.41-.3.8-.44,1.21a4.93,4.93,0,0,0,2.33,5.75,8.38,8.38,0,0,0,3.67.79c.26,0,.52,0,.78,0l.29,0c1.9-.14,3.63-.26,5.38-.31s3.68-.08,5.58-.08c1.32,0,2.66.07,3.95.14h.26l1.46.08c.49,0,1,0,1.47,0,1.06,0,2.13-.05,3.17-.09h.14l1.4-.06a4.48,4.48,0,0,0,.14-9h-.14l-1.22,0h-.14c-1.12,0-2.27.09-3.4.09q-.82,0-1.65,0l-1.2-.07c-1.5-.08-3-.16-4.58-.16h-.4c-1.68,0-3.88,0-6.09.11h-.83l.88-2.6.48-1.44.48-1.44c.42-1.25.79-2.58,1.12-3.75.22-.79.44-1.57.67-2.35l.52-1.76.52-1.76.82-2.75c.68-2.31,1.25-4.76,1.74-6.92l.06-.25c.46-1.94.93-3.94,1.48-5.9s1.09-3.74,1.64-5.61l.17-.58q.93-3.12,1.82-6.26c.61-2.26,1.28-4.66,2-7.07s1.62-4.54,2.33-6.24l1.07-2.42.46-1.08a4.51,4.51,0,0,0-5.51-5.51Z" fill="#f3d4ca"/><path d="M448.38,502.93c-.23.3-.47.59-.7.88l-.56.76a8.42,8.42,0,0,1-.78.95h0l-.11.14h0l0,0,0,0h0l0,0,0,0h0c-2.41,3.2-5,6.13-7.17,8.62a6.39,6.39,0,0,1-.5.54c-.53.56-1.1,1.09-1.68,1.63s-1.18,1.08-1.77,1.73l-.7.74-.65.68-.45.47c-.45.45-.89.91-1.32,1.37-.74.78-1.5,1.53-2.28,2.29l-.14.15c-.56.55-1.13,1.1-1.68,1.66l-.79.79c-1,1-1.78,1.76-2.52,2.44l-.71.64c-1,1-2.1,1.92-3.27,2.84-1,.77-2,1.53-3,2.28l-1.37,1-1,.78-.36.28a44.62,44.62,0,0,1-4,2.8l-.13.08c-1.08.67-2.16,1.34-3.23,2-.58.37-1.15.75-1.72,1.14l-.32.21c-.47.32-.95.65-1.43,1l-.52.35-.15.11c-.37.24-.75.49-1.13.71l-.37.23-.2.11-.11.06-.13.07-.14.08c-.33.18-.65.36-1,.56l-.76.47-.84.54a17.47,17.47,0,0,1-1.58.88c-.47.25-1,.48-1.45.71l-.16.08-.38.17-1.71.82-1.3.67-.3.15-.24.13c-.68.35-1.37.7-2.07,1-1.3.6-2.66,1.11-4,1.59l-.11,0-.27.09c-1,.46-2.07,1-3,1.48L382,555l-.22.12c-.57.29-1.14.59-1.72.87-1.85.93-3.82,1.81-5.41,2.52l-.16.07-.67.3-.34.15-.24.11a46.58,46.58,0,0,1-10.85,3.5c-2,.34-4,.85-5.87,1.35-1.67.44-3.55.94-5.49,1.3-1.31.24-2.61.53-3.83.81l-.16,0-.27.06-1.85.4c-2,.42-3.94.72-6.12,1.06-2.95.43-5.52.75-7.85,1-1.45.14-2.89.24-4.35.33l-2.05.15h-.27l-.19,0-2,.14c1.09,0,2.21,0,3.28,0,1.56,0,3,0,4.44-.09,5.43-.24,10-.48,14.68-1.1a150,150,0,0,0,14.76-2.89c4.27-1,8.86-2.16,13.45-3.46,2.17-.61,4.26-1.33,6.57-2.14a29.52,29.52,0,0,0,2.78-1.15l1.42-.63c.75-.32,1.51-.7,2.23-1.06l1.09-.55a80,80,0,0,0,11.59-7.38l2-1.47c3.1-2.25,6.31-4.58,9.54-6.58,1.46-.9,3-1.77,4.45-2.61l.23-.12.32-.19.11-.06,1.33-.75,1-.57a56.58,56.58,0,0,0,4.87-2.95c1.94-1.37,3.92-3,5.37-4.12l.09-.07.78-.63a46.29,46.29,0,0,0,4.85-4.41c1.72-1.84,3.3-3.63,4.84-5.48,1.74-2.09,3.32-4.37,4.78-6.51a113.37,113.37,0,0,0,6.22-10.56c-.27.36-.56.73-.85,1.1Z" fill="#f3d4ca"/><path d="M506.17,122.65a32.34,32.34,0,0,0-3.32,1,17.45,17.45,0,0,0-4.61,2.45,24.13,24.13,0,0,0-4.54,4.49,41.48,41.48,0,0,0-3.53,5.18c-.09.16-.18.32-.26.48v0a51.66,51.66,0,0,0-2.32,5.18,15.58,15.58,0,0,0,1.24,14,19,19,0,0,0,5.14,5,19.45,19.45,0,0,0,5.72,2.82,27.07,27.07,0,0,0,5.56.86l.3,0a17.82,17.82,0,0,0,1.84.08,29.57,29.57,0,0,0,4.44-.37,35,35,0,0,0,4.43-1l0,0a36.51,36.51,0,0,0,5-1.86,41.18,41.18,0,0,0,8-4.95,45,45,0,0,0,7.14-6.79,4.78,4.78,0,0,0,1.32-3.18,4.51,4.51,0,0,0-4.5-4.5A4.32,4.32,0,0,0,530,143a45.34,45.34,0,0,1-6.49,6.28,41,41,0,0,1-6.57,3.92,37.36,37.36,0,0,1-7.34,2,28.68,28.68,0,0,1-5.48-.15,18.77,18.77,0,0,1-2.87-.7,22.07,22.07,0,0,1-2.91-1.76,16.36,16.36,0,0,1-1.69-1.64,13.07,13.07,0,0,1-.67-1.14,12.33,12.33,0,0,1-.51-1.8,13,13,0,0,1,0-1.53,23.08,23.08,0,0,1,1.18-3.64,37.87,37.87,0,0,1,3.8-6.4,23.63,23.63,0,0,1,2.81-2.94,15,15,0,0,1,2-1.2c1.08-.38,2.17-.69,3.28-1a4.49,4.49,0,0,0-1.24-8.82,4.48,4.48,0,0,0-1.15.15Z" fill="#404040"/><path d="M505.14,127.27c-.87,1-1.75,2-2.64,3s-1.78,2.19-2.63,3.31c-.62.82-1.22,1.69-1.78,2.56s-.93,1.5-1.33,2.29a29.9,29.9,0,0,0-1.19,2.87,21.89,21.89,0,0,0-.95,2.94,17.73,17.73,0,0,0-.48,2.87l0,.83c.07.64.15,1.29.24,1.94a6.88,6.88,0,0,0,1.69,3.21,8.26,8.26,0,0,0,1.88,1.34,6.82,6.82,0,0,0,2.7.72,8.51,8.51,0,0,0,1,0,4.4,4.4,0,0,0,.79.29,8.44,8.44,0,0,0,4.75-.12,10.06,10.06,0,0,0,1.38-.53,5,5,0,0,0,1.95,1.06,7.61,7.61,0,0,0,5-.37,13.56,13.56,0,0,0,2.37-1.21,18.2,18.2,0,0,0,1.74-1.29,10.81,10.81,0,0,0,1.5.06,11.23,11.23,0,0,0,3.91-1c.58-.23,1.14-.49,1.69-.77a7.49,7.49,0,0,0,3.49-.12,8.42,8.42,0,0,0,2.42-1c.42-.23.81-.48,1.21-.75a4.68,4.68,0,0,0,2.07-2.69,4.52,4.52,0,0,0-.15-2.84c.53-.62,1-1.28,1.48-1.93a6.9,6.9,0,0,0,1.27-2.39c.1-.51.17-1,.22-1.54a5,5,0,0,0-.72-2.46,4.42,4.42,0,0,0-3.88-2.23,6.65,6.65,0,0,0-1.35.19l0-.25a6.13,6.13,0,0,0-.75-2.8,5.18,5.18,0,0,0-4.33-2.4,5.7,5.7,0,0,0-2.42.57,4.63,4.63,0,0,0-1.47-1.38,6.33,6.33,0,0,0-2.15-1l-1.2-.16c-.59,0-1.18.13-1.77.22a11.33,11.33,0,0,0-2.11,1,15.13,15.13,0,0,0-2.47,2.19,7.11,7.11,0,0,0-.82-.34,6.38,6.38,0,0,0-.72-.19,4.51,4.51,0,0,0-4.36-3,4,4,0,0,0-3.07,1.31Z" fill="#404040"/><path d="M517.33,143.61l-1.65.22a11.2,11.2,0,0,0-2.06.56,20.56,20.56,0,0,0-4.5,2.18,9,9,0,0,0-3.34,3.28,6.45,6.45,0,0,0-.59,1.87,4.65,4.65,0,0,0-2.17,5.17,4.53,4.53,0,0,0,2.07,2.7,4.71,4.71,0,0,0,3.47.45,45.11,45.11,0,0,0,4.87-1.24,36.4,36.4,0,0,0,4.82-2,12.16,12.16,0,0,0,3-2.14,4.14,4.14,0,0,0,1.07-1.2,6.48,6.48,0,0,0,1.35-5.59,5.76,5.76,0,0,0-4.62-4.09,4.87,4.87,0,0,0-1.25-.16,3,3,0,0,0-.42,0Z" fill="#404040"/><path d="M532.48,150.45c-1,.52-2,1-2.93,1.55a22.07,22.07,0,0,0-2.63,1.78c-2,1.51-4,3.1-5.85,4.77-1.63,1.44-3.22,2.93-4.83,4.39l0,.06a45.13,45.13,0,0,0-4.6,4.75c-2.09,2.53-4.06,5.36-4.31,8.87a7.23,7.23,0,0,0,3.5,7.11,5.86,5.86,0,0,0,2.76.67,9.79,9.79,0,0,0,5.48-2,28.88,28.88,0,0,0,3.25-2.48c.83-.76,1.6-1.56,2.56-2.6.47-.49.92-1,1.35-1.53a0,0,0,0,1,0,0c1.14-1.37,2.21-2.8,3.26-4.22,2-2.72,3.9-5.54,5.89-8.28a4.69,4.69,0,0,0,1.2-3,4.41,4.41,0,0,0-.32-1.65l.78-.41a4.54,4.54,0,0,0,1.62-6.16,4.45,4.45,0,0,0-3.87-2.19,4.81,4.81,0,0,0-2.29.58ZM516.27,177.1h0s0,0,0,0,0,0,0,0Z" fill="#404040"/><path d="M531.15,159.88a3.22,3.22,0,0,0-1.1.87,6.43,6.43,0,0,0-.7,1,4.6,4.6,0,0,0-2.89,4.2c-.07,3.31-.1,6.63-.25,9.94h0V176c-.09,1.95-.24,3.93-.38,5.85l0,.26c-.12,1.47-.23,3-.31,4.49l-.13,2.05-.12,2-.11,1.17c0,.48-.08,1-.13,1.45-.13,1.69-.23,3.38-.3,5.08-.13,2.82-.07,5.65-.07,8.47,0,2.56-.08,5.15.07,7.71a5,5,0,0,0,1.35,3.2l-.21,2.82q-.32,4.26-.61,8.51c-.18,2.45,2.18,4.5,4.5,4.5a4.52,4.52,0,0,0,3.18-1.31,4.73,4.73,0,0,0,1.32-3.19c.7-9.77,1.43-19.53,2-29.31.14-2.33.26-4.67.41-7s.45-4.66.67-7,.46-4.85.62-7.28.21-4.58.32-6.87a54.32,54.32,0,0,0,0-6.38,18.33,18.33,0,0,0-.3-2.33,3.82,3.82,0,0,0-.6-1.37,4.63,4.63,0,0,0-1.61-1.62c-.39-.16-.77-.33-1.16-.48a2.81,2.81,0,0,0-1.06-.2,5.84,5.84,0,0,0-2.41.65Z" fill="#404040"/><path d="M159.32,126.5a44,44,0,0,0-3.5,6.25c-.8,2-1.46,4.09-2.13,6.15s-1.05,4.09-1.49,6.15a60.57,60.57,0,0,0-1.14,7.7c-.18,2.11-.47,4.2-.63,6.3s-.23,4.38-.26,6.57c0,2.41,0,4.82-.06,7.23,0,2.22,0,4.43.14,6.64a89.64,89.64,0,0,0,1.18,9.07c.49,2.94,1,5.89,1.64,8.8s1.43,6,2.11,9,1.45,5.81,1.92,8.76c.07.68.12,1.36.17,2,.06,1.05.25,2.09.41,3.13l.33,2.45c.28,2.22.61,4.42,1,6.63.43,2.62,1,5.2,1.64,7.78a4.5,4.5,0,0,0,8.68-2.4c-.89-3.7-1.63-7.41-2.18-11.17-.13-1.07-.27-2.13-.42-3.2s-.26-1.94-.4-2.9c-.15-1.47-.24-2.93-.45-4.39s-.61-3.05-.93-4.57c-.6-2.86-1.3-5.71-2-8.55-1.32-5.31-2.34-10.71-3.18-16.12a62.12,62.12,0,0,1-.61-7.59c0-3.07,0-6.13,0-9.2s.1-5.87.34-8.8c.1-1.31.3-2.62.43-3.93s.23-2.58.38-3.87a72.67,72.67,0,0,1,3.92-14.63c.83-1.68,1.91-3.22,2.87-4.82a4.54,4.54,0,0,0-1.61-6.16,4.4,4.4,0,0,0-2.23-.6,4.6,4.6,0,0,0-3.93,2.22Z" fill="#404040"/><path d="M532.82,307.27l-.63.08a4.6,4.6,0,0,0-2,1.15A12.54,12.54,0,0,0,528,311l-.44.58,0-.06c-1.4,1.82-2.8,3.75-4,5.44s-2.3,3.16-3.48,4.73-2.59,3.43-3.75,5.32a61.31,61.31,0,0,0-3,5.6l-.38.78a4.64,4.64,0,0,0-.45,3.45A4.53,4.53,0,0,0,518.1,340a4.44,4.44,0,0,0,2.68-2.06l.35-.73.09-.19c.8-1.65,1.63-3.36,2.59-5s2-3,3-4.45l.8-1.09c.42-.58.86-1.15,1.3-1.73l.19-.26c.56-.74,1.13-1.48,1.67-2.23,1.57-2.22,2.82-3.94,4.07-5.6l.13-.16a10.46,10.46,0,0,1,1.54-1.65,4.29,4.29,0,0,0,1.31-3.17,4.46,4.46,0,0,0-4.47-4.47l-.56.07Z" fill="#404040"/><path d="M276.9,227.17c-1,.16-2.1.34-3.15.53l-.63.1-2.34.39-.37.06a47.24,47.24,0,0,0-6,1.18c-2,.59-4,1.29-6,2s-4.06,1.37-6.47,2.06a4.49,4.49,0,0,0,1.21,8.81,4.59,4.59,0,0,0,1.17-.16c2.28-.66,4.17-1.22,6.09-1.92l.5-.19c1.8-.65,3.66-1.33,5.54-1.86.92-.27,2-.57,3-.77.74-.14,1.48-.25,2.23-.36l1.11-.17c1.09-.16,2.18-.35,3.28-.54l.58-.09c.89-.16,1.77-.3,2.66-.44a4.31,4.31,0,0,0,2.68-2.06,4.48,4.48,0,0,0-1.61-6.13l-1.08-.46a4.77,4.77,0,0,0-1.18-.15,4.5,4.5,0,0,0-1.2.16Z" fill="#404040"/><path d="M402.4,241.39a58.85,58.85,0,0,0-7,1.16,38.26,38.26,0,0,0-4.83,1.53l-.71.26c-1.19.43-2.37.89-3.55,1.35l-.51.2c-.76.3-1.53.6-2.3.88a4.88,4.88,0,0,0-2.68,2.06,4.59,4.59,0,0,0-.45,3.46,4.54,4.54,0,0,0,2.06,2.68,4.84,4.84,0,0,0,2.34.64,3.19,3.19,0,0,0,1.11-.19l2.41-.93c1.94-.76,3.94-1.54,5.94-2.22l.46-.15a28,28,0,0,1,3.43-1l1.05-.21c.86-.18,1.72-.35,2.59-.5,2.48-.26,4.92-.34,7-.39a4.48,4.48,0,1,0,0-9c-2,0-4.17.1-6.3.32Z" fill="#404040"/><path d="M263.44,288.23a4.75,4.75,0,0,0-2.06,2.68c-.22.6-.45,1.2-.71,1.83a29.17,29.17,0,0,0-1.16,3.21,38.18,38.18,0,0,0-1.1,6.24c-.1.85-.17,1.69-.2,2.49a17,17,0,0,0,.32,4,7.47,7.47,0,0,0,1.61,3.16,6.64,6.64,0,0,0,3,2c.5.09,1,.16,1.51.21a7.53,7.53,0,0,0,1.81-.27,6.89,6.89,0,0,0,3.19-2.19A17.6,17.6,0,0,0,273,304c.27-1.16.47-2.15.61-3.09l.08-.47a20.12,20.12,0,0,0,.33-3.1,13.67,13.67,0,0,0-.17-2.11,7.52,7.52,0,0,0-1.22-3.84,8.06,8.06,0,0,0-4.5-3.32,5.09,5.09,0,0,0-.83-.13l-.43-.14a5,5,0,0,0-1.17-.14,4.52,4.52,0,0,0-2.28.6Z" fill="#404040"/><path d="M393.91,286.49a4.81,4.81,0,0,0-2.47,1.25c-2,1.75-3.9,3.51-5,6a23.08,23.08,0,0,0-1.3,3.65,34.65,34.65,0,0,0-.64,3.83c-.32,2.66-.53,5,.22,7.29a7.67,7.67,0,0,0,5.23,5,6.19,6.19,0,0,0,1.61.22,7.36,7.36,0,0,0,5.53-2.77,14.83,14.83,0,0,0,2.09-3.23,33.35,33.35,0,0,0,1.57-4.14,39.19,39.19,0,0,0,1.42-6.13l.09-.62a17.59,17.59,0,0,0,.14-6.34,7,7,0,0,0-1.77-3.27,5.27,5.27,0,0,0-3.84-1.6,5.08,5.08,0,0,0-2.91.89Z" fill="#404040"/><path d="M324.73,330.65a4.37,4.37,0,0,0-2.69,2.07,102.9,102.9,0,0,0-5,13c-.41,1.42-.8,2.84-1.2,4.27l-.06.23c-.72,2.59-1.46,5.26-2.3,7.86-1.14,3.57-2.17,7.46-3.33,12.61-.74,3.24-1.69,6.44-2.61,9.54-.32,1.08-.64,2.15-.95,3.22l-.35,1.24c-.4,1.38-.84,2.94-1.36,4.47l-.77,2.32-.41,1.21-.61,1.81c-.1.33-.21.67-.3,1-.16.51-.31,1-.5,1.53-.09.26-.19.53-.29.79-.16.41-.3.8-.44,1.21a4.93,4.93,0,0,0,2.33,5.75,8.38,8.38,0,0,0,3.67.79c.26,0,.52,0,.78,0l.29,0c1.9-.14,3.63-.26,5.38-.31s3.68-.08,5.58-.08c1.32,0,2.66.07,3.95.14h.26l1.46.08c.49,0,1,0,1.47,0,1.06,0,2.13-.05,3.17-.09h.14l1.4-.06a4.48,4.48,0,0,0,.14-9h-.14l-1.22,0h-.14c-1.12,0-2.27.09-3.4.09q-.82,0-1.65,0l-1.2-.07c-1.5-.08-3-.16-4.58-.16h-.4c-1.68,0-3.88,0-6.09.11h-.83l.88-2.6.48-1.44.48-1.44c.42-1.25.79-2.58,1.12-3.75.22-.79.44-1.57.67-2.35l.52-1.76.52-1.76.82-2.75c.68-2.31,1.25-4.76,1.74-6.92l.06-.25c.46-1.94.93-3.94,1.48-5.9s1.09-3.74,1.64-5.61l.17-.58q.93-3.12,1.82-6.26c.61-2.26,1.28-4.66,2-7.07s1.62-4.54,2.33-6.24l1.07-2.42.46-1.08a4.51,4.51,0,0,0-5.51-5.51Z" fill="#404040"/><path d="M489.85,136.23l-.36.05-.22,0c-1,.16-2,.32-3.06.46-2,.23-4.18.47-6.37.68-1.16.11-2.32.19-3.48.27l-.45,0-.43,0-2.64.19c-3.26.25-6.55.42-9.92.57h-.31l-.51,0-3.49.17-2,.1-1,.05h-.1l-.32,0c-2.69.15-6.37.35-9.82.37l-5.45,0c-2.74,0-5.35,0-8,0-5.11.07-9.54.16-13.55.29s-8,.35-11.58.53h-.14l-2.25.12c-3.76.2-7.58.22-11.28.25h-2.91c-5.39,0-9.64.12-13.78.22-4.79.14-9.71.35-14.63.62-2.54.14-5.07.28-7.61.38-1.44.06-2.9.06-4.31.07l-2.37,0c-10.24.13-19.46.32-28.72,1.23q-7.15.7-14.32,1.34l-2.27.2-.2,0c-2.89.27-7.26.68-11.31.81-2.57.08-5.16.12-7.73.17-2.28,0-4.55.08-6.83.15-5.25.16-10.14.41-14.54.76-4.92.38-7.83.6-11,.79-4.23.27-8.05.66-11.68,1.17-1.88.28-3.81.61-5.51.9l-.16,0-1.13.18c-1.24.21-2.53.43-3.86.75-1.81.43-3.7.94-5.32,1.39-.77.2-1.7.49-3,.95a3,3,0,0,0-.84-.66A4.56,4.56,0,0,0,213,153.7c-1,1.81-2.43,4.54-3.69,7.25l-.38.8,0,.1c-.41.85-.88,1.85-1.23,2.79l-.87,2.22-.87,2.21c-.61,1.55-1.18,3.13-1.69,4.6l-.66,1.83c-.93,2.52-1.66,4.67-2.24,6.59l-.24.77-.15.5c-1.53,5-2.72,8.86-3.89,12.88-.17.57-.34,1.13-.52,1.69l-.2.67-.09.29-.07.23c-.46,1.52-.92,3-1.3,4.5l-2,7.95c-.39,1.54-.76,3.19-1.09,4.64l-.09.38-.08.39-.47,2.09c-.41,1.75-.82,3.49-1.24,5.24l-.42,1.78c-.86,3.63-1.91,7.93-3.25,13.16-2.4,9.48-4.8,19.22-7.34,29.77-2.12,8.93-4.23,18.36-6.42,28.84-.14.67-.27,1.31-.41,1.95a7.9,7.9,0,0,0-.95-.15,16.79,16.79,0,0,0-1.88-.1h-.38c-2.21-.43-4.55-.77-7.61-1.07a64.38,64.38,0,0,0-6.62-.35h-.28a41.77,41.77,0,0,0-14.4,2.59,53.38,53.38,0,0,0-12.53,6.62,70.64,70.64,0,0,0-5.8,4.58c-.68.6-1.38,1.24-2.11,2a25.17,25.17,0,0,0-2.25,2.72l-.45.59a31.73,31.73,0,0,0-3.48,6,31.33,31.33,0,0,0-2.2,6.57c-.23,1.14-.38,2.31-.53,3.44l-.09.69c-.15,1.2-.25,2.38-.3,3.53a48.92,48.92,0,0,0,.3,7.09,35.53,35.53,0,0,0,1.59,7.35,42.59,42.59,0,0,0,3.07,6.92,25.37,25.37,0,0,0,4.42,5.87,24.85,24.85,0,0,0,6.17,4.26,42,42,0,0,0,6.77,2.76,42.36,42.36,0,0,0,7.5,1.28l.46.06a93.53,93.53,0,0,0,9.74.55c1.18,0,2.35,0,3.46-.07a39.88,39.88,0,0,0,5.58-.79c.55-.11,1.11-.24,1.68-.4h0l0-.17.21-1.48c.32-2.22.65-4.41,1-6.55.22-1.41.46-2.8.69-4.17a2.93,2.93,0,0,1,.4-1,4.8,4.8,0,0,1,1.7-1.68,4.48,4.48,0,0,1,2.29-.63,4.4,4.4,0,0,1,1.2.17,4.54,4.54,0,0,1,2.71,2.09,4.28,4.28,0,0,1,.41.92,3.2,3.2,0,0,1,.11.79,5.44,5.44,0,0,1,1.53.56l.09.05a4.31,4.31,0,0,1,.91.7,5.06,5.06,0,0,1,1.18,2l.37,1.14.19.56.31,1,.09.26c.54,1.63,1.26,3.85,2,5.87.82,2.25,1.78,4.57,2.42,6.11l0,.09.06.14.09.23.12.29c1.25,2.9,2.59,5.81,4.08,8.87.46.93.91,1.87,1.38,2.84l.13.27,1.15,2.38c.61,1.25,1.28,2.61,2,3.89,1.57,3,3.31,6.21,5.32,9.32,1.84,2.84,3.83,5.69,5.91,8.48.93,1.18,1.89,2.34,2.83,3.47s2.12,2.45,3.14,3.57q1,1.08,2,2.13c1.07,1.14,2.14,2.38,3.06,3.46l.71.84.23.26c1.37,1.62,2.62,3.07,4,4.47,2.33,2.36,4.83,4.69,7.41,6.94l.81.7c1.23,1.06,2.31,2,3.29,3,.34.33.68.66,1,1l.63.64.42.43.77.79c.84.83,1.53,1.48,2.26,2.09l.77.59.24.18,1.23,1,.18.15.37.34.14.14.13.12h0l0-.11,0,0h0l.07.09,1,.79c.84.62,1.71,1.21,2.65,1.84l.14.1.13.09.15.09.46.32c.42.28.83.56,1.24.86a15.45,15.45,0,0,0,2.21,1.34h0l.15.06A13.07,13.07,0,0,1,246,458l.4.2c.42.13.84.25,1.27.35a8.83,8.83,0,0,1,1.2.39l.45.16c.44.15.87.28,1.28.39.56.15,1.07.27,1.57.36,1.11.11,2.18.17,3.49.2h.62a28,28,0,0,0,3.68-.25c2.26-.26,4.48-.45,6.63-.57s4.29-.31,6.51-.55c2.41-.26,4.47-.45,6.28-.57l.79-.05h.18l.35,0c1.64-.1,3.33-.21,5-.41,2-.23,4.23-.48,6.46-.65l2.75-.16c1.43-.06,2.67-.15,3.91-.25l.3,0,3.77-.34.4,0c2.87-.25,5.44-.48,8-.8l3.24-.57,3.17-.55,1.52-.23.72-.11.64-.11.46-.07.41-.06c1-.15,1.94-.3,2.91-.47,2.5-.43,5-.77,7.52-1,2.17-.2,4.44-.35,6.75-.45.95,0,1.9-.05,2.85-.07,1.23,0,2.56,0,3.92-.14.92-.06,1.83-.16,2.77-.26l.15,0,.2,0,.26,0c1-.11,2.26-.26,3.46-.31l1.17,0c1.22,0,2.43.07,3.71.14h.49l1.26.07.49,0,.35,0c2.38.12,4.84.25,7.33.25,1.81,0,3.43-.06,5-.2a30.59,30.59,0,0,0,3.41-.71l.11,0c1.08-.32,2.25-.74,3.59-1.27,1.63-.71,3.09-1.4,4.47-2.11l2-1,.25-.12c.83-.41,1.66-.81,2.47-1.25a68.78,68.78,0,0,0,8.45-5.08l.45-.39.38-.34.11-.09.28-.25.22-.19.15-.14c1.79-1.61,3.46-3.24,5.16-4.92l1.76-1.71c1-1,2-1.93,3.06-2.89l.09-.08L409,428l.09-.09c1.46-1.36,2.34-2.2,3.15-3,.42-.42.83-.84,1.24-1.27l1.16-1.21.5-.53,2.61-2.71.78-.8.39-.39.29-.29c.77-.79,1.54-1.58,2.29-2.39s1.7-1.89,2.48-2.81l.1-.11.18-.21,1-1.18.09-.11c.86-1,2-2.33,3.11-3.69a53.89,53.89,0,0,0,4.48-7.11l.41-.79c1.13-2.15,2.53-4.83,3.7-7.53.12-.3.25-.61.37-.92l.39-1,.13-.34,1.64-4.11q1.23-3.1,2.49-6.19c.36-.91.74-1.82,1.11-2.73s.87-2.09,1.29-3.14.77-1.94,1.14-2.91l.13-.33.33-.84.24-.61.51-1.28.14-.36A199.83,199.83,0,0,0,453.66,346c.41-1.51.82-3,1.24-4.47,1-3.74,2-7.69,2.82-10.86l0-.14.07-.29,0-.18.05-.17.36-1.45q.18-.69.33-1.41c.14-.63.27-1.27.39-1.89l.07-.32.07-.35,0-.17.06-.29.1-.5.07-.35.08-.34.07-.33.08-.34.15-.65c.22-.91.41-1.82.58-2.74l.14-.74c.13-.76.27-1.53.44-2.29l.08-.33c.22-.94.42-1.88.61-2.84.1-.5.18-1,.26-1.54s.17-1,.28-1.57l0-.22.18-.83.13-.64,0-.12.11-.51.05-.26c.27-1.25.55-2.59.75-3.92.08-.5.19-1.06.33-1.66s.24-1,.36-1.4.17-.7.25-1.11.13-.66.22-1a7.27,7.27,0,0,1,.25-.83l.33-.86.27-.7.14-.39.07-.21a7.94,7.94,0,0,1,.78-1.74l.28-.43A11.55,11.55,0,0,1,468,291a13.21,13.21,0,0,1,1.55-1.28l.17-.12a13.76,13.76,0,0,1,1.21-.86l.09-.06a6.21,6.21,0,0,1,.77-.4,23,23,0,0,1,2.5-.95l.8-.28.4-.13.1,0,.11,0a25.12,25.12,0,0,1,4.87-1,78.2,78.2,0,0,1,7.82-.36c2.89,0,5.78,0,8.67,0h8.89a4.64,4.64,0,0,1,4.33,4.43v.22a4.51,4.51,0,0,1-4.29,4.38c-.49,2.17-1,4.75-1.44,7.42-.19,1.33-.42,2.64-.66,3.95l0,.2q-.27,1.5-.51,3c-.19,1.61-.33,3.23-.44,5.07q0,.42-.06.84c-.12,1.36-.32,2.75-.47,3.85l0,.25,0,.11,0,.11-.12.87-.15,1.36,0,.21c-.13,1.31-.27,2.5-.46,3.69l-.25,1.36-.11.61-.08.46c-.06.35-.12.71-.19,1.06q-.21,1.14-.48,2.28l-.14.63,0,.13,0,.16,0,.16-.14.57c-.08.36-.16.71-.22,1.06s-.11.64-.17,1l0,.28c-.08.45-.16.92-.26,1.46l-.12.56,0,.11-.23,1,0,.14-.06.23c-.22.89-.45,1.84-.61,2.79-.05.28-.09.57-.14.89v.11l-.09.53a7.17,7.17,0,0,1-.17.83l-.11.5-.07.3,0,.1-.08.31-.07.32c-.05.23-.1.45-.14.65l0,.12c-.13.6-.25,1.21-.37,1.83l0,.19c-.09.46-.18,1-.28,1.45l0,.19c-.07.34-.15.68-.23,1s-.14.61-.2.92-.19.89-.27,1.34l-.05.19-.06.31-.18.88c-.09.43-.2.86-.31,1.29s-.31,1.15-.5,1.81a67.77,67.77,0,0,0,7.8,1.5l.13,0,.15,0a58.66,58.66,0,0,0,7.14.64h.41c2.2,0,4.41-.12,6.75-.35,2.54-.27,5.28-.59,8.07-1.16a68.72,68.72,0,0,0,6.77-1.81,64.85,64.85,0,0,0,7.26-2.82,32.48,32.48,0,0,0,5.45-3.37l.18-.13a36.74,36.74,0,0,0,10.53-11.17c2.53-4.31,3.55-9.12,4.3-15a50.35,50.35,0,0,0,.29-7.16c-.08-2.47-.43-5.08-.71-7.17l0-.22,0-.15a45.15,45.15,0,0,0-1.47-6.55,41.58,41.58,0,0,0-2.88-7.42,29.62,29.62,0,0,0-4.07-6,35.59,35.59,0,0,0-5.53-5,27.58,27.58,0,0,0-7-4,22.69,22.69,0,0,0-3-.91,30.14,30.14,0,0,0-6.21-.62h-.13a39.57,39.57,0,0,0-5.8.56h-.13l-.11,0-1.35.19c-2.24.32-4.45.82-6.58,1.3l-.12,0-.17,0a50.1,50.1,0,0,0-6.54,1.85l-.16.06-1.12.43a22.1,22.1,0,0,0,.49-2.16l.09-.48c1.75-9.11,3.49-18,5.47-26.82.39-1.75.76-3.5,1.13-5.24l0-.18,0-.17.1-.49c.44-2,.87-4.1,1.34-6.15,1-4.35,1.87-8.9,2.52-12.38.41-2.18.86-4.39,1.3-6.53l.08-.38.87-4.29c.24-1.21.51-2.43.78-3.66.21-.93.41-1.87.61-2.82.45-2.17.74-4.31,1-6.33l.42-2.86.08-.6c.32-2.17.64-4.39.94-6.61.05-.38.12-.76.19-1.14a3.68,3.68,0,0,0,.54-.45c.06-.56.11-1.1.15-1.64l.11-1.17.12-2,.13-2.05c.08-1.54.19-3,.31-4.49l0-.26c.14-1.92.29-3.9.38-5.85v-.09l0-.08c-.43.52-.88,1-1.34,1.53-1,1-1.74,1.84-2.57,2.6A28.88,28.88,0,0,1,519,182.4a9.79,9.79,0,0,1-5.48,2,5.86,5.86,0,0,1-2.76-.67,7.23,7.23,0,0,1-3.5-7.11c.25-3.51,2.22-6.34,4.31-8.87a45.13,45.13,0,0,1,4.6-4.75l.06-.1a35,35,0,0,1-4.43,1,29.57,29.57,0,0,1-4.44.37,17.82,17.82,0,0,1-1.84-.08l-.3,0a27.07,27.07,0,0,1-5.56-.86,19.45,19.45,0,0,1-5.72-2.82,19,19,0,0,1-5.14-5,15.54,15.54,0,0,1-1.23-14,49.4,49.4,0,0,1,2.31-5.18l0,0ZM248.78,239a4.52,4.52,0,0,1,3.13-5.51c2.41-.69,4.43-1.31,6.47-2.06s4-1.42,6-2a47.24,47.24,0,0,1,6-1.18l.37-.06,2.34-.39.63-.1c1.05-.19,2.1-.37,3.15-.53a4.5,4.5,0,0,1,1.2-.16,4.77,4.77,0,0,1,1.18.15l1.08.46a4.51,4.51,0,0,1,2.06,2.68,4.57,4.57,0,0,1-.45,3.45,4.31,4.31,0,0,1-2.68,2.06c-.89.14-1.77.28-2.66.44l-.58.09c-1.1.19-2.19.38-3.28.54l-1.11.17c-.75.11-1.49.22-2.23.36-1,.2-2.09.5-3,.77-1.88.53-3.74,1.21-5.54,1.86l-.5.19c-1.92.7-3.81,1.26-6.09,1.92a4.48,4.48,0,0,1-5.51-3.14Zm133.61,16a4.54,4.54,0,0,1-2.06-2.68,4.59,4.59,0,0,1,.45-3.46,4.88,4.88,0,0,1,2.68-2.06c.77-.28,1.54-.58,2.3-.88l.51-.2c1.18-.46,2.36-.92,3.55-1.35l.71-.26a38.26,38.26,0,0,1,4.83-1.53,58.85,58.85,0,0,1,7-1.16c2.13-.22,4.29-.28,6.3-.32a4.48,4.48,0,1,1,0,9c-2.06,0-4.5.13-7,.39-.87.15-1.73.32-2.59.5l-1.05.21a28.62,28.62,0,0,0-3.44,1l-.45.15c-2,.68-4,1.46-5.94,2.22l-2.41.93a3.19,3.19,0,0,1-1.11.19,4.84,4.84,0,0,1-2.34-.64ZM390,313.48a7.67,7.67,0,0,1-5.23-5c-.75-2.25-.54-4.63-.22-7.29a34.65,34.65,0,0,1,.64-3.83,23.08,23.08,0,0,1,1.3-3.65c1.07-2.49,3-4.25,5-6a4.81,4.81,0,0,1,2.47-1.25,5.08,5.08,0,0,1,2.91-.89,5.27,5.27,0,0,1,3.84,1.6,7,7,0,0,1,1.77,3.27,17.59,17.59,0,0,1-.14,6.34l-.09.62a39.19,39.19,0,0,1-1.42,6.13,33.35,33.35,0,0,1-1.57,4.14,14.83,14.83,0,0,1-2.09,3.23,7.36,7.36,0,0,1-5.53,2.77,6.19,6.19,0,0,1-1.61-.22Zm-126.8.33a6.64,6.64,0,0,1-3-2,7.6,7.6,0,0,1-1.62-3.16,17.5,17.5,0,0,1-.31-4c0-.8.1-1.64.2-2.49a38.18,38.18,0,0,1,1.1-6.24,29.17,29.17,0,0,1,1.16-3.21c.25-.63.49-1.23.71-1.83a4.79,4.79,0,0,1,2.06-2.68,4.52,4.52,0,0,1,2.28-.6,5,5,0,0,1,1.17.14l.43.14a5.09,5.09,0,0,1,.83.13,8.06,8.06,0,0,1,4.5,3.32,7.52,7.52,0,0,1,1.22,3.84,13.67,13.67,0,0,1,.17,2.11,20.12,20.12,0,0,1-.33,3.1l-.08.47c-.14.94-.34,1.93-.61,3.09a17.6,17.6,0,0,1-3.33,7.59,6.89,6.89,0,0,1-3.19,2.19,7.53,7.53,0,0,1-1.81.27c-.51,0-1-.12-1.51-.21ZM528,311a12.87,12.87,0,0,1,2.18-2.47,4.54,4.54,0,0,1,2-1.15l.63-.08.56-.07a4.47,4.47,0,0,1,4.48,4.47,4.3,4.3,0,0,1-1.32,3.17,10.46,10.46,0,0,0-1.54,1.65l-.13.16c-1.25,1.66-2.5,3.38-4.07,5.6-.54.75-1.11,1.49-1.67,2.23l-.19.26c-.44.58-.88,1.15-1.3,1.73l-.8,1.09c-1.05,1.44-2.12,2.91-3,4.45s-1.79,3.31-2.59,5l-.09.19-.35.73A4.44,4.44,0,0,1,518.1,340a4.54,4.54,0,0,1-1.18.15,4.48,4.48,0,0,1-4.33-3.29,4.64,4.64,0,0,1,.45-3.45l.38-.78a61.31,61.31,0,0,1,3-5.6c1.16-1.89,2.55-3.74,3.75-5.32s2.34-3.14,3.49-4.73,2.63-3.62,4-5.44l0,.06L528,311ZM303.9,404.84a4.93,4.93,0,0,1-2.33-5.75c.14-.41.29-.8.44-1.21.1-.26.2-.53.29-.79.19-.5.34-1,.5-1.53.09-.34.2-.68.31-1l.6-1.81.41-1.21.77-2.32c.52-1.53,1-3.09,1.36-4.47l.35-1.24c.31-1.07.63-2.14.95-3.22.92-3.1,1.87-6.3,2.61-9.54,1.16-5.15,2.19-9,3.33-12.61.84-2.6,1.58-5.27,2.3-7.86l.06-.23c.4-1.43.79-2.85,1.2-4.27a102.9,102.9,0,0,1,5-13,4.37,4.37,0,0,1,2.69-2.07,4.48,4.48,0,0,1,5.51,5.51l-.46,1.08-1.07,2.42c-.71,1.7-1.61,3.95-2.33,6.24s-1.43,4.81-2,7.07q-.88,3.13-1.82,6.26l-.17.58c-.55,1.87-1.11,3.74-1.64,5.61s-1,4-1.48,5.9l-.06.25c-.49,2.16-1.06,4.61-1.74,6.92l-.82,2.75-.52,1.76-.52,1.76c-.23.78-.45,1.56-.67,2.35-.33,1.17-.7,2.5-1.12,3.75l-.48,1.44-.48,1.44-.88,2.6h.83c2.21-.08,4.41-.1,6.09-.11h.4c1.53,0,3.08.08,4.58.16l1.2.07q.82,0,1.65,0c1.13,0,2.28-.05,3.4-.09h.14l1.22,0h.14a4.48,4.48,0,0,1-.14,9l-1.4.06h-.14c-1,0-2.11.09-3.17.09-.49,0-1,0-1.47,0l-1.46-.08h-.26c-1.29-.07-2.63-.14-3.94-.14-1.91,0-3.76,0-5.59.08s-3.48.17-5.38.31l-.28,0c-.27,0-.53,0-.79,0a8.38,8.38,0,0,1-3.67-.79Z" fill="#ffd0af"/><path d="M497,285.45q-4.34,0-8.67,0a78.2,78.2,0,0,0-7.82.36,25.12,25.12,0,0,0-4.87,1l-.11,0-.1,0-.4.13-.8.28a23,23,0,0,0-2.5.95,6.21,6.21,0,0,0-.77.4l-.09.06a13.76,13.76,0,0,0-1.21.86l-.17.12A14.1,14.1,0,0,0,468,291a12.14,12.14,0,0,0-1.23,1.65l-.28.43a7.94,7.94,0,0,0-.78,1.74l-.07.21-.14.39-.27.7-.33.86a7.27,7.27,0,0,0-.25.83c-.09.33-.16.66-.22,1s-.16.77-.25,1.11-.25.91-.36,1.4-.25,1.16-.33,1.66c-.2,1.34-.48,2.67-.75,3.93l-.05.25-.11.51,0,.11-.14.66-.18.82-.05.22c-.1.53-.18,1.05-.27,1.57s-.16,1-.26,1.54c-.19,1-.39,1.9-.61,2.84l-.08.33c-.17.76-.31,1.52-.44,2.29l-.13.74c-.18.92-.37,1.83-.59,2.74l-.16.66-.07.33-.07.33-.08.34-.06.34-.11.51-.06.29,0,.17-.08.35-.05.32c-.13.62-.26,1.26-.4,1.89-.1.48-.21.95-.33,1.42l-.36,1.44-.05.18,0,.18-.07.28,0,.14c-.79,3.17-1.78,7.12-2.82,10.86-.42,1.48-.83,3-1.25,4.47A196.07,196.07,0,0,1,447,367.08l-.15.35-.5,1.28-.25.62-.32.83-.13.33q-.56,1.45-1.14,2.91c-.42,1.05-.86,2.1-1.29,3.14l-1.12,2.73q-1.24,3.09-2.48,6.19L438,389.57l-.13.35-.39,1c-.12.31-.25.62-.37.92-1.17,2.7-2.58,5.38-3.7,7.53l-.41.79a54.55,54.55,0,0,1-4.48,7.11c-1.08,1.36-2.26,2.71-3.11,3.69l-.09.11-1,1.18-.18.21-.1.11c-.78.92-1.6,1.86-2.48,2.81s-1.52,1.6-2.29,2.39l-.29.29-.38.39-.79.8-2.61,2.72-.5.52-1.16,1.21c-.41.43-.82.85-1.24,1.27-.81.8-1.69,1.64-3.15,3L409,428l-.59.54-.09.08c-1,1-2.05,1.91-3.06,2.89l-1.76,1.72c-1.69,1.67-3.37,3.3-5.16,4.91l-.14.14-.23.19-.28.26-.11.08-.38.34-.45.39a68.78,68.78,0,0,1-8.45,5.08c-.81.44-1.64.84-2.47,1.25l-.25.12-2,1c-1.38.71-2.84,1.4-4.47,2.11-1.33.53-2.51.95-3.59,1.27l-.11,0a30.59,30.59,0,0,1-3.41.71c-1.52.14-3.14.2-5,.2-2.49,0-4.95-.13-7.33-.25l-.35,0-.49,0L357.6,451h-.49c-1.28-.07-2.49-.14-3.71-.14l-1.17,0c-1.2,0-2.45.2-3.46.32l-.26,0-.2,0-.16,0c-.93.1-1.84.21-2.76.26-1.36.1-2.69.12-3.92.14-1,0-1.9,0-2.85.08-2.31.09-4.58.24-6.75.44-2.49.23-5,.57-7.52,1-1,.17-1.94.33-2.91.47l-.41.07-.47.07-.64.1-.71.11-1.52.24c-1.06.17-2.1.36-3.17.55l-3.24.56c-2.53.32-5.1.55-8,.8l-.4,0-3.77.34-.3,0c-1.24.1-2.49.18-3.92.25l-2.74.16c-2.23.17-4.42.41-6.46.65-1.67.2-3.36.31-5,.41l-.35,0h-.18l-.79.05c-1.81.12-3.86.31-6.28.57-2.22.24-4.35.42-6.52.55s-4.36.31-6.62.58a29.78,29.78,0,0,1-3.68.25l-.62,0c-1.31,0-2.38-.09-3.48-.2-.51-.09-1-.21-1.58-.36-.41-.11-.84-.24-1.28-.39l-.45-.16a8.83,8.83,0,0,0-1.2-.39c-.43-.1-.85-.22-1.27-.35l-.4-.2c-.39-.21-.78-.41-1.19-.59l-.16-.06h0a13.78,13.78,0,0,1-2.21-1.33c-.41-.3-.82-.58-1.24-.86l-.46-.32-.15-.09-.13-.09-.14-.1c-.94-.64-1.81-1.23-2.65-1.84l-1-.79-.07-.08,0,.09-.14-.14-.14-.14-.37-.34-.19-.15c-.4-.33-.81-.65-1.22-1l-.24-.18-.77-.59c-.73-.61-1.42-1.26-2.26-2.09l-.77-.79-.42-.42-.63-.65c-.33-.33-.66-.67-1-1-1-1-2-1.94-3.28-3l-.81-.7c-2.58-2.25-5.08-4.58-7.41-6.94-1.41-1.4-2.66-2.85-4-4.46l-.23-.27-.71-.84c-.92-1.08-2-2.32-3.06-3.46q-1-1-2-2.13c-1-1.12-2.07-2.32-3.14-3.57s-1.9-2.29-2.83-3.47c-2.08-2.79-4.07-5.64-5.9-8.48-2-3.11-3.75-6.32-5.33-9.32-.67-1.28-1.34-2.64-2-3.89l-1.15-2.38-.13-.27c-.47-1-.92-1.91-1.38-2.84-1.49-3.06-2.83-6-4.08-8.87l-.12-.29-.09-.23-.06-.14,0-.09c-.64-1.54-1.61-3.86-2.43-6.11-.75-2-1.47-4.24-2-5.87l-.08-.26-.32-1-.18-.56-.38-1.14a5.18,5.18,0,0,0-1.18-2,4.31,4.31,0,0,0-.91-.7l-.09-.06a5.13,5.13,0,0,0-1.53-.54,3.21,3.21,0,0,0-.11-.8,4.28,4.28,0,0,0-.41-.92,4.54,4.54,0,0,0-2.71-2.09,4.42,4.42,0,0,0-3.49.46,4.8,4.8,0,0,0-1.7,1.68,2.93,2.93,0,0,0-.4,1q-.34,2.06-.69,4.17c-.35,2.14-.68,4.33-1,6.55l-.21,1.48,0,.17c-.09.63-.18,1.26-.26,1.89-.34,2.49-.61,5.08-.82,7.93-.09,1.24-.15,2.48-.2,3.72s-.1,2.29-.17,3.43c-.1,1.35-.21,2.7-.32,4.06l-.07.72-.06.7,0,.27c-.2,2.21-.46,5.23-.6,8.11-.25,5.16-.32,10.34-.37,14.72l0,2.22c-.06,3.54-.11,7.14.14,10.71l.12,1.81V433c.09,1.42.2,2.93.35,4.38.16,1.68.37,3.35.58,5l.25,2c0,.29.07.59.12.88l.1,1.74c.06,1.12.13,2.23.18,3.35,0,.6.05,1.21.08,1.82.06,1.52.13,3.09.25,4.64.17,2.19.43,4.38.69,6.44.64,5.17,1.61,10.27,2.38,14.14.13.67.25,1.35.37,2,.24,1.35.49,2.73.84,4.08.48,1.79,1,3.69,1.73,6.17a60,60,0,0,0,2.21,6.22c.51,1.21,1,2.43,1.46,3.66.33.84.66,1.69,1,2.52,1.22,3,2.7,6,4.13,8.84.61,1.22,1.22,2.44,1.81,3.67a67.32,67.32,0,0,0,6.5,10.84,65.52,65.52,0,0,0,4.14,5.13c1.22,1.35,2.49,2.65,3.68,3.87.61.61,1.2,1.24,1.8,1.87s1.4,1.48,2.11,2.19c1.48,1.49,3.08,3,5,4.63a33.56,33.56,0,0,0,5.87,4.18l2.26,1.18c1.14.6,2.29,1.19,3.42,1.81.93.52,1.85,1.06,2.77,1.59s2,1.19,3.08,1.76c2,1.07,4,2,6.27,2.9,3.67,1.54,7.55,3,11.53,4.37,4.52,1.55,9.46,3,15.57,4.46,2.11.51,4.26,1,6.34,1.42l1.47.32a73.64,73.64,0,0,0,7.29,1.07l1.34.15.17,0c1.83.25,3.72.5,5.59.64s4,.23,6.55.29c4,.1,8.05.11,12,.11h2.23c2,0,4.3,0,6.64-.12,3.22.13,6.36.17,9.4.2h1.59c1.7,0,3.35,0,5,0h1c2.33,0,4.78-.19,6.75-.34l.19,0,.27,0,2.05-.14c1.46-.09,2.9-.19,4.35-.33,2.34-.22,4.91-.54,7.85-1,2.17-.33,4.13-.63,6.12-1.05l1.85-.41.27-.06.16,0c1.22-.28,2.52-.57,3.83-.81,1.94-.36,3.83-.86,5.49-1.3,1.9-.5,3.86-1,5.87-1.35a47.06,47.06,0,0,0,10.85-3.5l.24-.11.34-.15.67-.3.16-.07c1.59-.71,3.56-1.59,5.41-2.52.58-.28,1.15-.58,1.72-.87L382,555l.19-.09c.93-.48,2-1,3-1.48l.27-.09.11,0c1.32-.48,2.68-1,4-1.59.7-.32,1.39-.67,2.07-1l.24-.13.3-.15,1.3-.67,1.71-.81.38-.18.16-.07c.49-.24,1-.47,1.45-.72a17.47,17.47,0,0,0,1.58-.88l.84-.53.76-.48c.32-.2.64-.38,1-.56l.14-.08.13-.07.11-.06.2-.11.37-.23c.38-.22.76-.47,1.13-.71l.15-.11.52-.34,1.44-1,.31-.21c.57-.39,1.14-.77,1.73-1.14,1.06-.68,2.14-1.35,3.23-2l.12-.08a44.62,44.62,0,0,0,4-2.8l.35-.28,1-.78,1.37-1c1-.75,2-1.51,3-2.28,1.17-.92,2.24-1.89,3.27-2.84l.7-.64c.75-.68,1.5-1.41,2.53-2.44l.79-.79c.55-.56,1.11-1.11,1.68-1.66l.14-.15c.78-.77,1.54-1.51,2.28-2.29.43-.46.87-.92,1.32-1.37l.45-.47.65-.68.7-.74c.59-.65,1.27-1.28,1.77-1.73s1.15-1.07,1.68-1.63c.18-.18.34-.36.5-.54,2.21-2.49,4.76-5.42,7.17-8.62h-.11l-.1.07a6.85,6.85,0,0,0,1-1.17l.56-.76c.23-.29.47-.58.7-.88l1-1.27.94-1.28.11-.14.09-.11-.22.08a4.68,4.68,0,0,0,.86-.93c1.07-1.33,2.08-2.71,3-4,1.18-1.5,2.42-3.1,3.54-4.75a37.22,37.22,0,0,0,2.23-3.85l.55-1,.56-1,.22-.41.1-.18c.6-1.1,1.23-2.23,1.76-3.37,1-2.09,1.83-3.84,2.73-5.61l.12-.24c.78-1.54,1.59-3.13,2.42-4.63.68-1.21,1.28-2.49,1.84-3.69.27-.58.54-1.16.82-1.74.2-.39.38-.77.56-1.16l.1-.22.11-.23.07-.16.43-.93c.38-.8.71-1.64,1-2.38l.08-.22.08-.19.13-.35.33-.82c.77-1.85,1.54-3.83,2.29-5.9.25-.7.47-1.42.7-2.13l.06-.2.07-.21c.2-.61.4-1.22.61-1.81.44-1.21.84-2.47,1.23-3.66l0-.1.07-.24.13-.41c.35-1.08.71-2.14,1.08-3.2l.05-.16.39-1.15q.32-.92.6-1.83l.15-.48.05-.13c.28-.87.56-1.74.86-2.6l.81-2.29c.84-2.32,1.67-4.63,2.28-7,.18-.75.41-1.48.63-2.21.31-1,.59-2,.81-2.9a43.58,43.58,0,0,0,.67-4.53c.1-.52.22-1,.35-1.56l.22-.93a35.32,35.32,0,0,0,.58-3.54c.1-.48.24-1,.38-1.47l0-.17,0-.11,0-.13c.14-.48.25-.9.34-1.32.26-1.32.4-2.71.52-3.83.12-.61.23-1,.35-1.46s.28-1,.4-1.55a38.57,38.57,0,0,0,.52-4c.06-.89.09-1.77.12-2.66v-.43c0-1,.06-1.82.15-2.67.42-3.08.71-5.55,1-8,.08-.56.18-1.12.28-1.68l.06-.33c.19-1.06.41-2.3.57-3.45.12-.93.24-1.86.32-2.79q.06-.72.09-1.44t.09-1.44a79.6,79.6,0,0,0,1.17-8.83,4,4,0,0,0-.71-2.47c.15-.4.28-.8.39-1.19.19-.66.36-1.25.5-1.81s.22-.87.31-1.29l.18-.88.06-.31,0-.19c.09-.45.18-.9.28-1.34s.13-.62.2-.93.16-.67.23-1l0-.19c.1-.49.19-1,.28-1.45l0-.19.36-1.84,0-.11c.05-.21.1-.41.15-.65l.08-.33.07-.3,0-.1.07-.3.12-.5c.07-.27.11-.54.16-.83l.09-.53v-.1c0-.33.09-.61.14-.9.16-.95.39-1.9.61-2.79l.06-.23,0-.14.23-1,0-.11.13-.56c.1-.54.18-1,.26-1.46l0-.27c.06-.33.11-.65.17-1s.14-.72.22-1.07l.14-.58,0-.15,0-.16,0-.13.15-.63c.17-.76.33-1.52.47-2.27.07-.36.13-.72.19-1.07l.08-.46.11-.61.24-1.36c.21-1.19.34-2.37.47-3.69l0-.21.15-1.36.12-.86,0-.12,0-.11,0-.24c.16-1.12.36-2.5.48-3.86,0-.28.05-.56.06-.84.11-1.85.25-3.46.44-5.07q.24-1.5.51-3l0-.2c.24-1.31.47-2.62.66-3.94.39-2.68,1-5.26,1.44-7.43a4.52,4.52,0,0,0,4.29-4.38v-.22a4.64,4.64,0,0,0-4.33-4.43H497Z" fill="#cdbbb0"/><path d="M261.37,465.12a4.54,4.54,0,0,0-.45,3.46,4.73,4.73,0,0,0,2.07,2.69c4,2.73,7.9,5.58,12.11,8a38.89,38.89,0,0,0,6.92,3.31,48.44,48.44,0,0,0,6.94,1.59,105.52,105.52,0,0,0,14.32,1.15q7,.18,13.92.18c2.28,0,4.55-.15,6.83-.33,2.63-.22,5.25-.73,7.86-1.16a4.34,4.34,0,0,0,2.69-2.07,4.57,4.57,0,0,0,.45-3.47,4.52,4.52,0,0,0-2.07-2.68,4.85,4.85,0,0,0-3.46-.46c-1.52.25-3,.51-4.55.73a133.77,133.77,0,0,1-16.14.37c-5.52-.07-11-.22-16.51-.82-1.44-.2-2.86-.44-4.29-.72a27.76,27.76,0,0,1-4.37-1.3,69.7,69.7,0,0,1-7.59-4.25c-2.88-1.86-5.68-3.85-8.52-5.79a3.78,3.78,0,0,0-2.14-.64,4.79,4.79,0,0,0-4,2.26Zm31.55,10.53.35.05-.35-.05Z" fill="#404040"/><path d="M486,133.78l-51.72,2.88-75.14,4.17-81.72,4.55-45,2.5-1.29.07-2.63.15-10.79.6a2.75,2.75,0,0,0,0,5.5l11.79-.66,1,0h.06l.44,0,74.52-4.14,82.8-4.61,73.67-4.09,24-1.34a2.75,2.75,0,0,0,.13-5.5Z" fill="#ffd0af"/><path d="M486.5,133.75l-10.23.57a2.75,2.75,0,0,0,0,5.5l10.23-.57a2.75,2.75,0,0,0,.12-5.5Z" fill="#ffd0af"/><path d="M226.83,148.19l-4.4.24h0l-.51,0h-.08l-4.57.25a2.79,2.79,0,0,0-2.75,2.75,2.75,2.75,0,0,0,2.75,2.75l4.6-.25h.08l.51,0h0l4.38-.24a2.75,2.75,0,0,0,.13-5.5Z" fill="#ffd0af"/><path d="M215.55,150.17a1.64,1.64,0,0,0-.84.76c-.32.55-.68,1.09-1,1.66s-.62,1.23-.89,1.87a1.52,1.52,0,0,0,.7,2,1.5,1.5,0,0,0,2-.69c.28-.64.57-1.27.89-1.88s.65-1.1,1-1.66a1.5,1.5,0,0,0-1.87-2.06Z" fill="#ffd0af"/><path d="M214.61,149.63a53.32,53.32,0,0,0-2.35,5.16,1.6,1.6,0,0,0-.06,1.16,1.5,1.5,0,0,0,2.76.14,54.44,54.44,0,0,1,2.35-5.16,1.5,1.5,0,0,0-.7-2,1.45,1.45,0,0,0-.63-.15,1.58,1.58,0,0,0-1.37.85Z" fill="#ffd0af"/><path d="M214.12,150.64c-.47,1-1,2-1.46,3s-.93,2.06-1.37,3.1-.92,2.06-1.42,3.07-1.12,2.29-1.7,3.43a1.5,1.5,0,0,0,.7,2,1.52,1.52,0,0,0,2-.7c.56-1.09,1.1-2.19,1.64-3.3s1-2,1.44-3.08.89-2.09,1.37-3.11,1-2.07,1.5-3.12a1.5,1.5,0,0,0-.7-2,1.43,1.43,0,0,0-.64-.15,1.49,1.49,0,0,0-1.36.85Z" fill="#ffd0af"/><path d="M214.45,152.37c-1.17,3.07-2.55,6-3.82,9.09s-2.6,6.34-3.75,9.57c-.51,1.46-1,2.93-1.53,4.4a1.66,1.66,0,0,0-.06,1.16,1.49,1.49,0,0,0,.76.84,1.47,1.47,0,0,0,1.16.06,1.43,1.43,0,0,0,.84-.76c1.07-3.16,2.17-6.31,3.42-9.41s2.63-6.33,4-9.47c.6-1.38,1.16-2.77,1.7-4.18a1.6,1.6,0,0,0,.06-1.16,1.53,1.53,0,0,0-.76-.84,1.58,1.58,0,0,0-.65-.14,1.43,1.43,0,0,0-1.36.84Z" fill="#ffd0af"/><path d="M489.54,134a4.34,4.34,0,0,1-.16.62l.12-.37c0,.12-.07.24-.11.36s-.18.45-.26.67-.23.67-.33,1-.3.95-.42,1.43a1.5,1.5,0,1,0,2.94.57c.08-.31.16-.61.25-.92l.18-.55c.15-.42.31-.83.45-1.26a8.78,8.78,0,0,0,.29-1,1.52,1.52,0,0,0-1.19-1.76l-.28,0a1.53,1.53,0,0,0-1.48,1.22Zm-.11.48a.49.49,0,0,1,0,.11.49.49,0,0,0,0-.11Zm-.67,1.93,0,.09,0-.09Zm2.8,1c0,.11-.07.22-.11.32,0-.1.07-.21.11-.32Zm.64-1.85,0,.08,0-.09Zm0,0,.09-.28-.09.28Z" fill="#404040"/><path d="M490.23,133.73a1.64,1.64,0,0,0-.84.76c-.26.42-.51.85-.76,1.27-.1.18-.22.35-.32.53s-.17.36-.26.53a15.76,15.76,0,0,0-.92,2.3c-.13.38-.27.76-.39,1.14l.12-.37a18.4,18.4,0,0,0-1.1,5.06,21.33,21.33,0,0,0,0,2.53,9.07,9.07,0,0,0,.2,1.27c.1.54.21,1.07.36,1.59a16.12,16.12,0,0,0,1.27,2.92l-.18-.35c.31.64.64,1.27,1,1.89a11.75,11.75,0,0,0,1.51,1.94l-.26-.29c.26.3.48.62.73.93a1.5,1.5,0,1,0,2.46-1.71c-.3-.38-.58-.75-.89-1.11l.05.06a12,12,0,0,1-1.51-2.16c-.17-.36-.36-.72-.54-1.08a13.06,13.06,0,0,1-1-2.6,13.77,13.77,0,0,1-.28-2,16.8,16.8,0,0,1,0-1.74,17.71,17.71,0,0,1,.89-4l.31-.9,0,.08a15.42,15.42,0,0,1,.86-2.1c.08-.17.15-.34.24-.5s.22-.36.32-.54c.25-.42.5-.85.76-1.26a1.45,1.45,0,0,0,.06-1.17,1.51,1.51,0,0,0-1.41-1,1.44,1.44,0,0,0-.51.08Zm-.2,6.1,0,.1,0-.1Zm-.47,1.38s0,.09-.05.13l.05-.13Zm-.6,7.31,0,.12,0-.12Z" fill="#404040"/><path d="M527.24,173.5a1.5,1.5,0,0,0-1.38,1.61,22,22,0,0,1,.07,3.44.37.37,0,0,1,0-.11.57.57,0,0,0,0,.13v0c0,.1,0,.2,0,.31,0,.33,0,.66-.08,1s0,.86,0,1.29c0,.12,0,.24,0,.36l-.06.85,0-.4c-.14,1.46-.25,2.93-.43,4.38-.1.81-.23,1.62-.33,2.43s-.19,1.71-.24,2.57c0-.13,0-.26,0-.4,0,.3,0,.6,0,.89s-.05.68-.06,1,0,.44,0,.65l0-.4c-.1,1.33-.19,2.66-.25,4v0c0,.11,0,.21,0,.32,0-.1,0-.19,0-.29,0,.52,0,1-.07,1.55-.06,1-.15,2-.26,3a1.5,1.5,0,0,0,1.19,1.76,1.52,1.52,0,0,0,1.76-1.19c.16-1.52.25-3,.33-4.56,0-.65.06-1.29.09-1.94.06-.8.14-1.61.18-2.41a1.21,1.21,0,0,1,0,.19c0-.29,0-.57,0-.86l.06-.87,0-.45h0c.1-1.57.36-3.11.56-4.66.1-.81.15-1.62.23-2.43s.16-1.56.2-2.34c0,.13,0,.27,0,.4l.06-.8c0-.39,0-.78,0-1.17s.07-.95.1-1.43a23.5,23.5,0,0,0,0-4.11,1.52,1.52,0,0,0-1.49-1.39Zm-1.43,7.39v.21a1.48,1.48,0,0,1,0-.21Zm0,.3v0Zm-1.42,16v0h0v0Zm4.38-15.56v0Zm0,0c0-.12,0-.23,0-.34,0,.11,0,.22,0,.34Zm.13-2.58v.12l0-.39a2.45,2.45,0,0,1,0,.27Zm-3-.4v0Z" fill="#404040"/><path d="M526.24,175c-.12,1.11-.22,2.22-.33,3.33s-.22,2.17-.28,3.26a.86.86,0,0,1,0-.16l-.06,1c0,.45-.07.91-.09,1.37l-.12,1.31c-.06.59-.07,1.2-.08,1.8,0,.28-.06.57-.1.86s-.06.77-.1,1.16c-.1.72-.19,1.45-.3,2.17s-.18,1.69-.29,2.53c-.07.62-.12,1.24-.18,1.86s-.16,1.41-.24,2.11a1.54,1.54,0,0,0,1.19,1.76,1.51,1.51,0,0,0,1.75-1.19c.28-2.25.46-4.52.75-6.77.1-.75.23-1.51.3-2.27,0-.42.08-.83.12-1.25s.08-1.08.11-1.62c0-.18,0-.36,0-.54.05-.7.13-1.4.16-2.1,0,.13,0,.26,0,.4l.12-1.74c0-.24,0-.49,0-.73.06-.91.16-1.82.26-2.73.11-1.08.2-2.17.31-3.26a1.55,1.55,0,0,0-.24-1.14,1.53,1.53,0,0,0-1-.61,1.1,1.1,0,0,0-.26,0,1.48,1.48,0,0,0-1.49,1.21Z" fill="#404040"/><path d="M526.77,174.36a1.43,1.43,0,0,0-.61.95c-.15,1.54-.44,3.07-.64,4.61-.17,1.35-.34,2.7-.42,4.05,0,.23,0,.46,0,.69,0,.48-.08,1-.1,1.44s-.07,1-.09,1.5c0-.13,0-.27,0-.4-.07,1.16-.22,2.31-.3,3.47s-.18,2.09-.3,3.14c-.28,2.54-.39,5.1-.86,7.62-.26,1.39-.48,2.79-.7,4.18a1.52,1.52,0,0,0,1.19,1.76,1.5,1.5,0,0,0,1.75-1.19c.25-1.58.51-3.15.81-4.72.25-1.34.35-2.71.48-4.06.1-1.15.21-2.31.32-3.46.05-.49.11-1,.16-1.47s.08-1.18.14-1.76c.11-1.14.22-2.28.28-3.42,0-.53.07-1.06.1-1.59,0,.13,0,.26,0,.4,0-.53.08-1.06.11-1.59,0-.14,0-.27,0-.41v.12c.07-1.27.25-2.55.41-3.81.19-1.51.48-3,.62-4.54a1.63,1.63,0,0,0-.24-1.14,1.49,1.49,0,0,0-1-.61,1.33,1.33,0,0,0-.28,0,1.49,1.49,0,0,0-.86.27Z" fill="#404040"/></g><g id="Draw_Layer-5" data-name="Draw Layer"><path d="M220.58,244.44l-.16,0-.12,0-.32.1a61.69,61.69,0,0,0-16.53,8c-1.47,1-2.9,2.05-4.29,3.17-.94.75-1.86,1.53-2.77,2.33-.11.1-.22.21-.32.32a63,63,0,0,0-6.6,7.06,66.74,66.74,0,0,0-5.25,7.57,65.68,65.68,0,0,0-4.3,8.9,62.6,62.6,0,0,0-4.29,19.61,63.5,63.5,0,0,0,1.78,18.88,63.24,63.24,0,0,0,20.61,33,67.69,67.69,0,0,0,8,5.79,66.79,66.79,0,0,0,9.28,4.61,62.09,62.09,0,0,0,19.09,4.41,63.11,63.11,0,0,0,53.44-23,67.1,67.1,0,0,0,5.66-8,66.05,66.05,0,0,0,4.54-9.44,62.3,62.3,0,0,0,4.15-19.59,63,63,0,0,0-10.76-38.57,62.95,62.95,0,0,0-45.13-27.48,55.7,55.7,0,0,0-7.42-.48,64.52,64.52,0,0,0-18.28,2.72Zm25.72,6.77a61.92,61.92,0,0,1,13.58,3.7,54.53,54.53,0,0,1,22,16.88,54.29,54.29,0,0,1,10.89,25.8,62.14,62.14,0,0,1,.05,14.68A54.2,54.2,0,0,1,282,338.21a62.55,62.55,0,0,1-9.84,9.88,61.75,61.75,0,0,1-12.08,7.1,60.91,60.91,0,0,1-14,3.83,62.43,62.43,0,0,1-14.65,0,54.2,54.2,0,0,1-25.72-10.75,62.33,62.33,0,0,1-10-10,61.68,61.68,0,0,1-7-12,60.7,60.7,0,0,1-3.82-14,62.4,62.4,0,0,1,0-14.52,61.17,61.17,0,0,1,3.72-13.68,54.62,54.62,0,0,1,16.54-21.71l.08-.06.14-.11.19-.16a62,62,0,0,1,10.86-6.51l1.2-.55.5-.2a61.35,61.35,0,0,1,13.31-3.59,62.37,62.37,0,0,1,14.77,0Zm14.55,103.68-.27.12.27-.12Zm-30.19,4,.41.06-.41-.06Z" fill="#f8f8f5"/><path d="M385.68,247.75a63.55,63.55,0,0,0-13.25,3.13,65,65,0,0,0-8.49,3.76,3.84,3.84,0,0,0-.35.18l-.3.16-.12.07-.68.38c-.95.55-1.89,1.11-2.82,1.7l-.19.13-.43.27a63.32,63.32,0,0,0-16.17,15.27l-.12.16-.09.11-.21.29,0,.06-.2.27-.05.07L342,274c-.78,1.09-1.53,2.2-2.24,3.33a2,2,0,0,0-.14.25c-.37.59-.72,1.18-1.07,1.79a62.56,62.56,0,0,0-7.08,19.35,63.72,63.72,0,0,0,5.73,40.46,62.7,62.7,0,0,0,12,16.47,66.43,66.43,0,0,0,8,6.68,58.15,58.15,0,0,0,9.07,5.34,63.41,63.41,0,0,0,19.26,5.68,65.43,65.43,0,0,0,20.66-.69,62.32,62.32,0,0,0,18.87-7.07,61.54,61.54,0,0,0,8-5.47,63.7,63.7,0,0,0,7.64-7.14,62.89,62.89,0,0,0,10.43-15.77,63.63,63.63,0,0,0,5.38-18.82,65.11,65.11,0,0,0-.63-19.8,62.2,62.2,0,0,0-6.82-18.8A63,63,0,0,0,437,264.29a64.26,64.26,0,0,0-23-13.77,63.26,63.26,0,0,0-13.67-3,54.22,54.22,0,0,0-6.38-.37,64.45,64.45,0,0,0-8.21.55Zm15.39,8.92A54.16,54.16,0,0,1,427,267.58a62.17,62.17,0,0,1,9.81,9.85,54.09,54.09,0,0,1,10.8,25.93,62.53,62.53,0,0,1,0,14.47,61.11,61.11,0,0,1-3.81,13.92,54.66,54.66,0,0,1-29,29,54.45,54.45,0,0,1-42.27-.05,54.57,54.57,0,0,1-28.93-29A61.1,61.1,0,0,1,339.81,318a54.56,54.56,0,0,1,3.76-28.52,61.39,61.39,0,0,1,7.12-12.15,62.81,62.81,0,0,1,9.4-9.47l.07-.05.11-.09.21-.17a54.28,54.28,0,0,1,40.59-10.84Z" fill="#f8f8f5"/><path d="M535.41,271.83l-94.92,22.53a4.5,4.5,0,1,0,2.39,8.68q47-11.15,93.89-22.29l.1,0,.93-.23a4.48,4.48,0,0,0-1.26-8.8,4.9,4.9,0,0,0-1.13.13Z" fill="#f8f8f5"/><path d="M778.43,502.89a4.5,4.5,0,1,0,4.5-4.5,4.55,4.55,0,0,0-4.5,4.5Z" fill="#f8f8f5"/><path d="M299.91,298.19a4.5,4.5,0,0,0,0,9H328a4.5,4.5,0,0,0,0-9Z" fill="#f8f8f5"/><path d="M184.73,299.1H167.61a4.5,4.5,0,0,0,0,9h17.12a4.5,4.5,0,1,0,0-9Z" fill="#f8f8f5"/></g></g></svg>