<svg xmlns="http://www.w3.org/2000/svg" viewBox="0 0 677.05 925.97"><title>professor 4</title><g id="Layer_2" data-name="Layer 2"><g id="Draw_Layer" data-name="Draw Layer"><path d="M676.75,920.16c0-.74-.09-1.47-.13-2.21-.1-2.1-.17-4.22-.23-6.29V911c0-1.56-.1-3.13-.16-4.69v-.13l-.06-1.31v-.22c-.32-2.29-.55-4.5-.81-7.15-.79-7.84-1.49-15.08-2.16-22.12l-.07-.72c-.17-2-.32-3.9-.47-5.85l0-.64-.08-1.12q-.84-4.89-1.69-9.78l-1.12-6.51c-.32-1.86-.63-3.72-.91-5.58-.14-.54-.27-1.07-.41-1.6l-.06-.23c-.26-1-.49-1.9-.69-2.83-.24-1.08-.45-2.17-.67-3.26-.12-.63-.24-1.26-.37-1.88-.6-3-1.24-6-1.88-9l-.3-1.43-.48-2.19,0-.2c-.53-2.45-1-4.67-1.39-6.9l-.44-2.91L662,812a60.18,60.18,0,0,0-.86-6,37.46,37.46,0,0,0-1.29-4.27l-.16-.48c-.15-.43-.3-.86-.44-1.28-1.51-4.72-2.61-9.54-3.49-13.63l-.21-1c-.43-2-.87-4.07-1.48-6.07l-.14-.46c-.62-2-1.24-4-1.88-6s-1.25-4.29-1.8-6.39l-.06-.23-.06-.23,0-.13c-.53-2.05-1.09-4.17-1.75-6.22-1-3.07-2.26-6.05-3.51-8.94l-.61-1.41-.44-1c-1.45-3.48-3-7.08-4.63-10.49-.52-1.07-1.14-2.11-1.74-3.12l-.09-.14c-.37-.62-.74-1.24-1.1-1.87l-.81-1.46c-.65-1.18-1.33-2.4-2-3.58a106.82,106.82,0,0,0-9.92-13.2c-1.32-1.58-2.93-3.5-4.4-5.35s-3.09-4-4.81-6c-1.26-1.5-2.7-3-3.86-4.19l-.1-.1-.87-.9c-3.77-3.9-7.86-8-12.79-11-.64-.4-1.28-.78-1.91-1.16l-.73-.43c-1.22-.73-2.43-1.45-3.64-2.19s-2.63-1.7-3.88-2.55l-.09-.06c-.69-.47-1.37-.94-2.07-1.4a74.08,74.08,0,0,0-12.93-6.33l-1.89-.78c-1.68-.71-3.9-1.62-6.08-2.38-2-.69-4.13-1.27-5.7-1.7l-.81-.23a143.76,143.76,0,0,0-14.49-3.38c-12.07-2-21.91-3.43-31-4.49-4.13-.48-8.72-1-14.43-1.49-1.34-.12-2.68-.26-4-.4h-.12c-3.41-.34-7.27-.74-11.05-.94-5.26-.27-10.21-.4-15.11-.4h-16.8c-4.72,0-9.19,0-13.67.11-4.66.09-9.31.37-13.8.63h-.18l-1.28.08c-.93,0-1.93.08-3.23.08H405.07c-1.63,0-3.22,0-4.79.09a16.21,16.21,0,0,0-7,1.75,12.13,12.13,0,0,0-4.88,5.16,39.78,39.78,0,0,1-3.27,4.82l-.41.52-.2.26-.18.24-.62.8-.81,1-1,1.21.35-.39-.71.83c-.76,1-1.51,1.93-2.23,2.92a69.94,69.94,0,0,1-5.85,6.63c-.87.86-1.8,1.67-2.7,2.46l-.1.1c-.72.62-1.43,1.24-2.12,1.89l-.86.8c-.72.68-1.43,1.36-2.17,2a43.09,43.09,0,0,1-6.43,3.52c-1.62.62-3.07,1.1-4.45,1.48a46.67,46.67,0,0,1-5.21,1,62.14,62.14,0,0,1-6.29.28c-1,0-1.93,0-2.89,0-2.27,0-5.68-.16-9.1-.52-1.31-.23-2.64-.52-3.92-.8l-.16,0-.13,0-.68-.15c-.94-.21-1.93-.38-2.76-.52l-.24,0-.3-.06-.2,0c-.8-.14-1.62-.28-2.42-.46A79.73,79.73,0,0,1,310,691.19c-1-.55-2.06-1.2-2.89-1.71s-1.77-1.11-2.71-1.62l-.21-.12c-1.57-.85-3.31-1.8-4.92-2.87A27,27,0,0,1,297,682.5l-.93-1.23-.94-1.24c-.89-1.27-1.72-2.58-2.49-3.8a8,8,0,0,0,.11-1.37,10.88,10.88,0,0,0-3.16-7.63,11,11,0,0,0-7.62-3.15l-.37,0-.32,0c-1.34-.07-2.61-.13-3.87-.13a27.73,27.73,0,0,0-3.56.21c-1.85.25-3.64.53-5.8.88l-3.38.54-4.95.63-.42.05-6.51.88c-2.44.29-5,.51-7,.68-2.37.21-4.81.42-7.18.71-4.14.49-8.32,1.12-12.37,1.74l-.2,0-.13,0c-1.72.27-3.45.53-5.18.78l-3.19.44c-4.31.56-8.71,1-13.07,1.36-2.16.17-4.36.26-6.61.35l-.81,0c-2,.09-4.14.24-5.84.36l-2.09.15c-2.13.14-4.27.25-6.4.36-2.84.14-5.78.29-8.63.52-4.59.37-9.2,1.11-13.66,1.82l-1.23.2-1,.15-2.11.33-1.11.14-1.07.15c-2.23.28-4.46.54-6.68.8l-1.18.13c-2.34.28-4.69.55-7,.85-7.13.94-12.56,1.83-17.61,2.9a135.83,135.83,0,0,0-14.67,4.2l-3.35,1.1-1.43.47c-3.24,1-6.4,2.09-9.53,3.18L89,692.27c-5.84,2-11.82,4.1-17.65,6.52C63.91,704.66,55.91,709.9,49.61,717,47,720.86,44,724.5,41,728.15q-1.41,2-2.73,4.14a97.57,97.57,0,0,0-4.15,9.33c-1.49,3.93-2.67,8.15-3.7,11.86l-.59,2.1c-1,3.55-1.95,7.48-2.92,12-.74,2.06-1.35,3.91-1.86,5.66-.91,3.07-2,6.71-2.84,10.53-.33,1.41-.73,3-1.22,4.73a39.71,39.71,0,0,0-1,5.54l-.19,1.19a99.16,99.16,0,0,0-1.32,10.54c-.07,1.23-.08,2.5-.09,3.72,0,1.84,0,3.71-.24,5.53-.26,2-.55,4.35-.66,6.74,0,1,0,2,0,3v.13c0,1.38,0,2.8-.15,4.19a80.56,80.56,0,0,0-.81,8c-.09,2.24-.1,4.53-.1,6.74v62.9a10.21,10.21,0,0,0,.18,1.91c-.08.1-.16.2-.24.32.38,4.41.7,8.7.95,12.77a10.31,10.31,0,0,0,7.48,3.3H677.05C677,923.45,676.87,921.81,676.75,920.16Zm-7-24.65h0a3.32,3.32,0,0,0,.13-.9.64.64,0,0,0,.18-.06V895l0,.47Z" fill="#79b8ba"/><path d="M290.81,681.27c-.76-.91-1.54-1.81-2.33-2.7l-.74-.76.36.35-1-1.11-.84-.94-.65-.74-.19-.22-.2-.24-.43-.49a37.86,37.86,0,0,1-3.44-4.47,11.75,11.75,0,0,0-5.06-4.74,17,17,0,0,0-7.09-1.46c-1.57,0-3.17,0-4.8.06H264l-.62,0-.62,0-7.05.2-1.32.05-.68,0-.66,0-1.31,0c-1.31,0-2.31,0-3.25,0l-1.28,0H247c-4.52-.12-9.19-.24-13.87-.19-4.5,0-9,.18-13.72.31l-1.65,0-15,.44h-.2c-4.92.14-9.87.42-15.15.83-3.79.31-7.65.79-11.06,1.22l-.11,0c-1.34.17-2.67.34-4,.49-5.72.69-10.3,1.27-14.44,1.85-9.07,1.28-18.9,2.93-30.94,5.19A148.28,148.28,0,0,0,112.44,678l-.81.24c-1.56.45-3.71,1.07-5.67,1.79-2.16.79-4.35,1.71-6,2.43l-1.87.8a76.54,76.54,0,0,0-12.77,6.39c-.69.46-1.36.92-2,1.39l-.09.06c-1.23.85-2.5,1.72-3.81,2.54l-3.59,2.19-.71.43c-.63.38-1.26.76-1.88,1.15-.35.21-.68.44-1,.66-1.81,1.45-3.65,2.86-5.5,4.26-2.13,1.9-4.1,3.9-6,5.86l-.84.88-.1.1c-1.12,1.17-2.53,2.63-3.74,4.08-1.66,2-3.21,4-4.63,5.88s-3,3.68-4.25,5.22a101,101,0,0,0-9.53,12.82c-.67,1.14-1.31,2.32-1.93,3.46l-.76,1.4c-.34.61-.69,1.21-1.05,1.81l-.08.14c-.57,1-1.16,2-1.65,3-1.58,3.28-3,6.74-4.32,10.09l-.4,1-.57,1.36a87.13,87.13,0,0,0-3.24,8.58c-.6,2-1.09,4-1.56,5.95l0,.13-.05.22-.06.22c-.49,2-1,4.09-1.61,6.11s-1.13,3.84-1.69,5.76l-.12.43c-.55,1.92-.93,3.9-1.29,5.81l-.18.93a131.68,131.68,0,0,1-3.08,13l-.39,1.22-.15.47a34,34,0,0,0-1.16,4.09,56.54,56.54,0,0,0-.68,5.71l-.06.73-.35,2.77c-.31,2.14-.72,4.25-1.18,6.59l0,.19-.41,2.1-.26,1.36c-.55,2.85-1.09,5.71-1.6,8.58-.11.59-.21,1.19-.31,1.79q-.27,1.56-.57,3.12c-.17.88-.38,1.75-.6,2.7l-.06.22c-.12.51-.24,1-.35,1.53-.23,1.77-.48,3.55-.74,5.32l-.92,6.21q-.7,4.67-1.39,9.33l0,1.06,0,.61c-.09,1.86-.18,3.71-.29,5.57l-.05.69c-.44,6.7-.92,13.58-1.47,21-.17,2.52-.33,4.63-.57,6.81v1.58c0,1.48,0,3,0,4.45v.68c0,2,0,4,0,6,0,.7,0,1.4-.06,2.11C.08,922.82,0,924.38,0,926l82.82-2.47L266.1,918c.78-1.92,1.56-3.83,2.33-5.75l.09-4c2-74.71,6.88-150.46,26.18-223C293.26,684,292,682.54,290.81,681.27ZM6.34,897.66l-.3,0v-.85l.18.06a3.88,3.88,0,0,0,.16.85Z" fill="#79b8ba"/></g><g id="Draw_Layer-2" data-name="Draw Layer"><path d="M647.24,681.23c0,.07.07.14.11.2l.37-.36c0-.09-.09-.17-.14-.26l-.34.42Z" fill="#404040"/><path d="M357.34,539.6h0l-.8,1.39-1.25,2.18-.18.29-.18.29c-1,1.59-2,3.22-3.11,5.14l.11-.09.84-.67.48-.4.3-.24.44-.36.66-.54.54-.44.57-.48.23-.19.43-.36c.42-.35.84-.7,1.27-1s.59-.48.89-.72l.55-.41.1-.07.6-.45c.43-.32.83-.67,1.23-1,.18-.15.35-.31.52-.47l.14-.14.14-.13a1,1,0,0,0,.15-.17.7.7,0,0,0,.09-.32.42.42,0,0,0-.1-.17.65.65,0,0,0-.19-.14l-.15,0-.18,0-.31,0-.74-.06c-1,0-2-.06-3-.07h-.12Z" fill="#404040"/><path d="M392.83,513.15a40.15,40.15,0,0,0-7.3.77,36.79,36.79,0,0,0-6.24,1.74c-3,1.12-6.19,2.55-8.11,3.4l-.17.08-.89.39-1.06.46-1.06.47c-2.29.88-4.31,1.57-6.18,2.1s-4.05,1-6.66,1.5c-3,.6-5.9,1.17-8.86,1.74l-5.11,1c-6,1.18-12.17,2.51-18,3.76l-.58.12-.25.05-.4.11-1.76.36q-4.06.88-8.15,1.73l-2.6.54-.21.06-.14,0c-3.12.65-6.28,1.3-9.46,2.13a40.34,40.34,0,0,0-6.46,2.31,36.23,36.23,0,0,0-4.39,2.37l.08-.44.29-1.59a4.77,4.77,0,0,0-.47-3.5,4.56,4.56,0,0,0-2.72-2.09,4.34,4.34,0,0,0-1.22-.18,4.58,4.58,0,0,0-2.31.63,4.52,4.52,0,0,0-2.11,2.75c-.37,2-.65,3.68-.9,5.32h0l.2,0h3.11c2.74,0,4.65-.1,6.18-.16l3.14-.16,3.45-.25c1.06-.09,2.12-.2,3.18-.32l1.76-.2.34,0,.35,0,.26,0,.48-.06.45,0h.12l1-.08c.58,0,1.15-.09,1.73-.12l3.41-.19,1.15,0H357.1l.14,0,.08,0h.14c1,0,2,0,3,.07l.74.06.31,0,.18,0,.15,0a.65.65,0,0,1,.19.14.33.33,0,0,1,.09.17.59.59,0,0,1-.08.32,1,1,0,0,1-.15.17l-.14.13-.14.14c-.17.16-.34.32-.52.47-.4.36-.8.71-1.23,1l-.6.45-.1.07-.55.41c-.3.24-.6.47-.89.72s-.85.69-1.27,1l-.43.36-.23.19-.57.48-.54.44-.66.54-.44.36-.3.24-.48.4-.84.67-.11.09-.06.1-.21.18-1.25,1-.7.55-.5.39-.38.31-.91.7-1.12.87c-.32.25-.64.5-1,.75l-.15.12-.46.35-.36.28-.35.26-.33.25-.34.26-.34.26-.43.33-.19.13c-.39.29-.79.57-1.2.85l-.1.07-.66.46-.67.45-.43.3-.25.17-.37.25-.26.18-1.08.78-.18.12-.28.21-.12.08-.08.06-.15.12-.45.34-.13.1-.2.17-.44.34-.13.1-.44.34-.43.33-1,.72-.75.58-1.72,1.3-.83.63-.71.55-1.12.84-1.58,1.21-.43.32-.27.2-.52.39-.12.09c-.25.2-.5.38-.76.56l-.11.08-.24.17-.15.1-.45.32-.19.13-.3.22-.3.21c-.44.3-.87.6-1.29.91l-.19.13-.25.18-.93.66-1.38.94-.73.51-.11.08-.09.07-.36.25-.34.24-.21.15-.13.09-.32.22-.31.21-.32.21-.13.09-.23.15-.45.29-.18.12-1.3.86c-.33.22-.68.43-1,.64l-.3.18L312,578l-.59.35c-.91.55-1.82,1.11-2.71,1.7l-.34.22-.35.23-.28.18-.15.09-.23.16-.67.45-.18.12-.47.32-.66.45-.66.45-.28.19-.39.27-.41.28-.25.16-1.33.9-1.33.9-.53.38-.14.11-.19.13-.44.33-.64.47-.61.45c-.4.31-.8.62-1.19.94l-.58.48-.59.48-.32.28-.25.22-.4.36-.13.12-.33.3-.22.21-.52.47c-.75.69-1.5,1.36-2.25,2l-.75.62-.36.3-.46.39-.62.53-1.08.92-.15.13c-.38.32-.77.65-1.13,1l-.57.53-.29.27-.3.27-1.2,1.17-.12.13-.2.2-.11.11-.1.11-.18.19-.26.27-1.12,1.21-.35.37-.77.81c-.47.5-.91,1-1.41,1.45l-.18.18,0,0h-.08l-.06,0c0,.21,0,.3-.1.36l-.09.07-.19.16-.09.07-.08.06a1.76,1.76,0,0,1-.45.25,1,1,0,0,1-.38.09,2,2,0,0,1-.39-.05,1.32,1.32,0,0,1-.3-.08.52.52,0,0,1-.19-.11.49.49,0,0,1-.21-.3,3.17,3.17,0,0,1,0-.42l0-.18h0v-.11l0,0c-.18,1.29-.24,2.58-.29,3.53-.11,2.85-.29,5.89-.44,8.34l0,.55-.08,1.31-.24,4.1c-.22,4.21-.38,8.86-.47,14.21,0,2.27-.05,4.53-.07,6.8,0,1.78.1,3.59.21,5.33l.08,1.27c.36,6,.79,10.72,1.36,15.21l0,.13.05.43.08-.56a51,51,0,0,0,2.94,13.31,31.58,31.58,0,0,0,3.21,6.23,43.32,43.32,0,0,0,5.19,6.19,97.69,97.69,0,0,0,11.13,9.45c1.46,1.11,3.14,2.27,5.28,3.65,1.32.85,2.75,1.61,4,2.28l1.4.75a64.7,64.7,0,0,0,13.5,5.79l.21.06c2.28.65,4.35,1.22,6.51,1.69a50.09,50.09,0,0,0,7.22,1q.94.06,1.89.06a37.23,37.23,0,0,0,11.17-1.83l.44-.14c1.79-.55,3.89-1.22,5.9-2a45.77,45.77,0,0,0,6.43-3A56.42,56.42,0,0,0,375.23,700a89.15,89.15,0,0,0,8-9l.58-.7c1.4-1.73,2.79-3.59,4.38-5.85a37.68,37.68,0,0,0,3.32-5.46,104.37,104.37,0,0,0,5.22-12.47c.52-1.5.92-3.08,1.28-4.56l0-.15c.17-.7.32-1.31.48-1.93.5-1.89,1-4,1.43-6.35.11-.56.23-1.12.34-1.68l.14-.65.12-.61c.26-1.2.49-2.32.7-3.43.16-.86.31-1.72.46-2.59l.08-.43c.17-1,.34-2,.53-3,.43-2.25.76-4.52,1-6.94.11-1,.23-1.93.35-2.89.17-1.32.33-2.58.46-3.86.22-2.32.33-4.68.41-6.71.07-1.62.22-3.26.38-4.93.06-.59.12-1.17.17-1.75.54-6.11.52-12.31.52-18.3v-.77c0-2,0-4.1,0-6.15a20.93,20.93,0,0,1,.2-2.51l.08-.71c.12-1.11.23-2.21.3-3.32.17-2.27.21-4.55.24-6.51,0-.64,0-1.28,0-1.91,0-1.43,0-2.88.09-4.27.1-2,.28-4.09.55-6.27v-.11l0-.21c.4-3.36.81-6.85,1-10.22,0-.48,0-1,0-1.48,0-1.11.07-2.27.18-3.36l.13-1.39v-.14l0-.22c.11-1.08.22-2.17.3-3.27.06-.79.1-1.58.14-2.37v-.29c0-.89.09-1.76.17-2.63s.16-1.62.26-2.44l0-.34c.12-1.05.24-2.11.32-3.17.05-.57.09-1.15.12-1.72.07-1.1.14-2.28.29-3.43.27-2,.48-3.87.62-5.57a4.56,4.56,0,0,0-1.33-3.24,4.69,4.69,0,0,0-3.24-1.35,4.56,4.56,0,0,0-2.15.56,8.15,8.15,0,0,0-3.13-2.4,19.28,19.28,0,0,0-8.11-1.47Z" fill="#ffe1c5"/><path d="M361.48,532.86a25.82,25.82,0,0,0-2.75,4.33c-.47.8-.94,1.6-1.4,2.41h0l-.8,1.39-1.25,2.18-.18.29-.18.29c-1,1.61-2,3.28-3.17,5.24l-.09.08c-.36.6-.71,1.2-1.06,1.8-1.3,2.24-2.54,4.51-3.77,6.79l-.3.55-.51.58L345,560l-.8.92c-.31.38-.61.78-.9,1.19s-.4.92-.57,1.39a3.67,3.67,0,0,0,.37,3,4.63,4.63,0,0,0,.13.83,4,4,0,0,0,1,1.76l.3.27c-.21.5-.42,1-.62,1.49a9.75,9.75,0,0,0-1,3.28,4.63,4.63,0,0,0,.51,2.64l.2.37a4.14,4.14,0,0,0,1.44,1.44c2.67,2,6-.16,8.17-1.85a56.84,56.84,0,0,0,7-6.43,4,4,0,0,0,3.22-2.88,3.65,3.65,0,0,0,.13-.84l.09-.1a47.67,47.67,0,0,0,3.7-5.1,4,4,0,0,0-1.44-5.47,3.88,3.88,0,0,0-1.92-.54c.87-1.56,1.8-3.08,2.77-4.57.64-1,1.27-2,1.93-2.91.94-1.38,2.19-2.79,2.54-4.44a4.09,4.09,0,0,0-1-3.89,3.93,3.93,0,0,0-1.76-1,3.88,3.88,0,0,0-.92-.14c.24-.54.47-1.09.7-1.64a3.76,3.76,0,0,0-.4-3.08,4.27,4.27,0,0,0-2.39-1.84l-.1,0a2.94,2.94,0,0,0-1-.18,4,4,0,0,0-2.86,1.21Z" fill="#ffe1c5"/><path d="M388.59,522a4.27,4.27,0,0,0-2.39,1.84A45.48,45.48,0,0,0,383,529c-.72,1.3-1.43,2.61-2.14,3.91-1,1.77-1.84,3.58-2.73,5.4s-1.92,3.91-2.77,5.92c-1.09,2.58-2.17,5.17-3.26,7.75-.78,1.84-1.43,3.74-2.12,5.61s-1.3,3.45-1.91,5.18q-.8,2.22-1.57,4.44l-1.75,3.13c-1,1.74-1.91,3.49-2.86,5.24-.48.87-.89,1.79-1.32,2.69-.64,1.28-1.27,2.57-1.88,3.87a4.24,4.24,0,0,0-.4,3.08,4.08,4.08,0,0,0,1.76,2.35c-.44,1.62-.84,3.27-1.26,4.9-.19.76-.38,1.53-.56,2.3-.1.48-.2,1-.31,1.43-.16.75-.26,1.52-.35,2.28a6.85,6.85,0,0,0,.35,2,4,4,0,0,0,3.48,2.91c-.88,1.65-1.76,3.3-2.6,5a57.89,57.89,0,0,0-4.78,13.26,4.06,4.06,0,0,0,2.8,4.92,4,4,0,0,0,4.92-2.79,55.65,55.65,0,0,1,2.65-8.58c.91-2.07,1.91-4.12,3-6.09s2.08-3.91,3.2-5.8q3.48-5.91,6.91-11.83c2.31-4,4.54-8.08,6.77-12.14,2-3.63,3.76-7.39,5.62-11.09.6-1.2,1.11-2.46,1.67-3.69.89-2,1.78-4,2.68-5.93,1.48-3.29,2.75-6.69,4.1-10,2.37-5.84,4.32-11.84,6.5-17.76a11.62,11.62,0,0,0,1-2.92,6,6,0,0,0,0-2.61,4.82,4.82,0,0,0-1.33-2.13,4,4,0,0,0-6.28.81c-1.3,2.13-2.36,4.39-3.49,6.61-.84,1.65-1.69,3.31-2.51,5q-3.23,6.43-6.4,12.9c-3.78,7.66-7.47,15.37-11.29,23-1,2-2,4-3.08,6,.48-1.45,1-2.89,1.45-4.34.26-.78.53-1.57.8-2.36,1.58-2.8,3.16-5.6,4.58-8.48,1.94-3.94,3.85-7.89,5.6-11.92q2.92-6.74,5.75-13.5c.57-1.36,1.14-2.74,1.7-4.11a38.83,38.83,0,0,0,2.18-5.94,4.08,4.08,0,0,0-1.84-4.52,4,4,0,0,0-2-.54,3.74,3.74,0,0,0-1.05.14Z" fill="#ffe1c5"/><path d="M381.55,539.56l-.19,0H319.84l-1.49,0c-1.48.06-3,.12-4.44.2l-2.24.11-1.31.08-.16,0-.58,0-.62.05-.35,0-.45,0-.44,0-2.29.2c-1.37.12-2.75.23-4.12.32l-4.49.25-4.08.16c-2,.06-4.47.11-8,.17h-4l-.26,0h-.6c-.12,0-.22,0-.33,0a2.61,2.61,0,0,0-.5.11l-.15.06-.18.09-.23.15-.17.2a1.06,1.06,0,0,0-.17.26.76.76,0,0,0-.09.18,3.38,3.38,0,0,0-.23.7l-.1.4,0,.27,0,.14,0,.19,0,.19v.13h0a.32.32,0,0,0-.35.28v12.93c0,1.19,0,2.38,0,3.56,0,.5,0,1-.06,1.49v.2c.13,10.58.69,21.15.73,31.73a4.91,4.91,0,0,1-.64,2.54v7.31l.08-.11.1-.14-.1.37a2.13,2.13,0,0,0,0,.42.49.49,0,0,0,.26.3.89.89,0,0,0,.26.12l.38.07c.19,0,.35,0,.51.05a1.6,1.6,0,0,0,.49-.09,2.4,2.4,0,0,0,.58-.25l.11-.06L280,605l.24-.16.12-.07c.09-.07.12-.16.12-.38a.41.41,0,0,0,.16,0c.78-.56,1.44-1.1,2.15-1.68l1-.81.46-.37,1.46-1.21.34-.27.23-.19.13-.11.14-.11.26-.2.17-.13,1.55-1.17.38-.27.38-.27.74-.53c.48-.35,1-.68,1.48-1l.19-.13,1.4-.92c.26-.18.53-.36.81-.53l.6-.39.46-.3c.33-.2.65-.41,1-.63,1-.66,2-1.34,2.93-2l.68-.47.29-.21.43-.3.16-.12.52-.36.33-.22.41-.28.76-.48.76-.48c.51-.32,1-.63,1.55-.94l.79-.45.83-.47.57-.33.24-.13.19-.11.69-.38,1.73-.9,1.73-.9.32-.16.53-.28.52-.27.36-.19.85-.45.86-.45.61-.32.24-.12.87-.45.3-.16.2-.09.36-.18.45-.23.44-.22c1.16-.59,2.33-1.15,3.53-1.7l.76-.35.88-.41.4-.18,1.32-.64,1.69-.86.23-.12.58-.29.3-.15.17-.08.41-.22.41-.21.42-.22.17-.09.27-.15.44-.24.46-.25.13-.07.14-.08c.32-.18.63-.35.95-.51l1.78-.94,1.22-.66.32-.18.24-.13,1.68-.91.4-.21.39-.22.24-.12.58-.33.2-.1.31-.17.14-.08c.34-.18.67-.36,1-.56l.16-.09.68-.39.35-.2.55-.32,2.05-1.21,1.45-.84.93-.55,1.08-.63,2.23-1.3,1-.58,1.25-.72.57-.33.57-.34.16-.1c.2-.11.39-.23.57-.35l.27-.15.17-.11.58-.34.2-.12.11-.06.16-.08.36-.2.23-.13,1.4-.78.34-.18.48-.25.33-.17.56-.3.86-.45.86-.46.14-.07c.52-.28,1-.55,1.55-.85l.24-.13.56-.33.44-.26.44-.26.43-.25.45-.26.48-.28.59-.35.2-.12,1.27-.75,1.46-.87,1.18-.7.5-.31.65-.39.9-.55,1.62-1,.27-.18c1.51-2,2.82-3.63,4.13-5.24l.24-.29.23-.29,1.62-2.18,1-1.39Zm-103.19,19.2v8.75c-.16,2.26-.3,4.37-.4,6.43v-2.29c0-.33,0-.65,0-1v-2.3c0-1,0-2,0-3,0-1.25,0-2.5.05-3.74l0-1.24,0-1.65c0-.38,0-.75,0-1.13l0-.64,0-.63,0-.63c0-.63,0-1.25.07-1.87a1.89,1.89,0,0,1,0-.29l.08-1.07Zm1.47-14.18h-.08c-.2,0-.29,0-.34.12l.2-.6a.22.22,0,0,0,0-.21.36.36,0,0,0-.22-.13h-.08c-.15,0-.18,0-.21,0a.26.26,0,0,0-.18.17l-.27,1.33h0a.26.26,0,0,0-.24.18l0,.17a4.54,4.54,0,0,0-.12.5v-.08c0-.32,0-.63.08-.95s.05-.5.08-.75.08-.59.12-.85l.08-.32a3.8,3.8,0,0,1,.28-.82,1.74,1.74,0,0,1,.18-.27l.11-.07a2,2,0,0,1,.36-.16h0v0h.91A26.38,26.38,0,0,0,279.83,544.58Z" fill="#f0c1a5"/><path d="M279.12,548.93V546.8l0-.12v-.11l.08-.44.08-.45v-.07c0,.09,0,.19,0,.28v.4l0,.42,0,.73,0,.74-.05.75Z" fill="#f0c1a5"/><path d="M409.7,528.35c.51,1.62.79,4.27-3,10.37a46.52,46.52,0,0,1-13.9,14.58c-19.27,12.46-40.95,16.05-40.95,16.05-16.09,2.67-67.19,11.15-70.9-.7-3.6-11.52,22.3-29.87,57.85-41S406.1,516.84,409.7,528.35Z" fill="#f0c1a5"/><path d="M276.54,609.68l-.09-61.87,43.37,32.28-37.58,25.69-3,2.07Z" fill="#ffe1c5"/><ellipse cx="347.66" cy="554.23" rx="54.97" ry="21.85" transform="translate(-149.68 129.15) rotate(-17.38)" fill="#f0c1a5"/><ellipse cx="313.73" cy="557.76" rx="22.4" ry="38.3" transform="translate(-305.06 720.95) rotate(-75.42)" fill="#f0c1a5"/><ellipse cx="336.83" cy="563.98" rx="40.74" ry="16.71" transform="translate(-91.41 65.85) rotate(-9.84)" fill="#f0c1a5"/><ellipse cx="313.82" cy="563.64" rx="25.59" ry="38.75" transform="translate(-321.85 673.64) rotate(-70.71)" fill="#f0c1a5"/><ellipse cx="337.05" cy="563.7" rx="40.56" ry="25.71" transform="translate(-126.67 98.59) rotate(-14.04)" fill="#f0c1a5"/><ellipse cx="369.19" cy="563.2" rx="41.99" ry="11.12" transform="translate(-260.68 324.96) rotate(-36.04)" fill="#f0c1a5"/></g><g id="Draw_Layer-3" data-name="Draw Layer"><path d="M546.46,319.42l-2,3.83q-.32,4-.6,8.1.93-3.62,1.89-7.2Z" fill="#ffe1c5"/><path d="M541.42,255.87l-.72.2c-.1,2.7-.19,5.4-.3,8.1C540.73,261.4,541.07,258.64,541.42,255.87Z" fill="#ffe1c5"/><path d="M518.47,371.4c-3,2.14-8.33.26-8-4a770.41,770.41,0,0,1,13.72-94c2.09-20.7,4.36-41.39,6.65-62.06A121.87,121.87,0,0,0,524.1,193a138.45,138.45,0,0,0-16.38-26.79,35.81,35.81,0,0,1-5,1.32l-.8.16a18.55,18.55,0,0,1-2.35.38h-.26a5,5,0,0,1-3.76-1.42,4.06,4.06,0,0,1-1.14-1.7l-.07-.16-.07-.15a4.77,4.77,0,0,1-.26-1.87,9.64,9.64,0,0,1,.44-2.65l.06-.19c.05-.14.09-.29.14-.44.14-.45.27-.9.39-1.36s.22-.91.32-1.37.18-.78.28-1.16q.31-1.28.63-2.46a153,153,0,0,0-24.18-19.83c-8.41,3.44-17.14,6.56-26.09,9.31a395,395,0,0,1-73.17,14.82c-6.49.7-13.07,1.27-19.55,1.69a433.45,433.45,0,0,1-54.89.09A392.75,392.75,0,0,1,238.64,151a128.2,128.2,0,0,0-13.81,14.89c-3.23,8.28-5.79,16.86-8.68,25.29l-.36,1.62-.17.75-.22,1-.16.68-.07.29-.06.23,0,.11L215,196c-.27,1.11-.66,2.76-.95,4.3l-.26,1.35-1.27,6.72c-.28,1.55-.55,3.17-.79,4.69l-.06.39-.06.39-.34,2.12c-.28,1.77-.58,3.53-.89,5.3l-.3,1.81c-.69,4-1.47,8.4-2.4,13.34-1.65,8.86-3.42,18.73-5.4,30.18-1.56,9.06-3,18.61-4.57,29.2l-.15,1-.13,1a1.82,1.82,0,0,0-.75-.15,18.88,18.88,0,0,0-2,0l-.39,0c-2.35-.3-4.71-.48-7.65-.59-2.33-.08-4.56-.05-6.64.08l-.28,0a42,42,0,0,0-14.23,3.53,53.36,53.36,0,0,0-12.09,7.42,67,67,0,0,0-5.51,4.95c-.68.68-1.33,1.37-2,2.1a24.06,24.06,0,0,0-2,2.83l-.44.65a31,31,0,0,0-3.08,6.22,30.1,30.1,0,0,0-1.8,6.72c-.14,1.11-.22,2.24-.28,3.15l0,.22-.06.81c-.05,1.07-.07,2.26-.07,3.54a51.25,51.25,0,0,0,.76,7.06,37.5,37.5,0,0,0,2.08,7.26,42.39,42.39,0,0,0,3.51,6.7,25.12,25.12,0,0,0,4.8,5.61,24.61,24.61,0,0,0,6.46,3.86,41.09,41.09,0,0,0,6.93,2.32,42.48,42.48,0,0,0,7.43.8l.64,0a94.3,94.3,0,0,0,9.75-.07c1-.06,2.14-.16,3.45-.3a40.57,40.57,0,0,0,5.52-1.14c.56-.16,1.11-.34,1.66-.53a6.79,6.79,0,0,0-.17,1.31l0,.52c-.17,2.44-.27,5.05-.31,8,0,1.25,0,2.49,0,3.73s.05,2.29.05,3.44q0,2-.06,4.05l0,.74v1.16c-.05,2.17-.12,5.15-.07,7.95.08,5.22.34,10.37.58,14.71l.1,2.22v.16c.16,3.28.34,7,.83,10.52l.23,1.79,0,.23,0,.14,0,.19c.15,1.16.37,2.75.6,4.16.28,1.67.59,3.33.91,5l.38,2c.05.3.11.59.17.87l.21,1.73.11.85v.12l.05.41c.09.7.17,1.32.23,2l.1.91.1.9c.15,1.41.32,3,.54,4.61.31,2.15.7,4.25,1.11,6.39,1,5,2.26,10.11,3.28,14,.17.66.34,1.32.5,2l0,.14c.31,1.29.64,2.61,1.08,3.9.53,1.6,1.12,3.3,2.12,6a56.62,56.62,0,0,0,2.61,6.07c.39.78.76,1.57,1.13,2.36l.2.42.18.38.18.39.18.38c.32.7.65,1.39,1,2.08,1.36,2.84,3,5.6,4.51,8.27l.07.11.11.18c.69,1.18,1.37,2.35,2,3.54a67.58,67.58,0,0,0,7.19,10.42,65.36,65.36,0,0,0,4.46,4.85c1.2,1.17,2.44,2.29,3.54,3.28l.15.14.12.1.11.11c.65.57,1.28,1.16,1.92,1.75l.21.2.41.37c.54.5,1.08,1,1.63,1.48,1.58,1.4,3.27,2.77,5.31,4.3a33.67,33.67,0,0,0,6.14,3.79c.44.21.89.41,1.34.6l.34.16.4.17.26.11c1.18.52,2.36,1,3.52,1.58l1.71.83.47.24.37.18.33.16.25.13c1,.49,2,1,2.93,1.42a67.34,67.34,0,0,0,6.45,2.5c3.8,1.32,7.77,2.54,11.78,3.63,4.69,1.26,9.72,2.36,15.83,3.44,2,.35,3.93.65,5.94.94l.21,0,.27,0,1.49.21c2.46.37,5,.49,7.23.6l1.47.08h.49c2,.14,3.63.24,5.3.26,1.89,0,4,0,6.56-.13,3.62-.14,7.31-.37,10.88-.59l.59,0,.5,0,1.27-.08,1-.06c1.73-.11,4-.28,6.61-.55,3.12-.08,6.16-.24,8.85-.38l.36,0,.34,0,1.07,0H354c1.69-.09,3.35-.18,5-.29l1-.07c1.82-.12,3.68-.36,5.25-.58.92,0,1.84-.06,2.74-.12,1.57-.1,3-.22,4.43-.38,5.39-.59,9.89-1.11,14.57-2,5.33-1.06,10.58-2.61,14.56-3.83s8.58-2.69,13.19-4.32c2.18-.76,4.28-1.64,6.43-2.55.93-.39,1.86-.89,2.67-1.33.5-.27.95-.5,1.39-.72.73-.37,1.44-.78,2.17-1.21l1-.62a80,80,0,0,0,11.11-8.1l1.93-1.61c2.93-2.42,5.95-4.94,9.09-7.18,1.25-.88,2.55-1.74,3.81-2.58l.23-.15.23-.15.22-.14.3-.21.12-.07,1.27-.83,1-.63a56.51,56.51,0,0,0,4.67-3.27c1.89-1.51,3.82-3.27,5.1-4.44l.09-.09.74-.67a47,47,0,0,0,4.56-4.72c1.55-1.89,3-3.78,4.47-5.78,1.63-2.24,3.11-4.7,4.35-6.81a112,112,0,0,0,5.43-10.71l.11-.19.13-.19c.31-.46.6-.92.87-1.34l.1-.15.07-.11h-.26a2.37,2.37,0,0,0,.84-.9c1-1.42,1.92-2.85,2.76-4.19,1.07-1.56,2.2-3.23,3.22-5a35.22,35.22,0,0,0,2-4l.49-1.08.49-1.06.2-.42.09-.19c.46-1,1-2.21,1.53-3.48.82-2,1.56-3.88,2.36-5.77l.11-.25.07-.17.14-.31c.59-1.36,1.25-2.87,1.91-4.3s1.23-2.82,1.59-3.79c.24-.61.48-1.2.72-1.79.17-.4.32-.8.48-1.19l.08-.23.09-.24.06-.16.37-1c.34-.81.62-1.66.85-2.39l.09-.28.06-.2.11-.35.28-.84c.66-1.92,1.3-3.94,1.9-6,.2-.72.38-1.45.56-2.18l.05-.2.06-.22c.16-.62.32-1.23.49-1.84.35-1.23.68-2.52,1-3.73l0-.11.06-.24.11-.42c.27-1.09.57-2.17.86-3.26l0-.16.32-1.17c.17-.62.33-1.25.48-1.87l.12-.49,0-.13c.22-.89.45-1.77.69-2.65l.66-2.34a73.56,73.56,0,0,0,1.82-7.15c.14-.74.31-1.46.48-2.18.29-1.24.49-2.12.64-3a44.31,44.31,0,0,0,.38-4.58c.07-.51.15-1,.24-1.57l.16-.94c.19-1.17.27-2.22.36-3.57a12.49,12.49,0,0,1,.24-1.31l0-.17.05-.19,0-.1,0-.13,0-.15c.1-.49.17-.85.22-1.19.16-1.24.22-2.54.26-3.66l0-.21c.07-.61.15-1,.24-1.47s.22-1.05.3-1.57a39.61,39.61,0,0,0,.27-4A5.43,5.43,0,0,1,518.47,371.4ZM333.33,388.53c.12-.41.24-.82.37-1.23s.17-.56.24-.81c.16-.51.28-1,.4-1.56.07-.34.15-.69.24-1l.49-1.84.32-1.24.63-2.36c.24-.88.62-2.38,1.06-4.55l.27-1.25c.25-1.1.49-2.19.74-3.28l0-.15.06-.25c.58-2.51,1.37-6,1.9-9.29.84-5.21,1.61-9.16,2.51-12.8.68-2.67,1.24-5.33,1.71-7.62l0-.1.06-.27,0-.24c.31-1.44.61-2.89.93-4.33A105.66,105.66,0,0,1,349.49,321a4.33,4.33,0,0,1,2.52-2.19,4.45,4.45,0,0,1,1.14-.2,4.32,4.32,0,0,1,4.46,2.94,4.81,4.81,0,0,1,.15,2.32l-.38,1.09c-.31.83-.61,1.66-.91,2.49a64.48,64.48,0,0,0-1.92,6.38c-.66,2.58-1.17,5.06-1.6,7.19s-.93,4.25-1.41,6.36l-.13.59-.1.5q-.62,2.6-1.18,5.21c-.4,1.84-.72,3.77-1,5.31l0,.24,0,.16-.05.28,0,.25,0,.21,0,.22c-.29,1.71-.71,4.28-1.22,6.59l-.63,2.79-.41,1.79-.41,1.78-.45,2-.08.37,0,.21c-.31,1.45-.57,2.59-.81,3.59l-.39,1.47-.39,1.47-.71,2.65a.5.5,0,0,0,.36.11l.24,0,.3,0c2.19-.22,4.39-.39,6.07-.51l.4,0c1.7-.11,3.43-.13,4.57-.14h1.21c.55,0,1.1,0,1.65-.07.9-.06,1.82-.15,2.66-.24l.26,0,.34,0h.26l1.22-.13h.14a4.39,4.39,0,0,1,.42,8.77l-1.39.15H362c-1.17.14-2.2.24-3.16.3-.48,0-1,.05-1.47.06h-2.79c-.94,0-1.91,0-2.88.1-1.9.12-3.74.27-5.56.44-1.49.15-3,.35-4.4.53l-.39.06-.34,0-.22,0-.29,0c-.25,0-.52.06-.78.08A8.3,8.3,0,0,1,336,394a4.86,4.86,0,0,1-2.76-4.1A4.71,4.71,0,0,1,333.33,388.53ZM282.45,232.32l-.54.24c-1.85.81-3.56,1.44-6,2.31a4.36,4.36,0,0,1-1.12.21,4.51,4.51,0,0,1-4.48-3,4.45,4.45,0,0,1-.2-1.11,4.51,4.51,0,0,1,2.94-4.5c2-.72,4.22-1.53,6.33-2.46,1.71-.76,3.75-1.63,5.86-2.39a42.56,42.56,0,0,1,5.43-1.45l.46-.1.39-.08,2.15-.51.16,0,.62-.15c1-.25,2.07-.5,3.11-.72a4.13,4.13,0,0,1,1.18-.24,4.55,4.55,0,0,1,1.17.06l1.09.38a4.42,4.42,0,0,1,2,5.91,4.16,4.16,0,0,1-2.48,2.17l-2.63.61-.58.14c-1.08.26-2.15.51-3.23.75l-1.09.24c-.75.15-1.48.31-2.22.5-.95.26-1.94.6-2.79.91l-.19.07c-1.93.67-4,1.59-5.24,2.14Zm10.3,73.22a7.1,7.1,0,0,1-1.76.36c-.51,0-1-.06-1.52-.11a6.42,6.42,0,0,1-3.1-1.74l-.27-.32-.1-.1-.16-.2a6.28,6.28,0,0,1-1.26-2.38,18.07,18.07,0,0,1-.53-3.28q0-.36,0-.69a23.11,23.11,0,0,1,0-2.49,37.53,37.53,0,0,1,.67-6.28c.24-1.11.61-2.22.89-3.1l.06-.17c.21-.65.41-1.26.59-1.88a4.85,4.85,0,0,1,1.85-2.77,4.67,4.67,0,0,1,2.21-.72,4.76,4.76,0,0,1,1.15.06l.43.11a6.11,6.11,0,0,1,.84.08,7.93,7.93,0,0,1,4.67,3,7.41,7.41,0,0,1,1.44,3.7,15.44,15.44,0,0,1,.3,2.09,20.06,20.06,0,0,1-.12,3l-.06.55a30.86,30.86,0,0,1-.4,3.11,17.6,17.6,0,0,1-2.82,7.75A7,7,0,0,1,292.75,305.54ZM371.5,469a4.33,4.33,0,0,1-2.52,2.2l-1.63.39-.2.05-.11,0-.18,0c-1.74.41-3.72.87-5.64,1.15s-4.32.61-6.8.77c-4.74.31-9.42.55-13.9.72a104.44,104.44,0,0,1-14.37-.23,47.5,47.5,0,0,1-7-1.13,40.5,40.5,0,0,1-7.12-2.85c-3.61-1.76-7.12-3.87-10.2-5.73L299.44,463a4.67,4.67,0,0,1-2.22-2.52,4.53,4.53,0,0,1,.23-3.46,4.73,4.73,0,0,1,3.37-2.42,3.44,3.44,0,0,1,.45-.05,3.77,3.77,0,0,1,2.16.49l1.19.72,1.19.7.29.18.29.17c2,1.18,3.94,2.36,5.92,3.46a69.28,69.28,0,0,0,7.85,3.76,28.57,28.57,0,0,0,4.45,1c1.29.16,2.67.31,4.33.45,5.19.22,10.36.06,16.53-.25l1.43-.07c1.67-.09,3.35-.17,5-.28a89.9,89.9,0,0,0,9.65-1.06c1.31-.28,2.62-.58,3.93-.89l.56-.13a8.37,8.37,0,0,1,1.27-.21,4.17,4.17,0,0,1,2.19.43,4.49,4.49,0,0,1,2.21,2.52A4.61,4.61,0,0,1,371.5,469Zm55.62-189.09-.06.68a38.14,38.14,0,0,1-1,6.18,35.74,35.74,0,0,1-1.29,4.23,15.27,15.27,0,0,1-1.88,3.33,7.3,7.3,0,0,1-5.29,3.09,6.31,6.31,0,0,1-1.58-.1,7.61,7.61,0,0,1-5.5-4.59,11.24,11.24,0,0,1-.71-3.43,29.15,29.15,0,0,1,.05-3.8,31.52,31.52,0,0,1,.37-3.83,23.84,23.84,0,0,1,1.06-3.74c.9-2.51,2.68-4.4,4.57-6.27a4.65,4.65,0,0,1,2.32-1.37,5.2,5.2,0,0,1,2.85-1.07,5.1,5.1,0,0,1,3.87,1.32,7,7,0,0,1,2,3.11A17.53,17.53,0,0,1,427.12,279.91Zm3.46-47.14c-2.2.2-4.56.44-6.94.84-.76.17-1.55.39-2.58.68l-1,.26a28.48,28.48,0,0,0-3.24,1.18l-.58.24c-1.91.78-3.84,1.68-5.65,2.53l-.13.06-1.33.62-1,.46a3.41,3.41,0,0,1-1.1.25,4.91,4.91,0,0,1-2.35-.47,4.58,4.58,0,0,1-2.2-2.5,6,6,0,0,1-.2-1.12,4.69,4.69,0,0,1,.44-2.31,4.8,4.8,0,0,1,2.51-2.18l2.23-1,.5-.24.18-.07.17-.09c1-.47,2.06-.95,3.11-1.41l.69-.3a39.47,39.47,0,0,1,4.72-1.84,60.17,60.17,0,0,1,6.34-1.5l.58-.09c2.13-.37,4.27-.57,6.27-.73a4.39,4.39,0,1,1,.56,8.76Z" fill="#ffe1c5"/><path d="M492.55,453.34a4.31,4.31,0,0,0-1.68,2.51c-.27.83-.54,1.65-.82,2.47-1.09,2.95-2.19,5.89-3.52,8.75a63.35,63.35,0,0,1-3.81,6.57c-1.05,1.68-2,3.39-3.12,5.05s-2,3.34-3,5c-.82,1.17-1.66,2.33-2.43,3.54s-1.41,2.39-2.16,3.55c-3,4.21-6.21,8.24-9.49,12.21-1.5,1.82-3.12,3.56-4.77,5.24-1.84,1.85-3.67,3.7-5.6,5.46l-1.39,1.25.57-.5-.35.31,0,0c-1.12,1-2.3,1.91-3.5,2.81s-2.55,2.07-3.77,3.16a84.71,84.71,0,0,1-12.25,8.42l-.44.23-.69.31-.17-.13a4.15,4.15,0,0,0-2.9-1,4.06,4.06,0,0,0-2.75,1.35,4,4,0,0,0,.37,5.64,11.7,11.7,0,0,0,2.57,1.73,6.94,6.94,0,0,0,4.67.26,17.66,17.66,0,0,0,3.37-1.54l-.59.3a70.34,70.34,0,0,0,7-4.24,72.36,72.36,0,0,0,7.8-6.06l-.77.68c1.1-1,2.21-1.89,3.37-2.77s2.44-1.92,3.62-3l-.23.2.29-.25.48-.43-.39.34c2.12-1.87,4.16-3.79,6.16-5.79,1.75-1.77,3.43-3.57,5.1-5.4s3.35-3.95,4.92-6c.76-1,1.54-2,2.33-2.95s1.53-2.11,2.32-3.15c.54-.72,1.07-1.46,1.58-2.21,1.11-1.66,2.09-3.39,3.18-5.07.72-1,1.46-2.05,2.14-3.11s1.26-2.24,2-3.31c1.3-2,2.5-4.07,3.78-6.09.66-1,1.3-2.09,1.95-3.13a43.3,43.3,0,0,0,2.59-4.85,107.72,107.72,0,0,0,4.58-12.24,3.81,3.81,0,0,0-.6-3.05,4,4,0,0,0-2.5-1.68,4.25,4.25,0,0,0-1.07-.07,4.14,4.14,0,0,0-2,.67Zm-20.3,37.05-.17.25,0,0c.06-.09.12-.19.19-.28Zm6.07,5.18.15-.22-.15.22Zm.2-.3,0,.08.13-.19-.08.11Zm.08-.11.29-.43-.29.43Z" fill="#ffe1c5"/><path d="M289.34,453.16c-4.62.32-9.24.65-13.84,1.2-1.76.21-3.52.47-5.26.79l-2.07-.18-1.07-.08a3.92,3.92,0,0,0-2,.68,4,4,0,0,0-1.68,2.5,4.06,4.06,0,0,0,.6,3.05,4.1,4.1,0,0,0,2.19,1.63,4,4,0,0,0,2.12,1.2,42.08,42.08,0,0,0,5.61.52l3.43.16,3.6.14a3.1,3.1,0,0,0-.21.36,3.9,3.9,0,0,0-.41,2.05,4,4,0,0,0,3.18,3.66c.67.08,1.35.14,2,.18a8.65,8.65,0,0,0,1.87.52c.31,0,.7,0,1,.08l1.5.12c1.11.09,2.23.18,3.34.25l6.66.47c4.61.32,9.23.55,13.86.78-2.65,1.16-5.31,2.3-8,3.29-1.45.34-2.92.65-4.32,1.13a4,4,0,0,0-2.68,4,3.91,3.91,0,0,0,.67,2,4.28,4.28,0,0,0,2.51,1.68,6,6,0,0,0,3.45-.25c2.12-.16,4.23-.49,6.34-.78l6.64-1c4.54-.68,9-1.55,13.57-2.36,8.71-1.57,17.38-3.41,26-5.13l5.17-1,4.14.05c1.83,0,3.67,0,5.5,0,2,0,4,0,6-.05l7.79-.24c2-.07,4-.26,6-.39a28.27,28.27,0,0,0,5-.72,4,4,0,0,0,2.68-4,3.92,3.92,0,0,0-.68-2,3.8,3.8,0,0,0-2.5-1.68,34.55,34.55,0,0,0-3.52-.09l-1.66.06-3.43.15-3.63.16a3.94,3.94,0,0,0-.47-.94,3.59,3.59,0,0,0-.62-.71,3.93,3.93,0,0,0,.73-2.55,4.11,4.11,0,0,0-2.2-3.32,12.74,12.74,0,0,0-4.39-1.2c-1.08-.17-2.17-.33-3.25-.48-2.08-.28-4.16-.59-6.24-.83-4.65-.51-9.3-1-14-1.32q-13.5-.92-27-1.56c-4.2-.2-8.41-.31-12.62-.46-2.13-.07-4.27,0-6.4-.06-1.79,0-3.58-.08-5.37,0l-8.47.25c-1.1,0-2.19.1-3.28.17l-2,.13Z" fill="#ffe1c5"/><path d="M419.45,110.83c-11.52,0-23,.07-34.53.21-24.77.31-49.67,1.28-74.19,5-4,.61-8.07,1.26-12.17,2-23.92,7.33-46,18.84-63.75,36.6,16.61,16,78.59,27.82,152.54,27.82,49.51,0,93.63-5.33,122.38-13.63C488,139.49,455.13,118.85,419.45,110.83Z" fill="#ffe1c5"/><rect x="121.75" y="147.61" width="400.17" height="358.11" fill="#ffe1c5"/></g><g id="Layer_12" data-name="Layer 12"><path d="M189.92,316.7l.63.08A4.46,4.46,0,0,1,192.5,318a13.09,13.09,0,0,1,2.15,2.53l.43.59L195,321c1.39,1.87,2.77,3.84,4,5.59s2.27,3.23,3.43,4.84,2.56,3.52,3.71,5.45a63.26,63.26,0,0,1,2.91,5.75l.37.79a5,5,0,0,1,.45,3.54,4.66,4.66,0,0,1-2,2.75,4.32,4.32,0,0,1-2.24.62,4.08,4.08,0,0,1-1.17-.16,4.35,4.35,0,0,1-2.65-2.11l-.34-.75-.09-.18c-.79-1.7-1.61-3.45-2.55-5.09s-2-3.09-3-4.56l-.78-1.12-1.28-1.77-.2-.27c-.55-.76-1.11-1.52-1.64-2.29-1.55-2.27-2.79-4-4-5.73l-.13-.17a10.19,10.19,0,0,0-1.52-1.69,4.47,4.47,0,0,1-1.29-3.25,4.74,4.74,0,0,1,1.29-3.25,4.35,4.35,0,0,1,3.12-1.34l.55.08Z" fill="#59252d"/><path d="M461.24,250.09h0a4.5,4.5,0,0,1-4.27,3.23,4.68,4.68,0,0,1-1.14-.14c-2.45-.71-4.19-1.23-6.09-1.92l-.56-.21-.11,0c-1.27-.47-3.4-1.25-5.37-1.8l-.19-.06c-.87-.25-1.87-.53-2.84-.72-.75-.14-1.49-.25-2.25-.36l-1.1-.17-3.28-.54-.58-.1-2.66-.44a4.19,4.19,0,0,1-2.62-2,4.56,4.56,0,0,1-.44-3.39,4.46,4.46,0,0,1,2-2.64l1.07-.45a4.91,4.91,0,0,1,1.16-.14,4.38,4.38,0,0,1,1.19.16c1.05.16,2.1.34,3.15.53l.63.1.16,0c.73.12,1.45.25,2.19.36l.38.06.48.07a41.74,41.74,0,0,1,5.5,1.1c2.16.62,4.25,1.36,6,2,2.17.8,4.4,1.46,6.48,2.06a4.52,4.52,0,0,1,3.23,4.3,4.58,4.58,0,0,1-.14,1.12ZM320.07,324.51h0a6.14,6.14,0,0,1-1.57.2A7.24,7.24,0,0,1,313,322a14.45,14.45,0,0,1-2.09-3.2,35.65,35.65,0,0,1-1.57-4.14,38.29,38.29,0,0,1-1.39-6.1l-.1-.67a17.19,17.19,0,0,1-.14-6.27,6.79,6.79,0,0,1,1.75-3.23,5.14,5.14,0,0,1,3.77-1.57,5.2,5.2,0,0,1,2.91.89,4.62,4.62,0,0,1,2.41,1.22,17.28,17.28,0,0,1,5,6,24.39,24.39,0,0,1,1.3,3.66,32.22,32.22,0,0,1,.61,3.8,29.19,29.19,0,0,1,.3,3.79,11.62,11.62,0,0,1-.49,3.47,7.61,7.61,0,0,1-5.2,4.93Zm126.83.31h0c-.49.09-1,.16-1.5.22a8,8,0,0,1-1.78-.25,7,7,0,0,1-3.16-2.18,17.59,17.59,0,0,1-3.31-7.56,29.93,29.93,0,0,1-.6-3.07l-.1-.55a20.12,20.12,0,0,1-.31-3,15.19,15.19,0,0,1,.16-2.1,7.39,7.39,0,0,1,1.2-3.79,7.93,7.93,0,0,1,4.47-3.3,4.92,4.92,0,0,1,.83-.13,2.3,2.3,0,0,1,.42-.14,4.6,4.6,0,0,1,1.15-.13,4.67,4.67,0,0,1,2.25.57,4.83,4.83,0,0,1,2,2.65c.22.6.46,1.2.71,1.83l.07.17c.34.86.78,1.94,1.09,3a38.14,38.14,0,0,1,1.08,6.23,23.6,23.6,0,0,1,.19,2.48c0,.22,0,.45,0,.69a17.73,17.73,0,0,1-.32,3.31,6.3,6.3,0,0,1-1.11,2.46l-.14.2-.09.12c-.07.1-.15.19-.25.32a6.38,6.38,0,0,1-3,1.94Zm-40.74,91.06h0a8.46,8.46,0,0,1-3.64.76c-.26,0-.53,0-.79,0l-.28,0-.22,0-.35,0-.39,0c-1.37-.09-2.93-.2-4.42-.25-1.83,0-3.68-.07-5.59-.08-1,0-1.93.05-2.87.09h-.78l-.29,0h-.26l-1.46.08-1.47,0c-1,0-2,0-3.17-.09H380l-1.39-.05a4.4,4.4,0,0,1-.15-8.79h.15l1.22,0h.86c.85,0,1.77.07,2.68.07q.83,0,1.65,0l1.2-.07c1.15-.06,2.87-.16,4.58-.16h.4c1.68,0,3.89,0,6.09.11h.54a.46.46,0,0,0,.35-.13l-.88-2.6-.48-1.44-.48-1.44c-.32-1-.65-2.11-1.05-3.54l-.06-.21-.1-.35c-.19-.67-.38-1.34-.58-2l-.51-1.76-.53-1.76-.81-2.74c-.66-2.26-1.25-4.81-1.64-6.49l0-.22-.05-.21-.06-.25-.06-.27,0-.16-.05-.23c-.36-1.53-.81-3.43-1.33-5.24s-1-3.42-1.51-5.12l-.14-.49-.16-.58c-.62-2.09-1.23-4.17-1.82-6.27s-1.24-4.54-2.05-7.07a65.9,65.9,0,0,0-2.33-6.24c-.36-.81-.71-1.62-1.07-2.42l-.45-1.07a4.79,4.79,0,0,1,0-2.32,4.51,4.51,0,0,1,2-2.65,4.78,4.78,0,0,1,3.39-.45,4.28,4.28,0,0,1,2.65,2,102.9,102.9,0,0,1,5,13q.61,2.13,1.2,4.26l.06.24.07.26,0,.1c.62,2.26,1.35,4.88,2.2,7.49,1.13,3.58,2.16,7.47,3.33,12.62.74,3.29,1.76,6.68,2.49,9.15l.08.25.05.14c.32,1.07.63,2.15.94,3.22l.36,1.23c.58,2.14,1.05,3.62,1.35,4.48l.77,2.32.41,1.21.61,1.81c.11.33.21.67.31,1,.15.51.3,1,.49,1.53.08.25.18.5.29.79s.31.8.45,1.21a4.67,4.67,0,0,1,.19,1.39,4.88,4.88,0,0,1-2.49,4.27ZM347.68,241.3h0a4.51,4.51,0,0,1-2.09,4.94,4.38,4.38,0,0,1-1,.45c-2.48.61-4.25,1-6.23,1.39l-.59.1-.12,0c-1.33.23-3.57.62-5.55,1.13l-.19,0c-.88.21-1.89.47-2.82.79-.72.25-1.42.53-2.13.81l-1,.41c-1,.4-2.06.79-3.1,1.17l-.56.21-2.52.95a4.17,4.17,0,0,1-3.27-.42,4.55,4.55,0,0,1-2.08-2.71,4.47,4.47,0,0,1,.43-3.3l.7-.93a5,5,0,0,1,.93-.7,4.24,4.24,0,0,1,1.12-.45c1-.39,2-.76,3-1.13l.6-.22.15-.06,2.08-.78.36-.14.45-.18a42.68,42.68,0,0,1,5.31-1.81c2.18-.53,4.36-.94,6.2-1.27,2.28-.39,4.54-.93,6.63-1.46a4.53,4.53,0,0,1,5.4,3.14Z" fill="#59252d"/><path d="M338,466.76c.73.27,1.43.6,2.16.87a54.89,54.89,0,0,1,6,2.15c1.94.81,3.92,1.51,5.91,2.19a55.23,55.23,0,0,0,6.12,1.37l6.94,1.27q3.63.67,7.27,1.28c2.07.34,4.15.65,6.25.8,1.19,0,2.4,0,3.59,0a43,43,0,0,0,4.8-.42,4,4,0,0,1,.69,8c-1,.12-2,.25-3.07.34s-2.05.07-3.08.07a52.28,52.28,0,0,1-6.13-.25c-4.07-.45-8.12-1.25-12.14-2l-6.21-1.14c-1.89-.35-3.78-.68-5.65-1.19-2.13-.58-4.23-1.37-6.3-2.15-1.7-.64-3.35-1.4-5.06-2l-.37-.13c-1-.31-2-.6-3-.93-.75-.26-1.47-.63-2.22-.91a3.88,3.88,0,0,1-2-2.24,4,4,0,0,1,2.4-5.13,3.8,3.8,0,0,1,2-.15,6.69,6.69,0,0,1,1.09.32Z" fill="#59252d"/><path d="M315.91,300.14a6.57,6.57,0,0,1,2.88,1.68,10.19,10.19,0,0,1,1.45,1.71,31.08,31.08,0,0,1,2.55,4.4,28.53,28.53,0,0,1,2.3,5.75,26.14,26.14,0,0,1,.53,3.53,12.51,12.51,0,0,1-.15,3.45,6.32,6.32,0,0,1-1.49,2.79,5.12,5.12,0,0,1-1.75,1.34,7.18,7.18,0,0,1-3.66.82,7.27,7.27,0,0,1-3.05-.89,9.77,9.77,0,0,1-1.38-1,10.34,10.34,0,0,1-1.85-2.11,12.58,12.58,0,0,1-.92-1.44,16.59,16.59,0,0,1-1.44-2.13,29.93,29.93,0,0,1-2.23-5.21,15.9,15.9,0,0,1-.6-2.82,14.07,14.07,0,0,1-.28-3.49,7.8,7.8,0,0,1,.37-2c.18-.44.36-.87.56-1.3a5.82,5.82,0,0,1,2.05-2.13,2.7,2.7,0,0,1,.58-.31,7.74,7.74,0,0,1,1.77-.61c.55-.09,1.11-.16,1.67-.22l.44,0a10.3,10.3,0,0,1,1.65.19Z" fill="#59252d"/><path d="M445,296.59h0a5.63,5.63,0,0,0-1.42-.17,6.44,6.44,0,0,0-2,.32,8.56,8.56,0,0,0-5.74,5.38,19.47,19.47,0,0,0-.33,6.28,41.61,41.61,0,0,0,.6,5.8,15,15,0,0,0,.72,2.59,14.67,14.67,0,0,0,2.65,4.62,8.66,8.66,0,0,0,2.76,2,7.29,7.29,0,0,0,1.74.59,7,7,0,0,0,1.85.18,8.28,8.28,0,0,0,5.49-2.27,10,10,0,0,0,2.62-5.19,14.5,14.5,0,0,0,.15-3.66,19.61,19.61,0,0,0-1-4.71,22.44,22.44,0,0,0-1.23-4.27,15.53,15.53,0,0,0-3.08-5.27,8.13,8.13,0,0,0-3.74-2.26Zm-1.49,12h0c.32.07.62.14.93.23l.11.11a14.3,14.3,0,0,1,.69,1.27l0,.12c.07.34.13.68.19,1s.11,1,.15,1.52a4.87,4.87,0,0,0,.52,2c0,.12,0,.24,0,.36s-.12.47-.19.71l-.19.32-.1,0-.13-.07-.3-.31a10.72,10.72,0,0,1-.78-1.46,15.93,15.93,0,0,1-.69-2.74c-.11-1-.19-2.05-.24-3.08Zm1.16.37h0a2.69,2.69,0,0,1,.28.22l-.28-.22Z" fill="#59252d"/></g><g id="Layer_11" data-name="Layer 11"><path d="M507.54,425c-9,42.65-31.45,76.68-67.62,104.91,39.32,32.09,82.54,34.86,122.53,36.28-7.74-69.54-15.7-137.37-22.46-205.33-1.19-12,1.21-25,4.39-36.87,25.39-94.25,8.39-178.32-57-249.37C400.4-19.77,255.4-25,162.61,61.26,114.68,105.83,87.25,160.51,83,228c-3.8,60.45-9.86,120.74-14.47,181.15-3.23,42.23,10.5,78.24,38,109.25,37.41,42.18,87.3,44.77,137.1,49,1-2.84,2.41-4.79,2.13-6.45-10.36-62.77-20.88-125.52-31.91-191.47-4.75,5.29-6.53,6.66-11.84,11.53-5.16,4.74-13,6.68-18.75,6.83-4.55.11-10.14-3-14.06-8.34-4.28-5.8-6.66-9.46-11.6-14.31-22.34-21.93-24.14-54.21-3.39-76s51.22-19.37,73.06,3.77c2.42,2.57,4.29,3.35,6.28,3.32a408.5,408.5,0,0,0,42.6-20.06c31.58-17.24,59.07-39.37,83.64-64.55A568.49,568.49,0,0,0,391,161.9c3.35-7.42,6.4-14.85,8.86-22.18,42.15,28,61.62,72.95,77.9,120.28l5.24,0,23.36-56.72c2.22,20.37,5,35.29,5.25,50.24.63,42.64.52,85.29,0,127.93C511.42,396,510.51,410.83,507.54,425Z" fill="#edb169"/></g></g></svg>