<svg xmlns="http://www.w3.org/2000/svg" viewBox="0 0 679.62 963.27"><title>professor2</title><g id="Layer_2" data-name="Layer 2"><g id="Draw_Layer" data-name="Draw Layer"><path d="M458.73,722.53l-.89-.06c-1.75-.12-3.49-.16-5.41-.2l-.74,0H451l-1.39,0c-1.76-.05-3.09,0-4.32,0l-2.11.13-2.07.14-6.38.4-3.69.23-1.09.07c-7.8.49-15.86,1-23.77,1.56-3.07.21-5.85.41-8.66.7a73.68,73.68,0,0,0-9.15,1.51c-2.17.5-4.36,1.14-6.47,1.77l-.13,0-.12,0-1.59.46c-1.57.46-3.16.88-4.74,1.29l-.42.12-.28.07c-1,.25-2,.51-3,.78l-1.2.32c-1.75.48-3.47.95-5.15,1.31-1.11.2-2.22.38-3.33.55l-.64.11a3,3,0,0,0-2,1,2.86,2.86,0,0,0-.71,2.08,2.89,2.89,0,0,0,1,2,3,3,0,0,0,1.63.73,1.63,1.63,0,0,0,.44,0l.32,0a69.85,69.85,0,0,0,8.26-1.67c1.46-.42,2.94-.8,4.41-1.17l.37-.1,2.37-.62c1.41-.38,2.81-.78,4.22-1.17l.73-.21,2.48-.69,1.44-.4.31-.09c1.76-.48,3.57-1,5.39-1.36l.78-.14.43-.07-.23.36-.07.14c-.18.36-.33.67-.51,1A16,16,0,0,1,391,735l-1.32,1-.2.14-.46.37-.46.37-1.15.91c-.24.19-.5.37-.75.53-.46.31-.75.55-1,.78l-.23.19c-.65.52-1.34,1-2.12,1.55-.57.4-1.12.86-1.68,1.33l-.3.25a28,28,0,0,1-2.36,1.8,41.81,41.81,0,0,1-4.47,2.6c-1.17.57-2.42,1.11-3.71,1.64a23.29,23.29,0,0,1-3.56,1c-.93.14-1.68.24-2.38.29s-1.43,0-2.05,0l-.59,0c-.8,0-1.6,0-2.39-.09l-.72,0c-.7,0-1.41-.09-2.09-.06l-.48,0c-3.31.1-6.71.22-10,0a37.38,37.38,0,0,1-4.11-.56c-1.54-.32-3.11-.78-4.43-1.19-1.57-.59-3.2-1.28-4.83-2-1.3-.61-2.57-1.29-3.87-2l-.13-.13-.14-.13c-2.63-2.42-5-5-6.61-6.71-.71-.77-1.43-1.52-2.15-2.28l-.44-.47-.13-.14.16.08,1.58,0,1.47,0c2.72.08,5.62.08,8.86,0,.89,0,1.52,0,2.16-.11a4.4,4.4,0,0,0,2.83-1.28,3,3,0,0,0,.68-1.45,3.09,3.09,0,0,0-.52-2.33,3.26,3.26,0,0,0-.39-.5h.72c1.89-.11,3.59-.2,5.29-.23h6.22c1.16,0,2.32,0,3.47,0,3.57.09,7.2.15,10.8.17a2.56,2.56,0,0,0,1.85-.85,3.08,3.08,0,0,0,.83-2.2,3,3,0,0,0-1-2,2.83,2.83,0,0,0-1.72-.68l-.35,0c-3.36,0-7-.07-10.79-.16-1.18,0-2.36,0-3.54,0h-6.15c-2.44,0-4.92.21-7.1.37l-2.39.16-.27,0-10.34.64c-4.16.25-8.77.53-13.19.69l-1-.78a3.08,3.08,0,0,0-1.7-.69,2.8,2.8,0,0,0-2.36.95,3.16,3.16,0,0,0-.44.66h-.77l-2.69,0-1.73,0c-1.63,0-3.3.09-4.78.19-2.77.19-6.29.43-9.92.75-3.28.28-6.57.61-9.77,1l-2.13.26-.39,0-2.26.28c-1.79.2-3.66.33-5.26.44l-3.61.23q-8.24.53-16.47,1.07h-.12c-5.71.39-12.81.86-19.52,1.68-1.42.17-2.85.38-4.27.6l-.18,0v0c-1.73.26-3.52.53-5.25.72-3.31.35-6.61.79-9.82,1.31-1.79.29-3.58.55-5.38.8l-4.18.61c-1.68.26-3.36.5-5,.73l-.69.1-.68.09-3.72.55c-1.64.25-3.27.54-4.9.83l-.58.11c-1.42.25-2.85.51-4.28.75-.58.09-1.15.19-1.73.3-.89.15-1.77.31-2.67.45-2.19.33-4,.63-5.55.95l-2.11.43-.49.11L162,740l-1.78.37q-3.22.65-6.45,1.33c-3.15.62-6.54,1.31-10,2.15-1.46.36-3,.74-4.52,1.18l-1.73.37c-1,.21-2,.45-3,.69s-1.79.43-2.69.63l-.28.06c-1.74.4-3.54.8-5.29,1.27l-2.11.56c-3,.81-6.19,1.65-9.21,2.68-4,1.33-7.79,2.8-11.39,4.36-2.68,1.14-5.38,2.37-8,3.56l-2.51,1.14,1-.39c-3.43,1.48-6.88,3.09-10.21,4.65L83,765c-3.2,1.5-6.31,3.33-9.31,5.09l-1.8,1.06c-1.91,1.11-3.83,2.19-5.75,3.26s-3.54,2-5.29,3a77.74,77.74,0,0,0-10.5,7.38,114.39,114.39,0,0,0-9,8.22,101.5,101.5,0,0,0-8.13,9.37C32,804,30.55,805.92,29.18,808c-1.09,1.62-2.09,3.33-3,4.95-1.61,2.82-3.06,5.79-4.46,8.66l-1,2a120.26,120.26,0,0,0-5.25,12.52c-1.42,3.92-2.57,7.8-3.58,11.43-2.25,8-3.74,16.27-5.19,24.3-.25,1.41-.45,2.84-.64,4.22s-.39,2.76-.64,4.12c-.3,1.72-.55,3.42-.73,5.06-.09.83-.16,1.66-.22,2.49,0,.55-.09,1.11-.14,1.66l-.16,1.28c-.15,1.21-.31,2.42-.5,3.61-.07.41-.15.81-.22,1.21s-.17.89-.25,1.34c-.1.61-.18,1.22-.27,1.83s-.14,1-.22,1.51l-.06.38c-.31,2-.63,4-1,6l-.27,1.31c-.29,1.38-.58,2.8-.77,4.24A102,102,0,0,0,0,924.7c0,3.76,0,8,.12,12.24a27.45,27.45,0,0,0,.53,4q.12.59.21,1.17c.21,1.57.35,3.3.46,5.44,0,.72,0,1.45.06,2.18,0,1.22,0,2.46.17,3.68A27.36,27.36,0,0,0,2.24,957a9.25,9.25,0,0,0,1.12,2.91c.16.24.32.48.49.71a7.81,7.81,0,0,0,.56.68c5.66.14,11.33.25,17,.28,8,0,15.92,0,23.88-.07l.06,0a4.21,4.21,0,0,0,1-.89h6.08q14.34.09,28.69.14h.16c1.41.12,2.83.21,4.33.27q4,0,8.06,0l1.58,0c1.75,0,4.14-.11,6.7-.21h1.28q17.66.12,35.31.16h4.07l31,.14,17,.07,2.8,0,127.44.56,46.68.21,45.88.21,95.94.44,31.67.14,51.34.22h4l7.52,0,7.58,0,37.78.17h5.84c7.24-1.43,14.46-2.91,21.72-4.22.69-.12,1.38-.25,2.07-.36a9.25,9.25,0,0,0,.74-4c0-1.88-.09-3.77-.17-5.65-.17-4-.48-8-.91-11.66-.22-1.86-.43-3.86-.48-5.85s-.14-3.93-.25-5.9c-.16-2.79-.42-5.58-.67-8.28-.13-1.32-.25-2.6-.35-3.88-.14-1.56-.18-3.15-.21-4.91l0-1.38c-.06-2-.13-4.09-.21-6.13-.17-4.39-.45-8.42-.84-12.29-.33-3.24-.85-6.49-1.35-9.63-.18-1.13-.37-2.26-.54-3.39-.3-2-.74-4-1.2-6l-.42-1.84,0-.13c-.32-1.39-.64-2.79-1-4.18-.11-.41-.22-.83-.32-1.25l-.19-.72c-.33-1.33-.67-2.66-1.06-4s-.76-2.57-1.15-3.87l-.27-.89-.42-1.37c-1.13-3.76-2.47-7.47-3.76-11.06l-.5-1.39c-1.3-3.6-2.72-7.47-4.32-11.36-.65-1.62-1.4-3.24-2.12-4.8l-.09-.18-.73-1.6a55,55,0,0,0-3.06-5.81c-1.66-2.75-3.53-5.42-5.34-8l-.09-.12c-.5-.7-1-1.41-1.49-2.12-2.51-3.61-5.19-7.09-7.5-10.08l-1-1.26c-2.3-3-4.65-6-7.13-8.81l-.27-.3c-1.11-1.25-2.36-2.66-3.67-4s-2.77-2.59-4.66-4.15a99.22,99.22,0,0,0-9.93-7.52c-2.62-1.66-5.44-3.08-8.17-4.45-1.09-.55-2.16-1.09-3.23-1.65-2.36-1.24-4.68-2.63-6.92-4l-.47-.27c-1.17-.72-2.35-1.42-3.54-2.11s-2.66-1.38-4-2l-.88-.41c-1.7-.81-3.37-1.49-5.37-2.29s-3.71-1.45-5.56-2.16l-.18-.07q-2.24-.84-4.46-1.71l-.52-.21-2.19-.89.31.17-.73-.34-1.07-.44-.36-.15a109.7,109.7,0,0,0-11.51-4.28c-.62-.18-1.25-.35-1.88-.51-2.84-1.11-5.5-2-8.12-2.86-1.17-.36-2.34-.71-3.52-1L538.2,737l-1.21-.36-.14,0c-1.51-.45-2.89-.86-4.3-1.24a98.73,98.73,0,0,0-10.29-2.16c-2-.33-4.16-.65-6.35-1l-1-.38-1.14-.42-.75-.28-.75-.27c-.93-.35-1.86-.7-2.8-1a66.3,66.3,0,0,0-8.43-2.24c-2.47-.49-5.14-.77-7.29-1l-1.32-.14c-1-.11-2.06-.2-3.08-.29l-.51,0-.38,0-.37,0c-1.37-.13-2.75-.25-4.12-.42l-2.36-.29-2.05-.24c-1.26-.16-2.52-.36-3.78-.55l-.6-.1c-1.4-.22-2.8-.43-4.2-.61-.76-.1-1.51-.19-2.28-.27l-2.08-.23c-1.37-.18-2.73-.34-4.11-.5-.51-.06-1-.1-1.54-.15l-2.19-.15ZM349.87,755.4c2.14.1,4.27,0,6.83-.08,1.19-.05,2.47,0,3.32.07l1.05.06.57,0a31.14,31.14,0,0,0,3.48,0,25.6,25.6,0,0,0,4.92-.84,35.76,35.76,0,0,0,4.25-1.5c1.45-.62,2.86-1.36,4.2-2.06a34.63,34.63,0,0,0,3.22-1.89c1.06-.7,2.06-1.51,3-2.22l.16-.14c.55-.44,1.11-.85,1.66-1.26.4-.3.8-.59,1.19-.9l.1-.08.3-.23c.81-.62,1.59-1.21,2.4-1.77q.36-.25.69-.54l.13-.1.23-.2.11-.09.22-.17.9-.7.52-.4c-2.37,2.92-4.91,5.76-7.55,8.43l-.29.14-.93.46-.62.31c-.86.38-1.77.75-2.67,1.12L381,751l-.55.23-1.69.71-.21.08c-.79.34-1.58.67-2.38,1l-1.59.66c-.9.38-1.67.71-2.46,1-1.28.43-2.59.75-4.06,1.1a35.2,35.2,0,0,1-5.64.51c-1.6,0-3.32,0-5.41-.17l-.43,0-.43,0-.43,0-.63-.06-.63,0-1.88-.14c-.94-.08-1.83-.18-2.71-.31Z" fill="#725af7"/></g><g id="Draw_Layer-2" data-name="Draw Layer"><path d="M281.77,42.48c-5.86.14-11.68.8-18.14,1.59-2.63.33-5.44.84-8.86,1.6a74.41,74.41,0,0,0-9.31,2.7c-4,1.44-8,3.09-11.79,4.7l-4.33,1.8c-2.75,1.12-5.4,2.32-7.87,3.46s-5.09,2.25-8.57,3.66c-.75.31-1.51.59-2.27.88l-1.75.67-2.31.92c-3.21,2.61-6.35,5.3-9.5,8-2.72,2.4-5.32,4.93-7.87,7.52h0c1.78-1.26,3.67-2.49,5.62-3.67,2.92-1.64,5.32-2.87,7.55-3.89s4.37-1.87,6.51-2.74l1.31-.53c1.06-.43,2.13-.84,3.2-1.25l1.13-.43c1.28-.5,2.55-1,3.82-1.57l.46-.19c2.48-1,5-2.18,7.4-3.27l.74-.34c3-1.36,6.14-2.65,9.16-3.89l3.34-1.39a131.19,131.19,0,0,1,12.65-4.64c2.54-.66,5.11-1.25,7.62-1.74,2.34-.45,4.74-.73,7.06-1l.83-.1c6.09-.72,10.8-1.1,15.26-1.21q1.38,0,2.85.15c1.54.13,3.18.33,5,.63a33.73,33.73,0,0,1,3.34.77l.78.2c1.41.38,2.86.69,4.26,1l.53.11.28,0a2.92,2.92,0,0,0,2.9-2.49,2.81,2.81,0,0,0-.59-2.12,2.92,2.92,0,0,0-1.85-1.06c-1.63-.35-3.26-.7-4.85-1.12s-3-.79-4.53-1-2.93-.43-4.26-.55l-.38,0a41.51,41.51,0,0,0-4.59-.11Z" fill="#404040"/><path d="M222.22,85.62a3,3,0,0,0-2,.6c-4.69,3.21-9.31,6.7-13.79,10.08l-3.1,2.33q-2.24,1.68-4.45,3.38l-1.77,1.33-2.67,2-2.67,2L191,108c-.58.42-1.16.84-1.7,1.3l-4.9,4.13-3,2.56-3.58,3c-.52.43-1,.91-1.5,1.38l-.61.58-2.1,2c-1.56,1.43-3.17,2.92-4.7,4.44l-8,7.95q-1.06,1.07-2.1,2.13c.11-.49.2-1,.29-1.51a25.71,25.71,0,0,0,.35-3.93,4.52,4.52,0,0,0-.8-3,3.64,3.64,0,0,0-1.34-1,3.18,3.18,0,0,0-1-.23,6.41,6.41,0,0,0-1,0,4.18,4.18,0,0,0-2.59,1.71,12.33,12.33,0,0,0-1.08,1.62l-.32.54c-.35.6-.7,1.2-1,1.8-1.67,3-3,5.54-4.1,8l-.57,1.2c-.46,1-.93,2-1.34,3-.21.51-.43,1-.65,1.52-.44,1-.89,2-1.27,3.09l-1,2.85-.65,1.8a5.83,5.83,0,0,0-.45-2.63,2.88,2.88,0,0,0-2.24-1.7h-.13a3,3,0,0,0-.94.08c.2-.59.39-1.19.59-1.78l.49-1.38c.33-.92.65-1.84,1-2.75l.59-1.67c.76-2.15,1.55-4.37,2.45-6.52,1.19-2.83,2.35-5.45,3.53-8,.72-1.55,1.46-3.09,2.2-4.63.53-1.11,1.06-2.21,1.58-3.32.88-1.85,1.83-3.83,2.86-5.72a85,85,0,0,1,5.29-7.83l-.09-.08-.05-.05c-.51.71-1,1.42-1.5,2.13h0c-1.32,2-2.71,3.94-3.87,6q-1.6,2.85-3.12,5.74c-2.26,4.31-4.53,8.59-6.87,12.85-3.64,6.65-7.49,13.21-10.53,20.15,0,.07-.05.14-.07.21-.4,1.26-.73,2.54-1.13,3.8a12.63,12.63,0,0,1-1.6,3.78l-.17.83c-.22,1-.44,2-.6,3.09-.23,1.47-.5,2.94-.76,4.41s-.54,2.94-.77,4.42c-.42,2.67-.92,5.37-1.4,8l-.11.55c-.21,1.21-.46,2.43-.7,3.64-.34,1.68-.69,3.43-1,5.16-.25,1.53-.51,3-.79,4.58-.23,1.33-.47,2.66-.69,4l-.3,1.75a68.49,68.49,0,0,0-1,7c-.2,3.23-.33,6.22-.4,9.14,0,.87,0,1.73-.07,2.6-.06,1.91-.11,3.89-.11,5.84,0,1.68,0,3.36.09,5,0,.72.06,1.44.1,2.16s.08,1.56.1,2.34,0,1.78,0,2.67c0,.52,0,1,0,1.56,0,1.46.1,2.94.18,4.34,0,.64.08,1.28.13,1.92.06.84.11,1.69.15,2.53s.07,1.85.09,2.77l0,1.53c.17,6.19.93,12.41,1.61,17.9q.6,4.83,1.26,9.66c.09,3.57.15,7.46.2,11.91v.24c0,.74,0,1.48,0,2.22a2.84,2.84,0,0,0,2.44,2.42h.09l.3,0a2.89,2.89,0,0,0,1.6.67,2.49,2.49,0,0,0,.61,0,2.76,2.76,0,0,0,1.86-1.11,2.82,2.82,0,0,0,.56-2.09l-.08-.54.15,0,.13,0h.38c0,.48-.06,1-.07,1.46,0,1.78,0,3.7.14,6.22.11,2.11.2,4.21.26,6.32l.06,2c-.54,1.72-1,3.57-1.52,5.67s-1,4.37-1.42,6.82A116.06,116.06,0,0,0,128,342.28c0,3.34.06,6.67.13,9.79.06,2.39.31,4.71.57,6.87-.1.88-.18,1.76-.25,2.64l-.11,1.44c-.11,1.44-.22,2.87-.34,4.31-.15,1.83-.35,3.67-.55,5.49l-.17,1.6c-.14,1.32-.28,2.65-.44,4-.23,2-.43,4-.64,6s-.39,3.78-.61,5.68c-.48,4.2-1,7.87-1.72,11.2-.62,3.08-1.37,6.31-2.42,10.48a112.21,112.21,0,0,1-6.11,16.93c-.6,1.31-1.21,2.6-1.81,3.9-.5,1.07-1,2.11-1.57,3.16l-.62,1.23c-1.31,2.59-2.7,5.13-4.25,8l-.65,1.12L104.74,449c-.89,1.53-1.91,3.19-3.12,5.06l-.51.78c-.94,1.45-1.88,2.9-2.86,4.33-1.13,1.67-2.3,3.32-3.47,5-.39.54-.81,1.07-1.23,1.6l-.53.67c-.34.44-.67.89-1,1.33s-.51.69-.77,1l-.47.61c-1,1.26-2,2.57-2.89,3.89-.65.89-1.27,1.81-1.9,2.72-.52.75-1,1.51-1.56,2.26-2.11,3-4.44,6-7.14,9.18l-1.17,1.37c-.85,1-1.71,2-2.55,3-1.14,1.41-2.31,2.8-3.49,4.18l-.18.21c-2.2,2.56-4.48,5.2-6.85,7.68l-3,3q-2,2-4,4l-.49.5.13-.1c-2.71,2.72-5.24,5.5-8,8.58l-2,2.24c-1.83,2-3.73,4.08-5.47,6.21l-.32.39c-1.09,1.33-2.23,2.71-3.25,4.16s-1.84,2.65-2.73,4l-.49.74-.09.12c-1.06,1.61-2.17,3.27-3.18,5a53.93,53.93,0,0,0-3.06,5.79A119.19,119.19,0,0,0,19.51,571a74.23,74.23,0,0,0-1.58,11.81l-.09,1.38c-.22,3.46-.45,7-.59,10.56-.07,1.71-.09,3.42-.11,5.13,0,.77,0,1.54,0,2.31-.05,2.34-.05,4.68,0,7,0,0,0-.08,0-.08s0-.09,0-.1v.18a1.57,1.57,0,0,0,0,.43v-.08l0,.6c0,2.34,0,4.77-.08,7.15-.08,3.31-.31,6.58-.5,9.06l-.24,3-.24,3a3.46,3.46,0,0,0-.64.68c-1.15,1.68-1.25,3.7-1.35,5.65-.06,1-.11,2-.12,3,0,.83.07,1.67.14,2.49l.05.54q.27,3.3.55,6.61c.37,4.28.86,8.87,1.5,14a2.69,2.69,0,0,0,.17.72h-.06c-.23,0-.48,0-.72,0a2.71,2.71,0,0,0-1.93,1,2.88,2.88,0,0,0-.68,2.06,2.82,2.82,0,0,0,1,1.94,2.78,2.78,0,0,0,1.67.65l.39,0q110.25,1.32,220.5,2.62l103.13,1.24,105.56,1.25,5.22.07q102.63,1.23,205.23,2.45H659a2.72,2.72,0,0,0,2-1,2.84,2.84,0,0,0,.68-2.07,2.88,2.88,0,0,0-.39-1.21l.1-.39.1-.4.16-.29a3.15,3.15,0,0,0,.22-.59,2.89,2.89,0,0,0,1.9-2.3c.59-4.09.89-8.21,1.16-12.42l.09-1.32c.1-1.42.21-2.89.25-4.34,0-1.77,0-3.68,0-6.17,0-4.13-.2-8.2-.53-12.11-.3-3.36-.8-6.74-1.28-10l-.26-1.79c-1.11-7.59-2.26-15.43-4-23a82.39,82.39,0,0,0-3.35-11.23c-.46-1.21-.91-2.44-1.36-3.67-.83-2.26-1.68-4.61-2.63-6.87-1.53-3.62-3.16-7.11-4.71-10.33-1.62-3.4-3.26-6.91-5-10.74a173.78,173.78,0,0,0-11-20.82c-2.34-3.72-4.45-7-6.45-10l-.91-1.39c-.69-1.06-1.38-2.12-2.09-3.17s-1.37-2-2.06-3c-.43-.6-.86-1.2-1.28-1.81-1.51-2.17-3.15-4.3-4.73-6.36l-1.53-2c-.52-.68-1-1.37-1.53-2.06s-1.15-1.54-1.73-2.3c-1.14-1.5-2.31-3-3.49-4.45-2.33-2.9-4.66-5.81-6.94-8.74-1.35-1.73-2.77-3.44-4.14-5.09-.94-1.13-1.88-2.25-2.8-3.4-2.6-3.21-5-6.58-6.74-9.15-.76-1.11-1.53-2.21-2.3-3.32-1.45-2.07-2.94-4.22-4.36-6.36-.49-.74-1-1.49-1.45-2.25-1.44-2.49-2.82-5-4.08-7.51-1.35-2.66-2.63-5.46-3.79-8.35-2.22-5.47-4-11.18-5.51-16.22a3.6,3.6,0,0,0-.12-.44q-.09-.36-.21-.72l-.18-.78-.17-.72-.14-.58c-.16-.67-.32-1.34-.43-2-.32-1.84-.51-3.72-.69-5.65-.16-1.77-.32-3.66-.4-5.58,0-.68,0-1.35-.07-2,0-1.13-.05-2.3-.14-3.45s-.23-2.4-.37-3.58c-.08-.68-.16-1.36-.23-2-.25-2.33-.39-4.11-.45-5.78,0-.8,0-1.61,0-2.42,0-1.06,0-2.17-.08-3.25s-.2-2.15-.34-3.2c-.09-.75-.19-1.51-.26-2.27-.18-1.9-.27-3.58-.29-5.15,0-.95,0-1.89,0-2.83l0-2c0-1.25-.05-2.51-.11-3.73,0-.7-.07-1.4-.1-2.1,0-.54,0-1.08,0-1.62,0-1.25-.06-2.5-.15-3.75s-.24-2.59-.38-3.89c-.07-.67-.15-1.35-.21-2-.26-2.62-.46-5.29-.65-7.88l-.24-3.28c-.25-3.24-.74-6.5-1.21-9.66l-.22-1.49c-1.13-7.63-2.4-15.41-3.77-23.12l0-.22c-.3-1.66-.6-3.37-.76-5.07-.18-1.9-.32-3.8-.45-5.71-.06-.82-.13-1.64-.22-2.45l.07-.12a3.51,3.51,0,0,0,.25-2.38,1.43,1.43,0,0,0,.22-.15,2.88,2.88,0,0,0,.67-.77,3,3,0,0,0,1.2-1.95,7.18,7.18,0,0,0,0-1.54l0-.42,0-.79v-.33l-.09-1.7c-.09-1.54-.19-2.91-.33-4.18a40.42,40.42,0,0,0-.66-4.11l-.06-.3c-.19-.9-.38-1.81-.6-2.71l0-.28,0-.38a6.12,6.12,0,0,0-.18-1,2.94,2.94,0,0,0-1.87-2.29,3.14,3.14,0,0,0-1.45-.61l-.14,0a2.74,2.74,0,0,0-1.35.23,2.58,2.58,0,0,0-.81.53,3,3,0,0,0-1,.51,2.75,2.75,0,0,0-1.06,1.86c0,.64,0,1.28.07,1.92a3,3,0,0,0-1.25.92c-.86,1.05-.66,2.53-.5,3.73.1.69.23,1.38.36,2.08l.17.89c-1.44-.24-2.75-.5-4-.79-1.44-.44-2.87-.91-4.29-1.38l-.74-.25a3.47,3.47,0,0,0-.89-.19,2.65,2.65,0,0,0-1.31.21,2.86,2.86,0,0,0-1.5,1.52,2.94,2.94,0,0,0,.08,2.34,2.46,2.46,0,0,0,1.46,1.37l1.23.41a53.56,53.56,0,0,0,6.66,1.93c.87.17,1.74.33,2.61.47-1.08.56-2.08,1.06-3.06,1.5-.6.27-1.23.51-1.85.74l-.15.06-.43.15c-1.18.42-2.41.86-2.83,2.14a3,3,0,0,0,0,2.21,2.73,2.73,0,0,0,1.52,1.5,6.63,6.63,0,0,0,1.11.24h.22c.51,0,1,0,1.5-.05l.62-.05.32,0,2-.15c.3,0,.59,0,.88.06a14.74,14.74,0,0,1,2.24.34l.72.23.78.25q.07.92.15,1.86l.12,1.62c.11,1.37.21,2.73.33,4.1.16,1.69.47,3.41.77,5.07l0,.22c1.34,7.54,2.62,15.33,3.77,23.19l.28,1.84c.39,2.6.8,5.29,1,7.94.15,1.7.28,3.4.4,5.1.11,1.54.22,3.07.35,4.6s.3,3.26.47,4.89l.1,1c.14,1.23.28,2.5.33,3.76,0,.41,0,.82,0,1.23-.37-.87-.83-1.72-1.28-2.54l-.08-.16c-.52-1-1.07-2-1.62-2.94-1-2.06-1.91-4.16-2.56-5.76a36,36,0,0,0-1.74-3.6c-.31-.55-.62-1.1-.94-1.64s-.58-1-.86-1.49a52.14,52.14,0,0,1-2.78-7.17l-.15-.47c-.76-2.4-1.55-4.89-2.14-7.39-.3-1.49-.56-3-.82-4.49l-.23-1.29-.46-2.52c-.22-1.22-.44-2.43-.65-3.64-.12-.68-.23-1.36-.34-2-.23-1.42-.47-2.83-.76-4.24-.58-2.85-1.09-5-1.66-7.1s-1.22-4.33-1.94-6.61c-.43-1.39-.91-2.77-1.38-4.15-.24-.71-.49-1.41-.73-2.12-.66-2-1.35-4-1.95-6.05-.53-1.81-1-3.62-1.56-5.43l-.29-1c-1.12-4-2.49-8.13-4.08-12.35a133.24,133.24,0,0,0-5.46-12.28c-.59-1.18-1.19-2.35-1.8-3.52l-1.3-2.54c-1.09-2.13-2.13-4.31-3-6.16s-1.75-3.9-2.58-5.81c-1-2.29-2-4.47-3-6.5a82.72,82.72,0,0,0-7.14-11.93c-2.4-3.3-5.15-6.72-8.42-10.46-3.43-3.93-6.59-7.32-9.67-10.36a77.75,77.75,0,0,0-10.13-8.11c-1.78-1.24-3.67-2.51-6.14-4.1-1.43-.93-2.95-1.78-4.42-2.61l-1.06-.6c-.84-.48-1.68-.94-2.52-1.41s-1.95-1.09-2.92-1.65c-1.54-.88-3.08-1.83-4.57-2.74l-.75-.46c-3.28-2.18-7.09-4.74-10.63-7.54-1.56-1.25-3.18-2.61-4.92-4.18-.51-.45-1-.91-1.51-1.38-1-.94-2.1-1.92-3.19-2.82l-1.5-1.26c-1.16-1-2.36-2-3.58-2.92-1.89-1.45-3.79-2.87-5.71-4.28s-3.77-2.64-6-4.11A46.86,46.86,0,0,0,394.58,144a14.47,14.47,0,0,0-2.07-.3c-.85-.07-1.72-.08-2.53-.09-1.58,0-3.19.11-4.56.22-1.52.12-3,.32-4.51.5l-1,.12c-1.81.23-3.67.46-5.48.79l-4,.73-4,.73c-.6.11-1.2.27-1.8.42l-.6.15-4.89,1.2c-.49.13-1,.24-1.49.36-1.31.31-2.67.63-4,1l-8.8,2.69c-3.69,1.13-7.41,2.39-11,3.6l-2.53.86c-3.48,1.17-7,2.45-10.38,3.7l-2.91,1.06c-3.76,1.37-7.55,2.82-11.22,4.22l-2.07.79q-4.71,1.78-9.44,3.5l-3.54,1.3c-1.35.5-2.72.94-4.09,1.39l-1.52.49-1.58.54c-1.4.47-2.81.95-4.23,1.37l-2.83.86c-3.55,1.07-7.22,2.19-10.86,3.11-4.42,1.12-9.11,2.33-13.76,3.69a115.24,115.24,0,0,0-13,4.89c-1.55.67-3.07,1.46-4.55,2.21l-.88.46c-2.22,1.13-4.59,2.35-7,3.65l-1,.5c-.61.32-1.23.64-1.82,1l-1.77,1.07-1.78,1.07c-1.8,1.07-3.57,2.24-5.28,3.38l-.67.44c-3.8,2.53-7.46,5.21-11.52,8.2-3.66,2.7-7.13,5.61-11,8.86-1.41,1.19-2.76,2.48-4.08,3.73l-1.35,1.29c-1.22,1.16-2.41,2.4-3.55,3.59l-1.27,1.32c-2.35,2.42-4.66,5-6.89,7.39l-2.3,2.5c-.43.48-.86,1-1.28,1.47l-.71.82-.67.76c-.47.53-.95,1.07-1.39,1.62l-.81,1c-1.24,1.53-2.48,3.06-3.68,4.62-1.44,1.88-3,3.92-4.64,6.23-1.47,2-2.63,3.69-3.65,5.27a2.58,2.58,0,0,0-1.05-.37l-.13,0a3.25,3.25,0,0,0-2,.6,4.21,4.21,0,0,0-1.32,1.12,8.45,8.45,0,0,0-1,2.06c-.17.51-.32,1-.46,1.52a2.18,2.18,0,0,0-.52-.11,3,3,0,0,0-1.37.22,3.49,3.49,0,0,0-1.73,1.37,8.58,8.58,0,0,0-.85,2.19l0,.18c-.18.61-.34,1.22-.51,1.84l0,.14,0-.18v-.2l.07-1.78c.09-2.44.2-5,.09-7.44a2.84,2.84,0,0,0-2.45-2.42h-.14a2.91,2.91,0,0,0-2.85,1.74,1.86,1.86,0,0,0-.1.25c.05-.54.09-1.09.12-1.64a20.52,20.52,0,0,0,0-2.24,2.81,2.81,0,0,0-1.73-2.23,2.77,2.77,0,0,0-.87-.2,2.55,2.55,0,0,0-2,.6l-.12.11-.13.12c.1-1.27.2-2.57.35-4,.3-3.05.79-6.12,1.26-9.1l0-.24c.45-2.84,1-5.69,1.53-8.61.46-2.39,1-4.81,1.56-7.14l.46-2c.47-2.07,1-4.16,1.55-6.19.26-1,.52-1.91.76-2.88.4-1.56.75-3.15,1.09-4.69s.7-3.21,1.11-4.79v0a.88.88,0,0,1,.05-.15c.06-.25.12-.48.18-.71a2.81,2.81,0,0,0-.2-1.49,2.9,2.9,0,0,0-1.53-1.51,2.84,2.84,0,0,0-2.21,0,2.73,2.73,0,0,0-1.5,1.52c-.59,2.2-1.1,4.46-1.59,6.65-.25,1.1-.5,2.2-.77,3.3-.45,1.93-.95,3.84-1.44,5.76-.31,1.16-.61,2.33-.91,3.49-.18.73-.35,1.44-.52,2.14v-.84c-.08-2.3-.16-4.59-.2-6.89l0-.75c.21-4.68.41-9.51.72-14.26.1-1.68.21-3.32.32-4.95l0-.15h0c.45-2.06.89-4.12,1.34-6.18l.63-2.87c1.23-5.66,2.65-11.35,3.91-16.37l.53-2c.52-2,1.06-4,1.68-6l.85-2.73.85-2.72c.31-1,.68-2,1-2.9.17-.48.35-1,.53-1.44a119,119,0,0,1,4.82-11.22,1.71,1.71,0,0,0-.09.3,10.76,10.76,0,0,0-.47,1.74,4.2,4.2,0,0,0,.3,1.91l.07.19a2.7,2.7,0,0,0,1.52,1.5,2.94,2.94,0,0,0,.85.21,2.7,2.7,0,0,0,2-.6l.69-.61c.68-.59,1.39-1.21,2-1.87l1-1,1-1,1.72-1.75,1.72-1.75c1.66-1.7,3.36-3.38,5.05-5.06l2.39-2.37c1.57-1.57,3.22-3.1,4.81-4.59l1.45-1.35,3.22-3c.56-.52,1.1-1,1.65-1.42l.82-.67,4.51-3.79L192.5,114c.41-.35.85-.68,1.28-1l.36-.27,3.24-2.46,1.7-1.29,2.79-2.12c3.86-2.94,7.86-6,11.83-8.9l1.06-.79c2.91-2.17,5.93-4.41,9-6.5a2.53,2.53,0,0,0,1-1.73,3,3,0,0,0-.56-2.26,2.9,2.9,0,0,0-1.86-1.06Zm-93.82,109,.21-1.26.07-.41c0,.73,0,1.52,0,2.31a1.06,1.06,0,0,0-.15.15c0-.26-.06-.53-.1-.79Z" fill="#404040"/><path d="M45.31,526.74c-2.34,2.19-4.46,4.6-6.63,7-1.93,2.1-3.9,4.17-5.63,6.44s-3.31,4.63-4.94,7-3,4.47-4.37,6.76-2.62,4.57-3.74,7a71.18,71.18,0,0,0-3.15,8.35A111.42,111.42,0,0,0,13,585.31c-1,6-1.48,12.07-1.94,18.14-.1,1.37-.25,2.74-.4,4.11s-.23,2.72-.31,4.07-.11,2.87-.17,4.31-.15,2.94-.17,4.41c0,3.06.05,6.12.09,9.18s.08,6.07.14,9.1c.1,5.85.21,11.71.73,17.55.17,1.87.27,3.76.47,5.65a44.2,44.2,0,0,0,1.32,6.33,2.83,2.83,0,0,0,5.44-1.57c-.39-1.48-.78-3-1.06-4.47-.14-1.23-.21-2.47-.31-3.71-.11-1.43-.27-2.85-.37-4.28-.22-2.94-.33-5.88-.42-8.82-.16-6-.23-12-.32-18,0-3.05-.11-6.11,0-9.16.12-2.89.2-5.77.4-8.65.1-1.32.26-2.63.39-3.95s.23-2.83.35-4.24c.25-2.9.5-5.79.78-8.68.05-.52.1-1,.16-1.56A110.31,110.31,0,0,1,24.31,565a69.06,69.06,0,0,1,5.81-10.69l1.74-2.75c.58-.91,1.24-1.78,1.84-2.67,1.14-1.68,2.31-3.33,3.51-5,.77-1,1.56-2,2.4-2.9l3-3.31c2.2-2.38,4.34-4.83,6.71-7.06a2.83,2.83,0,0,0-.05-4,2.68,2.68,0,0,0-1.69-.78,3,3,0,0,0-2.3.83Z" fill="#404040"/><path d="M21.61,586.49a2.8,2.8,0,0,0-2.7,2.11,23.23,23.23,0,0,0-.31,3.11,4.7,4.7,0,0,0-.52.39c-1.1,1-1,2.49-1.13,3.83,0,.36-.06.72-.08,1.07a3.32,3.32,0,0,0-.47.37,4.26,4.26,0,0,0-1,3l-.12,1.44c-.08,1-.13,2.08-.16,3.13l0,.93a1.5,1.5,0,0,0-.11.36,10.85,10.85,0,0,0-.07,2.67l.06,1.38c0,.34,0,.69,0,1,0,2.25,0,4.5,0,6.76,0,1,0,2,.07,3.07a34.64,34.64,0,0,0,.2,3.53,3,3,0,0,0,.16.91c0,1.78-.1,3.56-.2,5.34-.07,1.27-.15,2.55-.22,3.84l-.12,2.11a6.14,6.14,0,0,0,.13,2.67,2.88,2.88,0,0,0,.75,1.24,2.82,2.82,0,0,0,4.7-1.31c.06-.21.11-.42.15-.64A2.83,2.83,0,0,0,23.16,636c0-.25,0-.5-.05-.76a2.8,2.8,0,0,0,1.64-.82,2.69,2.69,0,0,0,.8-2c-.22-1.67-.44-3.35-.59-5s-.25-3.39-.36-5.1c-.16-2.8-.28-5.61-.24-8.41.09-6.31.19-12.61.2-18.93,0-.95,0-1.91,0-2.86,0-.41,0-.82,0-1.23a7.93,7.93,0,0,0-.18-2.28,2.85,2.85,0,0,0-2.48-2Z" fill="#404040"/><path d="M660.77,659.17a2.86,2.86,0,0,0-2,2,5.45,5.45,0,0,0-.14.79c-.11.79-.19,1.59-.29,2.38-.12,1.1-.2,2.19-.27,3.3s-.21,2.19-.23,3.29c0,1.4,0,2.81.08,4.21a2.83,2.83,0,0,0,5.66-.07c0-.48,0-1-.05-1.44a3.66,3.66,0,0,0,.47-.95,12,12,0,0,0,.5-3.15,25.29,25.29,0,0,0,.09-2.61c0-.89,0-1.78-.06-2.67,0-.44,0-.88,0-1.33a7,7,0,0,0-.22-1.83,2.91,2.91,0,0,0-2.51-2,3.05,3.05,0,0,0-1,.09Zm3.43,3.49Z" fill="#404040"/><path d="M661.28,665.13a2.82,2.82,0,0,0-2,.86,3,3,0,0,0-.8,2c-.13,1.25-.25,2.49-.38,3.74a2.71,2.71,0,0,0,.85,2,2.81,2.81,0,0,0,4-.05,3,3,0,0,0,.8-2c.12-1.25.25-2.49.38-3.74a2.71,2.71,0,0,0-.85-2,2.9,2.9,0,0,0-1.75-.8Z" fill="#404040"/><path d="M510.14,427.88a2.88,2.88,0,0,0-2.7,2.1,17.44,17.44,0,0,0-.49,2.14c-.16.7-.34,1.4-.5,2.11-.34,1.4-.66,2.81-1,4.23-.64,2.79-1.23,5.59-2.05,8.35-1.65,5.62-3.2,11.26-4.59,16.95-.56,2.29-1.09,4.59-1.65,6.89s-1.3,4.76-2,7.12c-1.37,4.54-2.76,9.08-4.47,13.51l-.09.22a3.11,3.11,0,0,0-.52.25,5.33,5.33,0,0,0-.86.64,4.67,4.67,0,0,0-.77,1.14l-.37.74c-.29.59-.58,1.18-.88,1.77-.6,1.19-1.2,2.39-1.79,3.59-1.21,2.44-2.43,4.88-3.61,7.34-1.07,2.19-2.13,4.39-3.36,6.5-.73,1.24-1.47,2.48-2.23,3.71-.66,1.06-1.39,2.07-2.11,3.1l-2.25,3a3,3,0,0,0-.8,2,2.77,2.77,0,0,0,.85,2,2.83,2.83,0,0,0,2,.8,2.69,2.69,0,0,0,2-.85c1.06-1.37,2.15-2.72,3.13-4.13l.61-.87a3.08,3.08,0,0,0,1.07,1.08,2.83,2.83,0,0,0,3.42-.48,6.14,6.14,0,0,0,.49-.65c.16-.37.32-.75.46-1.12l.23-.57c.42-.91.84-1.82,1.28-2.73a5.71,5.71,0,0,0,.66-.64,12.92,12.92,0,0,0,.86-1.23c.25-.37.49-.75.73-1.13l1.77-2.88c1-1.62,2-3.26,2.85-4.94s1.87-3.64,2.77-5.48c1-2.13,2.09-4.26,3-6.47a2.73,2.73,0,0,0,0-1.5,2.79,2.79,0,0,0-1.32-1.67,2.7,2.7,0,0,0-1.19-.36c1.7-4.51,3.08-9.14,4.45-13.75,1.14-3.84,2.07-7.73,3-11.62a3.68,3.68,0,0,0,.59-1.11c.7-2,1.33-4,2-6a4.16,4.16,0,0,0,.61-.71,8.83,8.83,0,0,0,.93-2.24,2.49,2.49,0,0,0,1.18-1.13,30.1,30.1,0,0,0,1.45-4.55l0-.12c.07-.21.15-.43.22-.65.22-.67.41-1.36.61-2,.45-1.59.83-3.19,1.18-4.79.31-1.38.61-2.78.83-4.17.16-1,.3-2,.4-3,.07-.74.14-1.47.17-2.21a5.56,5.56,0,0,0-.1-1.46,3.67,3.67,0,0,0-.91-1.7,1.79,1.79,0,0,0-.41-.37,3.58,3.58,0,0,0-.29-.59,2.82,2.82,0,0,0-2.18-1.36Z" fill="#f3d4ca"/><path d="M542.12,296.19a14.62,14.62,0,0,0-6.46,2.33,15.13,15.13,0,0,0-3.34,3.1,29.82,29.82,0,0,0-2.38,3.31,33.11,33.11,0,0,0-1.92,3.44,38.53,38.53,0,0,0-1.72,4.35l-.12.38c-.06.17-.12.34-.17.51a8.24,8.24,0,0,0-.38,1.48c-.42,1.69-.75,3.4-1.16,5.09a2.83,2.83,0,1,0,5.47,1.43c.33-1.39.6-2.79.94-4.18a14.25,14.25,0,0,0,1.34-2.37,26.3,26.3,0,0,1,1.29-2.32c.85-1.37,1.72-2.73,2.67-4a17.9,17.9,0,0,1,2.07-2.28,8.24,8.24,0,0,1,.9-.54,20.37,20.37,0,0,1,3.1-.67c1.41-.19,2.83-.31,4.25-.44a3,3,0,0,0,2-.85,2.83,2.83,0,0,0-2.05-4.81l-.2,0a3.06,3.06,0,0,0-.85-2.17,2.59,2.59,0,0,0-1.82-.84,6.89,6.89,0,0,0-1.44.07Z" fill="#f3d4ca"/><path d="M505.94,458a4.4,4.4,0,0,0-1.85,2.46c-.55,1.46-1.11,2.9-1.68,4.35l-1,2.52c-.56,1.17-1.13,2.34-1.69,3.52q-1.31,2.7-2.56,5.43C495,480.81,493,485.39,491,490q-1,2.37-2,4.76c-2.56,5.22-5.15,10.42-7.73,15.63-1.49,3-3.1,6-4.55,9-.86,1.79-1.71,3.58-2.57,5.36a49.73,49.73,0,0,0-3.67,8.8,1.55,1.55,0,0,0-.05.23c-.76,1.3-1.51,2.61-2.25,3.91-1.77,3.09-3.53,6.17-5,9.39a4.26,4.26,0,0,0-.36,3.15,4,4,0,0,0,2.89,2.81,4.81,4.81,0,0,0,2.47,0,6,6,0,0,0,2.13-1.35,7.55,7.55,0,0,0,1.19-1.71c.11-.18.24-.35.36-.52l.61-.87c.23-.09.46-.17.68-.27a4.15,4.15,0,0,0,2.86.22,4.31,4.31,0,0,0,2.41-1.91q4.17-6.3,8.46-12.52c1.15-1.67,2.33-3.34,3.44-5s2.42-3.62,3.5-5.51l2.09-3.63c.49-.84.89-1.73,1.32-2.6,1.07-2.14,2.1-4.29,3.11-6.46s1.86-4.05,2.67-6.13,1.43-3.91,2.05-5.9c.75-2.39,1.52-4.79,2.27-7.19.89-1.25,1.79-2.5,2.68-3.76,1.35-1.91,2.72-3.81,4.09-5.71l.88-1.14c1-1.29,2-2.6,2.93-3.89.41-.54.81-1.07,1.23-1.6.62-.76,1.25-1.5,1.81-2.31a15.78,15.78,0,0,0,.65-1.52,5.71,5.71,0,0,0,.13-1.23,4.08,4.08,0,0,0-2.07-3.5,4,4,0,0,0-2.06-.53,4.45,4.45,0,0,0-1.78.42c.3-.94.57-1.9.78-2.87a4.16,4.16,0,0,0-1.11-3.95,4.06,4.06,0,0,0-4-1l-.08,0a4.28,4.28,0,0,0-2.3-1.61,3.3,3.3,0,0,0-.69-.11,4.05,4.05,0,0,0-2.45.57Z" fill="#404040"/><path d="M524.57,442l-.82.65a4,4,0,0,0-1,1.81c-.92,2.28-1.76,4.58-2.64,6.86-1.43,3.28-2.94,6.51-4.49,9.72a9.51,9.51,0,0,0,.69-3.31,4.08,4.08,0,0,0-7.63-2,79.43,79.43,0,0,0-4.47,9.75c-.86,2.13-1.73,4.26-2.59,6.4-.45.78-.88,1.56-1.3,2.35-1.32,2.42-2.62,4.85-3.94,7.27-.95,1.78-1.79,3.63-2.67,5.44s-1.82,3.6-2.67,5.43c-3.91,8.44-7.79,16.9-11.53,25.42q-4.19,9.51-8.09,19.15l.19-.46a17,17,0,0,0-.9,2.37,5.67,5.67,0,0,0,.19,3,4,4,0,0,0,1.93,2.4c0,.31,0,.63,0,1a4.22,4.22,0,0,0,.07.61c-.4,1-.81,1.92-1.26,2.86a4.26,4.26,0,0,0-.36,3.15,4.08,4.08,0,0,0,7.47.87c2.25-4.7,4.49-9.39,6.8-14.06,1.95-3.95,3.87-7.92,5.79-11.89.8-1.63,1.48-3.34,2.19-5,.75-1.2,1.5-2.4,2.18-3.64q1.92-3.47,3.82-6.93c2.19-4,4.28-8,6.37-12S510,491,512,486.88q4.69-9.67,9.5-19.3c1.56-3.12,3-6.27,4.49-9.43,1.74-3.79,3.08-7.75,4.64-11.61a4,4,0,0,0-.45-3.15,4.2,4.2,0,0,0-2.47-1.84,3.29,3.29,0,0,0-.7-.11,4,4,0,0,0-2.44.57Zm-22.65,29.11-.31.79h0c.11-.26.21-.53.32-.8Z" fill="#404040"/><path d="M503.53,467.82a9.87,9.87,0,0,0-3,2.33,31.45,31.45,0,0,0-2.57,3.39c-.92,1.32-1.73,2.73-2.52,4.13-1.57,2.79-2.85,5.73-4.2,8.63-.94,2-1.73,4.1-2.55,6.18-.74,1.88-1.52,3.75-2.19,5.67q-1.33,3.84-2.66,7.68c-.76,2.16-1.39,4.38-2.08,6.56-.1.33-.21.67-.32,1-.79,1.79-1.57,3.6-2.32,5.42-.93,2.25-1.84,4.5-2.59,6.82a32,32,0,0,0-1.08,4.12c-1,1.79-1.83,3.67-2.74,5.51-.65,1.33-1.25,2.68-1.82,4.05s-1.14,2.89-1.68,4.35a11.38,11.38,0,0,0-.89,4.64,4.15,4.15,0,0,0,2.07,3.49,4,4,0,0,0,2.07.53,4.32,4.32,0,0,0,2.87-1.24,11.82,11.82,0,0,0,2.38-3.73c.52-1.06,1-2.13,1.51-3.2s.88-2,1.29-3l.5-.11a4.14,4.14,0,0,0,2.78-5.07c-.18-.63-.34-1.25-.49-1.89V534c.51-1.41,1-2.83,1.49-4.25l.15-.27q3.06-5.49,6.26-10.91c2.33-3.93,4.63-7.86,7-11.74s4.91-7.83,7.42-11.72c2.08-3.25,4.24-6.45,6.33-9.69s4-6.2,5.94-9.38a4.08,4.08,0,0,0-7-4.2,4.39,4.39,0,0,0-.53-2.46,4.46,4.46,0,0,0-1.76-1.79,4.05,4.05,0,0,0-1.72-.53,6.91,6.91,0,0,0-3.37.74Z" fill="#404040"/><path d="M502.06,473a7.53,7.53,0,0,0-2.31,2.29c-.41.69-.76,1.4-1.13,2.11a47.42,47.42,0,0,0-1.92,4.39q-1,2.44-2,4.9c-1.18,2.93-2.16,5.95-3.2,8.93-1.75,5-3.53,10.07-5.44,15-.45.86-.91,1.71-1.37,2.56-.89,1.66-1.73,3.33-2.59,5-.44.85-.8,1.74-1.19,2.61a41.64,41.64,0,0,0-2.22,5.67,4.07,4.07,0,0,0,.45,3.14,4.57,4.57,0,0,0,1.95,1.7,4.32,4.32,0,0,0,1,.82,4.19,4.19,0,0,0,2.07.52l.3,0a4.08,4.08,0,0,0,6.55-2.12c.13-.81.28-1.61.45-2.41l2.05-1.94c1.78-1.73,3.58-3.46,5.35-5.2a4.1,4.1,0,0,0-.08-5.77,3.91,3.91,0,0,0-2.29-1.1q1-2.39,2-4.78c1.47-3.58,2.8-7.2,4.08-10.85.18-.51.36-1,.53-1.54.34-.59.69-1.18,1-1.78.95-1.64,1.86-3.32,2.75-5,.38-.72.76-1.45,1.11-2.19s.59-1.34.86-2a8.89,8.89,0,0,0,.32-.86,4.81,4.81,0,0,0-.08-2.47,3.84,3.84,0,0,0-1.48-2.12,12.85,12.85,0,0,0,.61-4.05,4,4,0,0,0-.59-2.05,4.11,4.11,0,0,0-1.48-1.45,4.4,4.4,0,0,0-1.73-.51,3.67,3.67,0,0,0-2.39.57Z" fill="#404040"/><path d="M526,544.87c-4.33,1.57-8.71,3.09-12.93,4.94-2.35,1-4.72,2.06-7,3.18a54.73,54.73,0,0,0-7.28,4.29c-2.82,2-5.43,4.24-8,6.48a4,4,0,0,0-1.15,2.9,4.08,4.08,0,0,0,1.23,2.87,4.16,4.16,0,0,0,2.91,1.16,4.37,4.37,0,0,0,2.87-1.24c1.43-1.23,2.87-2.46,4.34-3.65a53.83,53.83,0,0,1,11.27-6.74l4.23-1.87q5.91-2.31,11.87-4.48a4.32,4.32,0,0,0,2.41-1.91,4.17,4.17,0,0,0,.37-3.15,4.27,4.27,0,0,0-3.63-3,3.25,3.25,0,0,0-1.44.19Z" fill="#404040"/><path d="M262.46,42.13c-1.71.24-3.42.48-5.12.77a42.08,42.08,0,0,0-7.93,1.84l-4.63,1.76c-1.48.55-3,1-4.5,1.47-3,1-6,2.06-9,3.16a84.13,84.13,0,0,0-8.13,3.61l-3,1.49.47-.22-.69.33-.26.13.19-.09-.65.31c-4.3,2-8.78,3.68-12.84,6.21a91.76,91.76,0,0,0-11.5,9c-3.14,2.65-6.41,5.14-9.44,7.91A106.69,106.69,0,0,0,177,88.31c-1.35,1.55-2.63,3.17-3.93,4.77s-2.65,3.15-4,4.74c-2.57,3.11-5.31,6.08-7.69,9.34s-4.79,6.43-7.13,9.67c-1.19,1.63-2.39,3.26-3.55,4.92-1.26,1.82-2.57,3.6-3.74,5.49-1,1.65-2.07,3.3-3,5s-1.66,3.17-2.5,4.74-1.64,3.15-2.55,4.68-1.91,3.25-2.84,4.88a81.09,81.09,0,0,0-8.78,24c-.36,1.81-.64,3.64-1,5.46-.36,2-.76,4-1.1,6a47.72,47.72,0,0,0-.62,13.28c.29,2.6.64,6.21,3.5,7.14-.17,2.85-.38,5.69-.56,8.53-.12,1.92-.29,3.84-.36,5.77,0,1.07,0,2.15,0,3.23a14.47,14.47,0,0,0,.2,2,6,6,0,0,0,.81,2.5,4,4,0,0,0,1.06,1.06c.23,6.33.62,12.66.95,19,.23,4.56.44,9.12.58,13.69a4.08,4.08,0,0,0,8.15-.44c-.25-7.83-.68-15.64-1.09-23.46-.19-3.64-.43-7.28-.52-10.92q-.07-3-.11-6c0-.45,0-.9,0-1.35.4-2.13.8-4.26,1.18-6.4.4-2.31.79-4.61,1.11-6.94.18-1.21.35-2.42.52-3.63.13-.81.24-1.62.36-2.43a18.38,18.38,0,0,0,.36-4.11,4.73,4.73,0,0,0-.31-1.31l.22-.63a81.79,81.79,0,0,0,3-12.06c.45-2.37.9-4.74,1.5-7.08s1.38-4.7,2.15-7c1.49-3.81,3.23-7.49,5-11.19a104.89,104.89,0,0,1,6-11.14c4.7-7.34,9.59-14.53,14.5-21.72l6.26-9.18c3-4.29,6.06-8.54,9.35-12.62,1.53-1.89,3.16-3.72,4.76-5.56.87-1,1.76-2,2.65-3,.78-.61,1.56-1.21,2.33-1.84,1.9-1.53,4.21-3.29,4-6A4.06,4.06,0,0,0,200,78.59l-.37-.16c.52-.43,1-.87,1.54-1.31l-.79.68c2.16-1.85,4.32-3.67,6.57-5.41a47.74,47.74,0,0,1,7.3-4.61c3.06-1.44,6.2-2.69,9.23-4.2l-.95.46,3.81-1.86,1.69-.83c3.93-1.83,8-3.3,12.09-4.73,2.34-.82,4.72-1.49,7.06-2.31,1.13-.4,2.27-.83,3.39-1.27.57-.22,1.13-.45,1.7-.66a22.36,22.36,0,0,1,3.52-1c2.36-.41,4.73-.8,7.1-1.12a4.34,4.34,0,0,0,2.82-1.36,4.07,4.07,0,0,0-.31-5.76,4.23,4.23,0,0,0-2.35-1.05,2.9,2.9,0,0,0-.59,0Zm-82.92,68.29-.17.25a2.2,2.2,0,0,1,.17-.25Zm40.25-54,.07,0,.22-.11-.29.15Z" fill="#404040"/><path d="M271.49,40.63c-2.53.38-5.06.75-7.59,1.08-2,.27-4.13.44-6.19.64-4.46.43-9,.77-13.32,2.13-1.93.61-3.8,1.4-5.68,2.14S234.92,48,233,48.71a72.17,72.17,0,0,0-11.89,5.71c-2.12,1.2-4.29,2.36-6.47,3.47l.95-.47c-3.78,1.84-7.5,3.78-11.17,5.86-.83.46-1.67.92-2.49,1.39a19.86,19.86,0,0,0-2.66,1.87c-1.85,1.46-3.5,3.16-5.25,4.73-2.71,2.25-5.5,4.38-8.21,6.62a112,112,0,0,0-8.59,7.86c-2.75,2.81-5.36,5.76-7.87,8.79-2.09,2.53-4.38,4.85-6.56,7.29-1.56,1.75-3.09,3.54-4.56,5.37s-2.89,4-4.27,6c-2.23,3.2-4.4,6.45-6.42,9.79-2.11,3.49-4.05,7.09-6,10.69-1,1.89-1.94,3.79-2.79,5.75a60.83,60.83,0,0,0-2.13,5.84,56.41,56.41,0,0,0-2.27,10.68c-.26,2.21-.37,4.42-.45,6.64a4,4,0,0,0,1.35,2.82,4.1,4.1,0,0,0,5.77-.32,4.33,4.33,0,0,0,1-2.94c0-.88,0-1.76.1-2.64a58,58,0,0,1,1-7,65.58,65.58,0,0,1,2.13-7.48c1.85-4.85,4.5-9.34,7-13.89s5.16-8.59,8-12.74q1-1.48,2-3c1.94-2.69,4.13-5.17,6.28-7.69s4.3-4.54,6.3-6.95c2.27-2.75,4.59-5.44,7-8,2.3-2.4,4.68-4.71,7.17-6.91,2.13-1.79,4.29-3.55,6.49-5.25,2.87-2.21,5.49-4.7,8.17-7.12a22.16,22.16,0,0,1,3.23-2.2c1.35-.77,2.72-1.52,4.07-2.28,2.45-1.39,5-2.64,7.48-3.9l-.46.22c2-1,4-2.07,6-3.14s4.14-2.35,6.25-3.45a42.19,42.19,0,0,1,4.44-1.88q2.76-1,5.5-2c1.85-.67,3.66-1.47,5.51-2.15a33.44,33.44,0,0,1,4.84-1.27c3.4-.48,6.81-.77,10.23-1.13,1.76-.18,3.52-.36,5.28-.59,1.94-.26,3.87-.56,5.8-.85a4.29,4.29,0,0,0,2.82-1.35,4.07,4.07,0,0,0-.31-5.76,4.31,4.31,0,0,0-2.35-1.06,3,3,0,0,0-.6,0Z" fill="#404040"/><path d="M140.41,148.44c-1.42,3.56-2.95,7.08-4.37,10.64-.69,1.72-1.2,3.52-1.77,5.29s-1.18,3.73-1.78,5.6a88.6,88.6,0,0,0-2.88,11.77c-.68,3.9-1.38,7.78-2.19,11.64s-1.64,7.47-2.3,11.23c-.32,1.81-.68,3.62-1,5.42-.38,2-.66,3.95-.91,5.93s-.45,3.93-.77,5.89-.59,3.75-.81,5.63c-.45,3.7-.77,7.41-1.09,11.13s-.75,7.69-.88,11.55c0,1.84-.08,3.69,0,5.52,0,2,.18,3.95.34,5.93.13,1.63.32,3.27.48,4.91s.35,3.36.52,5,.27,3.44.41,5.15.31,3.28.51,4.91c.41,3.43.94,6.84,1.31,10.27.35,3.18.71,6.37.9,9.57,0,1.43.14,2.86.22,4.29.07,1.67,0,3.33,0,5s.08,3.18.08,4.76c0,3.54-.45,7.07-.54,10.6-.09,3.84-.17,7.67-.4,11.5s-.22,7.91-.42,11.85-.47,7.62-.76,11.42c-.15,1.91-.28,3.82-.48,5.73s-.52,3.94-.77,5.91c-.48,3.65-.75,7.32-1.28,11-.56,3.85-1.26,7.68-1.84,11.53q-.61,4.11-1.46,8.18c-.58,2.81-1.06,5.64-1.63,8.46q-.67,3-1.32,6c-.19.83-.37,1.65-.55,2.48-.87,3.67-2,7.29-3,10.91s-2.5,7.31-3.81,10.92c-.61,1.7-1.23,3.37-1.92,5s-1.48,3.34-2.25,5c-1.41,3-2.71,6-4.21,9-1,1.8-2,3.56-3,5.35-1.16,2.08-2.23,4.2-3.32,6.32-1.74,3.21-3.59,6.33-5.61,9.38-2.19,3.3-4.32,6.64-6.58,9.9s-5,6.38-7.55,9.47-5.44,6.3-8.17,9.44c-2.45,2.82-4.62,5.87-7.07,8.7a3,3,0,0,0-.51,2.39,3.21,3.21,0,0,0,1.28,2,3.15,3.15,0,0,0,2.38.51,3.37,3.37,0,0,0,2-1.29c1.51-1.74,2.92-3.59,4.35-5.4,1.24-1.56,2.53-3.08,3.83-4.58,2.64-3,5.29-6.07,7.88-9.15s5.24-6.32,7.58-9.71c1.07-1.55,2.09-3.15,3.12-4.73s2-3.06,3-4.59c1.27-1.93,2.52-3.89,3.64-5.91,1.24-2.24,2.42-4.5,3.57-6.77,1.67-3.14,3.5-6.19,5.14-9.35s3-6.45,4.52-9.66q1.14-2.44,2.18-4.92c.72-1.73,1.31-3.49,2-5.24,1.37-3.74,2.71-7.5,3.86-11.31,1.23-4.08,2.31-8.19,3.22-12.36,0,.28-.12.55-.17.83.35-1.61.68-3.2,1-4.81q.67-3,1.28-5.92c.36-1.8.66-3.62,1-5.43.72-3.58,1.32-7.19,1.89-10.8s1.28-7.5,1.76-11.27c.25-1.9.4-3.81.61-5.71s.46-3.78.72-5.66.49-3.78.66-5.68.28-3.67.42-5.5c.29-4,.56-7.93.73-11.9.09-2,.12-3.95.16-5.93s.16-3.82.27-5.73.17-3.86.21-5.8.05-3.59.17-5.38c.24-3.65.49-7.28.42-10.94,0-1.69,0-3.37,0-5.06,0-1.94-.13-3.86-.24-5.79-.12-3.88-.55-7.73-.94-11.58s-1-7.39-1.41-11.1c-.2-1.68-.39-3.37-.51-5.06s-.23-3.43-.41-5.14-.35-3.27-.51-4.91-.35-3.27-.48-4.91c-.07-.9-.15-1.8-.21-2.7a99.23,99.23,0,0,1,.23-10.77q.45-5.68,1-11.36c.35-3.76.74-7.52,1.3-11.27.29-1.94.63-3.88.84-5.84s.47-4,.8-6c.22-1.32.48-2.63.75-3.94s.49-2.7.74-4.05c.54-2.89,1.17-5.76,1.77-8.63s1.17-5.52,1.68-8.29.95-5.56,1.49-8.33c1.17-4.82,2.75-9.53,4.26-14.26.37-1.18.76-2.35,1.18-3.51s.85-2.08,1.27-3.12c1.05-2.55,2.13-5.08,3.15-7.64a3.16,3.16,0,0,0-1.87-4,2.94,2.94,0,0,0-.82-.18,3.2,3.2,0,0,0-3.21,2.05Zm-27.52,272-.12.52.12-.52ZM98.38,472.71l-.11.2a2,2,0,0,1,.11-.2Z" fill="#404040"/><path d="M130.51,342.54a3.14,3.14,0,1,0,3.38-2.87,3.18,3.18,0,0,0-3.38,2.87Z" fill="#404040"/><path d="M122.36,359.79c-.4,3.24-.68,6.5-1.08,9.74s-.88,6.53-1.23,9.8c-.36,3.42-.84,6.83-1.32,10.24-.47,3.25-1.07,6.46-1.68,9.69-.24,1.27-.51,2.55-.77,3.82-.64,2.73-1.31,5.45-1.87,8.19-.62,3.1-1.14,6.22-1.59,9.35a3.15,3.15,0,0,0,2.87,3.39,3,3,0,0,0,2.86-1.43q-.48,3.09-1,6.18a3.14,3.14,0,0,0,6.26.52c1.06-7.13,2.18-14.24,3.24-21.37,1-6.85,1.81-13.73,2.64-20.61.43-3.6.79-7.21,1.19-10.81q.33-3,.7-5.9c.09-.81.19-1.61.27-2.42.06-.61.12-1.22.17-1.82a5.57,5.57,0,0,0-.22-3,3.16,3.16,0,0,0-3.25-1.76c0-.43,0-.85,0-1.28a3.14,3.14,0,0,0-6.26-.52Z" fill="#404040"/><path d="M127.27,383.58a3.2,3.2,0,0,0-1.45.69c-1.12.76-1.35,2.38-1.6,3.61-.16.71-.31,1.43-.44,2.16-.25,1.33-.53,2.66-.78,4-.51,2.75-1,5.48-1.55,8.22q-1.38,7.65-3,15.27l-.33,1.42a2.84,2.84,0,0,0-1.32,1.6c-1,3.32-1.93,6.7-3.09,10-.57,1.59-1.14,3.18-1.76,4.74s-1.27,3-1.92,4.51c-2.6,6-5.06,12.16-7.54,18.26-1,2.42-1.93,4.88-3,7.29-.48,1.14-1,2.28-1.43,3.42-.39.95-.84,1.87-1.24,2.82a3.14,3.14,0,0,0,3.53,4.17,3,3,0,0,0,2-1.29c.2-.37.4-.74.59-1.11,3.14-6.05,5.72-12.38,8.83-18.46.72-1.37,1.44-2.74,2.06-4.16s1.24-3,1.84-4.45c1.24-3.07,2.37-6.18,3.5-9.29q1.49-4.11,2.78-8.28c.94-3,1.69-6.08,2.39-9.15.34-1.49.66-3,1-4.48l.22,0a3.18,3.18,0,0,0,3.39-2.87c.36-4.46,1.12-8.86,1.6-13.3q.33-3.09.63-6.18c.1-1,.22-2,.23-3a15.55,15.55,0,0,0-.1-2.16,6.19,6.19,0,0,0-.66-2.33,3.32,3.32,0,0,0-1.75-1.59,3,3,0,0,0-.82-.18,3.38,3.38,0,0,0-.84,0ZM118.38,418l0,.21c0-.07,0-.14,0-.21Z" fill="#404040"/><path d="M127.52,402.41a3.3,3.3,0,0,0-1.59,1.76c-.74,1.65-1.36,3.35-2,5s-1.27,3.2-1.9,4.8c-1.32,3.34-2.67,6.68-4.3,9.88a188.29,188.29,0,0,1-10.17,15.93c-1.88,2.79-4,5.41-6.06,8.05s-4.18,5.13-6.26,7.7c-1.63,2-3.29,4-4.91,6s-3.27,4.05-5,6c-2.62,2.83-5.3,5.61-7.81,8.54-1.19,1.4-2.45,2.76-3.69,4.12s-2.45,2.76-3.69,4.12l0,0,.07-.08-2.22,2.42c-1.19,1.28-2.41,2.52-3.64,3.76s-2.63,2.45-4,3.67a56.57,56.57,0,0,0-4,4.21c-1.07,1.24-2.08,2.53-3.16,3.75-1.9,2-3.87,4-5.69,6.09-1.66,1.92-3.31,3.83-5,5.73-1,1-2,2-2.87,3.09s-1.65,2.19-2.45,3.3c-1.67,2.34-3.16,4.8-4.85,7.11s-3.34,4.91-4.89,7.43a98.1,98.1,0,0,0-4.82,9.27c-.62,1.31-1.25,2.62-1.83,3.94a40.49,40.49,0,0,0-1.48,4.26c-.44,1.37-.8,2.76-1.16,4.15-.42,1.57-.9,3.12-1.37,4.67s-.8,2.92-1.12,4.38c-.38,1.65-.76,3.3-1.07,5-.57,3-.92,6.11-1.3,9.17s-.55,6.35-.65,9.52c-.06,1.59-.06,3.18,0,4.77s.26,3.38.42,5.08c.31,3.23.49,6.49,1,9.7.46,2.95.87,5.93,1.52,8.85l.3,1.37a3.14,3.14,0,0,0,6.18-1.16c-.46-2-.85-4.1-1.18-6.17-.3-1.92-.67-3.84-.88-5.78-.22-2.09-.39-4.18-.6-6.27-.18-1.74-.39-3.48-.5-5.22a104.06,104.06,0,0,1,.5-12.73c.2-2.13.54-4.24.82-6.36.24-1.91.54-3.81.93-5.7.52-2.31,1.05-4.6,1.74-6.87.73-2.45,1.4-4.92,2.09-7.38.34-1.25.76-2.48,1.19-3.7s.89-2.11,1.37-3.16c1.06-2.3,2.12-4.59,3.27-6.84a106.85,106.85,0,0,1,7.38-11.53c2.41-3.37,4.45-7,7.19-10.11,2.58-2.74,5-5.59,7.5-8.43,1.7-1.84,3.47-3.61,5.14-5.47,1.49-1.65,2.86-3.4,4.32-5.06.76-.79,1.51-1.57,2.31-2.31s1.87-1.64,2.75-2.51c2-1.95,3.91-3.93,5.77-6l1.49-1.62c3.33-3.65,6.59-7.38,9.89-11.07.91-1,1.82-1.95,2.72-2.94,1.23-1.33,2.52-2.62,3.69-4,2.12-2.48,4.15-5,6.21-7.56,4.1-5,8.24-10,12.25-15.16,2.1-2.69,4-5.54,5.88-8.37s3.63-5.44,5.34-8.22a67.76,67.76,0,0,0,4.64-8.85c1.25-2.92,2.43-5.87,3.6-8.82,1-2.43,1.87-4.89,2.94-7.28a3.16,3.16,0,0,0-1.87-4,2.94,2.94,0,0,0-.82-.18,3.11,3.11,0,0,0-1.62.29ZM85.11,467.79l-.17.18.17-.18Zm-.76,10-.16.18.16-.18Zm-13.78,6.1-.47.51.47-.51Zm-17.95,28-.14.16.14-.16ZM21.09,569.88l-.06.26.06-.26Zm-2.22,23.84c0,.11,0,.21,0,.32,0-.11,0-.21,0-.32Zm55.8-105.13-.23.25.54-.59-.31.34Z" fill="#404040"/><path d="M126.07,379.32a10.48,10.48,0,0,0-1.24,4.3c-.13.8-.29,1.6-.46,2.39a160,160,0,0,1-5.3,17.83q-3.22,9-6.84,17.79c-.55,1.32-1.15,2.61-1.69,3.93l-1.68,4.07c-1.17,2.77-2.28,5.58-3.47,8.35l-3.62,8.46c-1.2,2.8-2.54,5.53-3.9,8.25L97.15,456l-.67.87c-4,5.25-8.07,10.49-12.3,15.59-2.16,2.61-4.26,5.27-6.47,7.84s-4.21,4.89-6.35,7.31q-2.22,2.12-4.47,4.19c-2.48,2.29-4.87,4.67-7.25,7.06-2.55,2.55-4.94,5.25-7.33,7.94-4,4.47-7.76,9.07-11.32,13.87-1.69,2.29-3.37,4.6-5,6.95l-1.48,2.18a44.17,44.17,0,0,0-2.92,5A16.42,16.42,0,0,0,30,540.4a34.07,34.07,0,0,0-.08,3.78,3.39,3.39,0,0,0,.74,2.29,3.15,3.15,0,0,0,4.43.37,3,3,0,0,0,1.09-2.14,26.74,26.74,0,0,1,.21-4.65,17.61,17.61,0,0,1,1.24-3.18c1.13-2.08,2.48-4,3.8-6,.79-1.15,1.6-2.29,2.42-3.42.61-.83,1.21-1.67,1.83-2.5a3.31,3.31,0,0,0,2.36-.15,7.88,7.88,0,0,0,2.51-2.3l1.34-1.63c.86-1.06,1.72-2.12,2.56-3.2,1.74-2.2,3.45-4.42,5.21-6.61s3.67-4.43,5.5-6.65,3.55-4.2,5.38-6.24l3-3.19c1.14-1.21,2.36-2.34,3.53-3.51,2.07-2.05,4.16-4.05,6.19-6.13s4.19-4.3,6.19-6.53c1-1.14,2-2.29,3-3.45.49-.57,1-1.17,1.45-1.75a13.69,13.69,0,0,0,1.54-2A3.34,3.34,0,0,0,96,469.3a3.12,3.12,0,0,0-.38-1l1.59-2a2.19,2.19,0,0,0,1.13-.32,4.17,4.17,0,0,0,1.33-1.1l.43-.54c.21-.27.4-.54.59-.81.45-.65.87-1.31,1.3-2,.87-1.3,1.69-2.63,2.52-4l0,0q-1.83,6.09-3.61,12.21a3.25,3.25,0,0,0,.12,2.43,3.07,3.07,0,0,0,1.75,1.59,3.15,3.15,0,0,0,4-1.86c1.94-6.72,4-13.42,6-20.12,1.91-6.37,3.78-12.76,5.75-19.12.07-.24.14-.49.22-.73l.28-.63c.53-1.23,1-2.44,1.51-3.69.19-.53.37-1.07.56-1.6a6.87,6.87,0,0,0,.38-2.92q1.8-5.88,3.59-11.76c2-6.67,4-13.38,5.47-20.2l.69-3.26a32.56,32.56,0,0,0,.54-3.93,8.64,8.64,0,0,0-.3-4.17,3.17,3.17,0,0,0-5.41-.44Zm-1.73,6.83-.09.43.09-.43ZM71,497.71l-.2.22.2-.22Z" fill="#404040"/><path d="M488.33,105.22a3.17,3.17,0,0,0-2.5,3.68,3.4,3.4,0,0,0,1.28,2c2,1.72,4,3.38,6,5.12,2.47,2.38,4.68,5,7.05,7.49a51.07,51.07,0,0,1,5.53,6.33c.67,1.09,1.29,2.18,1.89,3.3.7,1.31,1.46,2.56,2.27,3.79.65,1,1.42,1.85,2.12,2.78s1.56,2.16,2.35,3.24,1.43,1.92,2.14,2.88,1.48,2.09,2.26,3.12c1.43,1.91,3,3.71,4.38,5.68s2.39,3.95,3.62,5.89,2.28,4.17,3.44,6.24A88.85,88.85,0,0,1,536,180.59c.39,1.25.76,2.51,1.07,3.78.38,1.54.67,3.11,1.06,4.65s.8,3,1.12,4.59.51,3.1.79,4.65.63,3.2,1,4.79.72,3.36,1.16,5,.78,3.06,1.08,4.61c.33,1.72.59,3.45.9,5.16.16.93.29,1.86.45,2.78s.36,2,.47,3.08c.22,2.09.47,4.18.79,6.26.28,1.81.68,3.6,1,5.41.31,2,.61,4.1.75,6.16.06,1.41.15,2.82.23,4.23.08,1.8.15,3.6.24,5.4s.21,3.66.32,5.49c0-.28,0-.56,0-.84.07,1.52.19,3,.31,4.57.12,1.37.31,2.74.42,4.11s.25,2.65.34,4,.27,2.4.37,3.59c0,.95.05,1.9.12,2.85s.14,1.8.19,2.71c0-.28,0-.56,0-.84.07,1.33.2,2.66.29,4,.08,1.52.19,3,.29,4.55.11,3,.19,6,.34,8.95.1,2,.23,3.92.35,5.89.07,1.45.16,2.9.25,4.35.06,1.78.09,3.55.16,5.33s.08,3.83,0,5.74c0,.76-.08,1.52-.08,2.28s0,1.62.08,2.44c.06,1.69,0,3.38.07,5.08s.1,3.38,0,5.07c-.08,1.93-.23,3.85-.36,5.78-.06.94,0,1.91,0,2.86s0,2,0,3c0,1.64-.14,3.29-.24,4.93-.06.95-.13,1.89-.19,2.84s0,2.13,0,3.18c0,1.65,0,3.3-.09,4.94-.17,3.63-.46,7.25-.75,10.88-.14,1.76-.28,3.52-.43,5.29s-.34,3.63-.4,5.44c-.1,4-.19,8-.45,12-.52,7.85-1.21,15.68-1.85,23.52-.17,2.09-.34,4.18-.43,6.27-.09,1.85-.11,3.7-.19,5.55-.18,4-.45,8.05-.75,12.07s-.63,8.18-1,12.27-.71,8.23-1,12.35c-.58,8.25-.72,16.54-1,24.82-.06,1.95-.11,3.9-.17,5.85a3.19,3.19,0,0,0,2.87,3.39,3.16,3.16,0,0,0,3.39-2.87q.36-12.93.83-25.85c.15-3.92.54-7.83.87-11.74s.64-7.93,1-11.9c.34-4.3.66-8.62.93-12.92.26-3.87.33-7.74.5-11.6s.62-8,.94-12,.64-7.95.95-11.92.56-7.91.7-11.87c.06-1.95,0-3.9.14-5.84.09-1.77.29-3.54.43-5.31.57-7.12,1.23-14.24,1.19-21.4,0-1.93.18-3.86.3-5.78q.15-2.43.21-4.86c0-2-.07-4,.08-6s.27-3.9.34-5.85c.05-1.63,0-3.26-.11-4.89s0-3.34-.06-5,0-3.24,0-4.88c.05-1.92,0-3.84-.09-5.76-.06-1.35-.06-2.7-.1-4s-.15-2.84-.24-4.26c-.08-1.76-.22-3.53-.32-5.29,0-1.15-.11-2.31-.17-3.46-.08-1.71-.13-3.42-.2-5.13,0-1.12,0-2.24-.12-3.35,0-.78-.13-1.55-.18-2.33-.07-1.54-.19-3.07-.32-4.6,0,.09,0,.19,0,.28-.07-1.19-.16-2.37-.23-3.56,0-1.46-.1-2.92-.28-4.38s-.26-2.79-.41-4.18-.22-2.69-.38-4-.29-2.92-.4-4.38l0,.52c-.08-1.56-.19-3.12-.29-4.67,0-1.3-.11-2.6-.19-3.89s-.08-2.41-.14-3.62c-.06-1-.13-2.08-.18-3.12s-.08-1.84-.16-2.76-.26-1.89-.38-2.84c-.22-1.68-.43-3.36-.78-5s-.52-3.12-.75-4.69c-.28-1.82-.39-3.66-.67-5.48-.25-1.66-.54-3.31-.83-5s-.54-3.37-.88-5-.71-3.13-1.12-4.69-.79-3.37-1.15-5.05-.67-3.08-.94-4.63-.5-3.23-.83-4.83-.76-3-1.13-4.53-.64-3-1-4.52c-.44-1.69-.92-3.38-1.5-5s-1.2-3.26-1.8-4.9a65.18,65.18,0,0,0-4.23-9.23c-.71-1.29-1.37-2.61-2.09-3.9-.81-1.45-1.69-2.85-2.56-4.27s-1.57-2.58-2.37-3.87c-.48-.79-1-1.56-1.56-2.3s-1.21-1.48-1.8-2.23c-1.87-2.38-3.58-4.88-5.42-7.28-1-1.29-1.92-2.62-2.86-3.95-.45-.63-.95-1.21-1.43-1.81s-.73-1-1.06-1.5c-.67-1.06-1.25-2.17-1.84-3.28a37.84,37.84,0,0,0-2.66-4.29,56.74,56.74,0,0,0-5.29-5.89c-2.11-2.21-4.05-4.6-6.26-6.72-2.48-2.37-5.17-4.52-7.77-6.76a2.67,2.67,0,0,0-1.5-.56,3.72,3.72,0,0,0-.89,0ZM547.58,241c0,.1,0,.2,0,.29,0-.09,0-.19,0-.29Zm6.61,8.11c0,.1,0,.2,0,.31,0-.11,0-.21,0-.31Zm-2.88,50.45c0,.16,0,.31,0,.47,0-.15,0-.31,0-.47Z" fill="#404040"/></g><g id="Draw_Layer-3" data-name="Draw Layer"><path d="M362.65,557.05c-2-.06-3.66-.07-5.24,0-1.38.05-2.74.16-4.37.34-2.77.28-5.57.83-8.28,1.35l-.51.1-.62.12c-2.7.51-5.49,1-8.17,1.78l-.37.1c-1.47.4-3,.81-4.45,1.28l-.73.22c-1.19.37-2.42.76-3.59,1.23-1.47.6-2.94,1.22-4.48,1.92-.5.23-1,.49-1.49.75l-.47.24a27,27,0,0,0-2.37,1.37l-.42.28c-.42.27-.83.54-1.23.83-.62.47-1.27,1-2.05,1.67a32,32,0,0,0-3.53,3.78,27.08,27.08,0,0,0-2.2,3.05,53.28,53.28,0,0,1,11-6c2.72-1.18,5.51-2.27,8.29-3.24s5.72-1.84,8.51-2.66,5.75-1.53,8.58-2.21l.53-.13c2.66-.65,5.57-1.22,8.65-1.68,3.37-.51,6.34-.85,9.09-1a66.91,66.91,0,0,1,9.1.09l.72,0a46.53,46.53,0,0,1,7.36,1.2,59.82,59.82,0,0,1,8.46,2.94l.55.23-.06-.5-.08-.66a2.88,2.88,0,0,0-2.6-2.44,2.09,2.09,0,0,0-.61,0,2.77,2.77,0,0,0-1.63.82c-1.2-.63-2.34-1.18-3.48-1.66a39.41,39.41,0,0,0-9.15-2.7c-1.53-.26-3.17-.46-4.88-.6-1.24-.1-2.52-.18-3.81-.22Z" fill="#f3d4ca"/><path d="M296.49,552.46A2.88,2.88,0,0,0,295,554a3,3,0,0,0,0,2.2c1.36,4.3,2.71,8.81,4.13,13.79.49,2,1,4,1.42,6.09a3.39,3.39,0,0,1,.72,1.49,13.73,13.73,0,0,1,.22,2.55c0,.2,0,.4,0,.61q.35,1.77.66,3.63a15.4,15.4,0,0,1,4.52-5.79l.16-.13c-.33-1.75-.67-3.36-1-4.9-.77-3.41-1.74-6.77-2.58-9.61-1-3.54-2-6.73-3-10a2.7,2.7,0,0,0-1.52-1.5,2.82,2.82,0,0,0-2.21,0Z" fill="#f3d4ca"/><path d="M401,570.52a2.11,2.11,0,0,0-.51.12c.84.54,1.66,1.09,2.48,1.64l.47.31.78.52,0-.19a2.9,2.9,0,0,0-2.58-2.42,3.11,3.11,0,0,0-.61,0Z" fill="#f3d4ca"/><path d="M371.86,560.57a65.16,65.16,0,0,0-9.1-.08c-2.75.19-5.72.53-9.09,1-3.08.47-6,1-8.65,1.68l-.53.13c-2.83.69-5.75,1.4-8.58,2.22s-5.67,1.66-8.51,2.65-5.57,2.07-8.29,3.25a48.61,48.61,0,0,0-12.44,7.12,14.76,14.76,0,0,0-4.66,6.14,19.63,19.63,0,0,0-.55,2c0,1,0,2,0,3a2.6,2.6,0,0,1,.49-.7,2.84,2.84,0,0,1,2-.86h.24a2.85,2.85,0,0,1,2.64,2.8l-.07,1-.08,1.14c-.07,1.07-.15,2.19-.16,3.29,0,1.34,0,2.76.13,4.35l0,.61c.15,2.7.3,5.49.39,8.24v.07a1.59,1.59,0,0,0,.12.27,30.7,30.7,0,0,0,1.72,3.35,26.59,26.59,0,0,0,2.66,3.89,25.82,25.82,0,0,0,7.45,5.66,32,32,0,0,0,8.41,3c1,.22,2.06.34,3.1.46l.9.1c.76.09,1.52.16,2.28.23l.46,0,1.1.1.22,0a38.23,38.23,0,0,0,9-.44,46.16,46.16,0,0,0,8.63-2.14c2.23-.8,4.44-1.77,6.65-2.73l.23-.11.91-.4c1.95-.85,3.89-1.7,5.82-2.6.74-.34,1.46-.71,2.17-1.08l.21-.12.81-.42c1.16-.59,2.32-1.18,3.49-1.76l.72-.35.73-.35,2-1c1.11-.57,2.23-1.24,3.21-1.84a49.78,49.78,0,0,1,4.41-2.33l.68-.3c.67-.29,1.35-.6,2-.94,1.08-.58,2.16-1.25,3.11-1.84l.1-.06c.61-.37,1.22-.73,1.85-1.05l.77-.39c.57-.29,1.14-.58,1.7-.89,1.1-.6,2.16-1.27,3.33-2,.56-.36,1.13-.72,1.71-1.07l.18-.11.18-.1c.68-.4,1.37-.8,2-1.21l.19-.12.32-.21c.93-.59,1.78-1.21,2.78-1.93a35.37,35.37,0,0,0,4.69-4.24l.53-.51.2-.06V592c-.29-2.58-.58-5.15-.91-7.72-.15-1-.3-1.9-.46-2.85l-.13-.33-.28-.72c-.41-1-.83-2.12-1.31-3.16a11.6,11.6,0,0,0-1-1.73,8.43,8.43,0,0,0-1.34-1.4l-.21-.19a15.25,15.25,0,0,0-1.74-1.28l-.48-.31a54.34,54.34,0,0,0-7-4.21c-2.55-1.2-5.15-2.3-7.57-3.31a59.82,59.82,0,0,0-8.46-2.94,46.71,46.71,0,0,0-7.36-1.2l-.72,0Z" fill="#e39279"/><path d="M493.19,470.62a36.19,36.19,0,0,0-2.43,5c-.56,1.23-1.18,2.45-1.79,3.66-1.33,2.62-2.85,5.16-4.3,7.71l.13-.23c-2,3.45-4,6.87-6,10.29-1.08,1.81-2.17,3.6-3.25,5.4-.16.27-.33.53-.49.79l0-1.35a2.71,2.71,0,0,0-1.1-1.86,2.8,2.8,0,0,0-3.95.55,3,3,0,0,0-.55,2.09c.07,1.69.13,3.38.22,5.07a12,12,0,0,0,.51,3.08,3.5,3.5,0,0,0,1.35,1.93,3.39,3.39,0,0,0,2,.58c1.86-4.05,3.77-8.08,5.76-12.07l.09-.18.09-.2c.79-1.77,1.64-3.51,2.47-5.26,1-2.19,2-4.43,3.11-6.6,2.07-4,4.05-8.15,6.25-12.13,1.37-2.48,2.73-4.94,4.12-7.4a2.63,2.63,0,0,0-2.19,1.12Z" fill="#f3d4ca"/><path d="M484.89,486.6l.14-.22-.14.22Z" fill="#f3d4ca"/><path d="M484.8,486.77l.09-.17-.09.17Z" fill="#f3d4ca"/><path d="M410.64,592.14l-.53.51a35.29,35.29,0,0,1-4.69,4.23c-1,.72-1.85,1.34-2.78,1.94l-.32.2-.19.12c-.67.42-1.36.82-2,1.21l-.18.11-.19.11c-.57.35-1.14.7-1.7,1.06-1.17.75-2.23,1.41-3.33,2-.56.31-1.13.6-1.7.89l-.77.39c-.62.33-1.24.68-1.85,1.05l-.11.06c-.94.59-2,1.26-3.1,1.84-.64.35-1.32.65-2,.94l-.68.31a46.87,46.87,0,0,0-4.41,2.32c-1,.6-2.1,1.28-3.21,1.84l-2,1-.73.35-.72.36c-1.17.57-2.33,1.16-3.49,1.75l-.81.43-.21.11c-.71.37-1.43.75-2.17,1.08-1.93.9-3.87,1.75-5.82,2.6l-.91.4-.23.11c-2.21,1-4.42,1.93-6.65,2.73a46.16,46.16,0,0,1-8.63,2.14,37.7,37.7,0,0,1-9,.44h-.22l-1.1-.1-.46,0-2.28-.22-.9-.11a29.29,29.29,0,0,1-3.1-.45,32.38,32.38,0,0,1-8.41-3,25.61,25.61,0,0,1-7.45-5.66,26.06,26.06,0,0,1-2.66-3.89,31.56,31.56,0,0,1-1.72-3.34,1.69,1.69,0,0,1-.12-.28v-.07c-.09-2.75-.24-5.54-.39-8.24l0-.61c-.09-1.59-.13-3-.13-4.35,0-1.1.09-2.21.16-3.29l.08-1.14.07-1a2.85,2.85,0,0,0-2.64-2.79h-.24a2.83,2.83,0,0,0-2,.85,2.69,2.69,0,0,0-.5.71c0,1.32,0,2.64,0,4,.07,1,.08,2,.1,3q.12,6.64-.12,13.28l.06,2.3c.05,1.88.1,3.82.23,5.73.25,3.47.49,6.14.79,8.63.41,3.43.68,6.24.86,8.85s.45,5.57.8,8.84c.15,1.47.29,2.94.42,4.42s.32,2.85.51,4.23.31,2.75.44,4.09c.15,1.51.31,3.08.52,4.61l.1.66.12.8c.24,1.71.44,3.42.58,5.08s.4,3.26.64,4.84l0,.26c.21,1.58.39,3.22.53,5s.43,3.59.71,5.33l0,.14,0,.16h0l0,.22,0,.27v-.16c.25,2,.42,3.75.5,5.39,0,.9.11,2,.25,3,.11.81.24,1.62.37,2.43l.12.73c.22,1.62.32,3.26.42,4.81a29.92,29.92,0,0,0,.52,3.56c.09.48.18.95.26,1.42.16,1.28.27,2.64.35,4.42a29.93,29.93,0,0,0,.49,3.7l.18,1.07c.08.61.14,1.23.2,1.84a30,30,0,0,0,.49,3.62l.08.41c.13.6.26,1.2.37,1.81.08.43.14.87.21,1.3l0,.39a4.63,4.63,0,0,0,.17.84,3.12,3.12,0,0,0,.44.85,2.66,2.66,0,0,0,.83,1.74c.88.8,1.73,1.61,2.59,2.42,1.37,1.31,2.79,2.67,4.25,3.92a23.77,23.77,0,0,0,4.08,2.85c.95.53,1.92,1,2.88,1.57l1.14.61.68.36a27.48,27.48,0,0,0,3.67,1.75,34.35,34.35,0,0,0,4.1,1.09c1.44.3,2.88.6,4.32.88.62.12,1.24.26,1.85.4.8.19,1.6.38,2.42.51,1.3.22,2.68.39,4.22.51l1.86.13,1.77.09c1,0,1.92.09,2.88.17l.52,0,1.61.31c1.23.25,2.49.49,3.75.62l.43,0c.74.06,1.48.11,2.22.12,2,.49,3.61.83,5.15,1.06.73.1,1.46.18,2.2.24a61.18,61.18,0,0,0,6.94.1,70.88,70.88,0,0,0,8.93-.76,36,36,0,0,0,5.95-1.48l1.38-1.19c.74-.66,1.48-1.33,2.2-2l1.17-1.13,1-1.37,2.18-3,.29-.53,1.44-2.68c.22-.42.45-.84.69-1.25a9.47,9.47,0,0,1,.7-1.12l.29-.56c.46-.92.91-1.85,1.42-2.75a10.71,10.71,0,0,1,1.16-1.81c.23-4.18.42-8.37.69-12.55.13-2,.25-4,.36-6s.11-4.23.21-6.35.24-4.25.32-6.38.09-4.53.08-6.79c0-2.09,0-4.17.05-6.25s.19-4.27.17-6.4c-.05-4.44-.12-8.89-.09-13.33,0-3.74.31-7.47.48-11.2-.11-2.71-.21-5.42-.44-8.13-.39-4.55-.49-9.1-.44-13.66q0-3.27.17-6.52c.08-2.22,0-4.45,0-6.67-.1-7.78-.3-15.58-.18-23.38l-.2.07Z" fill="#f3d4ca"/><path d="M319.1,724.31a2.87,2.87,0,0,0-1,3.88,54.65,54.65,0,0,0,3.71,6.09,18.52,18.52,0,0,0,2.41,2.81,30.38,30.38,0,0,0,2.53,2c.91.72,1.76,1.47,2.61,2.26s1.78,1.68,2.75,2.44c2.48,1.95,5.66,2.75,8.57,3.82,1.26.51,2.51,1,3.81,1.43s2.83.77,4.24,1.15,2.85.9,4.26,1.4a28.11,28.11,0,0,0,4.4,1.21c1.51.29,3,.49,4.52.77,1.66.3,3.35.52,5,.67,1.46.14,2.92.22,4.39.27a36.3,36.3,0,0,0,4,0c.85-.07,1.69-.14,2.54-.23l.69-.27c1.54-.72,3-1.55,4.54-2.29s3.07-1.54,4.54-2.42a47.88,47.88,0,0,1,4.52-2.29c1-.44,1.92-.94,2.84-1.46l1.87-1.6c.74-.67,1.48-1.33,2.2-2l1.17-1.13,1-1.37c.36-.49.72-1,1.07-1.48l-1.12.89c-.44.33-.87.67-1.3,1-1.35,1.05-2.74,2.07-4.15,3a30.65,30.65,0,0,1-4.51,2.44,33.53,33.53,0,0,1-5.27,1.74c-2.06.49-4.1,1-6.19,1.35a43.08,43.08,0,0,1-6.61.5c-2.44-.05-4.85-.16-7.27-.42-1.85-.25-3.68-.63-5.53-.9a29.58,29.58,0,0,1-5.77-1.39c-1.91-.69-3.84-1.32-5.81-1.83-.9-.24-1.82-.44-2.71-.73s-1.71-.59-2.55-.92-1.83-.72-2.75-1.06-1.67-.56-2.49-.87a16.52,16.52,0,0,1-2.62-1.33c-1-.83-2-1.74-2.91-2.64a42.15,42.15,0,0,0-3.53-2.84,21,21,0,0,1-2.33-2.29,50.07,50.07,0,0,1-4-6.44,2.71,2.71,0,0,0-2.17-1.35,2.87,2.87,0,0,0-1.7.38Zm61.43,24-.56.08.56-.08Z" fill="#f3d4ca"/><path d="M401.79,718.23a3,3,0,0,0-2,.85,6.35,6.35,0,0,0-1.36,1.94l-.51,1a1.14,1.14,0,0,0-.11-.11,2.85,2.85,0,0,0-4,.05c-2.49,2.29-4.79,4.77-7.13,7.2-2.06,2.15-4.14,4.3-6.29,6.35-1.08,1-2.21,2-3.36,2.92l-1.65,1.34-.19.15c-3.16.44-6.33.83-9.48,1.4-.41.07-.83.15-1.24.24-1.35-.22-2.69-.49-4-.84-1.85-.49-3.66-1.11-5.48-1.69a2.86,2.86,0,0,0-3.45,2,2.7,2.7,0,0,0,.19,1.91,2.88,2.88,0,0,0,.39,1.79,2.68,2.68,0,0,0,1.33,1.12l-.25-.1,1,.48a2.66,2.66,0,0,0,.09,1,2.87,2.87,0,0,0,2.75,2c1,0,2-.07,3-.12l2.16-.09a25.38,25.38,0,0,0,4.18.38,41.48,41.48,0,0,0,4.31-.23c2.16-.21,4.33-.51,6.47-.91a31.42,31.42,0,0,0,3.76-.09,36.07,36.07,0,0,0,5-.79,15.44,15.44,0,0,0,1.91-.54,17.11,17.11,0,0,0,1.67-.67,5,5,0,0,0,2.37-1.83,7.85,7.85,0,0,0,.32-.8,2.8,2.8,0,0,0-.64-2.61q1.26-1.17,2.4-2.46c1-1.17,2-2.42,2.92-3.69l.06-.08a61.43,61.43,0,0,0,4.57-6.4,36.54,36.54,0,0,0,2.88-5.77c.11-.27.23-.54.32-.82a2.75,2.75,0,0,0-.76-2.74l0,0a3.13,3.13,0,0,0-1.73-.79ZM392,731.78c-.46.54-.93,1.07-1.43,1.58s-1.19,1.18-1.81,1.76l3.24-3.34Zm-15.87,8-.14,0-.13,0,.27,0Z" fill="#f3d4ca"/><path d="M344.4,669.28a2.85,2.85,0,0,0-2.79,2.87c0,3.34.08,6.67.32,10s.5,6.36.77,9.53c.24,2.8.41,5.6.68,8.4l0,.35a2.48,2.48,0,0,0-.58.15,4.4,4.4,0,0,0-2.56,2.77,9.7,9.7,0,0,0-.21,4.22c.07.76.17,1.52.27,2.28.2,1.57.43,3.14.71,4.71.55,3.11,1.23,6.18,2,9.23.6,2.22,1.23,4.42,1.9,6.62.38,1.26.81,2.49,1.25,3.72a35.3,35.3,0,0,0,1.62,3.6A15.67,15.67,0,0,0,352,743a10.38,10.38,0,0,0,4.56,2.32,4.29,4.29,0,0,0,2.33-.15,2.69,2.69,0,0,0,.88-.44,4.9,4.9,0,0,0,1.26-1.42c.13-.31.26-.62.38-.94a5.08,5.08,0,0,0,.22-1.36,13.73,13.73,0,0,0-.07-2.22c-.08-.74-.19-1.48-.31-2.22-.23-1.38-.49-2.75-.76-4.13a2.82,2.82,0,0,0-5.17-.61,3,3,0,0,0-.26,2.19c.26,1.3.51,2.61.73,3.92,0,.32.07.63.11.94l-.2-.13a11.67,11.67,0,0,1-1.33-1.3,25.32,25.32,0,0,1-2.23-3.88,78.51,78.51,0,0,1-3-9.21,2.81,2.81,0,0,0,1.65,0,2.87,2.87,0,0,0,2-2.76,18.86,18.86,0,0,0-.41-3.16c-.13-.74-.26-1.48-.4-2.21-.28-1.43-.58-2.87-1-4.28s-.75-2.72-1.16-4.07l-.27-2.17c-.19-1.44-.3-2.9-.44-4.35-.27-2.81-.46-5.62-.7-8.43-.53-6.31-1.14-12.61-1.22-18.93,0-.67,0-1.33,0-2a2.86,2.86,0,0,0-2.61-2.78Zm-2,36.07.13.1-.13-.1Z" fill="#f3d4ca"/><path d="M409.79,718.32a34.55,34.55,0,0,0-3.37,2.9,35.81,35.81,0,0,0-2.82,3.44c-.66.84-1.34,1.68-2,2.54s-1.18,1.65-1.78,2.47l-.36.47-.27.35a2.5,2.5,0,0,0-.66-.5,9.16,9.16,0,0,0-1.54-.57,5.78,5.78,0,0,0-1.66-.11,15.42,15.42,0,0,0-3.09.56c-.55.14-1.09.33-1.62.51-2.9,1-5.74,2.13-8.59,3.22a61.44,61.44,0,0,1-8.59,2.57c-2.46.55-4.95,1-7.44,1.33l-.51,0c-.82.05-1.65.08-2.47.12-1.7.07-3.41.12-5.11.18h-.51L355,735.71q-2.34-2-4.62-4.16a2.83,2.83,0,1,0-3.95,4c.79.74,1.6,1.47,2.4,2.19l-.65,0a36.78,36.78,0,0,1-7.59-1.94c-1.22-.54-2.41-1.12-3.6-1.71a13.41,13.41,0,0,0-1.54-.7,3.48,3.48,0,0,0-2.94.19,4.16,4.16,0,0,0-1.9,3.72,38.63,38.63,0,0,1-4.71-4.94l.44.57c-1-1.31-2.09-2.59-3.14-3.88-.84-1-1.73-2-2.58-3a15.58,15.58,0,0,1-1.48-2.22,19.15,19.15,0,0,1-.71-3c-.05-.4-.1-.8-.14-1.2a3.06,3.06,0,0,0-.85-2,2.84,2.84,0,0,0-4,0,2.67,2.67,0,0,0-.8,2,25.88,25.88,0,0,0,.93,5.26,11.55,11.55,0,0,0,1.17,2.49,19.2,19.2,0,0,0,1.18,1.66c.92,1.18,1.95,2.26,2.9,3.42s1.82,2.18,2.71,3.29a36.73,36.73,0,0,0,5.71,6c1.19.93,2.37,1.89,3.48,2.92.95.88,1.91,1.73,2.93,2.53s1.77,1.33,2.67,2l.43.39a31.85,31.85,0,0,0,3.45,2.68,19.09,19.09,0,0,0,4.47,2c1.26.43,2.57.77,3.85,1.1a36.24,36.24,0,0,0,4,.67c1.32.19,2.64.4,3.95.58,1.6.22,3.18.38,4.79.45s3,.13,4.46.07a27.19,27.19,0,0,0,8.28-1.86c1.46-.53,2.91-1.06,4.33-1.69,1.23-.53,2.4-1.16,3.58-1.77a69.48,69.48,0,0,0,6.46-3.38c.91-.61,1.79-1.27,2.67-1.91,1.16-.85,2.31-1.66,3.42-2.58.62-.51,1.21-1.06,1.79-1.63,1.45-.59,2.89-1.23,4.29-1.95l.05,0,.7-.95c.74-1,1.46-2,2.19-3l.29-.53c.48-.89.95-1.8,1.43-2.69l.69-1.24a11.08,11.08,0,0,1,.71-1.12c.09-.19.19-.37.28-.56l.25-.49-.89.57h0l.18-.24c.53-.66,1.05-1.31,1.56-2l.33-.61a11.08,11.08,0,0,1,1.17-1.82c.14-2.49.26-5,.39-7.48l-.09.08ZM403.34,725l-.11.15.11-.15Zm-33.58,18.1a2.69,2.69,0,0,0,.92-.69c2.36-.41,4.7-.89,7-1.47a74.85,74.85,0,0,0,8.62-3c1.32-.5,2.66-1,4-1.56-1.75,1.3-3.53,2.54-5.28,3.86l-.83.24c-2,.58-4.11,1-6.18,1.51s-4.08.9-6.16,1.24a15.82,15.82,0,0,1-2.75.1l.62-.28ZM336.37,737c0,.07-.06.13-.08.19s0-.12.08-.19Zm-2.91,1.68.11,0-.11,0Zm8.77,7.65a16.37,16.37,0,0,1-2-1.18,17.14,17.14,0,0,1-1.32-1.37,18.23,18.23,0,0,1-1.85-3c-.05-.15-.11-.3-.16-.44l.18.07a33.34,33.34,0,0,0,4.43,1.68c1.33.39,2.69.7,4.06,1,.48.09,1,.17,1.44.23a4.14,4.14,0,0,0-1.84,1.69,3.17,3.17,0,0,0-.25,2.28q-1.35-.37-2.67-.87Zm11.41,2.12c1.93-.47,3.82-1,5.71-1.61l.85-.28a28.29,28.29,0,0,0,3.23,1.3q1,.33,1.95.57a61.41,61.41,0,0,1-6.78.3c-1.8,0-3.61-.06-5.4-.17l.44-.11Z" fill="#f3d4ca"/><path d="M302.68,588.21a2.69,2.69,0,0,0-1.23.3c0,1.76,0,3.52,0,5.28.07,1,.08,1.94.1,2.91q.09,4.86,0,9.7a3,3,0,0,0,2.09.87,2.87,2.87,0,0,0,2.7-2.11,6.4,6.4,0,0,0,0-2.39c-.06-.65-.09-1.29-.15-1.94-.11-1.24-.26-2.48-.37-3.72s-.16-2.39-.2-3.59c0-.75,0-1.51,0-2.27,0-.09,0-.17,0-.25h0a6.31,6.31,0,0,0-.1-.76,2.85,2.85,0,0,0-2.48-2Z" fill="#e39279"/><path d="M302,600.91a2.69,2.69,0,0,0-.46.62c0,1.59,0,3.17-.06,4.75a22.14,22.14,0,0,0,1.09,2c.57,1,1.07,2,1.71,3a32.9,32.9,0,0,0,4.73,5.28,19,19,0,0,0,3.11,2.47,26.69,26.69,0,0,0,3.89,1.86,27.37,27.37,0,0,0,4,1.3,30.76,30.76,0,0,0,3.56.6c.79.11,1.59.23,2.39.29a15.12,15.12,0,0,0,2.33-.07c.92-.08,1.82-.23,2.73-.37.39-.07.79-.16,1.18-.25a11.77,11.77,0,0,0,2.29-.81,2.69,2.69,0,0,0,1.27-1.71,2.8,2.8,0,0,0-4-3.24,16.6,16.6,0,0,1-6.51.74l-1.59-.19a24.35,24.35,0,0,1-3.16-.68c-1.13-.33-2.25-.77-3.35-1.2a15.75,15.75,0,0,1-2.73-1.5l-.07,0,.05,0a2.88,2.88,0,0,0,1.26-3.21,4.81,4.81,0,0,0-1.41-2c-.34-.34-.66-.71-1-1-.74-.72-1.54-1.34-2.34-2a50.93,50.93,0,0,1-4.93-4.59,2.6,2.6,0,0,0-1.69-.79,2.89,2.89,0,0,0-2.3.84Z" fill="#e39279"/><path d="M304.92,583.52a2.77,2.77,0,0,0-1.28,1.71,37.91,37.91,0,0,0-.41,4.63c0,.59,0,1.17,0,1.76a9.42,9.42,0,0,0,.25,2.81c0,.1.07.2.12.3v.2c0,1.08,0,2.16,0,3.24a22.73,22.73,0,0,0,.34,4.44,2.7,2.7,0,0,0,1.85,1.9,3,3,0,0,0,3.13,1.08,2.82,2.82,0,0,0,1.67-1.32,3,3,0,0,0,.26-2.18c-.28-1.37-.53-2.74-.74-4.12-.19-1.67-.34-3.34-.51-5l0-.25c0-1.46,0-2.91-.06-4.36a3,3,0,0,0-.45-1.49l0-.2a3,3,0,0,0-.31-2.17,2.87,2.87,0,0,0-1.71-1.28,2.43,2.43,0,0,0-.47-.08,2.89,2.89,0,0,0-1.7.39Z" fill="#e39279"/><path d="M304.34,609.88a2.85,2.85,0,0,0-2.79,2.86c-.08,2.55-.09,5.09-.07,7.63s.18,4.9.31,7.35c.14,2.63.19,5.27.25,7.89,0,1.22.14,2.43.23,3.65s.15,2.46.22,3.68a2.83,2.83,0,0,0,5.65-.07c-.07-1.23-.14-2.46-.22-3.69s-.2-2.42-.22-3.64c-.07-2.63-.12-5.26-.26-7.89-.13-2.45-.29-4.89-.31-7.35s0-5.09.07-7.63a2.84,2.84,0,0,0-2.61-2.78Z" fill="#f3d4ca"/><path d="M304.29,621.2a2.86,2.86,0,0,0-2.79,2.86c-.05,1.39,0,2.79-.08,4.18a2.58,2.58,0,0,0,.15.92c0,1.06,0,2.12.05,3.18q0,4.32.11,8.66c0,1.44,0,2.89-.1,4.34s-.09,2.93-.19,4.39c-.18,2.76-.25,5.51-.25,8.27,0,5.7.12,11.39.16,17.09,0,1.31-.09,2.63-.14,3.94s-.09,2.74-.1,4.12c0,2.72,0,5.44,0,8.16,0,1.24,0,2.48.05,3.73s.23,2.78.31,4.16c.15,2.53.19,5.06.23,7.6a35.4,35.4,0,0,0,.19,4.12c.16,1.24.24,2.5.29,3.75a9.23,9.23,0,0,0,.39,2.86c.23.64.53,1.28.81,1.89a9.05,9.05,0,0,0,1.35,1.91c.33.36.68.69,1,1s.71.84,1.09,1.24a13.84,13.84,0,0,0,1.2,1.1c.43.38.8.8,1.19,1.22a30.1,30.1,0,0,0,2.57,2.48c.94.79,2,1.42,3,2.13.72.57,1.44,1.14,2.18,1.7l0,0c.88.67,1.7,1.41,2.63,2a2.82,2.82,0,0,0,4.1-3.25,3,3,0,0,0-1.32-1.67l-.23-.15c-.67-.54-1.35-1.07-2-1.59l-1.63-1.3c-.76-.59-1.58-1.11-2.36-1.66s-1.3-1.12-1.93-1.72-1.32-1.47-2.05-2.13a20.05,20.05,0,0,1-1.91-1.89c-.48-.56-1-1.07-1.51-1.61a8.7,8.7,0,0,1-.53-.94c-.11-.27-.21-.54-.29-.81,0-.76,0-1.52-.1-2.27-.09-1.39-.36-2.78-.37-4.17,0-2.54-.07-5.08-.16-7.62-.09-2.73-.41-5.44-.44-8.17s-.07-5.25-.07-7.88.05-5.42.17-8.13,0-5.59,0-8.39-.07-5.65-.08-8.48,0-5.59.11-8.38c.06-1.15.15-2.31.21-3.46s.09-2.54.14-3.81c.1-2.36.07-4.71,0-7.06s-.05-4.71-.08-7.07c0-1.18,0-2.36-.05-3.53s0-2.09-.05-3.12a2.89,2.89,0,0,0-2.58-2.78,1.31,1.31,0,0,0-.28,0Z" fill="#f3d4ca"/><path d="M305.89,665.35a2.84,2.84,0,0,0-2.79,2.86c.49,6.26,1.23,12.48,1.9,18.72.5,4.59.91,9.2,1.31,13.8.11,2.37.22,4.73.36,7.09.08,1.3.16,2.6.25,3.9.05.57.11,1.14.18,1.7l.06.51a3.66,3.66,0,0,0-.22.58c-.43,1.79.6,3.54,1.56,5a10.7,10.7,0,0,0,1.23,1.53,10.27,10.27,0,0,0,.84.76,3.71,3.71,0,0,0,2.33,2.26,2.85,2.85,0,0,0,2.74-.77c1.24-1.22.92-2.68.27-4a3.33,3.33,0,0,0-.48-.91,2.53,2.53,0,0,1-.13-.22c-.35-1.25-.6-2.52-.86-3.78s-.49-2.41-.7-3.62c0-.43,0-.85,0-1.28,0-.87-.07-1.74-.15-2.6,0-.42-.09-.83-.14-1.24,0-.19,0-.38-.08-.58-.05-.37-.11-.75-.18-1.12a8.08,8.08,0,0,0-.35-.8,2.22,2.22,0,0,0-.56-.7c-.08-1.35-.15-2.7-.23-4q-.21-3.95-.35-7.9c0-1.23-.07-2.47-.11-3.7,0-.5,0-1,0-1.49,0-.3,0-.59,0-.89a9.45,9.45,0,0,0-.18-1.5,3.19,3.19,0,0,0-.83-1.36,1.94,1.94,0,0,0-.51-.43c-.1-.94-.21-1.88-.31-2.82q-.54-5.06-.94-10.12a2.89,2.89,0,0,0-2.58-2.78Z" fill="#f3d4ca"/><path d="M306.17,711.23a6.93,6.93,0,0,0-3.85,6.41,10.11,10.11,0,0,0,1.84,5.44c1,1.67,2,3.29,3.07,4.93a34.94,34.94,0,0,0,2.17,3.13c.74.91,1.51,1.79,2.24,2.69a43.75,43.75,0,0,0,5,5.4c1,.89,2,1.7,3.09,2.55s2,1.61,3.11,2.34c.9.62,1.81,1.21,2.7,1.82s1.84,1.3,2.81,1.85a54.71,54.71,0,0,0,6.55,3.26l.66.26c1.12.46,2.24.91,3.4,1.26s2.52.64,3.79.93,2.69.69,4.05,1,2.66.54,4,.79a2.93,2.93,0,0,0,2.17-.32,2.82,2.82,0,0,0-.73-5.15c-2.54-.47-5.05-1-7.55-1.65-1.21-.3-2.45-.51-3.64-.86a33.25,33.25,0,0,1-3.23-1.11l0,0-1.62-.66.68.27c-1.14-.48-2.24-1-3.33-1.62s-2.12-1.09-3.13-1.72-2-1.33-2.93-2-1.93-1.26-2.87-1.93c-.65-.52-1.29-1.06-1.94-1.59-.9-.73-1.82-1.45-2.66-2.24a47.49,47.49,0,0,1-4.06-4.45c-.78-1-1.58-1.91-2.37-2.87-1-1.43-1.93-3-2.88-4.49-.45-.72-.91-1.44-1.36-2.17s-.8-1.27-1.14-1.94a9,9,0,0,1-.25-.89c0-.17,0-.35,0-.53s.07-.32.11-.47.33-.31.5-.46l.49-.36a3.06,3.06,0,0,0,1.28-1.71,2.85,2.85,0,0,0-.32-2.17,2.82,2.82,0,0,0-1.7-1.28,2.61,2.61,0,0,0-.5-.08,2.51,2.51,0,0,0-1.67.39Zm9.94,19.22.18.22-.18-.22Z" fill="#f3d4ca"/><path d="M315.65,731.31a2.85,2.85,0,0,0,1.06,3.85c2.27,1.41,4.55,2.82,6.79,4.28s4.39,2.78,6.56,4.21a2.83,2.83,0,0,0,3.85-1.06,2.86,2.86,0,0,0,.26-2.18,3,3,0,0,0-1.32-1.67c-2.1-1.39-4.24-2.71-6.35-4.08-2.31-1.51-4.65-3-7-4.41a2.59,2.59,0,0,0-1.13-.36,2.91,2.91,0,0,0-2.72,1.42Z" fill="#f3d4ca"/><path d="M303.43,603.8h-.22a2.76,2.76,0,0,0-1.68.58c0,1.48-.06,3-.1,4.43l0,0,.18.24a1.13,1.13,0,0,0-.1-.13l.93,1.24h0c.13.18.27.35.41.53l-.06-.09a26.78,26.78,0,0,0,1.8,2,11.09,11.09,0,0,0,1.23,1A5.84,5.84,0,0,0,308,614.9a3,3,0,0,0,.94.08l.15.15a4.85,4.85,0,0,0,1.09.86,2.66,2.66,0,0,0,1.43.37,2.22,2.22,0,0,0,.37,0,2.89,2.89,0,0,0,3.58-1.22,2.85,2.85,0,0,0,.26-2.18,3,3,0,0,0-1.32-1.67c-1-.69-2.07-1.34-3.07-2l-.33-.27c-.19-.22-.38-.45-.58-.66-1.07-1.25-2.21-2.45-3.31-3.67a1.8,1.8,0,0,0-.38-.4,2.74,2.74,0,0,0-1.25-.71,2.61,2.61,0,0,0-.46-.08,3.17,3.17,0,0,0-1.67.37Z" fill="#e39279"/><path d="M302.48,610.2l0,0,0,0Z" fill="#e39279"/></g><g id="Draw_Layer-4" data-name="Draw Layer"><path d="M491.74,126.31h-.08c-1.74-.14-3.6-.29-5.5-.36-1.7-.06-3.37-.06-5.07,0h-.27c-4,0-7.75.08-11.06.17-2.56.08-5.11.2-7.9.33l-.61,0h-.18l-2.25.12c-6.09.29-12.45.17-17.57.08l-4.78-.07-11.14-.13-11.15-.13L390.65,126l-22-.25-2.88,0-2.57,0c-13-.15-26.94-.31-40.34-.41-6.56,0-14.34-.07-22.27.1-4.26.11-8,.23-11.51.38l-1.92.08h-.58l-2.44.1c-2,.06-3.95.09-5.83.07-4.68,0-9.35-.08-14-.14l-2.08,0h-.37l-6-.07h-.28c-7.77-.08-15.47-.16-23.17-.22-6.8,0-14.71-.08-22.47.06-1.73,0-3.6.12-5.55.27a23.6,23.6,0,0,0-6.8,1.34,23.9,23.9,0,0,0-5.59,3.5l-.58.44c-1.35,1-2.61,2.19-3.84,3.32l-1,1-.95.86a2.85,2.85,0,0,0-.66,3.08c-.35.41-.72.89-1.16,1.51l-.1.07-.11.09.16-.35c.15-.63.31-1.25.49-1.87a49.29,49.29,0,0,1,1.7-4.74l.27-.68.39-1a2.69,2.69,0,0,0-.26-2.21,3,3,0,0,0-1.71-1.36,3.32,3.32,0,0,0-.55-.09,2.9,2.9,0,0,0-1.67.36,3.17,3.17,0,0,0-1.34,1.69l-.28.74-1.24,3.23a44.54,44.54,0,0,0-1.9,7.07c-.49,2.56-.81,5.22-1.07,7.72s-.39,4.84-.51,7l0,.43v.23l0,.26c-.1,1.8-.21,3.65-.38,5.47-.74,8.06-1.72,16.54-2.51,23.36l0,.27-.56,4.89-.25,2.23,0,.14-.05.44c-.44,3.86-.89,7.85-1.18,11.75-.19,2.46-.36,4.91-.53,7.37l-.09,1.23-.07,1-.06.86c-.1,1.42-.2,2.83-.32,4.24q-.57,7.5-1.08,15c-.24,3.51-.52,7-.81,10.54l-.33,4.13c-.17,2.11-.35,4.22-.52,6.34l-.24,1.42-.24,1.43q-.48,2.85-.91,5.71l-.14.88q-.45,2.94-.94,5.88c-.32,2-.65,4.13-.91,6.25-.14,1.21-.27,2.42-.41,3.63-.11,1-.23,2.08-.35,3.12s-.23,1.88-.35,2.82-.28,2.11-.39,3.14l-.18,1.6c-.88.2-1.77.41-2.65.63l-.15,0c-.86.22-1.73.43-2.59.69-.3-.15-.63-.29-1-.43a19.94,19.94,0,0,0-4-1.09l-1.39-.28-2.61-.52a44.42,44.42,0,0,0-5-.67l-.13,0a19.5,19.5,0,0,0-4.69.25,14.2,14.2,0,0,0-2.91.84,25,25,0,0,0-7.1,1.24,20.67,20.67,0,0,0-2.3,1,13.27,13.27,0,0,0-2.27,1.49l-.1.08a18.19,18.19,0,0,0-3,3,42.08,42.08,0,0,0-5.13,7.54,51.12,51.12,0,0,0-3.27,8.18c-.74,2.46-1.42,5.08-2.09,8a56.12,56.12,0,0,0-1.24,9.12,28.74,28.74,0,0,0,.11,4.26,19,19,0,0,0,1,4.73,23.37,23.37,0,0,0,3,5.53,23.64,23.64,0,0,0,.58,2.31,15.79,15.79,0,0,0,1.09,2.74,20,20,0,0,0,1.07,1.69l.2.28a31.13,31.13,0,0,0,2.95,3.64,29.47,29.47,0,0,0,3.6,3.14,22.48,22.48,0,0,0,3.7,2.22l.67.33a39.8,39.8,0,0,0,3.93,3.06,17.58,17.58,0,0,0,3.4,1.68,28.28,28.28,0,0,0,6.68,1.44c.44.06.89.11,1.34.14a36.64,36.64,0,0,0,4.74.07c.88,0,1.81-.12,3-.27l.26,0c1-.11,2-.23,3-.43,2.3-.47,4.22-.9,6.05-1.34.15,7.32.25,14.78.35,22l0,1.23c0,2.6-.05,5.24-.13,7.78.27,3.48.54,6.95.83,10.42.14,1.72.31,3.44.47,5.16.13,1.37.26,2.73.38,4.1.22,2.54.41,5.32.57,8.48l.1,1.75c.12,2.27.24,4.62.48,6.91.41,3.81,1.07,7.65,1.71,11.37l.28,1.62c.52,3,1.17,6.11,1.79,9.08l.72,3.42q.15.78.33,1.56c.15.68.3,1.37.46,2.06l.39,1.67c1,2.87,2.14,5.87,3.47,9.18,1.51,3.73,3.09,7.43,4.31,10.24,1.42,3.29,3,6.75,5.29,11.21.6,1.2,1.24,2.42,1.91,3.63.25.45.5.9.76,1.35.87,1.52,1.8,3.06,2.77,4.61l.09.13c.53.81,1.07,1.62,1.63,2.41l.1.13.12.17.23.3.09.1h0l.1.13.1.13.12.16c1,1.27,2.07,2.48,3.27,3.77l.42.47.17.18.15.18c.83.91,1.64,1.83,2.45,2.76,1.21,1.38,2.46,2.8,3.74,4.16l.32.35.33.35c1.38,1.77,2.86,3.6,4.39,5.42l.22.25.27.32.31.37.15.18c1.22,1.42,2.43,2.82,3.67,4.19s2.2,2.4,3.29,3.55l.24.26.12.13,1,1c2.24,2.33,4.57,4.62,6.9,6.8l.16.16c2.61,2.43,5.32,4.83,8.08,7.13l.54.46.12.09.65.54.76.62.44.36.11.08.3.24.19.16.19.15.13.1.12.1.15.12.32.25.32.25c3.06,2.41,6.21,4.73,9.4,6.92l.3.2.38.26.65.43c1.28.87,2.56,1.7,3.83,2.51,3,1.89,6,3.68,9,5.34q2.16,1.2,4.37,2.34l.3.15.22.11.2.11.21.1.19.09.38.2c1.87.93,3.47,1.7,5,2.38l1.68.93,2,1.13,1.56.81.18.09a26.89,26.89,0,0,0,3.86,1.74c1.59.53,2.87.91,4,1.22.41.11.81.25,1.21.38l.93.3c.32.1.65.18,1,.26s.75.19,1.12.3l1.86.55c.7.2,1.41.4,2.1.62l4.05,1.28c1.17.38,2.48.8,3.71,1.28l.71.29c1.21.48,2.45,1,3.72,1.37l1.33.43.31.1.63.1.23,0,.17,0a2.53,2.53,0,0,0,.48.08,10.79,10.79,0,0,0,1.09.15l.39,0,.9.12.91.12c1.11.14,2.23.25,3.35.37l.42,0,2.41.22c3.6.3,7,.44,11.46.61h.57c4.38.15,8.9.31,13.39.17l2.3-.09c.31,0,.61.07.92.12l.3,0,.25,0c2,.28,4.18.6,6.35.84.67.07,1.34.14,2,.19,1.63.13,3.25.22,4.87.31,4.67.25,9.39.33,13.56.4,2.3,0,4.6.06,6.91.09a43.82,43.82,0,0,0,7.52-.62c.52-.07,1.05-.16,1.58-.26l.44-.08,1-.18.23,0,1.24-.19.25,0,.29-.05,1.21-.19.5-.08c1.95-.33,4-.67,6-1.1.55-.11,1.1-.24,1.65-.37l1.61-.36c.71-.15,1.42-.28,2.14-.41l.39-.07.3-.05.9-.18c2.59-.5,4.52-1,6.25-1.44l.88-.25.45-.12,3-.86a4.49,4.49,0,0,1,.78-.63c2.82-1.83,6-3.9,9.25-5.81,1.59-.93,3.16-1.88,4.74-2.84,1-.63,2.08-1.26,3.13-1.88l.66-.4c2.44-1.45,5-3,7.32-4.64,1.32-.94,2.63-1.9,3.93-2.86,4.41-4.1,7.68-7.32,10.59-10.45l.62-.66c1.39-1.49,2.83-3,4.18-4.61l1.14-1.34c1.1-1.29,2.2-2.58,3.31-3.85,2.89-3.32,5.65-6.71,8.2-10.07l1.29-1.76a3.68,3.68,0,0,0,.91-.7,41.21,41.21,0,0,0,5.52-7.93l.33-.57a92.13,92.13,0,0,1,5.23-8l.09-.12a53.85,53.85,0,0,0,4.09-5.9,49.79,49.79,0,0,0,2.83-6.41l.34-.89c.7-1.63,1.47-3.26,2.22-4.83l.53-1.11a73.17,73.17,0,0,0,3.39-8.51c1.08-3.27,2.21-6.75,3-10.26l.57-1.56.11-.33c.75-2.1,1.44-4.21,2.14-6.37.34-1,.68-2,1-3.06.41-1.2.82-2.41,1.21-3.62,1.43-4.48,2.66-8.92,3.67-12.67,1-3.59,2.11-7.2,3.21-10.68l.66-2.08c.63-2,1.35-4.26,2-6.49l.52-1.9c.37-1.38.75-2.75,1.15-4.12s.83-2.8,1.26-4.2c.82-2.73,1.68-5.56,2.45-8.36,1.19-4.37,2.07-8.82,2.83-13,.16-.89.33-1.77.5-2.65.23-1.19.45-2.37.67-3.56l.16-.89.17-.88q.29-2,.54-4.08l.19-1.44L527,386c.19-1.35.34-2.7.5-4.05s.28-2.48.44-3.69l.51-3.42.08-.47.07-.46.15,0,.16,0c1,.09,1.92.21,2.88.33l.87.11c.64.07,1.27.14,1.91.19,2.3.19,4.63.23,6.9.27l.64,0c1.23,0,2.47,0,3.7,0a23.55,23.55,0,0,0,3.65-.39l.9-.14.49-.07.5-.07c.67-.08,1.35-.16,2-.28a15.11,15.11,0,0,0,2.16-.55c1.36-.44,2.69-.93,4.08-1.5a9,9,0,0,0,1.54-.83l1.48-.25a19,19,0,0,0,5.28-1.94,14.83,14.83,0,0,0,3-2.33,29.68,29.68,0,0,0,2.9-3.37l.23-.29a27.84,27.84,0,0,0,2.38-3.8,28.67,28.67,0,0,0,1.46-3.43l.37-1a30.12,30.12,0,0,0,1.33-4.25,50.87,50.87,0,0,0,1.28-9.45,81.74,81.74,0,0,0-.27-9,71.51,71.51,0,0,0-1.21-9.38,47.29,47.29,0,0,0-2.89-8.82,29.4,29.4,0,0,0-1.71-3.24l-.22-.37a26.46,26.46,0,0,0-2.75-3.9c-.53-.62-1.07-1.22-1.62-1.81a19.85,19.85,0,0,0-3.33-2.72,16.94,16.94,0,0,0-1.74-1,19.06,19.06,0,0,0-3.92-1.56c-1.09-.65-2.2-1.25-3.05-1.69a18.21,18.21,0,0,0-4.39-1.7,22.31,22.31,0,0,0-2.83-.43,16.54,16.54,0,0,0-5.18.34,6.73,6.73,0,0,0-1.71-.33h-.33a6.85,6.85,0,0,0-1.62.16,10.11,10.11,0,0,0-1.08.25,14.33,14.33,0,0,0-1.9.77,24.62,24.62,0,0,0-3.43,2.07c.17-3.13.34-5.93.56-8.54.19-2.24.42-4.48.65-6.71l.07-.71c.19-1.87.38-3.73.54-5.59.38-4.52.66-9.11.82-13.66.06-1.55.07-3.12.08-4.68v-2l0-3.48,0-3.43q.07-6.53.11-13.05c0-2.14,0-4.27,0-6.41l0-.44,0-.46c.31-3,.67-6,1-9.09l0-.42.14-1.11c.14-1.15.28-2.31.41-3.47.5-4.27.84-8.77,1-13.76.28-6.68.41-13.46.5-18.61-1-1.83-1.76-3.35-2.49-5-.19-.42-.39-.84-.58-1.25-.4-.83-.8-1.69-1.14-2.55l-.7-1.77-.68-1.75a120.07,120.07,0,0,1-3.75-11.92l-.55-1.1q-3.4-6.84-6.85-13.58c-.92-1.82-1.82-3.65-2.72-5.48-.47-1-.95-1.93-1.43-2.9-.45-.7-.89-1.47-1.42-2.5-.3-.58-.6-1.16-.89-1.74a3.42,3.42,0,0,0-.75-.31c-.56-.23-1.14-.45-1.74-.64-1.5-.5-3.13-1-5.15-1.48a52.57,52.57,0,0,0-6.5-1.05l-2.31-.29-2-.31-.32-.05c-2.54-.4-5.42-.84-8.2-1.07Zm81.37,225.77c.08-.33.14-.67.21-1,.1-.53.17-1.06.24-1.59l.06-.39,0-.26,0-.25a3.79,3.79,0,0,0,.5-.18c-.23.86-.43,1.64-.66,2.39-.13.43-.28.86-.43,1.28Zm-50.75,25.11c0-.23,0-.45,0-.68.19-.91.37-1.82.55-2.73-.22,1.13-.4,2.27-.57,3.41Zm-11.92,72.24.36-1.71c.63-3,1.27-6,1.86-9q.52-2.62,1.06-5.23c-.08.42-.15.83-.22,1.24-.27,1.7-.63,3.94-1,6.17-.25,1.31-.57,2.65-.88,3.93l0,.14-.41,1.72c-.21.93-.44,1.86-.69,2.78Z" fill="#f3d4ca"/><path d="M281.5,547.11c-.42,1.07-.86,2.12-1.3,3.17s-.77,1.84-1.16,2.76q-1.53,3.66-3.08,7.3a.32.32,0,0,0,.14.42.31.31,0,0,0,.42-.14c1-2.44,2.07-4.87,3.09-7.31l1.15-2.73c.44-1.06.89-2.12,1.31-3.19a.32.32,0,0,0-.15-.42.19.19,0,0,0-.1,0,.32.32,0,0,0-.32.17Z" fill="#f3d4ca"/></g><g id="Draw_Layer-5" data-name="Draw Layer"><path d="M329.26,34.88l-2.74-.17c-1.84-.12-3.68-.22-5.52-.32l-1.08-.06c-1.86-.09-3.73-.1-5.53-.1h-1.23a132.39,132.39,0,0,0-13.31.79l-.84.09c-2.11.22-4,.42-5.91.67-2.24.31-4.52.71-6.65,1.11-4.07.74-8.43,1.58-12.74,2.73-5,1.31-9.37,2.63-13.44,4-3.66,1.27-7.62,2.84-12.1,4.82-1.95.86-3.87,1.86-5.67,2.81s-3.57,1.9-5.33,2.89l-.55.3-.18.09c-3.62,2-7.36,4-11.18,5.77-2.71,1.22-5.5,2.38-8.34,3.55l-3.32,1.39c-1.86.78-3.7,1.59-5.55,2.4l-.34.15-.85.38c-1.69.75-3.38,1.5-5.08,2.23l-1,.45-.37.15L197,72.49c-4.27,3.86-8.66,7.6-12.93,11.47l-1,.94c-1.29,1.19-2.57,2.38-3.83,3.61-5.79,5.63-11.44,11.42-17.42,16.85l-.49.53a116.12,116.12,0,0,0-8.4,10.14c-2.5,3.82-4.88,7.71-7.25,11.62s-4.72,7.74-7,11.65l-1.09,1.88c-.12.48-.23,1-.34,1.46-.48,2.06-.9,4.13-1.4,6.61-.78,3.88-1.37,7.79-1.95,11.58l0,.23-.12.8c-.64,4.23-1.24,8.74-1.75,13.39-.19,1.66-.4,3.3-.61,4.95l0,.37-.05.45c-.3,2.3-.55,4.37-.73,6.42-.46,5.08-.73,9.28-.86,13.22-.07,2.08-.09,4.16-.12,6.24,0,2.35-.06,4.61-.14,6.86s-.12,4.45-.16,6.68v.65l0,.61c0,1.47,0,2.94-.07,4.4-.06,2.27-.11,4.54-.13,6.81,0,1,0,2-.06,3,0,1.19-.06,2.37-.06,3.55,0,1.59,0,3.19-.06,4.77v.2c0,2.47-.09,5.57,0,8.39.05,2,.13,4.07.23,6.1l0,1c.11,2.61.23,4.56.38,6.33l.07.77v.17c.16,1.92.34,3.9.55,5.85s.51,3.66.84,5.7l0,.27.07.43c.24,1.5.63,3.77,1.19,6A10.06,10.06,0,0,0,134.3,290a7.08,7.08,0,0,0,4.36,2.07l.27,0a17.9,17.9,0,0,0,2.23-.13c.47-.05.75-.08,1-.09.61,0,1.23-.06,1.85-.08s1.44,0,2.15.09a23.59,23.59,0,0,1,3.72.58c2.2.51,4.68,1.09,7.19,1.57a3,3,0,0,0,1.87.86,2.49,2.49,0,0,0,1.59-.39c2.07-1.4,4.26-2.74,6-3.83l1.63-1a52.2,52.2,0,0,0,7.45-5.86c1.07-1,2.12-2,3.16-3l.26-.25c.87-.85,1.74-1.7,2.64-2.52,1.11-1,2.21-2.08,3.31-3.13s2-1.9,3-2.83c.84-.79,1.67-1.62,2.47-2.44l.24-.24.17-.18c1.11-1.12,2.15-2.18,3.27-3.16.53-.47,1.08-.93,1.64-1.38l.19-.16c.54-.45,1.09-.9,1.62-1.36.77-.67,1.52-1.37,2.27-2.08L200,261l.48-.45c.59-.55,1.17-1.13,1.74-1.7l1.17-1.15c.36-.36.73-.7,1.1-1.05l.35-.34.33-.32.44-.42.82-.78c2-1.95,4-4,5.89-6,1-1.08,2-2.2,3-3.31q.87-1,1.74-1.89l.61-.65.66-.7c.9-1,1.82-1.93,2.74-2.87l.22-.23c1-1,2-2.09,3-3.2,1.22-1.36,2.41-2.74,3.6-4.13.73-.86,1.44-1.7,2.17-2.52.91-1,1.84-2.06,2.78-3.07s2.05-2.21,3-3.33c.81-1,1.62-1.92,2.41-2.88l.14-.16.22-.27c1.37-1.63,2.92-3.47,4.46-5.15,2.88-3.15,5.26-5.8,7.52-8.72.86-1.09,1.71-2.18,2.55-3.28.7-.94,1.36-1.9,2-2.86l.44-.64,3.23-4.6.95-1.35.87-1.24q2.55-3.63,5-7.31c.9-1.32,1.83-2.64,2.75-3.94l.47-.68.32-.44.57-.81,1.15-1.63c1.74-2.49,3.32-4.81,4.82-7.1,1.14-1.76,2.19-3.7,3-5.25l.33-.61.11-.2c.31-.57.61-1.12.92-1.67l.2-.35c2.4-4.24,5.37-9.51,8-14.62,1-2,2-4,3-6l.87-1.75c1.3-2.61,2.63-5.2,4-7.78l.08-.15c1.64-3.16,3.89-7.5,5.71-11.67l.06.12.44.51.88.89,1.74,1.78c.44.46.9.92,1.35,1.37l1.12,1.16,1.55,1.83a3.17,3.17,0,0,0,.91.72c.31.34.62.69.91,1l.36.43a8,8,0,0,0,1.34,1.38,2.86,2.86,0,0,0,1.52.59h.18c1.26,1.31,2.37,2.48,3.37,3.58,2.14,2.39,3.85,4.25,5.36,5.84s3.28,3.33,4.85,4.88l.37.37c1.33,1.31,2.69,2.59,4.06,3.86l1,.93,1,.93,2.12,2.09.93.92.21.2,1.12,1.1.19.19c2.33,2.28,4.66,4.58,7,6.85l4,3.95.5.49.33.34q.3.33.63.63c.26.29.55.56.84.83a3.06,3.06,0,0,0,.32.3l2.45,2.41c4,4,8.47,8,12,11.3l1.05,1c1.94,1.77,3.86,3.59,5.76,5.4l.11.1.5.47.09.09c2.08,2,4.16,4,6.27,5.89,2.5,2.3,5.09,4.79,7.17,6.8l.13.13.4.39.1.09c1.57,1.52,3.14,3,4.73,4.54.69.65,1.4,1.27,2.12,1.89l.91.79c1.13,1,2.24,2,3.34,3.07,2.17,2,4.41,4,6.67,5.87,2.72,2.25,5.58,4.42,8.34,6.52l.27.21.47.35.33.25c1.53,1.16,3,2.29,4.47,3.43.87.68,1.75,1.35,2.63,2l.46.36.65.49.25.19,3,2.32c2.08,1.61,4.4,3.32,6.88,5.08,3.08,2.21,6.37,4.2,9.2,5.88l.38.23.33.19.14.09c2.54,1.5,5.71,3.38,8.85,5.14l.3.18c1.42.83,3.2,1.86,4.84,2.89l1.46.93.31.21.19.12.17.11.2.13c.82.52,1.63,1,2.46,1.53.66.4,1.33.78,2,1.17.95.54,2.09,1.2,3.12,1.87,2,1.31,3.7,2.35,5.34,3.28l.17.08.45.27c.86.5,1.8,1.06,2.69,1.63l.44.29c1.07.71,2.14,1.4,3.23,2.06,1.28.77,2.55,1.52,3.83,2.27s2.33,1.37,3.49,2.07,2.21,1.4,3.3,2.12l.33.22c1,.64,1.93,1.27,2.93,1.87,1.95,1.18,3.9,2.38,5.83,3.6l1,1c.84.79,1.71,1.56,2.57,2.33l.35.31,1,.86c.63.57,1.25,1.13,1.86,1.71l1.75,1.6a60.9,60.9,0,0,0,9,6.94c.7.42,1.41.85,2.12,1.25.49.27,1,.51,1.49.75l.84.43.24.12a17.74,17.74,0,0,0,4.62,1.86c.32.06.65.11,1,.15l.12,0a13,13,0,0,0,1.58.66,5.35,5.35,0,0,0,.68.21l.14,0,.33.09a16.34,16.34,0,0,0,1.63.76,6.74,6.74,0,0,0,1.81.41l.45.07a2.82,2.82,0,0,0,2.06-.82,2.89,2.89,0,0,0,.83-1.58,12.58,12.58,0,0,0,2.57-1.6c.43-.34.85-.71,1.27-1.07l.37-.31.54-.46a24.7,24.7,0,0,0,2.36-2.3,16.43,16.43,0,0,0,1.45-1.95l.37-.55c.23-.33.43-.67.63-1s.51-.88.77-1.24l.35-.47.17-.23.08-.1c.26-.37.53-.73.82-1.08.44-.54.84-1.09,1.25-1.65a10.86,10.86,0,0,0,.87-1.56,6.68,6.68,0,0,0,.48-2.41c.11-1.39.22-2.67.33-4l.19-2.19c.11-1.27.17-2.56.23-3.82l0-.49c0-.72.07-1.44.11-2.16.07-1.35.11-2.7.15-4,0-.85.06-1.65.09-2.46.1-2.43.14-4.74.17-6.68s0-3.6,0-5.37v-6.16c0-1.87,0-3.74-.1-5.61l0-1.24c0-1.47-.12-2.94-.21-4.41l0-.72,0-.83,0-.83-.06-1.21c-.08-1.8-.17-3.6-.29-5.41-.1-1.5-.24-3-.39-4.52l-.17-1.88-.07-.74c-.17-1.94-.37-4-.65-6-.56-3.94-1.22-8.29-2-12.94-.78-4.82-1.51-8.74-2.29-12.34-.56-2.55-1.08-4.69-1.65-6.74q-.4-1.44-.84-2.88l-.08-.26-.08-.26-.15-.5c-.28-.91-.55-1.82-.82-2.73-.66-2.28-1.38-4.5-2-6.46l-.42-1.3-.18-.55-.12-.39c-.45-1.39-.91-2.78-1.4-4.16l-.32-.93-.09-.25c-.56-1.61-1.14-3.26-1.78-4.86l-.1-.26-.05-.12a51.86,51.86,0,0,0-2.31-5.29c-2-3.92-4.34-7.92-6.31-11.31a129.45,129.45,0,0,0-7.33-11.15c-2-2.69-4-5.37-6-8l-1.73-2.28a119.44,119.44,0,0,0-8.09-9.54l-1-1.07-.48-.51-.2-.2-.19-.2c-.77-.79-1.53-1.59-2.27-2.41l-1-1.06-.3-.33c-1.07-1.18-2.15-2.36-3.24-3.52-2.81-3-6-6-9.4-8.93a44.59,44.59,0,0,0-4.38-3.25l-1-.66c-1.34-.91-2.71-1.75-4.12-2.6l-1.36-.82-1.5-.92-.31-.18-.59-.37c-1.08-.66-2.16-1.32-3.22-2-1.24-.82-2.46-1.68-3.68-2.53l-.62-.44-1.06-.75A116.36,116.36,0,0,0,453.62,67l-2.83-1.52-.42-.22-.49-.26-.57-.3-.64-.33-.75-.4L442,60.82l-2.42-1.32-1-.55-2.45-1.32c-1.81-1-3.79-1.91-6.23-3a112.44,112.44,0,0,0-12.16-4.41c-3.67-1.13-7.57-2.09-11-2.94l-.24-.06-.15,0-1.89-.46c-2.09-.53-4.17-1-6.26-1.53-1.65-.38-3.33-.72-5-1.06l-.25-.06-.16,0-1.37-.27c-3.83-.78-7.86-1.33-11.42-1.82l-1.39-.19c-3.72-.51-7.81-1.2-12.5-2.11l-.42-.08-.34-.07c-3.47-.67-7.78-1.5-12-2.15-4.56-.7-9-1.28-13.31-1.71L337,35.41c-2.58-.21-5.17-.37-7.77-.53Z" fill="#404040"/><path d="M304.54,92.57c-1.27,3-2.63,5.87-3.9,8.81-.51,1.18-1,2.37-1.52,3.53q-1.08,2.34-2.17,4.66c-1.24,2.62-2.46,5.24-3.74,7.84s-2.63,5-4,7.53c-.29.51-.58,1-.88,1.53l.36-.63c-2.28,4-4.81,7.81-7.26,11.68-1.24,2-2.41,4-3.58,6s-2.31,4.14-3.47,6.21c-1.38,2.37-2.86,4.69-4.35,7s-3.15,4.71-4.76,7-3.36,4.94-5.11,7.37c-.82,1.14-1.7,2.24-2.56,3.35s-1.67,2.15-2.54,3.2c-1.64,2-3.19,4.1-4.78,6.16s-3.34,4.24-5,6.39c-.8,1.08-1.61,2.14-2.34,3.27s-1.44,2.14-2.14,3.22a44.82,44.82,0,0,1-4.41,5.92c-2,1.92-4,3.78-6.1,5.62a2.87,2.87,0,0,0-.47,4,2.82,2.82,0,0,0,4,.47c1.15-1,2.27-2,3.39-3.08s2.42-2.15,3.51-3.33a48.75,48.75,0,0,0,5-6.79c.77-1.21,1.59-2.4,2.39-3.6s1.68-2.27,2.54-3.39c1.73-2.26,3.51-4.5,5.24-6.76s3.61-4.63,5.43-6.93,3.47-4.52,5.14-6.83c.87-1.22,1.68-2.48,2.52-3.72s1.64-2.39,2.46-3.59c1.59-2.31,3.12-4.65,4.61-7,1.22-1.95,2.43-3.88,3.57-5.88,1-1.67,1.86-3.37,2.81-5.05,1.84-3.14,3.73-6.26,5.72-9.3q1.5-2.29,2.94-4.62c1-1.66,2-3.36,2.94-5.06l-.06.1c1.53-2.66,2.94-5.38,4.34-8.11,1.33-2.55,2.5-5.19,3.73-7.79q1.05-2.2,2.07-4.42c.58-1.28,1.11-2.59,1.67-3.88,1.3-3,2.66-5.92,3.95-8.9A2.87,2.87,0,0,0,308.23,91a2.72,2.72,0,0,0-.83-.2,2.87,2.87,0,0,0-2.86,1.74Zm-15,31.8-.1.18.1-.18Zm-15.17,25.36-.23.41.23-.41Zm19.71-22,.3-.52-.3.52Z" fill="#404040"/><path d="M305,112.37a2.88,2.88,0,0,0-1.48,3.71c.52,1.42,1,2.85,1.63,4.23a21.07,21.07,0,0,0,2.36,3.84c.82,1.12,1.7,2.19,2.55,3.29s1.71,2.24,2.6,3.34c1.8,2.24,3.66,4.42,5.63,6.52s3.84,4.3,5.78,6.44c5.22,5.76,10.72,11.25,16.29,16.68l-.52-.51c2.38,2.37,4.7,4.81,7.1,7.15l-.52-.5,1.22,1.19-.1-.1,1.92,1.84c1,1,2,1.93,3,2.89s1.81,1.8,2.7,2.71c1.14,1.16,2.36,2.22,3.57,3.3,1.91,1.71,3.79,3.43,5.63,5.19,2.08,2,4.1,4.16,6.22,6.18,1.07,1,2.2,2,3.32,2.91s2.09,1.86,3.12,2.8c2.15,1.95,4.4,3.78,6.64,5.62s4.33,3.71,6.44,5.6,4.37,4,6.65,5.85,4.48,3.64,6.77,5.39c1.14.88,2.29,1.71,3.44,2.57s2.4,1.71,3.59,2.6c2.35,1.77,4.66,3.62,7,5.46s4.45,3.59,6.69,5.38,4.6,3.62,6.84,5.51l3.25,2.71c1.07.9,2.21,1.73,3.29,2.62,2.25,1.85,4.47,3.73,6.75,5.52,1.14.89,2.3,1.74,3.43,2.64s2.34,1.93,3.51,2.89c2.27,1.85,4.75,3.5,7.19,5.11s4.74,3,7.15,4.44,4.7,2.84,7.09,4.21l3.11,1.78c2,1.16,3.86,2.39,5.76,3.63s3.74,2.25,5.64,3.31c3.23,1.89,6.58,3.57,9.85,5.39l-.63-.36c4.83,2.77,10,5,14.92,7.48,2.35,1.21,4.77,2.25,7.14,3.4,1.09.52,2.2,1,3.3,1.47a25.1,25.1,0,0,0,3.56,1.46,3,3,0,0,0,2.19,0,2.84,2.84,0,0,0,1.48-3.71,2.65,2.65,0,0,0-1.52-1.49,26.74,26.74,0,0,1-3.46-1.42c-1.06-.48-2.12-.92-3.18-1.41-2.31-1.08-4.65-2.12-6.91-3.28-2.42-1.23-4.87-2.42-7.31-3.6s-4.67-2.21-6.93-3.47l.63.37c-3.15-1.81-6.4-3.44-9.57-5.22-1-.58-2-1.14-3-1.7-1.71-1-3.36-2.09-5-3.16s-3.45-2.14-5.22-3.14c-2.47-1.43-4.91-2.9-7.36-4.35s-4.72-2.87-7.06-4.33-4.81-3.18-7.12-4.9c-1.18-.88-2.32-1.83-3.46-2.77s-2.3-1.83-3.46-2.72c-2.29-1.77-4.52-3.6-6.74-5.45-1.14-.95-2.3-1.87-3.46-2.78s-2.2-1.82-3.3-2.73c-2.25-1.86-4.5-3.7-6.79-5.51s-4.41-3.57-6.63-5.33-4.63-3.67-7-5.48c-1.14-.89-2.29-1.75-3.47-2.57s-2.39-1.77-3.59-2.65a165.93,165.93,0,0,1-13.59-11.23q-5.51-5-11.33-9.71c-1.89-1.52-3.64-3.22-5.46-4.84-.95-.84-1.93-1.65-2.88-2.49s-1.57-1.46-2.33-2.21c-2.27-2.28-4.48-4.62-6.87-6.78-2.05-1.84-4.15-3.65-6.14-5.56-1.62-1.64-3.27-3.24-4.93-4.85-.95-.95-1.9-1.89-2.88-2.79-.2-.2-.4-.4-.61-.59l-.66-.65c-1.52-1.52-3-3.08-4.53-4.61-1.67-1.68-3.38-3.33-5.08-5-4.25-4.21-8.41-8.5-12.43-12.93-1.95-2.14-3.82-4.35-5.8-6.45s-3.82-4.32-5.64-6.56c-1.16-1.43-2.24-2.91-3.39-4.35-.95-1.22-1.92-2.44-2.76-3.75a45.06,45.06,0,0,1-2.08-5.15,2.7,2.7,0,0,0-2.37-1.68,2.79,2.79,0,0,0-1.34.21Zm35.3,40.16.25.24-.25-.24Zm9.66,9.65.39.38-.39-.38Zm22.06,21.2.41.4-.41-.4Zm104.87,82.18.56.31-.56-.31Zm10.36,6.35.47.27-.47-.27Zm.07,6.48.35.2-.35-.2Z" fill="#404040"/><path d="M329.45,35.93c-1.59,0-3.17,0-4.76.08-2.06,0-4.11-.2-6.15-.36l-1.42-.12c-2.86-.22-5.73-.15-8.59-.29s-5.83-.22-8.74-.46c-1.43-.13-2.87-.22-4.3-.31s-3-.23-4.53-.24a36.23,36.23,0,0,0-4.88.3c-1.48.2-2.95.52-4.42.83-2.8.61-5.62,1.12-8.41,1.75s-5.81,1.26-8.7,2c-1.33.32-2.67.58-4,.91-1.64.41-3.27.87-4.88,1.4-2.68.89-5.35,1.84-8,2.75s-5.51,2-8.25,3.1-5.35,2.17-8.05,3.21-5.42,2.12-8.07,3.31-5.13,2.22-7.67,3.4l-.22.1c-.7.49-1.4,1-2.09,1.5-2.54,1.86-5.09,3.71-7.6,5.6-1.8,1.72-3.62,3.43-5.44,5.14-4.22,4-8.63,7.76-13,11.6l3.12-2.17c4.36-3,8.46-6.43,13-9.25,1.16-.67,2.34-1.29,3.55-1.89s2.46-1.28,3.7-1.91c2.6-1.33,5.24-2.59,7.88-3.83s5.21-2.3,7.82-3.45,5.37-2.23,8.09-3.28c4.24-1.63,8.41-3.46,12.7-5s8.38-3,12.63-4.32c2.4-.65,4.83-1.17,7.25-1.74,1.31-.31,2.63-.58,3.94-.85s2.48-.58,3.73-.85c2.67-.57,5.35-1.09,8-1.66a42.28,42.28,0,0,1,7.67-1.07c1.38,0,2.76.11,4.15.21s2.73.18,4.09.29c2.93.24,5.86.35,8.79.49s5.8.08,8.69.28l2.18.18c2,.16,4,.33,6,.32,1.25,0,2.49-.06,3.75-.08h.7a3,3,0,0,0,2.12-.57,2.82,2.82,0,0,0,.47-4,2.78,2.78,0,0,0-1.77-1Z" fill="#404040"/><path d="M161.83,105.33l-.5.56a117,117,0,0,0-8.16,9.8,3.57,3.57,0,0,0,1.69.69,3,3,0,0,0,.84,0,1.34,1.34,0,0,0-.07.18,6.56,6.56,0,0,0-.58,2.79,3.75,3.75,0,0,0,3.56,3.3,9.53,9.53,0,0,0,3.17-.47,3.09,3.09,0,0,0,1.87-1.1,2.84,2.84,0,0,0,.55-2.09,2.9,2.9,0,0,0-1.1-1.87,3,3,0,0,0-1.1-.52c1.51-2.23,3.25-4.31,4.95-6.39s3.64-4.35,5.52-6.47c1-1.1,1.95-2.2,2.83-3.37a10.61,10.61,0,0,0,.61-.88c.27-.42.5-.86.73-1.31,0-.12.07-.24.1-.36a2.76,2.76,0,0,0,.19-1.47,3,3,0,0,0-2-2.66,2.8,2.8,0,0,0-.78-.2c-4.06,4-8.11,8-12.34,11.85ZM157.18,112a1,1,0,0,0,.1.17l-.1-.17Z" fill="#404040"/><path d="M246,49.4a20.35,20.35,0,0,0-2.42,1.12l-.8.41a3.45,3.45,0,0,0-.52-1,3.28,3.28,0,0,0-1.15-1,1.94,1.94,0,0,0-.42-.17,4,4,0,0,0-.7-.17,7.69,7.69,0,0,0-4,1c-1.16.52-2.31,1.06-3.45,1.63-2.39,1.21-4.72,2.56-7.06,3.88s-4.53,2.74-6.74,4.2c-1,.67-2,1.34-3,2l-.83.6c-2.86,1.64-5.72,3.29-8.61,4.88-1.49.82-3,1.63-4.46,2.46l-2,1.09-1.14.55c-1.17,1.08-2.35,2.14-3.53,3.2h0a2.88,2.88,0,0,0,1.73,3,2.76,2.76,0,0,0,1.81.19c-1.14,1-2.26,2-3.38,3a2.82,2.82,0,1,0,3.5,4.43c1.57-1.39,3.14-2.78,4.75-4.13s3.27-2.56,5-3.75,3.51-2.3,5.29-3.43c2.35-1.48,4.72-2.93,7.09-4.38,2-1.16,4-2.36,6.06-3.47,2.44-1.34,4.9-2.67,7.36-4,2-.76,3.94-1.52,5.89-2.36,1.14-.48,2.24-1,3.36-1.57s2.26-1.18,3.34-1.84c1.52-.93,3.35-2.15,2.92-4.23a3,3,0,0,0-1.1-1.87,2.71,2.71,0,0,0-1.4-.54,3.5,3.5,0,0,0-1.42.2Z" fill="#404040"/><path d="M320.66,106.05a47,47,0,0,0-3.16,3.6l-.38.45a3.09,3.09,0,0,0-.78.25A2.93,2.93,0,0,0,315,109a3.56,3.56,0,0,0,.16-1.5,2.88,2.88,0,0,0-1.72-2.22,2.81,2.81,0,0,0-2.92.49,3.12,3.12,0,0,0-.76-.47,2.89,2.89,0,0,0-3.33.91,13.31,13.31,0,0,0-1.7,3.15c-.35.74-.7,1.48-1.06,2.22-.67,1.39-1.34,2.79-2,4.18-1.48,2.92-3,5.82-4.56,8.68-2,3.48-4.1,6.93-6.2,10.36l-2.05,2.95c-1.76,2.53-3.68,5-5.56,7.4s-3.7,4.66-5.58,7l-3.45,4.25c-1.87,2.29-3.94,4.53-5.25,7.21a2.55,2.55,0,0,0-.09,1.88c-2.09,2-4.18,4.06-6.28,6.09-4.36,4.22-8.57,8.57-12.72,13-4.37,4.66-8.64,9.42-13,14.1-4,4.33-7.76,8.92-11.82,13.2-1.4,1.47-2.8,2.92-4.21,4.38q-6.57,6.49-13.2,12.9c-4.31,4.17-8.54,8.42-12.84,12.59-1.79,1.74-3.61,3.43-5.47,5.09s-3.52,3-5.3,4.45-3.66,3.06-5.57,4.48c-1.09.8-2.19,1.58-3.31,2.34-.84.57-1.7,1.09-2.56,1.62-1,.59-2.07,1.18-3.11,1.75a3,3,0,0,0-1.5,1.52,2.82,2.82,0,0,0,1.54,3.69,2.72,2.72,0,0,0,2.2,0c1.67-.92,3.32-1.86,5-2.86,1.28-.8,2.53-1.64,3.79-2.49,2.48-1.69,4.77-3.7,7.09-5.6s4.87-4.08,7.24-6.19c2.17-1.94,4.22-4,6.31-6.06,2.28-2.22,4.53-4.46,6.78-6.69,1.29-1.28,2.6-2.54,3.91-3.8a3.92,3.92,0,0,0-.29.71l-.19.71a2.9,2.9,0,0,0,.21,1.48l0,.11q-6.39,5.81-12.72,11.67c-3.25,3-6.59,5.95-9.88,8.93-1.74,1.59-3.46,3.2-5.14,4.85-.86.84-1.73,1.68-2.54,2.57-1.09,1.19-2.46,2.5-2.71,4.16a2.72,2.72,0,0,0,1.1,2.62,3.92,3.92,0,0,0,1.51.65,3.54,3.54,0,0,0,1.7-.24,11.36,11.36,0,0,0,2.1-1.17,31,31,0,0,0,2.7-2.28c1.16-1,2.25-2.13,3.36-3.2,2.21-2.13,4.34-4.33,6.5-6.5,4.24-4.26,8.66-8.31,13.18-12.27,2.2-1.93,4.41-3.83,6.57-5.8s4.39-4,6.66-5.85,4.46-3.51,6.65-5.32,4.48-3.71,6.58-5.71c3.29-3.12,6.47-6.36,9.63-9.6,2.06-2.07,4.15-4.09,6.27-6.1,1.1-1,2.21-2,3.28-3.12s2.39-2.47,3.56-3.74c2-2.15,3.87-4.37,5.79-6.56s4-4.36,5.88-6.59c1-1.14,2-2.26,3-3.43s1.88-2.33,2.84-3.48a83.55,83.55,0,0,0,5.26-6.89c3.43-5.13,6.78-10.3,10-15.56,1.67-2.71,3.27-5.46,4.9-8.2s3.12-5.66,4.62-8.52c1.6-3.07,3.16-6.16,4.71-9.27l.06-.08c1.85-2.29,3.73-4.55,5.61-6.8q3.15-3.8,6.27-7.62l2.85-3.52c.51-.66,1-1.31,1.53-2a19.12,19.12,0,0,0,1.19-1.61,5.78,5.78,0,0,0,.55-1,2.91,2.91,0,0,0-.05-2.26,2.81,2.81,0,0,0-1.51-1.5,3.36,3.36,0,0,0-.87-.2,2.52,2.52,0,0,0-2,.6Zm-42.83,64.67c-.56.82-1.13,1.63-1.72,2.42-.93,1.21-1.9,2.38-2.87,3.56-1.64,2-3.23,4-4.92,5.92l-1.11,1.26.62-.81,3.23-4.25q3.42-4,6.77-8.1Z" fill="#404040"/><path d="M301.16,117.58a2.86,2.86,0,0,0-1.86,1.1,2.65,2.65,0,0,0-.47,1l0,0c-.85,1.36-1.76,2.7-2.61,4.07q-1.76,2.79-3.45,5.62c-2.19,3.64-4.4,7.28-6.64,10.89a3.08,3.08,0,0,0-.54,2.1,2.8,2.8,0,0,0,1.1,1.86,2.91,2.91,0,0,0,1.05.5c-1.23,2.52-2.44,5.06-3.74,7.56-1.37,2.66-2.83,5.28-4.18,8-1.26,2.48-2.6,4.93-4,7.35s-3.06,5.1-4.69,7.57-3.38,4.9-5.06,7.34-3.3,4.68-4.9,7.06-3.34,5-5,7.51c-2.47,3.63-5.15,7.11-7.83,10.58a129.73,129.73,0,0,1-8.44,10c-4.06,4.09-8.18,8.12-12.4,12-2.11,2-4.3,3.8-6.52,5.63s-4.7,3.69-7,5.57c-4.48,3.64-9.08,7.15-13.53,10.83-2.34,1.93-4.57,4-6.88,6s-4.59,3.75-6.89,5.61c-4.23,3.42-8.64,6.6-13.12,9.68-1.13.76-2.22,1.58-3.32,2.36s-2.24,1.53-3.35,2.3c-2.46,1.7-4.88,3.44-7.3,5.18a2.83,2.83,0,0,0,3.5,4.45c2.65-1.92,5.31-3.82,8-5.68,2.36-1.63,4.69-3.32,7.07-4.94s4.78-3.41,7.16-5.16,4.77-3.69,7.14-5.58,4.54-3.67,6.73-5.6,4.53-4,6.91-5.9c4.6-3.63,9.13-7.35,13.74-11,2.27-1.77,4.51-3.56,6.71-5.4s4.38-3.81,6.48-5.82,4.28-4.12,6.41-6.19c2.31-2.25,4.62-4.52,6.77-6.93,1.95-2.17,3.8-4.42,5.61-6.7s3.57-4.55,5.27-6.89,3.46-4.74,5.07-7.2,3.38-5.09,5.14-7.6,3.35-4.89,5.07-7.3,3.28-4.72,4.82-7.15c3.31-5.23,6.24-10.67,9-16.19.62-1.21,1.32-2.4,2-3.61.76-1.45,1.52-2.9,2.25-4.36,1.33-2.66,2.6-5.34,3.9-8s2.61-5.39,3.87-8.11,2.39-5.17,3.58-7.76c.6-1.31,1.13-2.66,1.66-4a14.64,14.64,0,0,0,.79-2.34,6.4,6.4,0,0,0,.16-1.63c0-.1,0-.2,0-.31a2.89,2.89,0,0,0-3.19-2.41Zm-2.4,2.57v0h0Z" fill="#404040"/><path d="M316.59.57a10.92,10.92,0,0,0-2.52,2c-.72.72-1.4,1.46-2.06,2.22a36.47,36.47,0,0,0-4.85,7.82c-1.18,2.39-2.33,4.79-3.38,7.24-.56,1.29-1.15,2.6-1.6,3.93s-.93,2.88-1.35,4.33a45.4,45.4,0,0,0-1.61,8.72,29.81,29.81,0,0,0-.07,3.41c-.06.44-.12.88-.2,1.32a5,5,0,0,0,0,3.2,3.72,3.72,0,0,0,.61.88c0,.27.05.55.07.83a2.83,2.83,0,1,0,5.6-.78l-.12-1.46A2.81,2.81,0,0,0,310,42.74c.16-1.05.34-2.09.59-3.12a28.48,28.48,0,0,1,2-4.84,44.31,44.31,0,0,1,2.94-4.44,24.82,24.82,0,0,1,2.12-1.53,43.61,43.61,0,0,1,8.7-4.27c.57-.14,1.13-.27,1.71-.38a7.26,7.26,0,0,0,3-.89,2.85,2.85,0,0,0,.84-3.34,2.87,2.87,0,0,0-3-1.68c-1,.07-1.94.25-2.89.38a32.61,32.61,0,0,0-3.69.6,20.1,20.1,0,0,0-4.27,1.45c-.71.37-1.4.79-2.08,1.22A14.35,14.35,0,0,0,313.58,24a26.57,26.57,0,0,0-2.17,2.45,45.44,45.44,0,0,0-4.89,4.82,56,56,0,0,1,4.18-10.51c.66-1.12,1.35-2.22,2.07-3.31s1.55-2.22,2.29-3.36,1.64-2.5,2.48-3.73S319.2,7.93,320,6.69a10.06,10.06,0,0,0,1.37-2.91A3.13,3.13,0,0,0,320.25.64a3.84,3.84,0,0,0-1.5-.59,1.26,1.26,0,0,0-.27,0,3.51,3.51,0,0,0-1.89.56Z" fill="#404040"/><path d="M543.82,296.13a6.83,6.83,0,0,0-1.19.1c-.51.06-1,.12-1.52.22a15.94,15.94,0,0,0-6.82,3.26c-.7.51-1.38,1-2.06,1.52a41.72,41.72,0,0,0-6.58,5.57,84.3,84.3,0,0,0-5.72,7.3l-.46.62a2.73,2.73,0,0,0-.26,2.18,2.83,2.83,0,0,0,3.51,1.93,3.12,3.12,0,0,0,1.67-1.32c.61-.84,1.23-1.69,1.86-2.54l0-.06c0,.16-.07.32-.11.48-.36,1.52-.68,3-1,4.56a2.83,2.83,0,1,0,5.47,1.43A71.52,71.52,0,0,1,533.61,310a17.27,17.27,0,0,1,1-2.11,12.7,12.7,0,0,1,3-3.62,17.34,17.34,0,0,1,2.09-1.3,8.64,8.64,0,0,1,4-.46l1.81.17h0c.33.13.65.26,1,.36a3.06,3.06,0,0,0,3.67-1.26,2.78,2.78,0,0,0,0-2.85,4.49,4.49,0,0,0-1.22-1.16l-.47-.3a7.27,7.27,0,0,0-2-1,6.75,6.75,0,0,0-1.81-.34l-.81-.06Zm1.76,6.6.13,0-.13,0Z" fill="#f3d4ca"/><path d="M484.23,281.62a6.14,6.14,0,0,0-.89.36c-.24.19-.48.38-.71.58a2.62,2.62,0,0,0-.8,2,4.05,4.05,0,0,0,.34,1.5c.28.66.61,1.29.94,1.93a2.84,2.84,0,0,0,3.88,1,2.69,2.69,0,0,0,.85-.79c.9.41,1.79.84,2.68,1.26l.17.08v.06c-.16,1.65,1.35,2.68,2.58,3.4.61.35,1.21.71,1.82,1,1.29.73,2.63,1.37,3.95,2,2.78,1.35,5.59,2.66,8.4,3.94,5.48,2.49,11,5,16.47,7.37,1.51.67,3.07,1.29,4.62,1.88l2.29.88a30.28,30.28,0,0,0,3.15,1.12,2.76,2.76,0,0,0,3.13-1.28l.14.06a3.73,3.73,0,0,0,1.91.23l.25.13a2.83,2.83,0,1,0,2.8-4.92c-2.65-1.36-5.35-2.62-8-3.9s-5.19-2.57-7.78-3.87c-2.85-1.43-5.73-2.81-8.61-4.16s-5.75-2.56-8.64-3.8c-1.68-.72-3.37-1.48-5.08-2.13s-3.69-1.38-5.55-2a10.58,10.58,0,0,0-2.77-.67,2.87,2.87,0,0,0-1.09.1l-.18.07c-1.62-.77-3.26-1.51-4.89-2.27a16.48,16.48,0,0,0-3.06-1.12,7,7,0,0,0-1-.15,3.11,3.11,0,0,0-1.3.12Z" fill="#f3d4ca"/></g><g id="Draw_Layer-6" data-name="Draw Layer"><path d="M333.05,362.38a4.09,4.09,0,0,0-2.87,1.24c-.21.28-.41.56-.62.83a4,4,0,0,0-.53,2.07c-.47,4.33-.85,8.64-.95,13s-.08,8.68-.05,13c.05,8.38.24,16.76.28,25.15,0,3.3-.35,6.58-.64,9.86-.2,2.36-.62,4.94.86,7a7,7,0,0,0,6.36,2.69,20.43,20.43,0,0,0,5.29-1.27,105.71,105.71,0,0,0,10.06-4.27c3.55-1.63,7-3.53,10.38-5.48a4.08,4.08,0,0,0-4.22-7,150.07,150.07,0,0,1-14.14,7.18,48,48,0,0,1-6.54,2.42c0-.14,0-.28,0-.42.08-1,.16-2,.25-3,.19-2,.4-4.05.46-6.08s0-3.93-.05-5.89-.05-4.11-.07-6.16c-.11-8.77-.27-17.54-.14-26.3.08-4.89.46-9.73,1-14.58a3.93,3.93,0,0,0-1.24-2.87,4.05,4.05,0,0,0-2.51-1.14l-.39,0Zm.66,66.54.2.09-.2-.09Z" fill="#404040"/><path d="M384.32,469.23a124,124,0,0,1-12,11.73,41.28,41.28,0,0,1-7.35,4.51c-1,.41-2,.77-3.07,1.1a26.32,26.32,0,0,1-3.53.73c-4.52.59-9.11.59-13.66.78a4.08,4.08,0,1,0,.12,8.16l6.76-.28a57.94,57.94,0,0,0,6.31-.4,43.75,43.75,0,0,0,6.7-1.28,40.62,40.62,0,0,0,6.32-2.65,39,39,0,0,0,4.85-3.09,53.28,53.28,0,0,0,5.17-4.32c3.22-3,6.26-6.09,9.21-9.3a4.06,4.06,0,0,0-2.61-6.9,3.91,3.91,0,0,0-3.24,1.21Z" fill="#404040"/><path d="M274.77,329c-.06.64-.12,1.28-.19,1.93.11-.8.23-1.59.34-2.39l-.15.46Z" fill="#404040"/><path d="M271.58,297.78a7.92,7.92,0,0,0-4.32,1.27q-.3.19-.6.42a9.72,9.72,0,0,0-2,1.95,12,12,0,0,0-2.32,5.76,27.59,27.59,0,0,0-.11,7.09c.45,3.61,1,7.41,4,9.89a8.1,8.1,0,0,0,4.08,1.87,6.61,6.61,0,0,0,2.73-.06,7.73,7.73,0,0,0,2-.77,12.93,12.93,0,0,0,1.77-1.35,8.34,8.34,0,0,0,1.38-1.85l.12-.2a8.63,8.63,0,0,0,1.08-1.32,9.93,9.93,0,0,0,1.39-3.4,22.93,22.93,0,0,0-.34-9.33,16.61,16.61,0,0,0-1.26-3.9,11.23,11.23,0,0,0-1.92-2.8,8.09,8.09,0,0,0-1.29-1.46A7.32,7.32,0,0,0,272,297.8l-.37,0Zm-.34,10.76-.16.4c.05-.13.1-.27.16-.4Z" fill="#404040"/><path d="M390.45,305.75a12.11,12.11,0,0,0-2.36,3,12.61,12.61,0,0,0-1.63,2.64,22.58,22.58,0,0,0-1,2.79,20.7,20.7,0,0,0-.57,2.71c-.2,1.29-.36,2.58-.49,3.88a11.48,11.48,0,0,0,0,1.76,8.27,8.27,0,0,0,2.18,5.47c.21.2.42.39.64.57l.15.69.21.53a3.85,3.85,0,0,0,.74,1.4,5.87,5.87,0,0,0,2.28,2c3,1.44,6.15,0,8.27-2.21a15.58,15.58,0,0,0,1.46-2,9.67,9.67,0,0,0,.77-1.46,20.2,20.2,0,0,0,.87-2.28c.09-.27.17-.54.24-.8a23.41,23.41,0,0,0,1.2-3,22.77,22.77,0,0,0,.93-4.47,15.64,15.64,0,0,0,.12-3.74,14.11,14.11,0,0,0-.47-2.58,17.1,17.1,0,0,0-1-2.42,9.14,9.14,0,0,0-1.67-2.15c-.44-.35-.88-.69-1.33-1a8.22,8.22,0,0,0-2-1,6.37,6.37,0,0,0-1.6-.35,8.18,8.18,0,0,0-5.91,2.07Z" fill="#404040"/><path d="M290.59,251.64c-7.34.12-14.68.26-21.93,1.54a68.72,68.72,0,0,0-9.82,2.33c-3.39,1.13-6.75,2.35-10.18,3.36a4.08,4.08,0,0,0,2.28,7.84c1.88-.55,3.75-1.14,5.59-1.79s3.61-1.23,5.41-1.84a43.47,43.47,0,0,1,5-1.25c1.75-.37,3.49-.73,5.26-1a158.3,158.3,0,0,1,18.47-1,4.08,4.08,0,0,0,.29-8.15,2.71,2.71,0,0,0-.4,0Z" fill="#404040"/><path d="M383.84,245.69a4.09,4.09,0,0,0-2.78,5.06,3.94,3.94,0,0,0,1.91,2.41c2.49,1.13,5,2.21,7.54,3.2,1.95.76,3.94,1.46,5.89,2.23,1.27.53,2.53,1.09,3.81,1.62,1.61.68,3.2,1.37,4.76,2.16,3.06,1.54,5.91,3.45,9,5a4.08,4.08,0,1,0,4-7.1c-2.09-1.05-4.12-2.22-6.12-3.44a45,45,0,0,0-6.25-3.13c-2.32-1-4.61-2-6.94-2.91s-4.38-1.65-6.57-2.5q-2.56-1.07-5.1-2.21a5.44,5.44,0,0,0-1.78-.51,3.64,3.64,0,0,0-1.37.14Z" fill="#404040"/><path d="M548.22,327.45a35.86,35.86,0,0,0-3.6,3c-1,1-1.92,2-2.81,3.1a67.89,67.89,0,0,0-5.34,8.07,4.08,4.08,0,0,0,7.1,4c1.18-1.94,2.33-3.89,3.61-5.77a35.06,35.06,0,0,1,5-5.22l.29-.21a4.43,4.43,0,0,0,1.84-2.47,4.16,4.16,0,0,0-.45-3.14,4.09,4.09,0,0,0-2.47-1.84,3.9,3.9,0,0,0-.71-.12,3.68,3.68,0,0,0-2.43.57Zm4.39,6.84-.22.18.22-.18Z" fill="#404040"/><path d="M131.09,321.68a4.13,4.13,0,0,0-2.42,1.91,4.08,4.08,0,0,0-.36,3.15,4.28,4.28,0,0,0,1.91,2.41c1.67,1.16,3.34,2.31,5,3.49a6,6,0,0,0,.57.42c.23.17.45.34.67.49a4.5,4.5,0,0,0,.74.56,29.65,29.65,0,0,1,4.19,3.8v0a4.45,4.45,0,0,0,2.46,1.84,4.09,4.09,0,0,0,5-2.92,3.85,3.85,0,0,0-.45-3.14,24,24,0,0,0-2-2.4c-.51-.51-1-1-1.58-1.47s-.92-.76-1.39-1.13a24.55,24.55,0,0,0-1.94-1.52,1.33,1.33,0,0,0-.19-.14l-.38-.27a3.88,3.88,0,0,0-.73-.55l-.27-.2,0,0-1.59-1.15c-1.34-1-2.69-1.88-4-2.8a3.3,3.3,0,0,0-1.59-.52,4.68,4.68,0,0,0-1.56.15Z" fill="#404040"/><path d="M398.08,454.72c-3.84,2.23-7.79,4.27-11.69,6.37s-7.45,4.15-11.1,6.36c-2.41,1.48-4.83,2.94-7.25,4.4-1.12.62-2.23,1.24-3.37,1.81-1.69.84-3.39,1.69-5.08,2.55l0,0c-3.39.54-6.79,1.09-10.18,1.66A102.51,102.51,0,0,0,338,480.28a37.53,37.53,0,0,0-5.18,1.85c-1.06.48-2.1,1-3.12,1.59l-1,.56a6.38,6.38,0,0,0-1.71,1.25,4.89,4.89,0,0,0-1,2.08,4.05,4.05,0,0,0,.58,3.12,4.32,4.32,0,0,0,2.54,1.74,11.6,11.6,0,0,0,4.47.28c1.23-.11,2.46-.31,3.67-.53-.6.5-1.19,1-1.78,1.52-.83.71-1.65,1.44-2.4,2.22-.58.6-1.12,1.19-1.64,1.83a17.58,17.58,0,0,0-1.16,1.7,8.31,8.31,0,0,0-.69,1.66l-.12,1.6a4,4,0,0,0,.67,2,4,4,0,0,0,2.54,1.75c.71.11,1.43.16,2.15.21l.72-.11c.45-.07.9-.15,1.34-.26a3,3,0,0,0,.22,1.53l.09.2a4,4,0,0,0,1.15,1.74,4.19,4.19,0,0,0,2.95,1c2.06,0,3.75-1.4,5.38-2.52l2.74-1.86.84-.59c.84-.12,1.68-.31,2.5-.5,8.31-1.95,16.14-5.69,23.67-9.59.83-.42,1.69-.81,2.47-1.29l3.42-2.06c1.88-1.13,3.68-2.38,5.5-3.62,1.58-1.07,3.06-2.3,4.57-3.47.94-.73,1.86-1.5,2.79-2.25.73-.6,1.46-1.21,2.16-1.84a9.06,9.06,0,0,0,2.47-2.87,4.91,4.91,0,0,0,.42-2.55l9.39-3.09c4-1.33,8.05-2.46,12.13-3.52a4.08,4.08,0,0,0,.57-7.5,4.27,4.27,0,0,0-3.16-.25C415,462.56,411,463.69,407,465c-2.33.78-4.66,1.56-7,2.32a4.1,4.1,0,0,0-.63-2.87,3.9,3.9,0,0,0-.51-.63c1.26-.74,2.52-1.5,3.74-2.3a4.09,4.09,0,0,0-1.37-7.4,4.81,4.81,0,0,0-.53-.07,4.35,4.35,0,0,0-2.59.65ZM333.8,498.54l.44,0H334l-.22,0Z" fill="#f3d4ca"/><path d="M391.37,472.28a45.34,45.34,0,0,0-4.71,3.08,38.1,38.1,0,0,1-4.81,2.86c-2.34,1.09-4.76,2-7.17,3-2.67,1.05-5.37,2-8.08,3a137.15,137.15,0,0,1-16.12,4.74,47.13,47.13,0,0,1-6.81.75c-2.73.08-5.45-.08-8.17-.24a3.92,3.92,0,0,0-2.82,1.35,4.11,4.11,0,0,0,.31,5.77,4.47,4.47,0,0,0,2.95,1,67.29,67.29,0,0,0,12.93-.17,76.84,76.84,0,0,0,12.41-2.91c4-1.25,8-2.57,12-4,1.93-.7,3.84-1.44,5.74-2.2s3.64-1.42,5.39-2.26a50,50,0,0,0,6.29-3.48,59.3,59.3,0,0,1,5.18-3.41,3.93,3.93,0,0,0,1.75-2.54,4.08,4.08,0,0,0-3.12-4.86,4.5,4.5,0,0,0-.51-.08,4.63,4.63,0,0,0-2.61.66Z" fill="#404040"/></g><g id="Draw_Layer-7" data-name="Draw Layer"><path d="M456,400a28,28,0,0,0-9.86,4.29,16.93,16.93,0,0,0-2.05,1.64,22.36,22.36,0,0,0-3.9,3.29c-1.52,1.63-2.89,3.83-2.64,6.14a6.84,6.84,0,0,0,3,5.08,8.54,8.54,0,0,0,2.06.94,7.43,7.43,0,0,0,1.55.29c.74.1,1.48.18,2.22.21,1.07.06,2.15,0,3.23,0a52.38,52.38,0,0,0,6.84-.63,21.55,21.55,0,0,0,5.33-1.83,17.87,17.87,0,0,0,5.14-3.54,13.61,13.61,0,0,0,3.3-5.66,9.73,9.73,0,0,0,.33-2.63,8.24,8.24,0,0,0-.9-3.61,7.42,7.42,0,0,0-6-3.91l-.58-.07a11.05,11.05,0,0,0-2.2-.4A16.8,16.8,0,0,0,456,400Z" fill="#f8f8f5" opacity="0.78"/><path d="M220,402.58a19.93,19.93,0,0,0-2.31.27,10,10,0,0,0-4.52.74,5.88,5.88,0,0,0-.71.23,6.77,6.77,0,0,0-2.87,2,8.54,8.54,0,0,0-1.59,3.1,9.94,9.94,0,0,0-.34,3,10.08,10.08,0,0,0,1.14,4.05,8.91,8.91,0,0,0,1.34,1.82,9.45,9.45,0,0,0,.9.89,17.39,17.39,0,0,0,3.12,2.2,33.24,33.24,0,0,0,6.14,2.54,28.83,28.83,0,0,0,7.1,1,32.65,32.65,0,0,0,5.68-.07A17.85,17.85,0,0,0,235,424a11.88,11.88,0,0,0,2.8-1.12,8.25,8.25,0,0,0,1.57-1.2,8.88,8.88,0,0,0,1.21-1.44,7.5,7.5,0,0,0,1.26-3.92c.13-3.62-2.67-6.34-5.41-8.26a24.8,24.8,0,0,0-4.71-2.52c-3.07-1.29-6.27-2.67-9.62-3a15,15,0,0,0-2.12,0Z" fill="#f8f8f5" opacity="0.78"/><path d="M404.32,261.48a68.67,68.67,0,0,0-10.7,1.57,57.83,57.83,0,0,0-7.74,2.27,63.28,63.28,0,0,0-8.87,3.91,66.36,66.36,0,0,0-15.27,11.07,67.66,67.66,0,0,0-18.43,31.89c-.2.78-.39,1.57-.55,2.35h-.1a1.08,1.08,0,0,0-.46.06l-.61.17c-.71.21-1.43.4-2.15.55l-.65.05-.34,0h-.13l-.18,0h-.21c-1.73.15-3.88.33-6,.37a28.72,28.72,0,0,1-3.67-.11c-1.12-.1-2.25-.23-3.37-.36l-.32,0-.83-.1-1.11-.13a3.94,3.94,0,0,0-2.77,1.1,65.78,65.78,0,0,0-11.61-33.42,66.87,66.87,0,0,0-27-22.74,68.52,68.52,0,0,0-12.36-4.33l-.48-.15a74.93,74.93,0,0,0-10-1.54,71.79,71.79,0,0,0-9.2-.13,67.91,67.91,0,0,0-11.1,1.58l-.65.15-.25.07c-2.07.5-4.05,1.07-5.91,1.71a67,67,0,0,0-38.21,33c-.09.36-.19.72-.29,1.08a39.36,39.36,0,0,1-1.53,4.6c-.67,1.62-1.49,3.17-2.26,4.74l-.33.7c-.19.69-.36,1.41-.56,2.11h0l0,.08c-.06.22-.13.44-.2.66a50.76,50.76,0,0,0-1.61,7.83,69,69,0,0,0,2.29,28.22,69.84,69.84,0,0,0,3.54,9.17A67.11,67.11,0,0,0,247.8,388c1.15.1,2.29.17,3.44.21A67.78,67.78,0,0,0,287.05,379a66.52,66.52,0,0,0,14.31-11.23,64.11,64.11,0,0,0,7.34-9.09,3.62,3.62,0,0,0,.22-.32l.78-1.21a3.4,3.4,0,0,0,.28-.45c.68-1.08,1.39-2.28,2.09-3.56a67.35,67.35,0,0,0,8.14-30.56l.44.34a4.12,4.12,0,0,0,1.71.53,2.88,2.88,0,0,0,.41,0l1.35.15c1.51.16,3,.33,4.54.47h.22a39.78,39.78,0,0,0,5.19,0c1-.05,1.95-.13,2.92-.21l.52-.05.47,0,.91-.07a20.24,20.24,0,0,0,2.73-.35,51.35,51.35,0,0,0-.27,8.29,68.27,68.27,0,0,0,12.29,35.74A66.67,66.67,0,0,0,382,390.33a65.81,65.81,0,0,0,18.15,5c1,.13,2.07.24,3.11.32,2,.17,4,.25,6,.24a65.74,65.74,0,0,0,9.84-.88,66.51,66.51,0,0,0,17.29-5.19,69.81,69.81,0,0,0,7.79-4.12,76.47,76.47,0,0,0,7.62-5.54A66.1,66.1,0,0,0,464,366.66a67.17,67.17,0,0,0,8.54-17.33,66.47,66.47,0,0,0,3.27-19c.05-1.37,0-2.9,0-4.54.7-.25,1.45-.59,2.21-.93l.61-.28c2.59-1.1,5.18-2.2,7.78-3.28,2.16-.89,4.5-1.94,6.31-2.76l.52-.23,2.49-1.12c4-1.7,7.63-3.11,11.13-4.31,2.08-.71,4.13-1.46,6.19-2.22l.42-.15.76-.28,3.66-1.32,2.54-.88.61-.21,1.17-.4,1.24-.43.86-.3,4.69-1.63c2-.7,4-1.49,5.87-2.26l.15-.06.41-.16c1.51-.61,3.27-1.31,5.1-2l2.06-.76.2-.07c1.6-.59,3.14-1.15,4.65-1.59a41,41,0,0,0,7.59-2.9,4.17,4.17,0,0,0,1.91-2.53,4.2,4.2,0,0,0-3-5.11,4.11,4.11,0,0,0-.67-.12,4.69,4.69,0,0,0-2.53.6l-1,.5a49.88,49.88,0,0,1-4.84,1.61c-1.25.34-2.58.85-3.55,1.22l-.63.23-1.16.43c-2.33.84-4.65,1.75-6.61,2.52l-.44.18-4.6,1.77c-1.85.69-3.66,1.3-5.57,2l-.2.06-.37.13c-1.67.56-3.34,1.12-5,1.72l-2.46.89q-4.26,1.53-8.52,3.09L504,305l-.29.1-.39.14-.31.11-.31.1-.2.07c-.46.15-.91.3-1.35.47-1.79.64-3.48,1.33-4.89,1.93-2.84,1.17-5.6,2.4-8,3.47l-2.31,1-4.55,1.92-.35.15-.67.28c-1.91.8-3.82,1.61-5.72,2.45a37.17,37.17,0,0,0-1.15-5.86,67.34,67.34,0,0,0-49.85-48.32,64.72,64.72,0,0,0-9.43-1.48,72.39,72.39,0,0,0-9.92-.1Zm-2.7,125.62a65.09,65.09,0,0,1-15.3-3.94,67.4,67.4,0,0,1-13.26-7.51,59.18,59.18,0,0,1-18.47-23.39,67.87,67.87,0,0,1-4.35-15.13,58.92,58.92,0,0,1,3.68-30.62,67.34,67.34,0,0,1,7.59-13.41,64.89,64.89,0,0,1,6.79-7.46l.1-.11.1-.09c1-.93,2.06-1.86,3.26-2.85,1.41-1.1,2.91-2.17,4.48-3.19l.22-.14.2-.13.41-.26.45-.28.41-.25.43-.27.35-.21.11-.07h0l.21-.13.17-.09.42-.24.14-.08.31-.17.14-.08.28-.16.17-.09.13-.06.13-.08.2-.1.22-.12.24-.12.19-.11L382,276l.16-.08.16-.08.15-.08.11-.06.36-.17.26-.13.2-.1,1.35-.63A58.39,58.39,0,0,1,414.11,270l1.25.12a66.35,66.35,0,0,1,15.08,3.82,67.87,67.87,0,0,1,13.46,7.57A59,59,0,0,1,462.49,305a66.35,66.35,0,0,1,4.32,15l0,.39-5.45,1.49a4,4,0,0,0-2.46,1.95,4.17,4.17,0,0,0-.39,3.23,4.23,4.23,0,0,0,3.71,3,4,4,0,0,0,1.47-.15l.75-.21.3-.08c.92-.24,1.84-.49,2.76-.76-.15,2.93-.31,5.13-.51,6.92a65.22,65.22,0,0,1-3.89,15.05A67.58,67.58,0,0,1,455.67,364a59.11,59.11,0,0,1-23.4,18.55,67.24,67.24,0,0,1-15.07,4.35,65,65,0,0,1-14.16.37c-.48,0-1-.08-1.42-.14ZM244.73,262.63c2.76-.3,5.45-.47,8-.49,1.46,0,3.27,0,5.36.19l.49,0c.48,0,1,.08,1.44.14l1.47.21a66,66,0,0,1,13.6,3.66,66.88,66.88,0,0,1,13.4,7.58,58.92,58.92,0,0,1,18.45,23.33,58.95,58.95,0,0,1,4.58,30.79,65.6,65.6,0,0,1-3.86,15,66.4,66.4,0,0,1-7.5,13.33,64.69,64.69,0,0,1-10.45,10.74,59,59,0,0,1-28,12.17,66.2,66.2,0,0,1-14.22.36l-1.24-.12a65.28,65.28,0,0,1-15.33-3.92,58.43,58.43,0,0,1-23.91-17.86,65.87,65.87,0,0,1-7.88-13.05,66.89,66.89,0,0,1-4.33-15,65.39,65.39,0,0,1-.22-15.75,62,62,0,0,1,2.06-9.7h.07l0-.11a30.55,30.55,0,0,1,2.57-6l.56-1.08a3.83,3.83,0,0,0-.51-.39,73.67,73.67,0,0,1,6.64-11.11A59.14,59.14,0,0,1,229.4,267a67.71,67.71,0,0,1,13.86-4.13l.53-.09.53-.08.23-.05.13,0,0,0,.07-.06Z" fill="#ea9a00"/><polygon points="378.82 277.79 378.82 277.79 378.82 277.79 378.82 277.79 378.82 277.79" fill="#ea9a00"/><path d="M131.51,288.29a4.45,4.45,0,0,0,.19,3.36,4.56,4.56,0,0,0,2.51,2.24c2,.84,4.06,1.5,6.09,2.24s4,1.46,6,2.24c1.82.71,3.63,1.39,5.49,2s3.79,1.25,5.65,1.95,3.7,1.48,5.54,2.25,3.87,1.45,5.82,2.15c3.41,1.24,6.85,2.38,10.29,3.51,1.93.63,3.86,1.27,5.8,1.86.87.27,1.73.56,2.61.8s1.5.37,2.24.6c2.76.85,5.56,1.55,8.31,2.45a4.39,4.39,0,0,0,2.91-8.29c-1.71-.57-3.45-1-5.17-1.57-2-.58-3.92-1.06-5.87-1.63-2.53-.74-5-1.59-7.53-2.39-3.34-1.08-6.7-2.15-10-3.38-1.49-.56-3-1.07-4.5-1.62s-2.82-1.12-4.22-1.69c-2.77-1.15-5.57-2.16-8.41-3.1s-5.76-2.08-8.64-3.13c-1.61-.6-3.21-1.23-4.84-1.8s-3.17-1.1-4.72-1.75a4.07,4.07,0,0,0-1.12-.27,4.57,4.57,0,0,0-4.49,3Z" fill="#ea9a00"/></g></g></svg>