<?xml version="1.0" encoding="UTF-8"?>
<svg width="319px" height="319px" viewBox="0 0 319 319" version="1.1" xmlns="http://www.w3.org/2000/svg" xmlns:xlink="http://www.w3.org/1999/xlink">
    <defs></defs>
    <g id="selectrow-graphic" stroke="none" stroke-width="1" fill="none" fill-rule="evenodd">
        <g id="Group" transform="translate(39.000000, 108.000000)">
            <path d="M0.5,13.5 L240.668691,13.5" id="Line-5" stroke="#D6D6D6" stroke-linecap="square"></path>
            <path d="M0.5,101.5 L240.668691,101.5" id="Line-5-Copy" stroke="#D6D6D6" stroke-linecap="square"></path>
            <rect id="Rectangle" fill="#E6E6E6" x="11" y="25" width="50" height="5"></rect>
            <rect id="Rectangle-Copy" fill="#E6E6E6" x="81" y="25" width="17" height="5"></rect>
            <rect id="Rectangle-Copy-2" fill="#E6E6E6" x="113" y="25" width="17" height="5"></rect>
            <rect id="Rectangle-Copy-3" fill="#E6E6E6" x="145" y="25" width="17" height="5"></rect>
            <rect id="Rectangle-Copy-4" fill="#E6E6E6" x="177" y="25" width="17" height="5"></rect>
            <rect id="Rectangle-Copy-5" fill="#E6E6E6" x="209" y="25" width="17" height="5"></rect>
            <rect id="Rectangle-Copy-11" fill="#E6E6E6" x="11" y="40" width="50" height="5"></rect>
            <rect id="Rectangle-Copy-10" fill="#E6E6E6" x="81" y="40" width="17" height="5"></rect>
            <rect id="Rectangle-Copy-9" fill="#E6E6E6" x="113" y="40" width="17" height="5"></rect>
            <rect id="Rectangle-Copy-8" fill="#E6E6E6" x="145" y="40" width="17" height="5"></rect>
            <rect id="Rectangle-Copy-7" fill="#E6E6E6" x="177" y="40" width="17" height="5"></rect>
            <rect id="Rectangle-Copy-6" fill="#E6E6E6" x="209" y="40" width="17" height="5"></rect>
            <rect id="Rectangle-Copy-34" fill-opacity="0.115036232" fill="#83B8BA" x="81" y="0" width="17" height="5"></rect>
            <rect id="Rectangle-Copy-35" fill-opacity="0.115036232" fill="#83B8BA" x="11" y="0" width="17" height="5"></rect>
            <rect id="Rectangle-Copy-33" fill-opacity="0.115036232" fill="#83B8BA" x="113" y="0" width="17" height="5"></rect>
            <rect id="Rectangle-Copy-32" fill-opacity="0.115036232" fill="#83B8BA" x="145" y="0" width="17" height="5"></rect>
            <rect id="Rectangle-Copy-31" fill-opacity="0.115036232" fill="#83B8BA" x="177" y="0" width="17" height="5"></rect>
            <rect id="Rectangle-Copy-30" fill-opacity="0.115036232" fill="#83B8BA" x="209" y="0" width="17" height="5"></rect>
            <rect id="Rectangle-Copy-17" fill="#E6E6E6" x="11" y="55" width="50" height="5"></rect>
            <rect id="Rectangle-Copy-16" fill="#E6E6E6" x="81" y="55" width="17" height="5"></rect>
            <rect id="Rectangle-Copy-15" fill="#E6E6E6" x="113" y="55" width="17" height="5"></rect>
            <rect id="Rectangle-Copy-14" fill="#E6E6E6" x="145" y="55" width="17" height="5"></rect>
            <rect id="Rectangle-Copy-13" fill="#E6E6E6" x="177" y="55" width="17" height="5"></rect>
            <rect id="Rectangle-Copy-12" fill="#E6E6E6" x="209" y="55" width="17" height="5"></rect>
            <rect id="Rectangle-Copy-29" fill="#E6E6E6" x="11" y="70" width="50" height="5"></rect>
            <rect id="Rectangle-Copy-28" fill="#E6E6E6" x="81" y="70" width="17" height="5"></rect>
            <rect id="Rectangle-Copy-27" fill="#E6E6E6" x="113" y="70" width="17" height="5"></rect>
            <rect id="Rectangle-Copy-26" fill="#E6E6E6" x="145" y="70" width="17" height="5"></rect>
            <rect id="Rectangle-Copy-25" fill="#E6E6E6" x="177" y="70" width="17" height="5"></rect>
            <rect id="Rectangle-Copy-24" fill="#E6E6E6" x="209" y="70" width="17" height="5"></rect>
            <rect id="Rectangle-Copy-23" fill="#E6E6E6" x="11" y="85" width="50" height="5"></rect>
            <rect id="Rectangle-Copy-22" fill="#E6E6E6" x="81" y="85" width="17" height="5"></rect>
            <rect id="Rectangle-Copy-21" fill="#E6E6E6" x="113" y="85" width="17" height="5"></rect>
            <rect id="Rectangle-Copy-20" fill="#E6E6E6" x="145" y="85" width="17" height="5"></rect>
            <rect id="Rectangle-Copy-19" fill="#E6E6E6" x="177" y="85" width="17" height="5"></rect>
            <rect id="Rectangle-Copy-18" fill="#E6E6E6" x="209" y="85" width="17" height="5"></rect>
            <rect id="Rectangle-29-Copy" fill="#83B8BA" opacity="0.27421875" x="0" y="21" width="241" height="13" rx="1"></rect>
            <rect id="Rectangle-29-Copy-2" fill="#83B8BA" opacity="0.27421875" x="0" y="51" width="241" height="13" rx="1"></rect>
        </g>
    </g>
</svg>
