<svg width="254" height="156" viewBox="0 0 254 156" fill="none" xmlns="http://www.w3.org/2000/svg">
<path d="M67.4757 45.6576C67.4757 45.6576 76.5382 27.01 90.5109 27.0423C104.484 27.0745 102.871 22.5546 108.678 22.5546C114.485 22.5546 138.943 18.3605 143.811 33.0398C148.68 47.7191 147.86 39.3471 152.948 46.5964C158.036 53.8457 158.329 59.6562 163.02 63.205C167.711 66.7539 167.776 86.8919 166.792 91.7377C166.101 95.1446 168.557 100.407 168.682 107.404C168.808 114.402 168.36 135.472 155.777 143.538C142.166 152.265 135.936 154.559 128.677 154.83C121.418 155.101 92.708 158.208 84.4779 150.313C76.2478 142.418 58.139 139.095 57.1163 105.83C56.0936 72.5643 61.4265 61.4919 63.4397 54.9265C65.4529 48.3612 67.4789 45.6576 67.4789 45.6576H67.4757Z" fill="#CEB099"/>
<path d="M85.4525 46.429C86.0074 47.5581 86.9268 50.8747 95.1311 49.0099C102.229 47.3968 102.874 44.4932 107.713 45.1385C110.349 45.4901 112.279 47.1484 117.418 46.3031C122.557 45.4579 124.49 28.3137 133.201 33.4983C141.911 38.6828 133.962 44.0899 134.065 46.2257C134.168 48.3615 143.524 51.5877 143.847 58.6854C144.17 65.7831 148.79 71.9129 151.158 71.2677C153.526 70.6224 156.107 63.2021 159.494 65.2991C162.882 67.3962 157.329 76.4296 156.72 80.4624C156.11 84.4952 157.397 85.463 156.107 89.6571C154.816 93.8512 156.062 104.933 154.281 111.05C149.332 128.049 147.396 137.728 117.715 137.728C97.9508 137.728 91.0596 136.95 86.4203 132.566C82.2779 128.652 79.5678 121.619 76.7997 113.651C70.9345 96.7548 71.2571 103.207 67.7082 103.853C64.1594 104.498 56.0938 105.924 70.7731 88.2731C76.5545 81.3206 71.1119 77.2362 71.5797 72.2355C71.9539 68.2318 77.6127 60.3211 76.419 57.7175C75.3157 55.314 75.1866 56.1528 74.0832 55.0494C70.2892 51.2651 71.1442 42.1123 79.6453 41.2638C82.8715 40.9412 84.8975 45.2966 85.4525 46.4257V46.429Z" fill="#FAF0E4"/>
<path d="M125.78 66.7539C127.74 66.7539 129.329 65.1651 129.329 63.2051C129.329 61.2451 127.74 59.6562 125.78 59.6562C123.82 59.6562 122.231 61.2451 122.231 63.2051C122.231 65.1651 123.82 66.7539 125.78 66.7539Z" fill="#443C36"/>
<path d="M91.9043 72.2383C93.8643 72.2383 95.4532 70.6494 95.4532 68.6895C95.4532 66.7295 93.8643 65.1406 91.9043 65.1406C89.9443 65.1406 88.3555 66.7295 88.3555 68.6895C88.3555 70.6494 89.9443 72.2383 91.9043 72.2383Z" fill="#443C36"/>
<path d="M110.294 79.0125C112.432 79.0125 114.166 77.2792 114.166 75.141C114.166 73.0028 112.432 71.2695 110.294 71.2695C108.156 71.2695 106.423 73.0028 106.423 75.141C106.423 77.2792 108.156 79.0125 110.294 79.0125Z" fill="#443C36"/>
<path d="M122.393 40.7833C122.393 40.7833 125.677 30.0335 133.684 34.6535C141.692 39.2734 133.039 47.2358 133.039 47.2358" stroke="#443C36" stroke-width="2.25836" stroke-linecap="round" stroke-linejoin="round"/>
<path d="M77.8707 56.9125C77.8707 56.9125 66.9015 54.0089 73.8411 45.0916C79.7871 37.4487 85.6136 46.266 85.6136 46.266" stroke="#443C36" stroke-width="2.25836" stroke-linecap="round" stroke-linejoin="round"/>
<path d="M77.2251 85.627C77.2251 85.627 66.256 89.4984 62.7071 100.468C59.4712 110.466 75.612 98.2092 78.193 98.2092" stroke="#443C36" stroke-width="2.25836" stroke-linecap="round" stroke-linejoin="round"/>
<path d="M144.331 76.2716C144.331 76.2716 148.951 73.368 151.158 71.271C153.364 69.1739 156.268 63.6893 159.494 65.3025C162.217 66.6639 163.688 70.1418 154.655 85.305" stroke="#443C36" stroke-width="2.25836" stroke-linecap="round" stroke-linejoin="round"/>
<path d="M94.3244 132.73C94.3244 132.73 83.3552 114.025 91.4208 112.57C99.4863 111.115 100.454 123.697 108.52 127.568" stroke="#443C36" stroke-width="2.25836" stroke-linecap="round" stroke-linejoin="round"/>
<path d="M132.394 122.713C132.394 122.713 135.913 122.051 139.078 114.776C140.598 111.285 144.176 105.736 147.873 106.511C151.041 107.172 152.799 110.479 147.873 123.374" stroke="#443C36" stroke-width="2.25836" stroke-linecap="round" stroke-linejoin="round"/>
<path d="M86.9043 39.815C86.9043 39.815 91.3404 38.6503 94.1246 41.9733" stroke="#443C36" stroke-width="2.25836" stroke-linecap="round" stroke-linejoin="round"/>
<path d="M100.131 31.748C100.131 31.748 104.002 33.3612 103.68 38.8457" stroke="#443C36" stroke-width="2.25836" stroke-linecap="round" stroke-linejoin="round"/>
<path d="M112.069 39.6173C112.069 39.6173 111.746 33.0391 118.844 33.0391" stroke="#443C36" stroke-width="2.25836" stroke-linecap="round" stroke-linejoin="round"/>
<path d="M75.9344 64.334C75.9344 64.334 69.8949 66.915 68.8818 72.2382" stroke="#443C36" stroke-width="2.25836" stroke-linecap="round" stroke-linejoin="round"/>
<path d="M73.6763 76.916C73.6763 76.916 68.1918 78.5291 67.8691 82.7232" stroke="#443C36" stroke-width="2.25836" stroke-linecap="round" stroke-linejoin="round"/>
<path d="M135.565 51.7168C135.565 51.7168 144.857 53.1105 145.354 56.9497" stroke="#443C36" stroke-width="2.25836" stroke-linecap="round" stroke-linejoin="round"/>
<path d="M143.282 62.2373C143.282 62.2373 147.557 61.7533 149.493 64.6569" stroke="#443C36" stroke-width="2.25836" stroke-linecap="round" stroke-linejoin="round"/>
<path d="M75.9345 105.83C75.9345 105.83 72.0631 113.054 74.644 116.28" stroke="#443C36" stroke-width="2.25836" stroke-linecap="round" stroke-linejoin="round"/>
<path d="M80.4519 118.535C80.4519 118.535 78.5161 128.214 82.7102 130.472" stroke="#443C36" stroke-width="2.25836" stroke-linecap="round" stroke-linejoin="round"/>
<path d="M150.999 91.1953C150.999 91.1953 158.2 94.5538 157.519 99.1221" stroke="#443C36" stroke-width="2.25836" stroke-linecap="round" stroke-linejoin="round"/>
<path d="M134.007 131.761C134.007 131.761 143.363 133.374 146.912 130.471" stroke="#443C36" stroke-width="2.25836" stroke-linecap="round" stroke-linejoin="round"/>
<path d="M120.383 132.73C120.383 132.73 121.425 135.957 127.232 136.925" stroke="#443C36" stroke-width="2.25836" stroke-linecap="round" stroke-linejoin="round"/>
<path d="M110.294 135.604C110.294 135.604 108.842 139.504 105.293 140.149" stroke="#443C36" stroke-width="2.25836" stroke-linecap="round" stroke-linejoin="round"/>
<path d="M150.999 101.531C150.999 101.531 153.909 102.725 154.28 106.435" stroke="#443C36" stroke-width="2.25836" stroke-linecap="round" stroke-linejoin="round"/>
<path d="M65.9335 57.882C65.9335 57.882 62.0621 57.5594 59.8037 60.7856" stroke="#443C36" stroke-width="2.25836" stroke-linecap="round" stroke-linejoin="round"/>
<path d="M62.2817 67.7207C62.2817 67.7207 56.9004 70.1436 56.9004 74.3377" stroke="#443C36" stroke-width="2.25836" stroke-linecap="round" stroke-linejoin="round"/>
<path d="M61.1429 80.4648C61.1429 80.4648 56.9004 83.3684 56.9004 87.7238" stroke="#443C36" stroke-width="2.25836" stroke-linecap="round" stroke-linejoin="round"/>
<path d="M59.0231 109.662C59.0231 109.662 56.255 112.885 56.9002 117.644" stroke="#443C36" stroke-width="2.25836" stroke-linecap="round" stroke-linejoin="round"/>
<path d="M64.7721 122.594C64.7721 122.594 62.3847 129.827 66.9014 133.698" stroke="#443C36" stroke-width="2.25836" stroke-linecap="round" stroke-linejoin="round"/>
<path d="M74.8442 137.879C74.8442 137.879 73.8731 145.619 81.6774 147.403" stroke="#443C36" stroke-width="2.25836" stroke-linecap="round" stroke-linejoin="round"/>
<path d="M91.9043 145.406C91.9043 145.406 93.6206 151.546 98.489 152.301" stroke="#443C36" stroke-width="2.25836" stroke-linecap="round" stroke-linejoin="round"/>
<path d="M59.5906 92.4668C59.5906 92.4668 54.9642 94.6606 54.6416 100.468" stroke="#443C36" stroke-width="2.25836" stroke-linecap="round" stroke-linejoin="round"/>
<path d="M161.578 84.0938C161.578 84.0938 168.205 84.0131 168.527 90.7882" stroke="#443C36" stroke-width="2.25836" stroke-linecap="round" stroke-linejoin="round"/>
<path d="M165.053 98.0098C165.053 98.0098 168.85 99.1777 168.527 105.791" stroke="#443C36" stroke-width="2.25836" stroke-linecap="round" stroke-linejoin="round"/>
<path d="M164.333 112.082C164.333 112.082 168.888 114.695 168.546 119.841" stroke="#443C36" stroke-width="2.25836" stroke-linecap="round" stroke-linejoin="round"/>
<path d="M161.578 121.76C161.578 121.76 166.914 126.076 164.333 131.338" stroke="#443C36" stroke-width="2.25836" stroke-linecap="round" stroke-linejoin="round"/>
<path d="M156.623 132.73C156.623 132.73 158.836 136.925 157.23 140.151" stroke="#443C36" stroke-width="2.25836" stroke-linecap="round" stroke-linejoin="round"/>
<path d="M150.458 140.15C150.458 140.15 150.138 147.893 144.331 149.506" stroke="#443C36" stroke-width="2.25836" stroke-linecap="round" stroke-linejoin="round"/>
<path d="M137.878 145.957C137.878 145.957 134.006 151.764 126.586 152.732" stroke="#443C36" stroke-width="2.25836" stroke-linecap="round" stroke-linejoin="round"/>
<path d="M105.294 147.938C105.294 147.938 104.326 151.841 112.069 153.093" stroke="#443C36" stroke-width="2.25836" stroke-linecap="round" stroke-linejoin="round"/>
<path d="M143.282 38.0137C143.282 38.0137 149.28 40.3753 150.999 43.6467" stroke="#443C36" stroke-width="2.25836" stroke-linecap="round" stroke-linejoin="round"/>
<path d="M148.783 49.4453C148.783 49.4453 152.397 48.2032 155.3 50.7841" stroke="#443C36" stroke-width="2.25836" stroke-linecap="round" stroke-linejoin="round"/>
<path d="M154.671 57.872C154.671 57.872 156.426 56.8944 158.765 57.872" stroke="#443C36" stroke-width="2.25836" stroke-linecap="round" stroke-linejoin="round"/>
<path d="M68.6592 39.5202C68.6592 39.5202 74.1534 36.0327 78.3733 38.0878" stroke="#443C36" stroke-width="2.25836" stroke-linecap="round" stroke-linejoin="round"/>
<path d="M78.5771 31.7491C78.5771 31.7491 84.1779 28.2003 87.4783 31.7491" stroke="#443C36" stroke-width="2.25836" stroke-linecap="round" stroke-linejoin="round"/>
<path d="M94.124 28.0293C94.124 28.0293 95.2919 23.6836 101.099 23.6836" stroke="#443C36" stroke-width="2.25836" stroke-linecap="round" stroke-linejoin="round"/>
<path d="M110.294 25.8581C110.294 25.8581 112.068 21.5705 118.843 22.1447" stroke="#443C36" stroke-width="2.25836" stroke-linecap="round" stroke-linejoin="round"/>
<path d="M126.909 24.6523C126.909 24.6523 135.297 23.6844 139.491 29.4916" stroke="#443C36" stroke-width="2.25836" stroke-linecap="round" stroke-linejoin="round"/>
<path d="M63.4395 51.3287C63.4395 51.3287 65.3332 50.6576 67.4787 52.0094" stroke="#443C36" stroke-width="2.25836" stroke-linecap="round" stroke-linejoin="round"/>
<path d="M131.689 8.98438L133.021 26.3544C133.224 29.0192 121.581 32.0841 107.015 33.2004C92.4482 34.3167 80.4725 33.0617 80.266 30.3968L78.9336 13.0268" fill="#ABBCD3"/>
<path d="M131.689 8.98438L133.021 26.3544C133.224 29.0192 121.581 32.0841 107.015 33.2004C92.4482 34.3167 80.4725 33.0617 80.266 30.3968L78.9336 13.0268" stroke="#443C36" stroke-width="2.25836" stroke-linecap="round" stroke-linejoin="round"/>
<path d="M105.681 15.8351C120.249 14.7192 131.894 11.6544 131.69 8.98949C131.485 6.3246 119.51 5.06885 104.942 6.18468C90.3742 7.30052 78.7299 10.3654 78.934 13.0303C79.1382 15.6952 91.1134 16.9509 105.681 15.8351Z" fill="#FAF0E4" stroke="#443C36" stroke-width="2.25836" stroke-linecap="round" stroke-linejoin="round"/>
<path d="M105.928 19.0506L63.6416 14.7242L104.621 2L146.291 6.69738L105.928 19.0506Z" fill="#ABBCD3" stroke="#443C36" stroke-width="2.25836" stroke-linecap="round" stroke-linejoin="round"/>
<path d="M111.464 8.98438L123.885 13.0785L125.669 38.2462" stroke="#443C36" stroke-width="2.25836" stroke-linecap="round" stroke-linejoin="round"/>
<path d="M122.236 38.7139L128.876 38.2461L130.176 46.1794L126.627 51.0155L122.272 48.1119L122.236 38.7139Z" fill="#6D8CC0" stroke="#443C36" stroke-width="2.25836" stroke-linecap="round" stroke-linejoin="round"/>
<path d="M72.4812 126.328C72.4812 122.676 69.5195 119.714 65.8674 119.714C65.1286 119.714 64.422 119.84 63.7607 120.063C63.7607 120.001 63.7703 119.94 63.7703 119.875C63.7703 116.223 60.8087 113.262 57.1566 113.262C53.5045 113.262 50.5428 116.223 50.5428 119.875C50.5428 119.94 50.5493 120.001 50.5525 120.063C49.8911 119.84 49.1846 119.714 48.4458 119.714C44.7937 119.714 41.832 122.676 41.832 126.328C41.832 128.948 43.358 131.206 45.568 132.277C44.8421 133.339 44.413 134.623 44.413 136.007C44.413 139.659 47.3747 142.62 51.0268 142.62C53.54 142.62 55.7241 141.22 56.8436 139.155C57.8309 141.565 60.1989 143.266 62.9638 143.266C66.6159 143.266 69.5776 140.304 69.5776 136.652C69.5776 135.094 69.0355 133.664 68.1354 132.535C70.6712 131.609 72.4812 129.183 72.4812 126.328ZM57.1566 133.91C54.5724 133.91 52.4786 131.816 52.4786 129.232C52.4786 126.647 54.5724 124.554 57.1566 124.554C59.7408 124.554 61.8346 126.647 61.8346 129.232C61.8346 131.816 59.7408 133.91 57.1566 133.91Z" fill="#E699A5"/>
<path d="M57.2245 113.258C60.8766 113.258 63.8383 116.22 63.8383 119.872C63.8383 119.937 63.8318 119.998 63.8286 120.059C64.49 119.837 65.1965 119.711 65.9353 119.711C69.5874 119.711 72.5491 122.672 72.5491 126.325C72.5491 129.18 70.7359 131.606 68.2034 132.532C69.1035 133.661 69.6455 135.09 69.6455 136.648C69.6455 140.301 66.6838 143.262 63.0317 143.262C60.2668 143.262 57.8988 141.562 56.9116 139.152C55.7921 141.217 53.6079 142.617 51.0947 142.617C47.4426 142.617 44.4809 139.655 44.4809 136.003C44.4809 134.619 44.9068 133.335 45.6359 132.274C43.426 131.203 41.9 128.944 41.9 126.325C41.9 122.672 44.8616 119.711 48.5137 119.711C49.2525 119.711 49.9591 119.837 50.6204 120.059C50.6204 119.998 50.6108 119.937 50.6108 119.872C50.6108 116.22 53.5724 113.258 57.2245 113.258ZM57.2245 111C53.1692 111 49.7429 113.733 48.6879 117.456C48.6299 117.456 48.5718 117.456 48.5137 117.456C43.6228 117.452 39.6416 121.434 39.6416 126.325C39.6416 128.967 40.7837 131.393 42.7259 133.048C42.3936 133.99 42.2226 134.987 42.2226 136.003C42.2226 140.894 46.2037 144.875 51.0947 144.875C53.1756 144.875 55.1501 144.149 56.7083 142.875C58.3408 144.54 60.5991 145.521 63.0317 145.521C67.9227 145.521 71.9038 141.539 71.9038 136.648C71.9038 135.532 71.6877 134.426 71.2812 133.393C73.4557 131.745 74.8074 129.138 74.8074 126.325C74.8074 121.434 70.8263 117.452 65.9353 117.452C65.8773 117.452 65.8192 117.452 65.7611 117.452C64.7061 113.733 61.2799 111 57.2245 111Z" fill="#443C36"/>
<path d="M238.894 46.0727C247.091 42.036 245.882 38.0854 245.882 38.0854C243.959 35.9339 238.328 36.1293 238.328 36.1293C242.259 27.9707 237.632 23.011 237.632 23.011C237.632 23.011 230.864 23.4491 228.132 32.0837C228.132 32.0837 224.167 28.0808 221.292 28.3284C221.292 28.3284 217.703 30.3753 220.902 38.9335C220.902 38.9335 217.727 39.0621 217.132 40.5615C217.132 40.5615 219.307 47.3253 226.79 45.0879L223.934 52.2849C223.934 52.2849 223.87 53.3216 225.373 53.9075C226.869 54.5114 227.533 53.7128 227.533 53.7128L230.389 46.5157C234.301 53.2746 240.523 49.8425 240.523 49.8425C241.117 48.3431 238.894 46.0727 238.894 46.0727Z" fill="#EDB379"/>
<path d="M237.632 23.0111C237.632 23.0111 242.259 27.9708 238.328 36.1294C238.328 36.1294 241.734 36.0127 244.151 36.9718C244.84 37.2454 245.453 37.6098 245.882 38.0855C245.882 38.0855 247.091 42.0361 238.894 46.0728C238.894 46.0728 241.117 48.3432 240.522 49.8426C240.522 49.8426 237.528 51.4937 234.388 50.2479C233.003 49.6981 231.588 48.5848 230.388 46.5158L227.533 53.7129C227.533 53.7129 226.875 54.5037 225.394 53.9159C225.388 53.9136 225.379 53.91 225.373 53.9076C225.367 53.9052 225.358 53.9017 225.352 53.8993C223.871 53.3115 223.934 52.285 223.934 52.285L226.79 45.088C224.498 45.7719 222.708 45.6133 221.319 45.0624C218.18 43.8166 217.132 40.5616 217.132 40.5616C217.727 39.0622 220.902 38.9336 220.902 38.9336C217.703 30.3754 221.292 28.3285 221.292 28.3285C221.931 28.2734 222.622 28.4297 223.315 28.7045C225.735 29.6647 228.132 32.0838 228.132 32.0838C230.864 23.4493 237.632 23.0111 237.632 23.0111ZM238.465 20.912C238.159 20.7906 237.824 20.734 237.486 20.7559C237.186 20.7759 230.853 21.2722 227.22 28.3552C226.32 27.6999 225.253 27.0402 224.146 26.6012C223.064 26.1716 222.038 25.9935 221.096 26.0746C220.77 26.1013 220.455 26.2022 220.169 26.363C219.891 26.5231 218.466 27.4293 217.739 29.7408C217.1 31.7712 217.18 34.274 217.968 37.2038C216.476 37.7189 215.487 38.5658 215.028 39.7233C214.835 40.2091 214.815 40.7496 214.978 41.2482C215.034 41.423 216.4 45.5368 220.485 47.1574C221.372 47.5096 222.308 47.7143 223.29 47.7774L221.833 51.4479C221.745 51.6699 221.694 51.903 221.679 52.1433C221.661 52.407 221.669 53.1043 222.076 53.8976C222.407 54.5425 223.099 55.4314 224.517 55.9942L224.538 56.0026L224.559 56.0109C225.978 56.5737 227.091 56.4011 227.774 56.1583C228.615 55.8571 229.099 55.3549 229.267 55.1507C229.419 54.9682 229.543 54.7605 229.63 54.5416L231.086 50.8711C231.843 51.501 232.666 51.9906 233.553 52.3428C237.638 53.9634 241.454 51.9027 241.615 51.8136C242.072 51.5613 242.431 51.1553 242.624 50.6695C243.083 49.512 242.944 48.2178 242.211 46.8197C244.797 45.2285 246.568 43.4599 247.494 41.5438C248.549 39.3661 248.134 37.7263 248.041 37.4187C247.946 37.1068 247.784 36.8167 247.564 36.5735C246.935 35.8689 246.066 35.295 244.983 34.8654C243.9 34.4359 242.649 34.1787 241.543 34.035C243.755 26.3952 239.489 21.6897 239.285 21.4698C239.054 21.2219 238.774 21.0345 238.465 20.912Z" fill="#443C36"/>
<path d="M199.533 119.003C199.533 119.003 198.582 129.943 210.141 131.44C210.141 131.44 202.185 133.302 200.021 139.106C196.394 148.833 196.272 150.278 196.272 150.278C196.272 150.278 198.469 130.747 187.642 130.056C187.642 130.056 198.882 130.501 199.537 119L199.533 119.003Z" fill="#F9ECA0" stroke="#443C36" stroke-width="2.25836" stroke-linecap="round" stroke-linejoin="round"/>
<path d="M13.9755 61C13.9755 61 15.766 79.3798 1.6416 81.4833C1.6416 81.4833 12.2397 77.8022 15.7596 91.0039C19.4568 104.877 19.1342 108.425 19.1342 108.425C19.1342 108.425 14.6175 78.7442 27.845 77.7764C27.845 77.7764 14.7723 77.1311 13.9722 61H13.9755Z" fill="#F9ECA0" stroke="#443C36" stroke-width="2.25836" stroke-linecap="round" stroke-linejoin="round"/>
</svg>
