<svg width="39" height="44" viewBox="0 0 39 44" fill="none" xmlns="http://www.w3.org/2000/svg">
<rect y="5.5874" width="38.4127" height="38.4127" rx="6.46032" fill="#7187C0"/>
<rect x="3.49219" y="9.0791" width="31.254" height="31.254" rx="3.31746" fill="#B0BEE5"/>
<path d="M20.536 16.7617H13.0952V34.5712H16.8022V28.257H20.536C24.5922 28.257 27.0635 26.1252 27.0635 22.5093C27.0635 18.8935 24.5922 16.7617 20.536 16.7617ZM19.9719 25.3157H16.8022V19.703H19.9719C22.2014 19.703 23.3028 20.6474 23.3028 22.5093C23.3028 24.3712 22.2014 25.3157 19.9719 25.3157Z" fill="white"/>
<path d="M9.42822 5.5874H28.9838V10.3017C28.9838 11.266 28.2021 12.0477 27.2377 12.0477H11.1743C10.2099 12.0477 9.42822 11.266 9.42822 10.3017V5.5874Z" fill="black" fill-opacity="0.2"/>
<rect x="10.4761" y="4.36523" width="17.4603" height="6.63492" rx="1.74603" fill="#CFD1D1"/>
<path fill-rule="evenodd" clip-rule="evenodd" d="M19.1196 8.55556C21.4821 8.55556 23.3974 6.64033 23.3974 4.27778C23.3974 1.91523 21.4821 0 19.1196 0C16.757 0 14.8418 1.91523 14.8418 4.27778C14.8418 6.64033 16.757 8.55556 19.1196 8.55556ZM19.2065 4.36504C19.8815 4.36504 20.4288 3.81783 20.4288 3.14281C20.4288 2.4678 19.8815 1.92059 19.2065 1.92059C18.5315 1.92059 17.9843 2.4678 17.9843 3.14281C17.9843 3.81783 18.5315 4.36504 19.2065 4.36504Z" fill="#CFD1D1"/>
</svg>
