<?xml version="1.0" standalone="no"?>
<!DOCTYPE svg PUBLIC "-//W3C//DTD SVG 20010904//EN"
 "http://www.w3.org/TR/2001/REC-SVG-20010904/DTD/svg10.dtd">
<svg version="1.0" xmlns="http://www.w3.org/2000/svg"
 width="704.000000pt" height="704.000000pt" viewBox="0 0 704.000000 704.000000"
 preserveAspectRatio="xMidYMid meet">
<metadata>
Created by potrace 1.14, written by Peter Selinger 2001-2017
</metadata>
<g transform="translate(0.000000,704.000000) scale(0.100000,-0.100000)"
fill="#000000" stroke="none">
<path d="M3358 7035 c-2 -2 -15 -6 -28 -8 -57 -11 -88 -21 -145 -45 -33 -15
-61 -30 -63 -34 -2 -4 -8 -8 -14 -8 -47 0 -258 -229 -258 -280 0 -5 -3 -10 -8
-10 -18 0 -66 -193 -66 -272 l0 -36 -221 0 c-121 0 -234 -3 -251 -6 -81 -15
-156 -70 -194 -144 -12 -23 -25 -42 -29 -43 -3 0 -175 -2 -381 -3 -206 -2
-395 -6 -420 -10 -153 -24 -320 -92 -447 -182 -62 -44 -170 -147 -208 -198
-11 -15 -27 -35 -36 -45 -9 -10 -18 -22 -20 -27 -2 -5 -21 -39 -42 -77 -22
-37 -40 -73 -41 -80 -1 -6 -9 -28 -18 -48 -18 -41 -27 -67 -34 -101 -34 -158
-33 -107 -31 -2328 1 -1191 6 -2176 10 -2190 6 -21 20 -85 22 -100 0 -3 3 -9
6 -15 3 -5 12 -30 19 -55 21 -66 75 -174 122 -244 49 -71 188 -214 236 -242
17 -10 32 -22 32 -26 0 -4 6 -8 14 -8 8 0 16 -4 18 -8 6 -18 125 -74 224 -107
169 -58 60 -55 2378 -55 1874 1 2141 3 2211 16 211 41 393 135 541 281 69 68
164 190 164 212 0 6 4 11 8 11 7 0 27 43 29 64 1 5 6 12 11 15 11 7 70 178 77
225 3 17 9 60 13 96 8 70 7 4286 -1 4335 -14 77 -30 151 -35 160 -4 6 -7 17
-9 25 -1 8 -11 35 -22 60 -11 25 -22 52 -25 60 -46 119 -217 317 -352 407 -48
33 -181 103 -204 109 -3 0 -12 3 -20 7 -126 51 -206 59 -620 62 -206 2 -380 3
-385 4 -6 1 -16 16 -24 34 -19 44 -77 104 -125 129 -48 25 -93 29 -361 31
l-210 2 -3 45 c-13 211 -96 366 -279 520 -27 23 -185 100 -206 100 -10 0 -28
5 -40 11 -19 11 -250 23 -259 14z m201 -325 c120 -61 145 -218 50 -311 -106
-103 -281 -57 -321 86 -46 161 123 301 271 225z"/>
</g>
</svg>
