<svg xmlns="http://www.w3.org/2000/svg" viewBox="0 0 677.05 953.86"><title>professor3_1</title><g id="Layer_2" data-name="Layer 2"><g id="Draw_Layer" data-name="Draw Layer"><path d="M676.75,948.06c0-.74-.09-1.48-.13-2.22-.1-2.09-.17-4.22-.23-6.29v-.71c0-1.56-.1-3.12-.16-4.69V934l-.06-1.32v-.22c-.32-2.29-.55-4.5-.81-7.15-.79-7.84-1.49-15.07-2.16-22.11l-.07-.73c-.17-2-.32-3.9-.47-5.85l0-.64-.08-1.12q-.84-4.89-1.69-9.78l-1.12-6.51c-.32-1.86-.63-3.72-.91-5.58-.14-.54-.27-1.07-.41-1.6l-.06-.23c-.26-1-.49-1.9-.69-2.82-.24-1.09-.45-2.18-.67-3.27-.12-.63-.24-1.25-.37-1.88-.6-3-1.24-6-1.88-9l-.3-1.42-.48-2.2,0-.19c-.53-2.46-1-4.67-1.39-6.91l-.44-2.91-.09-.76a59.57,59.57,0,0,0-.86-6,37,37,0,0,0-1.29-4.28l-.16-.48c-.15-.43-.3-.86-.44-1.28-1.51-4.71-2.61-9.53-3.49-13.63l-.21-1c-.43-2-.87-4.07-1.48-6.07l-.14-.45c-.62-2-1.24-4-1.88-6s-1.25-4.28-1.8-6.39l-.06-.23-.06-.23,0-.13c-.53-2.05-1.09-4.17-1.75-6.22a95.72,95.72,0,0,0-3.51-8.93l-.61-1.41-.44-1.06c-1.45-3.48-3-7.08-4.63-10.49-.52-1.07-1.14-2.11-1.74-3.11l-.09-.15c-.37-.62-.74-1.24-1.1-1.87l-.81-1.45c-.65-1.18-1.33-2.4-2-3.58a105.34,105.34,0,0,0-9.92-13.2c-1.32-1.58-2.93-3.51-4.4-5.36s-3.09-4-4.81-6c-1.26-1.49-2.7-3-3.86-4.18l-.1-.1-.87-.9c-3.77-3.9-7.86-8-12.79-11l-1.91-1.15-.73-.44c-1.22-.72-2.43-1.45-3.64-2.19s-2.63-1.7-3.88-2.55l-.09-.06c-.69-.47-1.37-.94-2.07-1.4a74.8,74.8,0,0,0-12.93-6.33l-1.89-.78c-1.68-.71-3.9-1.61-6.08-2.38-2-.68-4.13-1.27-5.7-1.7l-.81-.23a141.1,141.1,0,0,0-14.49-3.37c-12.07-2-21.91-3.43-31-4.49-4.13-.48-8.72-1-14.43-1.5-1.34-.12-2.68-.26-4-.39l-.12,0c-3.41-.34-7.27-.73-11.05-.93-5.26-.28-10.21-.41-15.11-.41h-16.8c-4.72,0-9.19,0-13.67.1-4.66.09-9.31.37-13.8.64h-.18l-1.28.07c-.93.06-1.93.08-3.23.08H405.07c-1.63,0-3.22,0-4.79.09a16.22,16.22,0,0,0-7,1.76,12.1,12.1,0,0,0-4.88,5.15,38.27,38.27,0,0,1-3.27,4.82l-.41.53-.2.25-.18.24-.62.81-.81,1-1,1.2.35-.38-.71.82c-.76,1-1.51,1.93-2.23,2.92a71.24,71.24,0,0,1-5.85,6.64c-.87.85-1.8,1.67-2.7,2.46l-.1.09c-.72.62-1.43,1.25-2.12,1.89l-.86.81c-.72.68-1.43,1.35-2.17,2a44,44,0,0,1-6.43,3.53c-1.62.61-3.07,1.09-4.45,1.47a46.82,46.82,0,0,1-5.21,1c-1.87.18-3.92.28-6.29.28-1,0-1.93,0-2.89,0-2.27-.06-5.68-.17-9.1-.53-1.31-.23-2.64-.52-3.92-.8l-.16,0-.13,0-.68-.15c-.94-.2-1.93-.38-2.76-.52l-.24,0-.3,0-.2,0c-.8-.14-1.62-.28-2.42-.46A79.73,79.73,0,0,1,310,719.08c-1-.55-2.06-1.19-2.89-1.71s-1.77-1.1-2.71-1.62l-.21-.11c-1.57-.86-3.31-1.81-4.92-2.88a27,27,0,0,1-2.22-2.37l-.93-1.23-.94-1.23c-.89-1.27-1.72-2.58-2.49-3.81a7.91,7.91,0,0,0,.11-1.37,10.86,10.86,0,0,0-3.16-7.62A11,11,0,0,0,282,692l-.37,0-.32,0c-1.34-.06-2.61-.13-3.87-.13a27.73,27.73,0,0,0-3.56.21c-1.85.25-3.64.54-5.8.88-1.12.19-2.25.37-3.38.54l-4.95.63-.42.05-6.51.88c-2.44.29-5,.51-7,.69-2.37.2-4.81.42-7.18.7-4.14.49-8.32,1.13-12.37,1.74l-.2,0-.13,0-5.18.77-3.19.45c-4.31.55-8.71,1-13.07,1.35-2.16.17-4.36.27-6.61.36l-.81,0c-2,.09-4.14.24-5.84.36l-2.09.15c-2.13.14-4.27.25-6.4.36-2.84.15-5.78.3-8.63.52-4.59.38-9.2,1.11-13.66,1.82l-1.23.2-1,.15-2.11.33-1.11.15-1.07.14c-2.23.28-4.46.54-6.68.8l-1.18.14c-2.34.27-4.69.54-7,.85-7.13.93-12.56,1.83-17.61,2.9a131.42,131.42,0,0,0-14.67,4.2l-3.35,1.1-1.43.47c-3.24,1.05-6.4,2.08-9.53,3.17L89,720.16c-5.84,2-11.82,4.1-17.65,6.53-7.41,5.86-15.41,11.11-21.71,18.21C47,748.76,44,752.39,41,756q-1.41,2.06-2.73,4.14a96.66,96.66,0,0,0-4.15,9.34c-1.49,3.93-2.67,8.14-3.7,11.86l-.59,2.1c-1,3.54-1.95,7.48-2.92,12-.74,2.06-1.35,3.91-1.86,5.67-.91,3.06-2,6.7-2.84,10.52-.33,1.41-.73,3-1.22,4.73A40,40,0,0,0,20,822l-.19,1.2a99,99,0,0,0-1.32,10.53c-.07,1.24-.08,2.5-.09,3.72,0,1.84,0,3.71-.24,5.53-.26,2-.55,4.35-.66,6.74,0,1,0,2,0,3v.13c0,1.38,0,2.81-.15,4.19a80.77,80.77,0,0,0-.81,8.06c-.09,2.23-.1,4.52-.1,6.73v62.91a10.19,10.19,0,0,0,.18,1.9l-.24.33c.38,4.4.7,8.69.95,12.77a10.31,10.31,0,0,0,7.48,3.3H677.05C677,951.34,676.87,949.7,676.75,948.06Zm-7-24.66,0,0a3.32,3.32,0,0,0,.13-.9.67.67,0,0,0,.18-.07v.42l0,.47Z" fill="#b5b5f1"/><path d="M290.81,709.17c-.76-.92-1.54-1.81-2.33-2.71l-.74-.76.36.36-1-1.12-.84-.93-.65-.75-.19-.22-.2-.24-.43-.48a37.94,37.94,0,0,1-3.44-4.48,11.81,11.81,0,0,0-5.06-4.74,17.1,17.1,0,0,0-7.09-1.46c-1.57,0-3.17,0-4.8.06H264l-.62,0h-.62l-7.05.2-1.32,0-.68,0-.66,0-1.31.05c-1.31,0-2.31,0-3.25,0l-1.28,0H247c-4.52-.12-9.19-.24-13.87-.19-4.5.06-9,.18-13.72.31l-1.65,0-15,.43h-.2c-4.92.15-9.87.42-15.15.84-3.79.3-7.65.79-11.06,1.22h-.11l-4,.5c-5.72.68-10.3,1.27-14.44,1.85-9.07,1.28-18.9,2.92-30.94,5.18-5,1-9.9,2.31-14.43,3.64l-.81.24c-1.56.46-3.71,1.08-5.67,1.79-2.16.79-4.35,1.72-6,2.43l-1.87.8a76.58,76.58,0,0,0-12.77,6.4c-.69.45-1.36.92-2,1.39l-.09,0c-1.23.85-2.5,1.73-3.81,2.54S77,723,75.78,723.76l-.71.43c-.63.38-1.26.76-1.88,1.15-.35.22-.68.44-1,.67-1.81,1.45-3.65,2.86-5.5,4.26-2.13,1.89-4.1,3.89-6,5.85l-.84.88-.1.1c-1.12,1.17-2.53,2.63-3.74,4.09-1.66,2-3.21,4-4.63,5.88s-3,3.67-4.25,5.21a101,101,0,0,0-9.53,12.82c-.67,1.14-1.31,2.32-1.93,3.46l-.76,1.4c-.34.61-.69,1.21-1.05,1.81l-.08.14c-.57,1-1.16,2-1.65,3-1.58,3.29-3,6.75-4.32,10.09l-.4,1-.57,1.36A87.13,87.13,0,0,0,23.61,796c-.6,2-1.09,4-1.56,6l0,.12-.05.22-.06.22c-.49,2-1,4.1-1.61,6.12s-1.13,3.83-1.69,5.75l-.12.44c-.55,1.91-.93,3.89-1.29,5.8l-.18.93a131.68,131.68,0,0,1-3.08,13l-.39,1.23-.15.46a34,34,0,0,0-1.16,4.09,56.89,56.89,0,0,0-.68,5.71l-.06.73-.35,2.77c-.31,2.14-.72,4.25-1.18,6.6l0,.18-.41,2.1-.26,1.36c-.55,2.86-1.09,5.71-1.6,8.58-.11.6-.21,1.19-.31,1.79q-.27,1.56-.57,3.12c-.17.88-.38,1.75-.6,2.7l-.06.22c-.12.51-.24,1-.35,1.53Q5.44,880.39,5,883l-.92,6.21q-.7,4.66-1.39,9.33l0,1.06,0,.62c-.09,1.85-.18,3.7-.29,5.56l-.05.69c-.44,6.7-.92,13.58-1.47,21-.17,2.52-.33,4.62-.57,6.81v1.57c0,1.49,0,3,0,4.46v.67c0,2,0,4,0,6,0,.71,0,1.41-.06,2.11-.06,1.56-.12,3.13-.14,4.71l82.82-2.47,183.28-5.47c.78-1.92,1.56-3.83,2.33-5.75l.09-3.95c2-74.72,6.88-150.47,26.18-223C293.26,711.85,292,710.44,290.81,709.17ZM6.34,925.55l-.3,0v-.85a.48.48,0,0,0,.18.06,3.77,3.77,0,0,0,.16.85Z" fill="#b5b5f1"/></g><g id="Draw_Layer-2" data-name="Draw Layer"><path d="M647.24,709.13c0,.06.07.13.11.2l.37-.37-.14-.26c-.11.15-.22.29-.34.43Z" fill="#404040"/><path d="M357.34,567.5h0l-.8,1.39-1.25,2.17-.18.3-.18.28c-1,1.59-2,3.22-3.11,5.14l.11-.09.84-.67.48-.4.3-.24L354,575l.66-.54.54-.44.57-.47.23-.2.43-.36,1.27-1,.89-.72.55-.41.1-.07.6-.45c.43-.32.83-.67,1.23-1l.52-.48.14-.13.14-.14a1,1,0,0,0,.15-.17.69.69,0,0,0,.09-.31.4.4,0,0,0-.1-.18.9.9,0,0,0-.19-.14l-.15,0-.18,0-.31,0-.74-.07c-1,0-2-.06-3-.07h-.12Z" fill="#404040"/><path d="M392.83,541a41.06,41.06,0,0,0-7.3.77,37.75,37.75,0,0,0-6.24,1.74c-3,1.12-6.19,2.55-8.11,3.4L371,547l-.89.39-1.06.47-1.06.46c-2.29.88-4.31,1.57-6.18,2.1s-4.05,1-6.66,1.5c-3,.6-5.9,1.17-8.86,1.74l-5.11,1c-6,1.18-12.17,2.51-18,3.76l-.58.12-.25.06-.4.1-1.76.36q-4.06.88-8.15,1.73l-2.6.54-.21.06-.14,0c-3.12.64-6.28,1.29-9.46,2.12a41.34,41.34,0,0,0-6.46,2.31,36.23,36.23,0,0,0-4.39,2.37l.08-.43.29-1.59a4.76,4.76,0,0,0-.47-3.5,4.57,4.57,0,0,0-2.72-2.1,4.34,4.34,0,0,0-1.22-.18,4.63,4.63,0,0,0-4.42,3.38c-.37,2-.65,3.69-.9,5.32h0l.2.05,2.34,0h.77c2.74-.06,4.65-.11,6.18-.17l3.14-.16,3.45-.25c1.06-.09,2.12-.2,3.18-.31l1.76-.21.34,0,.35,0,.26,0,.48-.05.45,0h.12l1-.09,1.73-.11,3.41-.2,1.15,0,.38,0h47l.14,0,.08,0h.14c1,0,2,0,3,.07l.74.07.31,0,.18,0,.15,0a.9.9,0,0,1,.19.14.33.33,0,0,1,.09.18.58.58,0,0,1-.08.31,1,1,0,0,1-.15.17l-.14.14-.14.13-.52.48c-.4.35-.8.7-1.23,1l-.6.45-.1.07-.55.41-.89.72-1.27,1-.43.36-.23.2-.57.47-.54.44L354,575l-.44.36-.3.24-.48.4-.84.67-.11.09-.06.11-.21.17-1.25,1-.7.54-.5.4-.38.3-.91.7-1.12.88c-.32.25-.64.5-1,.75l-.15.12-.46.34-.36.28-.35.26-.33.25-.34.26-.34.26-.43.33-.19.14q-.58.43-1.2.84l-.1.08-.66.45-.67.46-.43.29-.25.17-.37.26-.26.18-1.08.77-.18.13-.28.2-.12.09-.08.06L337,588l-.45.35-.13.1-.2.16-.44.35-.13.09-.44.34-.43.33-1,.72L333,591l-1.72,1.3-.83.63-.71.55-1.12.85-1.58,1.21-.43.31-.27.2-.52.39-.12.1-.76.56-.11.07-.24.17-.15.11-.45.32-.19.13-.3.21-.3.22q-.66.43-1.29.9l-.19.14-.25.17-.93.66-1.38.94-.73.51-.11.08-.09.07-.36.26-.34.24-.21.14-.13.09-.32.22-.31.21-.32.22-.13.08-.23.15-.45.3-.18.12-1.3.86-1,.63-.3.19-.68.4-.59.35c-.91.55-1.82,1.12-2.71,1.7l-.34.23-.35.22-.28.18-.15.1-.23.15-.67.45-.18.13-.47.31-.66.45-.66.45-.28.19-.39.28-.41.27-.25.17-1.33.9-1.33.89-.53.38-.14.11-.19.14-.44.32-.64.47-.61.46c-.4.3-.8.61-1.19.93l-.58.48-.59.48-.32.28-.25.22-.4.36-.13.12-.33.31-.22.2-.52.47c-.75.69-1.5,1.36-2.25,2l-.75.63-.36.3-.46.38-.62.53-1.08.92-.15.13c-.38.33-.77.66-1.13,1l-.57.53-.29.27-.3.28-1.2,1.16-.12.14-.2.2-.11.11-.1.11-.18.18-.26.28-1.12,1.2-.35.37-.77.82c-.47.49-.91,1-1.41,1.44l-.18.19,0,0,0,0h-.12c0,.2,0,.29-.1.35l-.09.08-.19.15-.09.07-.08.06a1.85,1.85,0,0,1-.45.26,1.59,1.59,0,0,1-.38.09,3.21,3.21,0,0,1-.39-.05,2.17,2.17,0,0,1-.3-.08.76.76,0,0,1-.19-.12.5.5,0,0,1-.21-.29,3.32,3.32,0,0,1,0-.42l0-.19h0v-.1l0,0c-.18,1.28-.24,2.57-.29,3.52-.11,2.85-.29,5.89-.44,8.34l0,.55-.08,1.31-.24,4.1c-.22,4.21-.38,8.86-.47,14.21q0,3.4-.07,6.81c0,1.77.1,3.58.21,5.33l.08,1.27c.36,6,.79,10.71,1.36,15.21l0,.12.05.43.08-.56a51,51,0,0,0,2.94,13.31,31,31,0,0,0,3.21,6.23,42.78,42.78,0,0,0,5.19,6.19,97.69,97.69,0,0,0,11.13,9.45c1.46,1.11,3.14,2.27,5.28,3.65,1.32.86,2.75,1.62,4,2.28l1.4.75a65.25,65.25,0,0,0,13.5,5.8l.21.05c2.28.65,4.35,1.22,6.51,1.7a50.09,50.09,0,0,0,7.22,1c.63,0,1.26,0,1.89,0a36.92,36.92,0,0,0,11.17-1.83l.44-.14c1.79-.55,3.89-1.22,5.9-2a45.64,45.64,0,0,0,6.43-2.94,56.84,56.84,0,0,0,11.63-8.37,89.15,89.15,0,0,0,8-9l.58-.69c1.4-1.74,2.79-3.59,4.38-5.86a37.15,37.15,0,0,0,3.32-5.46,103,103,0,0,0,5.22-12.47c.52-1.5.92-3.07,1.28-4.55l0-.15c.17-.71.32-1.32.48-1.93.5-1.89,1-4,1.43-6.36.11-.55.23-1.11.34-1.68l.14-.65.12-.61c.26-1.2.49-2.32.7-3.43.16-.86.31-1.72.46-2.58l.08-.43c.17-1,.34-2,.53-3,.43-2.25.76-4.52,1-6.94.11-1,.23-1.93.35-2.89.17-1.31.33-2.58.46-3.85.22-2.32.33-4.69.41-6.72.07-1.62.22-3.25.38-4.93.06-.59.12-1.17.17-1.74.54-6.11.52-12.31.52-18.31V623c0-2.06,0-4.11,0-6.16a20.78,20.78,0,0,1,.2-2.5l.08-.72c.12-1.11.23-2.21.3-3.32.17-2.27.21-4.55.24-6.51,0-.64,0-1.28,0-1.91,0-1.43,0-2.88.09-4.26.1-2,.28-4.09.55-6.28v-.1l0-.21c.4-3.37.81-6.86,1-10.23,0-.48,0-1,0-1.47,0-1.12.07-2.28.18-3.36l.13-1.4v-.14l0-.22c.11-1.08.22-2.17.3-3.27.06-.78.1-1.57.14-2.37v-.29c0-.88.09-1.75.17-2.62s.16-1.63.26-2.44l0-.35c.12-1.05.24-2.11.32-3.17.05-.57.09-1.14.12-1.72.07-1.1.14-2.27.29-3.43.27-2,.48-3.86.62-5.57a4.52,4.52,0,0,0-1.33-3.23,4.65,4.65,0,0,0-3.24-1.35,4.45,4.45,0,0,0-2.15.56,8.08,8.08,0,0,0-3.13-2.41,19.44,19.44,0,0,0-8.11-1.47Z" fill="#c48663"/><path d="M361.48,560.75a26.66,26.66,0,0,0-2.75,4.33c-.47.8-.94,1.6-1.4,2.41h0l-.8,1.39-1.25,2.17-.18.3-.18.28c-1,1.62-2,3.28-3.17,5.25l-.09.07c-.36.6-.71,1.2-1.06,1.81-1.3,2.23-2.54,4.5-3.77,6.78l-.3.55-.51.59-1.1,1.23-.8.91c-.31.38-.61.78-.9,1.19s-.4.92-.57,1.39a3.69,3.69,0,0,0,.37,3,4.66,4.66,0,0,0,.13.82,4.06,4.06,0,0,0,1,1.77l.3.26c-.21.5-.42,1-.62,1.5a9.62,9.62,0,0,0-1,3.28,4.65,4.65,0,0,0,.51,2.64c.07.12.14.24.2.36a4.14,4.14,0,0,0,1.44,1.44c2.67,2,6-.16,8.17-1.85a56.06,56.06,0,0,0,7-6.43,4,4,0,0,0,3.22-2.88,3.57,3.57,0,0,0,.13-.84l.09-.1a48.57,48.57,0,0,0,3.7-5.09,4,4,0,0,0-1.44-5.48,3.76,3.76,0,0,0-1.92-.53c.87-1.56,1.8-3.08,2.77-4.58.64-1,1.27-2,1.93-2.91.94-1.37,2.19-2.79,2.54-4.44a4.1,4.1,0,0,0-1-3.89,3.93,3.93,0,0,0-1.76-1,3.88,3.88,0,0,0-.92-.14c.24-.54.47-1.09.7-1.63a3.75,3.75,0,0,0-.4-3.08,4.23,4.23,0,0,0-2.39-1.84l-.1,0a2.93,2.93,0,0,0-1-.17,4,4,0,0,0-2.86,1.2Z" fill="#c48663"/><path d="M388.59,549.86a4.27,4.27,0,0,0-2.39,1.84,46.35,46.35,0,0,0-3.17,5.23c-.72,1.3-1.43,2.61-2.14,3.91-1,1.77-1.84,3.58-2.73,5.4s-1.92,3.91-2.77,5.92c-1.09,2.58-2.17,5.17-3.26,7.75-.78,1.84-1.43,3.75-2.12,5.62s-1.3,3.44-1.91,5.17q-.8,2.22-1.57,4.44l-1.75,3.14c-1,1.74-1.91,3.49-2.86,5.23-.48.88-.89,1.79-1.32,2.69-.64,1.28-1.27,2.57-1.88,3.87a4.24,4.24,0,0,0-.4,3.08,4.08,4.08,0,0,0,1.76,2.35c-.44,1.63-.84,3.27-1.26,4.9-.19.77-.38,1.54-.56,2.31-.1.47-.2.95-.31,1.42-.16.76-.26,1.52-.35,2.28a6.74,6.74,0,0,0,.35,2,4,4,0,0,0,3.48,2.92c-.88,1.64-1.76,3.29-2.6,5a57.8,57.8,0,0,0-4.78,13.27,4,4,0,0,0,7.72,2.12,56,56,0,0,1,2.65-8.58c.91-2.06,1.91-4.11,3-6.09s2.08-3.9,3.2-5.8q3.48-5.9,6.91-11.83c2.31-4,4.54-8.08,6.77-12.14,2-3.62,3.76-7.38,5.62-11.08.6-1.21,1.11-2.47,1.67-3.7q1.34-3,2.68-5.93c1.48-3.29,2.75-6.69,4.1-10,2.37-5.84,4.32-11.84,6.5-17.75a11.83,11.83,0,0,0,1-2.93,6.05,6.05,0,0,0,0-2.61,4.73,4.73,0,0,0-1.33-2.12,4,4,0,0,0-6.28.8c-1.3,2.13-2.36,4.39-3.49,6.61-.84,1.66-1.69,3.31-2.51,5q-3.23,6.45-6.4,12.9c-3.78,7.67-7.47,15.37-11.29,23-1,2-2,4-3.08,6,.48-1.44,1-2.89,1.45-4.33.26-.79.53-1.58.8-2.36,1.58-2.8,3.16-5.61,4.58-8.49,1.94-3.94,3.85-7.89,5.6-11.91q2.92-6.74,5.75-13.5c.57-1.37,1.14-2.75,1.7-4.12a38.83,38.83,0,0,0,2.18-5.94,4.06,4.06,0,0,0-1.84-4.51,4,4,0,0,0-2-.55,4.15,4.15,0,0,0-1.05.14Z" fill="#c48663"/><path d="M341,567.42H309.75l-1.15,0-3.41.19-1.73.11-1,.09h-.12l-.45,0-.48.05-.27,0-.34,0-.34,0-1.76.21c-1.06.11-2.12.22-3.18.31s-2.3.18-3.45.25-2.09.11-3.14.16c-1.53.06-3.44.11-6.18.17h-3.11l-.2-.05H279l-.24,0a1.64,1.64,0,0,0-.39.11l-.12.06-.13.1-.19.15-.13.19-.13.26-.07.18a4.2,4.2,0,0,0-.17.7l-.08.41,0,.26,0,.15,0,.19,0,.19v.12h0a.27.27,0,0,0-.27.27v12.93c0,1.2,0,2.38,0,3.56,0,.51,0,1,0,1.49l0,.56,0,.36c0,.24,0,.49,0,.73-.06,1.1-.12,2.2-.19,3.29l0,.36c-.07.46-.13.92-.18,1.39-.12,1-.2,2.05-.26,3.23-.09,2-.1,4.08-.1,6.08v1.94c0,.24.05.46.09.69l0,.2.05.29,0,.18.12.68c.07.36.13.72.18,1.09s.11,1,.15,1.47.08,1.06.11,1.59c.05,1,.07,2.06.08,3.09,0,2,0,4.06,0,6.1v8.46l.07-.11.07-.14-.08.37a3.39,3.39,0,0,0,0,.43.5.5,0,0,0,.21.29.62.62,0,0,0,.19.12,1.32,1.32,0,0,0,.3.07,2,2,0,0,0,.39.05,1.23,1.23,0,0,0,.38-.08,2,2,0,0,0,.44-.26l.09-.06.09-.07.19-.15.09-.08c.07-.06.09-.15.09-.38a.27.27,0,0,0,.13,0c.59-.57,1.1-1.11,1.65-1.68l.76-.82.36-.37,1.12-1.2.26-.28.18-.19.1-.1.11-.11.19-.2.13-.14,1.2-1.16.3-.28.29-.27.56-.53c.37-.35.76-.67,1.14-1l.15-.13,1.07-.92.63-.53.46-.38.36-.3.75-.63c.75-.67,1.5-1.34,2.25-2l.52-.47.22-.21.33-.3.13-.12.4-.36.25-.22.32-.28.59-.48.58-.48c.39-.32.79-.63,1.19-.93l.61-.46.64-.47.44-.32.18-.14.15-.11.53-.38,1.33-.89,1.33-.9.25-.17.41-.27.4-.28.27-.19.66-.45.66-.45.47-.31.19-.13.66-.45.23-.15.16-.1.27-.18.35-.22.34-.23c.9-.58,1.8-1.14,2.72-1.7l.59-.35.67-.4.31-.19c.34-.2.68-.41,1-.63l1.3-.86.19-.12.44-.3.23-.15.13-.08.32-.22.31-.21.32-.22.13-.09.21-.14.34-.24.36-.26.1-.07.1-.08.73-.51,1.38-.94.93-.66.25-.17.19-.14q.63-.47,1.29-.9l.3-.22.3-.21.19-.13.45-.32.15-.11.24-.17.11-.07.76-.56.12-.1.52-.39.27-.2.43-.31,1.58-1.21,1.11-.85.72-.55.83-.63L333,591l.76-.58,1-.72.44-.33.44-.34.12-.09.45-.35.2-.16.13-.1L337,588l.15-.11.08-.06.13-.09.28-.2.17-.13,1.08-.77.26-.18.37-.26.25-.17.43-.29.67-.46.66-.45.11-.08c.4-.27.8-.55,1.19-.84l.19-.14.43-.33.34-.26.34-.26.32-.25.35-.26.37-.28.46-.34.15-.12,1-.75,1.12-.88.91-.7.38-.3.5-.4.69-.54,1.25-1,.21-.17c1.16-2,2.17-3.63,3.18-5.24l.18-.29.18-.3,1.25-2.17.8-1.39-.12-.06-.14,0H341Zm-62.32,2.35v0h.7c-.15.71-.27,1.51-.44,2.73h-.06c-.16,0-.23,0-.26.13l.16-.61a.29.29,0,0,0,0-.21.31.31,0,0,0-.17-.13h-.06c-.11,0-.14,0-.16,0a.24.24,0,0,0-.14.18c-.07.44-.14.88-.2,1.32h0a.22.22,0,0,0-.19.19l0,.16a4.54,4.54,0,0,0-.09.51V574q0-.48.06-1l.06-.74c0-.33.06-.59.1-.85l.06-.32a4,4,0,0,1,.21-.83,1.56,1.56,0,0,1,.14-.27l.09-.07a1.43,1.43,0,0,1,.27-.16Zm-.27,7.05v-2.36l.06-.44.06-.45v-.07a2.72,2.72,0,0,0,0,.28v.4l0,.43,0,.73,0,.73,0,.75Zm-.9,25v-2.3c0-.32,0-.65,0-1v-2.3c0-1,0-2,0-3,0-1.25,0-2.49,0-3.74l0-1.24,0-1.64c0-.38,0-.76,0-1.14l0-.63v-.64l0-.63c0-.63,0-1.25.05-1.87,0-.18,0-.23,0-.29l.06-1.07,0,6.32v8.75c-.13,2.26-.23,4.38-.31,6.44Zm-.64,8,0-.11-.05-.25c-.05-.24-.1-.48-.13-.73s0-.44-.05-.66v-1.37s.06.07.14.08v.43l.06,1.06c0,.55,0,1,.06,1.55Z" fill="#7b533d"/></g><g id="Draw_Layer-3" data-name="Draw Layer"><path d="M309.69.19h-.05l-.43,0h-.48l-.33,0h-.14q-3.54.2-7.08.54h-.09c-1.34.14-2.7.29-4,.47a170.05,170.05,0,0,0-38.6,9.66q-4.78,1.85-9.45,4l-.09.05-.49.22-.33.15-.26.12-.52.24-.07,0a172.4,172.4,0,0,0-27,15.79q-2.11,1.53-4.17,3.12l-.06,0-.45.35-.18.15-.33.25-.32.25-.19.16-.47.36,0,0a171.92,171.92,0,0,0-15.54,14l0,0-.42.42-.09.1-.36.37-.14.15-.32.33-.18.19-.28.28-.21.23-.23.25-.26.27-.19.21c-.1.1-.2.2-.29.31l-.16.17-.33.35a.69.69,0,0,0-.11.13l-.36.38-.09.1-.39.43,0,.05-.43.47v0c-.44.48-.87,1-1.31,1.46l0,.05-.35.4-.13.15-.26.3-.22.26a1.46,1.46,0,0,0-.16.19c-.11.12-.22.24-.32.37l-.08.08L189.2,60.6a1.83,1.83,0,0,1-.13.16l-.21.25a2.65,2.65,0,0,1-.21.26l-.24.31-.18.21-.26.33-.16.2-.29.36a1.83,1.83,0,0,1-.13.16c-.1.13-.19.26-.3.39l-.12.15-.31.4-.11.13c-.1.14-.21.28-.32.41l-.09.13-.34.44a.86.86,0,0,0-.07.1l-.35.44a.61.61,0,0,1-.07.1L185,66l-.07.1-.33.44-.08.11-.33.45-.08.1h0l-.31.42-.13.18-.24.32-.2.28-.15.21-.28.39-.08.11A170.88,170.88,0,0,0,166.35,97h0v0h0v0h0v0c-1.09,2.4-2.13,4.81-3.11,7.26h0l-.18.43-.09.24-.12.3-.15.38-.08.2c-.06.17-.13.34-.2.51l0,.09-.13.33c0,3.45.13,6.61.26,9.58.08,1.9.23,3.83.38,5.7.17,2.26.35,4.6.42,6.91.13,4.53.52,9,.88,12.69.1,1,.15,2,.2,3s.12,2,.22,3c.15,1.51.39,3,.62,4.49l.23,1.51c.24,2.12.58,4.26.92,6.33l.13.85c.15,1.14.32,2.27.48,3.4.07.66.11,1.32.15,2s.09,1.25.15,1.87c.13,1.29.32,2.59.49,3.71a35.6,35.6,0,0,1,.13,3.57c0,.62,0,1.23,0,1.84a38.49,38.49,0,0,0,.39,4.51c.07.51.19,1,.3,1.52.06.25.12.51.17.76.06,2.15,0,4.34,0,6.47,0,1.08,0,2.16,0,3.23v5c0,5.21,0,10.59.05,15.89,0,3.67.16,6.64.38,9.34.06.82.14,1.65.22,2.47s.15,1.52.22,2.28c.12,1.53.15,3.1.17,4.6v.56c0,3.35.19,6.29.4,9s.64,5.52,1.06,8.2l.28,1.79v0c.77,5.5,1.8,11,2.8,16.4.38,2.09.77,4.17,1.15,6.26L176,278c.16,1,.32,1.92.5,2.87.21,1.19.43,2.38.65,3.57l.44,2.37c.31,1.73.68,3.73,1.14,5.69s1,3.73,1.56,5.52q1.16,3.68,2.36,7.35l.85,2.61a3.78,3.78,0,0,0,0,1.92,4.09,4.09,0,0,0,3.89,2.95,3.68,3.68,0,0,0,1-.15,73.41,73.41,0,0,0,13-4.57,47.83,47.83,0,0,0,5.14-3.11c2-1.32,3.94-2.65,5.89-4,7.16-5,13.51-10.7,20.48-17.12,2.94-2.71,5.94-5.59,8.93-8.55l.22-.21c3-2.93,6-6,8.87-9.1,1.45-1.6,3-3.37,4.72-5.4,1-1.21,2-2.49,3-3.73l.94-1.23a111.16,111.16,0,0,0,7.51-11.19c1.11-1.85,2.2-3.72,3.27-5.59,1.2-2.08,2.28-4.2,3.19-6,.62-1.23,1.2-2.51,1.76-3.75.26-.58.52-1.16.79-1.74l2.85-6.16c1.12-2.41,2.16-4.75,3.2-7.09.58-1.32,1.16-2.64,1.76-4l.86-1.93c1.5-3.36,3.06-6.82,4.81-10.12l.84-1.58.84-1.58c.59-1.09,1.28-2.15,1.95-3.17l.36-.55c.76-1.16,1.63-2.39,2.74-3.86a65,65,0,0,1,4.36-5,56.26,56.26,0,0,1,5.26-4.66,87.09,87.09,0,0,1,18-10.27,142.56,142.56,0,0,1,15-4.92c2.47-.71,5-1.31,7.45-1.89l1.18-.28c2.14-.5,4.32-.92,6.44-1.32l2-.38c1.88-.37,3.83-.62,5.71-.86l1.59-.21h0l1.59-.12c4.43-.4,9-.81,13.53-.81h1.07l2.48,0,2.47,0,.82.06.4.05,2.92.27c2.43.22,4.76.5,7.55.84,4.71.7,8.34,1.36,11.75,2.13l3.14.71c1,.23,2.09.47,3.09.79,2,.64,4.2,1.35,6.29,2.19a36,36,0,0,1,4.34,2.27c.94.59,1.85,1.25,2.74,1.9l.31.22c1,.72,2,1.46,3,2.21,3.44,2.78,6.76,5.82,10,8.76,2.84,2.61,5.77,5.3,8.79,7.81l.19.16c3.35,2.78,6.82,5.67,10.14,8.62,1.42,1.26,2.86,2.65,4.29,4.13s3,3.27,4.38,4.83l.16.2c2.88,3.72,5.86,7.56,7.84,11.88a49.7,49.7,0,0,1,2.7,10c.2,1.17.36,2.34.51,3.51l.07.49c.14,1.17.28,2.43.34,3.72a38,38,0,0,1-.09,4.67c-.07,1.07-.18,2.14-.28,3.21l-.05.55c-.3,2-.65,3.84-1,5.64-.36,1.61-.8,3.22-1.22,4.79l-.3,1.13c-.27,1-.55,2-.83,3a82,82,0,0,0-2.18,9.1c-.47,2.9-1.1,6.86.26,10.23a13.66,13.66,0,0,0,.84,1.76,8.76,8.76,0,0,0,.85,1.15l.3.38a8.16,8.16,0,0,0,1,1l.26.25a14.88,14.88,0,0,0,4.17,2.62l.21.09a29.72,29.72,0,0,0,3.1,1.21c.61.19,1.22.36,1.84.54l1.3.38c1.79.53,3.52,1.17,5.55,2,.39.15.78.32,1.17.49l.16.08c3.29,1.49,6.7,3,9.92,4.82,1.5.83,3.29,1.8,5.12,2.64,1.43.65,2.92,1.25,4.35,1.82l2,.79c1.34.57,2.91,1.22,4.51,1.76a14.89,14.89,0,0,0,4.18.7c1.33,0,2.66,0,4,0h.8a37.46,37.46,0,0,1,4.38.28l2.05.37,2.24.41c1.13.18,2.14.33,3.09.44l.21,0c.29,0,.57.07.86.08l.5,0a17.28,17.28,0,0,0,2.47-.23,4.21,4.21,0,0,0,1.11-.34,7.67,7.67,0,0,0,1.86-1,10,10,0,0,0,1.72-1.54,15.29,15.29,0,0,0,1.89-2.57,12.52,12.52,0,0,0,1-2.32,6.49,6.49,0,0,0,.39-2.57,6.84,6.84,0,0,0-.15-.94c.28-1.88.64-3.87,1.14-6.28.19-.95.43-1.9.67-2.82s.45-1.74.63-2.61c.83-3.93,1.52-8,2.1-11.42s1.28-7,2.33-11.6c.52-2.28,1.09-4.58,1.65-6.81.46-1.87.93-3.74,1.37-5.62.88-3.76,1.85-7.53,2.85-11.39.88-3.36,1.9-6.75,2.9-10l.46-1.52c.55-1.86,1.12-3.71,1.69-5.57s1.18-3.89,1.77-5.84c1.09-3.61,2.1-7.55,3.18-12.41l.06-.31c.71-3.17,1.43-6.44,2-9.69.14-.82.29-1.64.44-2.46s.32-1.76.46-2.65c.22-1.34.39-2.72.55-4.05.08-.61.15-1.22.23-1.83.57-4.37.93-8.37,1.1-12.23.2-4.42.26-8.85.31-12.65v-.43c.05-3.91.09-7.94-.06-11.91-.05-1.06-.11-2.11-.17-3.17s-.11-2-.16-3l0-1c-.06-1.68-.13-3.41-.28-5.11l-.09-1.19c-.17-2.11-.34-4.29-.63-6.42-.33-2.41-.71-4.93-1.2-7.93a70,70,0,0,0-1.44-7.07l-.07-.25a4,4,0,0,0,1.05-2.67,4.29,4.29,0,0,0-.52-2.09c-.18-.34-.36-.69-.55-1-.73-1.33-1.46-2.63-2.22-3.93l-.08-.11h0l-.26-.44-.16-.28-.07-.12c-1.83-3-3.78-6-5.78-8.85-2.44-3.41-5-6.69-7.64-9.79l-.18-.22a131.92,131.92,0,0,0-25.65-22.78,129.41,129.41,0,0,0-30-15,134.44,134.44,0,0,0-34.07-7c-3.32-.26-6.75-.39-10.21-.39a157.48,157.48,0,0,0-24.61,2c-3.42.54-6.9,1.23-10.36,2l1.52,1.25h0l.51.42.17.14.63.53a2.15,2.15,0,0,1,.61,1.56v0a2.27,2.27,0,0,1-.71,1.57,2.24,2.24,0,0,1-1.61.61,2.43,2.43,0,0,1-1.57-.71l-.91-.76-.59-.48-.23-.19-.17-.14-1.26-1-.07-.06-.27-.21-.42-.33a171.18,171.18,0,0,0-31.83-19.73l-.16-.08-.37-.17-.37-.18-.23-.11-.55-.25a174.08,174.08,0,0,0-19.44-7.5l-.12,0L368,7.68l-.28-.08-.39-.12-.43-.13-.23-.08-.55-.16-.12,0C360.55,5.44,355,4.09,349.48,3l-.21,0-.45-.09h0q-1.57-.3-3.15-.57a172.21,172.21,0,0,0-18.26-2h0l-.27,0h-.27C323.79.08,320.74,0,317.68,0c-2.66,0-5.33.06-8,.19ZM396,29.26c3.78,2.45,7.48,5,11,7.69l2.22,1.74A3.59,3.59,0,0,0,408,40a4.45,4.45,0,0,0-.39.91A158.7,158.7,0,0,0,396,29.26Zm35.5,11.38c3.34-.68,6.75-1.28,10.14-1.77a149.33,149.33,0,0,1,19-1.24c1.54,0,3.09,0,4.62.07h-.06c-1.63,0-3.39,0-5.55.16a105.83,105.83,0,0,0-13.27,1.33c-1,.18-2,.39-3,.6s-2.08.42-3.13.61c-1.72.31-3.57.6-6,.94l-.47.07-.55.07-1.07.14c-.21-.34-.43-.66-.67-1Z" fill="#404040"/><path d="M301.21.79h0Z" fill="#404040"/><path d="M424.93,38.6l-.15-.11.15.11Z" fill="#404040"/><path d="M166.34,97v0Z" fill="#404040"/><polygon points="166.33 97.03 166.34 97.03 166.34 97.03 166.33 97.03 166.33 97.03 166.33 97.03" fill="#404040"/><path d="M382.88,29.77a3.88,3.88,0,0,0-.39.42,42,42,0,0,0-7.08,2.28,53.85,53.85,0,0,0-9.87,5.36,30.35,30.35,0,0,0-4.06,3.26,34.06,34.06,0,0,0-3.19,3.81,15.55,15.55,0,0,0-2.14,4.75,29.43,29.43,0,0,0-.91,4.54,67.87,67.87,0,0,0-.88,9.1,4,4,0,1,0,8,0c0-1.68.15-3.33.32-5a37.94,37.94,0,0,1,1.66-7.89,12.79,12.79,0,0,1,.94-1.55,25.51,25.51,0,0,1,3.46-3.51A52.56,52.56,0,0,1,378.09,40c1-.39,2-.75,3-1.07a11.14,11.14,0,0,0-1.19,1.19,5.58,5.58,0,0,0-1.28,2.19,5,5,0,0,0-.07,2.51,5.11,5.11,0,0,0,1.13,2.1c2,2.21,5.21,2.23,7.94,1.86A15.7,15.7,0,0,0,394.76,46c.85.64,1.7,1.25,2.59,1.82a20.7,20.7,0,0,0,2.7,1.47,5.64,5.64,0,0,0,4.2.46,5.52,5.52,0,0,0,3.47-3.62,14.53,14.53,0,0,0,.6-3.22,37.11,37.11,0,0,0,4.26,1,56.51,56.51,0,0,0,5.79.86,3.28,3.28,0,0,0-.15,1.16,4.09,4.09,0,0,0,2.09,3.68,4.11,4.11,0,0,0,.94.77l.14.07q-2.56,1-5.11,2.18a35.49,35.49,0,0,0-7.2,3.7,34.56,34.56,0,0,0-3,2.43c-.74.73-1.47,1.47-2.18,2.24l-1.82,2a4,4,0,0,0,5.66,5.65,66,66,0,0,1,5.11-5.2q.93-.67,1.92-1.29a33.89,33.89,0,0,1,3.84-1.85c1.53-.7,3.08-1.36,4.63-2q5.52-2.25,11.18-4.06A56.84,56.84,0,0,1,440,52.68c1.08-.23,2.17-.43,3.25-.6a42.71,42.71,0,0,0,11.48,1.32,43.92,43.92,0,0,0,7-.75c.92-.16,1.83-.39,2.74-.63a16.07,16.07,0,0,0,6.62-3.23A7.1,7.1,0,0,0,472.72,47l.24-.47a4.08,4.08,0,0,0,.55-2,5.31,5.31,0,0,0-1.5-4.15,11,11,0,0,0-6.35-2.87,34.11,34.11,0,0,0-6.46-.35L457.68,37c-.74-.08-1.49-.13-2.24-.17a38.86,38.86,0,0,0-4.82.14,100.87,100.87,0,0,0-10.1,1.09c-1.21.2-2.42.43-3.63.7l-2.16.24c-.78.09-1.55.18-2.33.29a30.24,30.24,0,0,0-3.15-1,2.27,2.27,0,0,1-.57.86,2.24,2.24,0,0,1-1.61.61,2.43,2.43,0,0,1-1.57-.71l-.71-.59h0l-.2-.17-.59-.48a2.11,2.11,0,0,0-.23-.19l-.17-.14-.22-.18c-1.78-.21-3.56-.38-5.33-.6s-3.58-.58-5.36-1a21.87,21.87,0,0,1-2.61-.7c-.91-.33-1.81-.69-2.74-1-1.89-.62-3.74-1.23-5.68-1.66-.29-.07-.58-.13-.88-.18-1.65-.33-3.3-.64-4.95-1s-3.51-1-5.24-1.58a16.66,16.66,0,0,0-4.15-1.17l-.37,0a4.7,4.7,0,0,0-3.19,1.33Zm83.56,12.4-.15.2.15-.2Z" fill="#404040"/><path d="M166.32,97.06c-1.09,2.4-2.13,4.81-3.11,7.26h0c0,.14-.11.29-.17.43l-.09.24-.12.3-.15.38a1.67,1.67,0,0,1-.08.2c-.06.17-.13.34-.2.51l0,.09c-.47,1.22-.93,2.45-1.38,3.68-.11,1.32-.2,2.64-.29,4-.14,2.14-.34,4.28-.54,6.42-.75,8.26-.94,16.57-1,24.86,0,4.09.11,8.15.3,12.23.1,2.1.16,4.21.29,6.3.14,2.24.32,4.47.5,6.71.32,4.17.75,8.34,1.25,12.5s.93,8.1,1.43,12.15c.32,2.59.65,5.19,1,7.78.81,6.16,1.51,12.33,2.34,18.49q.54,4.13,1.09,8.26c1.07,8.53,2.32,17,4,25.46.81,4.15,1.71,8.29,2.46,12.45s1.64,8.39,2.38,12.59,1.62,8.13,2.47,12.19,1.8,8.23,2.81,12.32c2,8.14,4.21,16.22,6.65,24.25.34,1.14.69,2.27,1,3.41a4,4,0,1,0,7.71-2.12c-1.3-4.25-2.6-8.49-3.78-12.77-1.11-4-2.16-8.06-3.2-12.11s-2-8-2.88-12.09-1.83-8.34-2.61-12.53-1.51-8.12-2.29-12.18-1.48-8.08-2.33-12.1c-1.67-7.87-2.89-15.8-4-23.77q-.45-3.65-1-7.29c-.35-2.68-.68-5.36-1.05-8-.75-5.8-1.4-11.61-2.19-17.4-.55-4.12-1-8.24-1.47-12.37-.2-1.9-.5-3.8-.7-5.7q-.33-3.27-.69-6.54c-.44-4.17-.78-8.38-1-12.56s-.46-8.2-.53-12.3c-.07-3.93,0-7.87.09-11.8.08-3.71.18-7.43.4-11.13.23-4,.63-7.94,1-11.9.15-2,.27-3.92.43-5.87.14-1.51.32-3,.51-4.51q1.14-7.86,2.61-15.66c.44-2.3,1-4.58,1.58-6.84q-4,6.9-7.39,14.16Zm3.33,7.35-.06.43.06-.43Zm1.75,94.93.09.68-.09-.68Z" fill="#404040"/><path d="M166.33,97v0l0,0v0Z" fill="#404040"/><path d="M309.69.19h-.06l-.42,0h-.48l-.33,0h-.14c-2.4.13-4.78.31-7.16.55-1.36.14-2.7.3-4.05.47a170.4,170.4,0,0,0-38.61,9.66q-4.77,1.85-9.44,4l-.09.05-.49.22-.32.15-.27.12-.52.24-.07,0a172.4,172.4,0,0,0-27,15.79q-2.11,1.53-4.18,3.12l-.05,0c-.15.12-.3.24-.46.35l-.17.14-.33.26-.32.25-.2.16-.46.36,0,0a170.58,170.58,0,0,0-15.54,14l0,0-.2.2a4,4,0,0,0,5.54-.11c1.48-1.61,2.92-3.28,4.49-4.8s3-2.68,4.53-3.93l1.89-1.46-.81.63c2.28-1.73,4.65-3.33,7-5a75.07,75.07,0,0,1,6.95-4.3c5.5-3,11.16-5.64,16.9-8.13,3-1.27,6.07-2.57,9.06-3.92s5.69-2.66,8.56-3.93c1-.41,2-.82,3-1.19,1.3-.47,2.63-.86,3.95-1.27,2.64-.82,5.32-1.6,8-2.31,2.89-.76,5.82-1.41,8.75-1.94,2.61-.46,5.23-.92,7.85-1.3a177.23,177.23,0,0,1,20.09-1l5.18,0c1.78,0,3.56.22,5.33.34,3.34.22,6.68.32,10,.71,2.71.43,5.36,1,8,1.65s5.51,1.26,8.28,1.82,5.66,1.09,8.47,1.73A52.82,52.82,0,0,1,367,15.13c3.14,1.46,6.2,3.08,9.26,4.73,1.38.74,2.78,1.47,4.13,2.28,1.68,1,3.29,2.14,4.91,3.25,1.45,1,2.84,2.1,4.26,3.15,1.05.78,2.13,1.5,3.22,2.21-2.4-.48-4.83-.89-7.24-1.29-4.36-.73-8.76-1.36-13.16-1.78a84.16,84.16,0,0,0-12.5-.39,56.7,56.7,0,0,0-6.88.85c-2.2.39-4.33,1-6.49,1.57-4,1-8,2.15-12,3.15-4.2,1-8.4,2-12.61,3-1.8.42-3.61.75-5.43,1l-1,.12a4.29,4.29,0,0,0-2.83,1.17,4,4,0,0,0,0,5.65A3.85,3.85,0,0,0,315.47,45c2.23-.26,4.47-.54,6.66-1,1.75-.38,3.5-.8,5.24-1.22,3.15-.75,6.3-1.48,9.44-2.26,3.32-.83,6.64-1.73,9.95-2.61l5.33-1.41a46.46,46.46,0,0,1,4.67-.93c6.82-.79,13.67-.22,20.46.65,9.42,1.38,18.89,2.93,27.87,6.19a41,41,0,0,1,7.59,4.34c1,.76,1.93,1.54,2.9,2.31l.55.48a20.77,20.77,0,0,0,2.65,2.13,4,4,0,0,0,4.85-.63,4.09,4.09,0,0,0,.63-4.85,6.14,6.14,0,0,0-1.66-1.71q-.6-.49-1.23-1c-2.36-2.1-4.62-4.32-6.94-6.47a116.21,116.21,0,0,0-10.37-8.42c-3.35-2.46-7-4.49-10.34-6.94a110.17,110.17,0,0,0-10-6.89c-3-1.73-6.13-3.39-9.25-5-1.94-.69-3.89-1.34-5.84-2l-.12,0L368,7.68l-.28-.08-.39-.12-.42-.13-.24-.08-.55-.16-.12,0Q357.83,4.63,349.47,3l-.21,0-.44-.09h0q-1.57-.3-3.15-.57a172.6,172.6,0,0,0-18.25-2h0l-.26,0h-.27C323.79.08,320.72,0,317.66,0q-4,0-8,.19Z" fill="#404040"/><path d="M301.22.79h0Z" fill="#404040"/><path d="M301.18.8h0Z" fill="#404040"/><path d="M325.89,2.91q-3.3,0-6.58.07c-4.06.07-8.12.23-12.16.63-2.71.27-5.39.75-8.08,1.16-2.11.28-4.2.59-6.29,1s-3.91.88-5.87,1.29c-3.81.8-7.63,1.46-11.47,2.1s-7.5,1.08-11.22,1.73c-3.91.69-7.78,1.54-11.63,2.5l-.54.14c-1,.44-2,.89-3.05,1.35l-.09.05-.49.22-.33.15-.26.12-.52.24-.07,0a172.4,172.4,0,0,0-27,15.79q-2.11,1.53-4.17,3.12l-.05,0-.47.35-.17.14-.13.1q2-1.2,4.12-2.28c1.58-.81,3.2-1.54,4.82-2.25,3.6-1.43,7.19-2.86,10.84-4.14s7.15-2.22,10.78-3.17a215.76,215.76,0,0,1,23.42-5.24c1.25-.17,2.48-.4,3.72-.6s2.3-.33,3.45-.51c2.58-.41,5.16-.82,7.72-1.3s4.87-.94,7.29-1.48c2.76-.62,5.49-1.23,8.29-1.62l-.5.06c2-.27,4.05-.6,6.08-.9a171.31,171.31,0,0,1,19.36-.93c3.34,0,6.68-.1,10,.11s6.78.43,10.17.8a106.08,106.08,0,0,1,12.34,2.72c2.16.6,4.32,1.19,6.44,1.91s4.09,1.51,6.11,2.33c2.68,1.16,5.37,2.3,8,3.51s5.32,2.4,7.84,3.85,4.9,3,7.42,4.36A54.57,54.57,0,0,1,399.91,35c3,2.39,6,4.83,8.94,7.31,1.67,1.4,3.29,2.85,4.88,4.35s3.09,2.76,4.58,4.19c2.9,2.77,5.6,5.74,8.34,8.65l4.14,4.37c.65.69,1.29,1.4,2,2s1.74,1.43,2.65,2.1a4.17,4.17,0,0,0,2.72,1.1,4,4,0,0,0,4-4A3.83,3.83,0,0,0,441,62.23c-.53-.43-1.08-.84-1.62-1.25a44.42,44.42,0,0,1-4-4c-1.34-1.44-2.71-2.84-4-4.28-2.77-3-5.55-6-8.58-8.75-1.56-1.41-3.1-2.83-4.65-4.25s-3.2-2.82-4.84-4.19c-3.31-2.77-6.66-5.48-10.09-8.11C400,25,396.35,23.3,393,21.2a90.17,90.17,0,0,0-10.53-5.53c-4.14-1.89-8.32-3.72-12.55-5.4A97.32,97.32,0,0,0,358,6.46a95.84,95.84,0,0,0-12.78-2.6c-4.28-.49-8.59-.81-12.88-.95-.83,0-1.67,0-2.5,0-1.32,0-2.63,0-3.95,0Z" fill="#404040"/><path d="M459.33,51.23c-2.09.09-4.17.38-6.25.64-2.27.28-4.54.63-6.79,1.1a129.72,129.72,0,0,0-12.74,3.21,62.51,62.51,0,0,0-12.18,5.54c-2.73,1.55-5.4,3.21-8.1,4.81a4,4,0,1,0,4,6.9c2.62-1.55,5.21-3.15,7.86-4.66,1.28-.73,2.56-1.45,3.86-2.14.93-.5,1.9-.92,2.87-1.34a99.47,99.47,0,0,1,21.29-5.43c2.34-.29,4.68-.56,7-.68a45.7,45.7,0,0,1,6.92.23,47.94,47.94,0,0,1,8.63,2.52,28.78,28.78,0,0,1,4.8,2.8c1.39,1.14,2.68,2.37,4,3.61,1,.94,1.94,1.9,2.85,2.9,1.72,1.9,3.31,3.88,4.89,5.9a50.39,50.39,0,0,1,5.35,9.13c1.6,4,2.88,8.07,4.14,12.16,1.14,3.71,2.29,7.41,3.2,11.18a4,4,0,0,0,7.72-2.12c-1-4.2-2.28-8.35-3.6-12.45q-1.06-3.35-2.15-6.67A61.63,61.63,0,0,0,503.55,80a47.59,47.59,0,0,0-5-7.83c-1.35-1.72-2.71-3.42-4.09-5.12a47.28,47.28,0,0,0-4.22-4.39l-2.37-2.25a31,31,0,0,0-7.17-5,44.52,44.52,0,0,0-8.08-3,35.65,35.65,0,0,0-6.87-1.18c-1.06-.09-2.12-.12-3.18-.12s-2.14,0-3.22.09Z" fill="#404040"/><path d="M549,87.28a8,8,0,0,0-2,2.13c-.2.46-.4.92-.59,1.39-.1.31-.19.61-.28.92-.37,1.28-.7,2.55-1,3.86s-.6,2.73-.84,4.12c-.28,1.67-.49,3.36-.73,5,0,.35-.09.71-.14,1.06a4,4,0,0,0,2.94,3.86,4,4,0,0,0,3.08-.41,3.83,3.83,0,0,0,1.84-2.39,97.68,97.68,0,0,1,2.24-12c1.33,1.16,2.58,2.4,3.82,3.65s2.75,2.74,4,4.23A41.22,41.22,0,0,1,565,109a41.2,41.2,0,0,1,1.59,5,53.88,53.88,0,0,1,1,5.36c.25,2.06.45,4.12.58,6.18s.15,4.39.37,6.57a4.11,4.11,0,0,0,.55,2,3.88,3.88,0,0,0,.42.58c0,1-.08,2-.13,3-.09.82-.17,1.64-.25,2.46-.11,1.26-.18,2.52-.26,3.78a26.51,26.51,0,0,0-.09,4.27,4,4,0,0,0,7.35,2.2c0,.2,0,.4,0,.61-.09,2.19-.21,4.38-.33,6.58-.21,4.22-.64,8.44-1,12.66-.22,2.83-.55,5.67-.9,8.5-1.12,8.09-2.67,16.12-4.49,24.09-.92,4-1.89,8-3,12-1,3.73-2.11,7.42-3.19,11.13-.75,2.55-1.51,5.1-2.25,7.66s-1.41,5.06-2.14,7.59c-1.46,5.07-3.06,10.13-5,15-1.23,2.85-2.55,5.64-4,8.41s-2.82,5.75-4.27,8.61q-4.87,9.69-9.76,19.36a4.18,4.18,0,0,0-.4,3.08,4,4,0,0,0,7.31,1L549.16,284c1.85-3.66,3.74-7.3,5.52-11s3.85-7.5,5.52-11.37c.85-2,1.72-3.94,2.43-6s1.36-4,2-6c1.27-3.78,2.33-7.63,3.38-11.48s2.26-7.65,3.35-11.49,2.19-7.51,3.21-11.28c.52-2,1-3.91,1.45-5.86s1-4.1,1.44-6.16c.88-4.11,1.79-8.21,2.53-12.35q1.17-6.59,2-13.22c.53-4.17.83-8.36,1.2-12.55.17-2,.38-4.06.49-6.1q.18-3.3.34-6.6c.21-4.19.12-8.39.08-12.58s-.1-8.24-.3-12.35a85.59,85.59,0,0,0-1.51-13.46,50.63,50.63,0,0,0-1.67-5.64,61.23,61.23,0,0,0-2.46-6c-.43-.95-.9-1.87-1.41-2.78-.2-.35-.45-.67-.68-1A12.07,12.07,0,0,0,575,97.41a4.2,4.2,0,0,0-1.24-.86,3.93,3.93,0,0,0-2.14-1.47,4,4,0,0,0-4.57,2l-.86-1c-1.35-1.57-2.92-3-4.38-4.43-.72-.73-1.47-1.42-2.22-2.12-.36-.33-.75-.64-1.13-1A10.22,10.22,0,0,0,555,86.48a8.21,8.21,0,0,0-2.3-.34A6.27,6.27,0,0,0,549,87.28Zm5.15,5.79-.11.14a1.34,1.34,0,0,1,.11-.14Zm-.39.67Zm-.65.4Z" fill="#404040"/><path d="M233.55,27.14c-3.65,2.08-7.25,4.23-10.86,6.38-3.45,2.06-7,4-10.44,6-1.89,1.1-3.84,2.11-5.78,3.1q-4.09,3.66-7.93,7.58l0,0-.42.42-.09.1-.36.38a.93.93,0,0,0-.14.14l-.32.33-.18.19-.27.28-.21.23-.25.25-.25.27-.2.21c-.09.1-.19.2-.28.31a1.29,1.29,0,0,0-.16.17l-.33.35-.12.13c-.11.13-.23.26-.35.38l-.09.1-.39.43L194,55c-.14.16-.28.31-.41.47l0,0c-.44.48-.87,1-1.3,1.46l-.05.05-.34.4-.14.15-.26.3-.23.26-.16.19-.32.37-.07.08L189.2,60.6l-.12.16-.22.26-.21.25-.24.31-.17.21-.27.33-.16.2-.29.36-.12.16-.31.39-.12.15c-.1.13-.21.26-.31.4l-.1.13-.32.41-.1.13-.34.44-.08.1-.34.44-.07.1L185,66l-.07.1-.34.44-.08.11-.33.45-.08.1h0l-.31.42-.13.18c-.08.11-.16.21-.23.32l-.21.28-.15.21-.28.39-.09.11a172.26,172.26,0,0,0-16.35,28c-1.09,2.4-2.13,4.81-3.11,7.26h0c0,.14-.11.29-.17.43l-.09.24-.12.3-.15.38a1.67,1.67,0,0,1-.08.2c-.06.17-.13.34-.2.51l0,.09q-1.35,3.48-2.54,7c-.08.68-.14,1.35-.21,2-.35,4-.41,8-.48,12s-.07,8.16-.08,12.24c0,7.43-.14,14.86.49,22.28.31,3.59.68,7.19,1.07,10.77.41,3.82.9,7.64,1.41,11.45.33,2.66.68,5.31,1,8,.28,2.14.56,4.27.86,6.4,1,7.16,2,14.28,3.46,21.35,1.51,7.34,3.33,14.61,5.11,21.88a4,4,0,1,0,7.71-2.13c-1.65-6.74-3.27-13.48-4.77-20.26C174,213,173,206.41,172.07,199.83l-.87-6.42c-.23-1.8-.48-3.61-.72-5.41-.32-2.43-.62-4.87-.95-7.3q-.76-6-1.33-12.08c-.17-1.87-.42-3.75-.58-5.63-.18-2.18-.3-4.36-.42-6.54-.23-4-.17-8-.16-12s0-8.22,0-12.34a168.51,168.51,0,0,1,.79-18.93c.35-2.14.84-4.24,1.32-6.36s.94-4.26,1.44-6.39,1.27-4.22,2-6.3,1.49-4.06,2.32-6,1.71-4,2.66-5.89,1.9-3.68,2.88-5.51A75.25,75.25,0,0,1,186.74,67a50.13,50.13,0,0,1,3.88-4.36,54.29,54.29,0,0,1,4.28-3.74c1.33-1,2.69-1.94,4.06-2.87,1.63-1.1,3.37-2,5.08-3,3.51-2,7.23-3.67,10.77-5.65,7-3.91,13.86-8.16,20.84-12.15l1.94-1.11a4,4,0,0,0-4-6.91Zm-58.3,60.11c-.08.18-.15.35-.22.53.07-.18.14-.35.22-.53Z" fill="#404040"/><path d="M166.33,97v0l0,0v0Z" fill="#404040"/><path d="M216.11,34.64l-.05,0c-.15.12-.3.24-.46.35l-.17.14-.33.26-.32.25-.2.16-.46.36,0,0q-4.05,3.21-7.88,6.67a71,71,0,0,1,8.58-4.43,3.84,3.84,0,0,0,1.83-2.39,4,4,0,0,0,.06-1.88l-.56.43Z" fill="#404040"/><path d="M166.32,97.06c-1.09,2.4-2.13,4.81-3.11,7.26h0c0,.14-.11.29-.17.43l-.09.24-.12.3-.15.38a1.67,1.67,0,0,1-.08.2c-.06.17-.13.34-.2.51l0,.09q-3,7.77-5.25,15.82c-.06,2.91,0,5.82.22,8.73a108.23,108.23,0,0,0,1.55,11.35c.71,3.81,1.49,7.6,2.56,11.32a4,4,0,0,0,7.72-2.12,125.74,125.74,0,0,1-3.32-15.83c-.26-2-.46-4.07-.62-6.12-.19-2.44-.16-4.91-.12-7.37.1-4.66.35-9.32.89-14,.27-1.86.6-3.72,1-5.58.43-2.23.84-4.46,1.39-6.68.63-2.56,1.39-5.07,2.27-7.56q-2.27,4.23-4.29,8.59Z" fill="#404040"/><path d="M166.33,97v0l0,0v0Z" fill="#404040"/><path d="M166.32,97.06c-1.09,2.4-2.13,4.81-3.11,7.26h0c0,.14-.11.29-.17.43l-.09.24-.12.3-.15.38a1.67,1.67,0,0,1-.08.2c-.06.17-.13.34-.2.51l0,.09A172,172,0,0,0,155,130.78c0,.15,0,.3,0,.45a60.05,60.05,0,0,0,1.38,10.68c.68,3.22,1.65,6.36,2.43,9.56.84,3.42,1.64,6.86,2.54,10.27a4,4,0,1,0,7.72-2.12c-1.06-4-1.92-8-3-12A109.6,109.6,0,0,1,163.4,136c-.23-2.12-.4-4.24-.46-6.37-.08-2.3,0-4.59.14-6.88q.27-6.61,1.08-13.17a128.13,128.13,0,0,1,3.52-15.4c-.46.94-.91,1.9-1.36,2.85Z" fill="#404040"/><path d="M166.33,97v0l0,0v0Z" fill="#404040"/><path d="M220.29,31.52q-2.11,1.53-4.18,3.12l-.05,0-.46.36-.17.13-.33.26-.32.25-.2.16-.46.36,0,0a170.58,170.58,0,0,0-15.54,14l0,0-.42.42-.09.1-.36.38a.93.93,0,0,0-.14.14l-.32.33-.18.19-.27.28-.21.23-.25.25-.25.27-.2.21c-.09.1-.19.2-.28.31a1.29,1.29,0,0,0-.16.17l-.33.35-.12.13c-.11.13-.23.26-.35.38l-.09.1-.39.43L194,55l-.41.46,0,0c-.44.48-.87,1-1.3,1.46l-.05.05-.34.39-.14.16-.26.3-.23.26-.16.19-.32.37-.07.08L189.2,60.6l-.12.16-.22.26-.21.25-.24.31-.17.21-.27.33-.16.2-.29.36-.12.16-.31.39-.12.15c-.1.13-.21.26-.31.4l-.1.13-.32.41-.1.13-.34.44-.08.09a5.3,5.3,0,0,1-.34.45l-.07.1L185,66l-.07.1-.34.44-.08.11-.33.45-.08.1h0l-.31.42-.13.18c-.08.11-.16.21-.23.32l-.21.28-.15.21-.28.39-.09.11a172.26,172.26,0,0,0-16.35,28q-1.63,3.6-3.11,7.26h0c0,.14-.11.29-.17.43l-.09.24-.12.3-.15.38a1.67,1.67,0,0,1-.08.2c-.06.17-.13.34-.2.51l0,.09q-.86,2.22-1.66,4.47c-.57,2.44-1.06,4.9-1.41,7.38-.61,4.29-1.18,8.59-1.56,12.9-.37,4.15-.92,8.28-1.2,12.43s-.45,8.55-.54,12.84-.13,8.67,0,13c.17,4.16.49,8.32,1,12.45.54,4.42,1.13,8.84,2,13.2.41,2,.8,4.06,1.32,6.06.57,2.2,1.19,4.38,1.84,6.56a206.39,206.39,0,0,0,6.89,19.77c.13.32.26.64.4,1a4,4,0,0,0,1.44,1.43,4,4,0,0,0,3.08.41,4.08,4.08,0,0,0,2.39-1.84,3.86,3.86,0,0,0,.4-3.09,212.63,212.63,0,0,1-7-20.12c-1-3.4-1.93-6.81-2.66-10.29-.66-3.18-1.21-6.37-1.69-9.58q-.76-5.92-1.25-11.87c-.17-2-.2-4-.26-6-.05-2.19-.08-4.37,0-6.56.06-4.28.12-8.57.35-12.84s.6-8.64,1.08-12.95c.28-2.55.48-5.11.76-7.66.27-2.39.6-4.77.9-7.15a116.46,116.46,0,0,1,2.64-12.24,95.33,95.33,0,0,1,3.8-11.91c1.36-3.13,2.73-6.26,4.22-9.33s3.16-6.13,4.84-9.13,3.44-5.61,5.31-8.33,3.69-5.6,5.69-8.29a92.78,92.78,0,0,1,7.31-7.92c1.38-1.37,2.77-2.71,4.23-4s2.75-2.32,4.15-3.44a74.73,74.73,0,0,1,7.65-4.91c2.73-1.51,5.37-3.16,8-4.84a4,4,0,0,0-.69-7.22q-1.95,1.32-3.87,2.69Z" fill="#404040"/><path d="M166.33,97v0l0,0v0Z" fill="#404040"/><path d="M166.32,97.06q-1.63,3.6-3.11,7.26h0c0,.15-.11.29-.17.43l-.09.24-.12.3-.15.38a1.19,1.19,0,0,1-.08.2c-.06.17-.13.34-.2.51l0,.09a172.56,172.56,0,0,0-8.26,28.37c-.06,1.55-.12,3.1-.17,4.64-.15,4.15-.2,8.31-.23,12.46,0,2,.13,4,.21,6,.1,2.24.26,4.47.42,6.71.3,4.14.56,8.28.89,12.41a225.22,225.22,0,0,0,3.18,26.55c1.66,8.36,3.63,16.64,5.45,25,.87,4,1.82,8.06,2.74,12.09,1,4.38,2,8.74,3.18,13.09a4,4,0,0,0,7.72-2.13c-1.16-4.34-2.18-8.71-3.19-13.09-.92-4-1.86-8.05-2.74-12.08-1.81-8.32-3.78-16.61-5.45-25-.48-2.4-.9-4.79-1.24-7.21-1.06-8.33-1.6-16.72-2.18-25.1-.29-4.1-.64-8.2-.83-12.31-.09-2.19-.16-4.37-.15-6.57s.06-4.27.1-6.41a220.06,220.06,0,0,1,1.5-23.09c.74-4.77,1.58-9.51,2.56-14.23A87.16,87.16,0,0,1,169.69,93a41.57,41.57,0,0,1,3-5.57c1.51-2.31,3.11-4.56,4.74-6.79a3.86,3.86,0,0,0,.4-3.08,4.19,4.19,0,0,0-.34-.85,171.88,171.88,0,0,0-11.19,20.36Z" fill="#404040"/><path d="M166.33,97s0,0,0,0l0,0v0Z" fill="#404040"/><path d="M160.42,144.93c-.11,4.44-.06,8.9-.34,13.33s-.52,9-.67,13.52a232.81,232.81,0,0,0,.39,25.06c.31,4.27.62,8.55,1,12.82.45,4.45.95,8.88,1.44,13.32,1,8.66,2.26,17.28,4.06,25.8.85,4.06,1.94,8,3.08,12s2.28,7.67,3.57,11.46c2.71,8,5.62,16,8.15,24,3,9.7,5.92,19.46,8.42,29.31a4,4,0,1,0,7.71-2.13c-1.12-4.45-2.36-8.85-3.63-13.26-1.1-3.83-2.26-7.64-3.41-11.46-2.44-8.15-5.21-16.19-8-24.22-2.6-7.41-5-14.9-6.89-22.51A211.87,211.87,0,0,1,171,229.11c-1.07-8.57-2.09-17.15-2.75-25.77-.31-4.11-.64-8.22-.8-12.34q-.14-3.52-.22-7.05c0-2.07,0-4.14,0-6.21,0-5.37.29-10.74.61-16.1.16-2.57.31-5.14.36-7.72.07-3,.12-6,.19-9a4,4,0,0,0-8,0Zm10.47,83.18c.05.3.09.6.13.9-.05-.3-.09-.6-.13-.9Z" fill="#404040"/><path d="M309.68.19h0l-.43,0h-.48l-.33,0h-.15c-2.39.13-4.77.31-7.16.55l-.45,0c-1.71.31-3.42.61-5.12,1-4.24.86-8.45,1.8-12.64,2.89-3.87,1-7.7,2.11-11.53,3.29-4,1.23-7.91,2.67-11.82,4.12s-7.75,2.81-11.58,4.34c-3.21,1.28-6.45,2.52-9.67,3.8a172.48,172.48,0,0,0-18,11.26q-2.11,1.53-4.17,3.12l-.06,0-.45.35-.18.14-.33.26-.32.25-.2.16-.46.36,0,0a171.92,171.92,0,0,0-15.54,14l0,0-.42.42-.09.1-.36.37-.14.15-.32.33-.18.19-.27.28-.22.23-.24.25-.25.27-.2.21c-.09.1-.19.2-.28.31a1.29,1.29,0,0,0-.16.17l-.33.35a1.42,1.42,0,0,1-.12.13c-.11.13-.23.26-.35.38l-.09.1-.39.43L194,55c-.13.16-.28.31-.41.47l0,0c-.44.48-.87,1-1.3,1.46l-.05.05c-.11.13-.23.26-.34.4l-.15.15-.25.3c-.07.09-.15.17-.23.26l-.16.19-.32.37-.07.08L189.2,60.6l-.12.16-.22.26-.21.25-.24.31-.17.21-.27.33-.16.2-.29.36-.12.16-.31.39-.12.15c-.1.13-.21.26-.31.4l-.1.13-.32.41-.1.13c-.12.14-.22.29-.34.44l-.08.1-.34.44-.07.1L185,66l-.07.1-.34.44a.76.76,0,0,1-.08.11l-.33.45-.08.1h0l-.31.42-.13.18-.23.32-.21.28-.15.21-.28.39-.09.11c-.62.86-1.23,1.73-1.83,2.6a4.32,4.32,0,0,0,.5,1.33,4,4,0,0,0,5.47,1.43,4.31,4.31,0,0,0,1.84-2.39c.59-1.54,1.19-3.08,1.82-4.6A24.23,24.23,0,0,1,192.19,64c.7-1.13,1.46-2.2,2.24-3.26,2.07-2.5,4.41-4.8,6.65-7.15a76.81,76.81,0,0,1,7.45-7c2-1.52,4.08-3,6.2-4.43,2.4-1.61,4.75-3.3,7.18-4.88s5-3.06,7.54-4.4,5.33-2.53,8-3.72c3.64-1.52,7.34-2.93,11-4.38s7.6-3,11.45-4.36c2-.71,4-1.44,5.91-2.17s4-1.36,6-2c3.74-1.25,7.54-2.34,11.35-3.34,2.72-.72,5.45-1.42,8.19-2.07s5.41-1.15,8.12-1.67,5.58-1,8.38-1.47c2.45-.37,4.88-.83,7.33-1.2,1.53-.18,3.06-.34,4.6-.44,1.92-.13,3.83-.12,5.75-.08a92.33,92.33,0,0,1,9.26.66c6,.84,11.88,1.85,17.76,3.13,2.83.62,5.63,1.37,8.41,2.18s5.75,1.71,8.54,2.8a39,39,0,0,1,3.83,1.9c1.48.84,2.9,1.77,4.36,2.63,3.21,1.9,6.52,3.61,9.82,5.34s6.34,3.5,9.43,5.37a101.4,101.4,0,0,1,8.8,5.89l3.05,2.37-.12-.09a89.27,89.27,0,0,1,7.78,6.89A97.73,97.73,0,0,1,423,52.59c1.34,1.78,2.61,3.59,3.84,5.45q2.06,3.09,4.34,6l.47.62a4.31,4.31,0,0,0,2.39,1.84,4,4,0,0,0,3.08-.41A4.05,4.05,0,0,0,439,63.72a3.87,3.87,0,0,0-.41-3.08l-1.42-1.86c-1.66-2.19-3.17-4.5-4.71-6.78a92.1,92.1,0,0,0-6.06-7.88,72.64,72.64,0,0,0-6.1-6.55c-2.27-2.08-4.62-4-7-5.94l0,0c-1.79-1.39-3.57-2.81-5.41-4.14-1.66-1.21-3.43-2.3-5.15-3.4-3.45-2.2-7-4.17-10.63-6.14-2.86-1.57-5.78-3-8.63-4.63q-7.27-3.07-14.82-5.47l-.12,0L368,7.68l-.28-.08-.39-.12-.42-.13-.24-.08-.55-.16-.12,0Q357.83,4.63,349.47,3l-.2,0-.45-.09h0q-1.57-.3-3.15-.57a172.6,172.6,0,0,0-18.25-2h0l-.26,0h-.27C323.79.08,320.72,0,317.66,0q-4,0-8,.19Z" fill="#404040"/><path d="M301.22.79h0Z" fill="#404040"/><path d="M301.18.8h0Z" fill="#404040"/><path d="M413.11,31.54l-.12-.1.12.1Z" fill="#404040"/><path d="M413.22,31.63l-.11-.09.11.09Z" fill="#404040"/><path d="M489,128.27a4,4,0,0,0-2.79,4.92,4.3,4.3,0,0,0,1.84,2.39l2.84,2.14a27.14,27.14,0,0,1,3.67,3.44,46.45,46.45,0,0,1,3.86,7.19,42.63,42.63,0,0,1,2.31,9.2,120.61,120.61,0,0,1,.7,12.6c0,2,0,4,.05,6a55.22,55.22,0,0,1-.3,5.75c-.38,2.35-.85,4.66-1.42,7-.68,2.71-1.61,5.34-2.46,8A4,4,0,0,0,505,199a94.11,94.11,0,0,0,3.26-11.47c.44-2.31.82-4.6,1.05-6.94a53.36,53.36,0,0,0,.15-5.51c0-4,0-8.09-.26-12.13a63.87,63.87,0,0,0-1.78-12.61,47,47,0,0,0-5.07-11.77,21.84,21.84,0,0,0-4.28-5.2c-1.86-1.69-4-3.14-6-4.65a3.3,3.3,0,0,0-1.95-.55,4.06,4.06,0,0,0-1.13.15Z" fill="#404040"/><path d="M450.19,30.61a22.75,22.75,0,0,0-3.83.75,25.73,25.73,0,0,0-3.52-.11,93.22,93.22,0,0,0-12.58,1.36A64.55,64.55,0,0,0,421.32,35c-1,.25-2,.5-3,.77a50.22,50.22,0,0,0-5.62,1.91c-.91.36-1.77.8-2.64,1.23A6.62,6.62,0,0,0,407,41.34a4.41,4.41,0,0,0-.49,3.23,4.4,4.4,0,0,0-.82,1.49,4,4,0,0,0,2.63,5l1.05.18a4,4,0,0,0,2-.48l3.8-1.54c5.87-2.12,11.84-3.9,17.79-5.8,2.08-.66,4.17-1.32,6.27-2l1.94-.34,2.06-.37.58-.12H444c1.36-.06,2.73-.06,4.09,0a25.84,25.84,0,0,0,4.4-.08l.25-.05.75.12c1.9.29,3.82.47,5.72.75h0l.72.12a3.91,3.91,0,0,0,2-.47,4,4,0,0,0,1.62-5.42,3.77,3.77,0,0,0-2.33-1.92c-2.45-.42-4.91-.67-7.35-1l-.35-.06a4.09,4.09,0,0,0-.51-.67,3.94,3.94,0,0,0-2.61-1.27Zm7.91,10.55.25,0-.25,0Zm.31.05h0Z" fill="#404040"/></g><g id="Draw_Layer-4" data-name="Draw Layer"><path d="M502.8,155.67l.16-.1a3,3,0,0,1,.47-1.15c0-.35,0-.7,0-1,0-.74,0-1.5,0-2.26a15.88,15.88,0,0,0-.67,4.56Z" fill="#f3d4ca"/><path d="M538.75,181.85c-.11,1.13-.25,2.24-.37,3.36s-.25,2.42-.45,3.61c.21-.17.41-.35.6-.53l.64-.6c.06-.91.1-1.83.1-2.73,0-1.18,0-2.36,0-3.53a2.13,2.13,0,0,1-.49-.1c0,.18,0,.35,0,.52Z" fill="#f3d4ca"/><path d="M528.89,175.17l-.3,2,.5-.32c0-.29,0-.57,0-.86s0-.74,0-1.11c-.1.11-.19.22-.29.32Z" fill="#f3d4ca"/><path d="M527.6,187.15l0,.51c-.07,1.14-.06,2.28-.09,3.42a2.31,2.31,0,0,1-.28,1,5.85,5.85,0,0,0,.82.33c0-.62.06-1.23.1-1.86.08-1.3.16-2.6.25-3.91l-.77.46Z" fill="#f3d4ca"/><path d="M533.31,183.64c-.08.94-.15,1.89-.24,2.84s-.2,2.12-.29,3.18c-.07.83-.11,1.69-.19,2.55a14,14,0,0,0,2.73-1.45l-.21,0a2.3,2.3,0,0,1-1.66-2.17c-.06-1.18,0-2.37,0-3.56,0-.47,0-.94,0-1.42l-.11.08Z" fill="#f3d4ca"/><path d="M293.21,235.69c-1,.16-2.1.34-3.15.53l-.63.1-.16,0c-.73.12-1.45.25-2.19.36l-.39.06-.47.07a43.31,43.31,0,0,0-5.5,1.09c-2.16.63-4.24,1.37-6,2-2.17.8-4.4,1.46-6.47,2.05a4.52,4.52,0,0,0-3.23,4.3,5.06,5.06,0,0,0,.12,1.12,4.52,4.52,0,0,0,4.29,3.24,4.6,4.6,0,0,0,1.13-.14c2.45-.72,4.2-1.23,6.09-1.92l.56-.21.11,0c1.27-.47,3.4-1.25,5.37-1.8l.2-.06c.86-.25,1.87-.53,2.83-.73.75-.14,1.49-.25,2.26-.36l1.09-.17c1.1-.16,2.19-.35,3.28-.53l.59-.1,2.66-.44a4.17,4.17,0,0,0,2.61-2,4.4,4.4,0,0,0-1.58-6l-1.07-.46a4.91,4.91,0,0,0-1.16-.13,4.48,4.48,0,0,0-1.19.16Z" fill="#f3d4ca"/><path d="M418.7,249.91l-.58.05a62.54,62.54,0,0,0-6.42,1.09,39.47,39.47,0,0,0-4.84,1.53l-.7.26c-1.07.39-2.13.8-3.19,1.21l-.19.07-.17.07-.52.19c-.76.31-1.52.6-2.29.89a4.91,4.91,0,0,0-2.65,2,4.65,4.65,0,0,0-.58,2.28,5.19,5.19,0,0,0,.12,1.12,4.57,4.57,0,0,0,2,2.64A4.84,4.84,0,0,0,401,264a3.29,3.29,0,0,0,1.12-.18l1-.39,1.37-.53.14-.06c1.86-.73,3.84-1.51,5.79-2.15l.61-.21a28.88,28.88,0,0,1,3.3-1l1-.2c1.05-.22,1.85-.38,2.62-.51,2.41-.24,4.78-.33,7-.39a4.39,4.39,0,1,0,0-8.77c-2,0-4.15.09-6.3.32Z" fill="#f3d4ca"/><path d="M410.21,295a4.56,4.56,0,0,0-2.4,1.22,17.28,17.28,0,0,0-5,6,25,25,0,0,0-1.29,3.66,30.17,30.17,0,0,0-.62,3.8,29,29,0,0,0-.29,3.79,11.37,11.37,0,0,0,.48,3.47,7.63,7.63,0,0,0,5.2,4.93,6.14,6.14,0,0,0,1.57.2,7.31,7.31,0,0,0,5.48-2.74,15.2,15.2,0,0,0,2.09-3.2A38.24,38.24,0,0,0,417,312a37.46,37.46,0,0,0,1.39-6.1l.11-.67a17.19,17.19,0,0,0,.13-6.27,6.74,6.74,0,0,0-1.75-3.23,5.13,5.13,0,0,0-3.77-1.57,5.28,5.28,0,0,0-2.92.89Z" fill="#f3d4ca"/><path d="M279.78,296.72a4.81,4.81,0,0,0-2,2.65c-.22.6-.46,1.2-.72,1.83l-.06.16c-.35.87-.78,1.95-1.1,3a39.4,39.4,0,0,0-1.07,6.22,24,24,0,0,0-.19,2.48c0,.23,0,.46,0,.69a18.72,18.72,0,0,0,.32,3.32,6.37,6.37,0,0,0,1.11,2.46l.15.2.08.11.25.33a6.38,6.38,0,0,0,3,1.94c.49.09,1,.16,1.5.21a7.75,7.75,0,0,0,1.79-.24,7,7,0,0,0,3.16-2.19,17.73,17.73,0,0,0,3.31-7.56c.29-1.26.48-2.21.59-3.06l.1-.55a20.12,20.12,0,0,0,.31-3,15.46,15.46,0,0,0-.16-2.11,7.38,7.38,0,0,0-1.2-3.78,7.91,7.91,0,0,0-4.47-3.31,8.38,8.38,0,0,0-.83-.13l-.42-.14a5.08,5.08,0,0,0-1.15-.12,4.6,4.6,0,0,0-2.24.57Z" fill="#f3d4ca"/><path d="M549.13,315.79l-.61.06a4.36,4.36,0,0,0-1.94,1.14,12.92,12.92,0,0,0-2.19,2.47L544,320l0-.07c-1.38,1.8-2.76,3.68-4,5.45-1.15,1.59-2.3,3.16-3.48,4.73s-2.59,3.43-3.76,5.3-2,3.74-2.89,5.5l-.05.09-.38.78a4.69,4.69,0,0,0-.45,3.4,4.33,4.33,0,0,0,4.26,3.22,4.66,4.66,0,0,0,1.15-.13,4.37,4.37,0,0,0,2.65-2l.35-.73.09-.18c.57-1.2,1.53-3.2,2.59-5a49.51,49.51,0,0,1,2.91-4.29l.06-.1.07-.09.79-1.08c.42-.59.86-1.16,1.3-1.74l.19-.26.2-.26.18-.23c.43-.57.87-1.15,1.29-1.72,1.47-2.09,2.73-3.82,4.07-5.61l.13-.18a10.46,10.46,0,0,1,1.54-1.65,4.12,4.12,0,0,0,1.29-3.1,4.39,4.39,0,0,0-1.29-3.11,4.34,4.34,0,0,0-3.1-1.27l-.55.07Z" fill="#f3d4ca"/><path d="M341.06,339.15a4.33,4.33,0,0,0-2.65,2,105.25,105.25,0,0,0-5,13.06q-.62,2.13-1.2,4.26l-.06.24-.07.26,0,.1c-.62,2.25-1.35,4.88-2.2,7.49-1.13,3.58-2.16,7.47-3.33,12.62-.74,3.29-1.75,6.67-2.5,9.15l-.07.25,0,.14c-.32,1.07-.63,2.14-1,3.22l-.35,1.23c-.58,2.14-1.05,3.62-1.35,4.48l-.78,2.32-.4,1.21-.61,1.81c-.11.33-.21.67-.31,1-.15.51-.3,1-.49,1.52-.08.25-.18.5-.3.8s-.3.8-.44,1.2a5.09,5.09,0,0,0-.19,1.4,4.91,4.91,0,0,0,2.49,4.27,8.49,8.49,0,0,0,3.64.76c.26,0,.53,0,.79,0l.28,0,.23,0,.35,0,.38,0c1.37-.09,2.93-.2,4.42-.25,1.83-.05,3.68-.08,5.59-.08,1,0,1.94,0,2.87.09h1.34l1.45.08c.5,0,1,0,1.48,0,.95,0,2,0,3.16-.09h.15l1.39-.06a4.39,4.39,0,0,0,.15-8.78h-.15l-1.22,0h-.86c-.85,0-1.77.07-2.67.07-.56,0-1.11,0-1.66,0l-1.2-.07c-1.14-.06-2.87-.16-4.57-.16h-.41c-1.68,0-3.89,0-6.08.11h-.55a.44.44,0,0,1-.34-.13l.87-2.61.48-1.44.49-1.44c.31-1,.64-2.1,1-3.53l.06-.21.1-.36c.19-.66.38-1.33.58-2l.52-1.76.52-1.76.81-2.74c.66-2.27,1.25-4.81,1.64-6.5l.05-.21,0-.21.06-.25.06-.27,0-.16.06-.24c.36-1.52.8-3.42,1.32-5.23s1-3.43,1.51-5.13l.14-.49.16-.58q.93-3.12,1.82-6.26c.57-2.09,1.24-4.54,2.05-7.08a64.12,64.12,0,0,1,2.33-6.23c.36-.81.71-1.62,1.08-2.43l.44-1.06a4.79,4.79,0,0,0,0-2.32,4.51,4.51,0,0,0-2-2.65,4.78,4.78,0,0,0-3.39-.45Z" fill="#f3d4ca"/><path d="M502.8,155.67l.16-.1a2.94,2.94,0,0,1,.47-1.14c0-.35,0-.71,0-1.06,0-.74,0-1.5,0-2.26a15.88,15.88,0,0,0-.67,4.56Z" fill="#404040"/><path d="M538.75,181.85c-.11,1.13-.25,2.24-.37,3.36s-.25,2.42-.45,3.61c.21-.17.41-.35.6-.53l.64-.6c.06-.91.1-1.83.1-2.73,0-1.18,0-2.36,0-3.53a2.11,2.11,0,0,1-.49-.09c0,.17,0,.34,0,.51Z" fill="#404040"/><path d="M528.89,175.17l-.3,2,.5-.32c0-.29,0-.57,0-.86s0-.74,0-1.11l-.29.32Z" fill="#404040"/><path d="M527.6,187.15l0,.51c-.07,1.14-.06,2.28-.09,3.42a2.31,2.31,0,0,1-.28,1,5.85,5.85,0,0,0,.82.33c0-.62.06-1.24.1-1.86.08-1.3.16-2.6.25-3.91l-.77.46Z" fill="#404040"/><path d="M533.31,183.64c-.08.94-.15,1.89-.24,2.84s-.2,2.12-.29,3.18c-.07.83-.11,1.69-.19,2.55a14,14,0,0,0,2.73-1.45l-.21,0a2.3,2.3,0,0,1-1.66-2.17c-.06-1.18,0-2.37,0-3.56,0-.47,0-.94,0-1.42l-.11.08Z" fill="#404040"/><path d="M175.63,134.92a43.13,43.13,0,0,0-3.5,6.26c-.81,2-1.47,4.09-2.13,6.15a61.73,61.73,0,0,0-1.5,6.14,62.86,62.86,0,0,0-1.14,7.71c-.18,2.11-.46,4.2-.63,6.3s-.23,4.38-.26,6.57c0,2.41,0,4.82-.05,7.23,0,2.22,0,4.42.13,6.64.21,3,.67,6.06,1.18,9.07s1,5.89,1.64,8.8,1.44,6,2.12,9,1.44,5.81,1.91,8.76c.08.67.13,1.35.17,2,.07,1.06.26,2.1.42,3.14.1.82.21,1.63.33,2.45.27,2.22.6,4.42,1,6.63.42,2.62,1,5.19,1.64,7.77a4.5,4.5,0,1,0,8.67-2.39c-.89-3.7-1.62-7.41-2.17-11.17-.13-1.07-.28-2.14-.43-3.2s-.25-1.94-.39-2.9c-.15-1.47-.25-2.93-.46-4.39s-.61-3.05-.93-4.57c-.6-2.86-1.3-5.71-2-8.55-1.32-5.31-2.34-10.71-3.19-16.12a64.17,64.17,0,0,1-.61-7.59c0-3.07,0-6.14,0-9.2s.11-5.87.34-8.8c.11-1.32.3-2.62.43-3.93s.23-2.58.38-3.87a72.49,72.49,0,0,1,3.92-14.63c.83-1.68,1.92-3.23,2.88-4.82a4.54,4.54,0,0,0-1.62-6.16,4.4,4.4,0,0,0-2.23-.6,4.59,4.59,0,0,0-3.92,2.21Z" fill="#404040"/><path d="M549.13,315.79l-.61.06a4.36,4.36,0,0,0-1.94,1.14,12.92,12.92,0,0,0-2.19,2.47L544,320l0-.07c-1.38,1.8-2.76,3.68-4,5.45-1.15,1.59-2.3,3.16-3.48,4.73s-2.59,3.43-3.76,5.3-2,3.74-2.89,5.5l-.05.09-.38.78a4.69,4.69,0,0,0-.45,3.4,4.33,4.33,0,0,0,4.26,3.22,4.66,4.66,0,0,0,1.15-.13,4.37,4.37,0,0,0,2.65-2l.35-.73.09-.18c.57-1.2,1.53-3.2,2.59-5a49.51,49.51,0,0,1,2.91-4.29l.06-.1.07-.09.79-1.08c.42-.59.86-1.16,1.3-1.74l.19-.26.2-.26.18-.23c.43-.57.87-1.15,1.29-1.72,1.47-2.09,2.73-3.82,4.07-5.61l.13-.18a10.46,10.46,0,0,1,1.54-1.65,4.12,4.12,0,0,0,1.29-3.1,4.39,4.39,0,0,0-1.29-3.11,4.34,4.34,0,0,0-3.1-1.27l-.55.07Z" fill="#404040"/><path d="M293.21,235.69c-1,.16-2.1.34-3.15.53l-.63.1-.16,0c-.73.12-1.45.25-2.19.36l-.39.06-.47.07a43.31,43.31,0,0,0-5.5,1.09c-2.16.63-4.24,1.37-6,2-2.17.8-4.4,1.46-6.47,2.05a4.52,4.52,0,0,0-3.23,4.3,5.06,5.06,0,0,0,.12,1.12,4.52,4.52,0,0,0,4.29,3.24,4.6,4.6,0,0,0,1.13-.14c2.45-.72,4.2-1.23,6.09-1.92l.56-.21.11,0c1.27-.47,3.4-1.25,5.37-1.8l.2-.06c.86-.25,1.87-.53,2.83-.73.75-.14,1.49-.25,2.26-.36l1.09-.17c1.1-.16,2.19-.35,3.28-.53l.59-.1,2.66-.44a4.17,4.17,0,0,0,2.61-2,4.4,4.4,0,0,0-1.58-6l-1.07-.46a4.91,4.91,0,0,0-1.16-.13,4.48,4.48,0,0,0-1.19.16Z" fill="#404040"/><path d="M418.7,249.91l-.58.05a62.54,62.54,0,0,0-6.42,1.09,39.47,39.47,0,0,0-4.84,1.53l-.7.26c-1.07.39-2.13.8-3.19,1.21l-.19.07-.17.07-.52.19c-.76.31-1.52.6-2.29.89a4.91,4.91,0,0,0-2.65,2,4.65,4.65,0,0,0-.58,2.28,5.19,5.19,0,0,0,.12,1.12,4.57,4.57,0,0,0,2,2.64A4.84,4.84,0,0,0,401,264a3.29,3.29,0,0,0,1.12-.18l1-.39,1.37-.53.14-.06c1.86-.73,3.84-1.51,5.79-2.15l.61-.21a28.88,28.88,0,0,1,3.3-1l1-.2c1.05-.22,1.85-.38,2.62-.51,2.41-.24,4.78-.33,7-.39a4.39,4.39,0,1,0,0-8.77c-2,0-4.15.09-6.3.32Z" fill="#404040"/><path d="M279.78,296.72a4.81,4.81,0,0,0-2,2.65c-.22.6-.46,1.2-.72,1.83l-.06.16c-.35.87-.78,1.95-1.1,3a39.4,39.4,0,0,0-1.07,6.22,24,24,0,0,0-.19,2.48c0,.23,0,.46,0,.69a18.72,18.72,0,0,0,.32,3.32,6.37,6.37,0,0,0,1.11,2.46l.15.2.08.11.25.33a6.38,6.38,0,0,0,3,1.94c.49.09,1,.16,1.5.21a7.75,7.75,0,0,0,1.79-.24,7,7,0,0,0,3.16-2.19,17.73,17.73,0,0,0,3.31-7.56c.29-1.26.48-2.21.59-3.06l.1-.55a20.12,20.12,0,0,0,.31-3,15.46,15.46,0,0,0-.16-2.11,7.38,7.38,0,0,0-1.2-3.78,7.91,7.91,0,0,0-4.47-3.31,8.38,8.38,0,0,0-.83-.13l-.42-.14a5.08,5.08,0,0,0-1.15-.12,4.6,4.6,0,0,0-2.24.57Z" fill="#404040"/><path d="M410.21,295a4.56,4.56,0,0,0-2.4,1.22,17.28,17.28,0,0,0-5,6,25,25,0,0,0-1.29,3.66,30.17,30.17,0,0,0-.62,3.8,29,29,0,0,0-.29,3.79,11.37,11.37,0,0,0,.48,3.47,7.63,7.63,0,0,0,5.2,4.93,6.14,6.14,0,0,0,1.57.2,7.31,7.31,0,0,0,5.48-2.74,15.2,15.2,0,0,0,2.09-3.2A38.24,38.24,0,0,0,417,312a37.46,37.46,0,0,0,1.39-6.1l.11-.67a17.19,17.19,0,0,0,.13-6.27,6.74,6.74,0,0,0-1.75-3.23,5.13,5.13,0,0,0-3.77-1.57,5.28,5.28,0,0,0-2.92.89Z" fill="#404040"/><path d="M341.06,339.15a4.33,4.33,0,0,0-2.65,2,105.25,105.25,0,0,0-5,13.06q-.62,2.13-1.2,4.26l-.06.24-.07.26,0,.1c-.62,2.25-1.35,4.88-2.2,7.49-1.13,3.58-2.16,7.47-3.33,12.62-.74,3.29-1.75,6.67-2.5,9.15l-.07.25,0,.14c-.32,1.07-.63,2.14-1,3.22l-.35,1.23c-.58,2.14-1.05,3.62-1.35,4.48l-.78,2.32-.4,1.21-.61,1.81c-.11.33-.21.67-.31,1-.15.51-.3,1-.49,1.52-.08.25-.18.5-.3.8s-.3.8-.44,1.2a5.09,5.09,0,0,0-.19,1.4,4.91,4.91,0,0,0,2.49,4.27,8.49,8.49,0,0,0,3.64.76c.26,0,.53,0,.79,0l.28,0,.23,0,.35,0,.38,0c1.37-.09,2.93-.2,4.42-.25,1.83-.05,3.68-.08,5.59-.08,1,0,1.94,0,2.87.09h1.34l1.45.08c.5,0,1,0,1.48,0,.95,0,2,0,3.16-.09h.15l1.39-.06a4.39,4.39,0,0,0,.15-8.78h-.15l-1.22,0h-.86c-.85,0-1.77.07-2.67.07-.56,0-1.11,0-1.66,0l-1.2-.07c-1.14-.06-2.87-.16-4.57-.16h-.41c-1.68,0-3.89,0-6.08.11h-.55a.44.44,0,0,1-.34-.13l.87-2.61.48-1.44.49-1.44c.31-1,.64-2.1,1-3.53l.06-.21.1-.36c.19-.66.38-1.33.58-2l.52-1.76.52-1.76.81-2.74c.66-2.27,1.25-4.81,1.64-6.5l.05-.21,0-.21.06-.25.06-.27,0-.16.06-.24c.36-1.52.8-3.42,1.32-5.23s1-3.43,1.51-5.13l.14-.49.16-.58q.93-3.12,1.82-6.26c.57-2.09,1.24-4.54,2.05-7.08a64.12,64.12,0,0,1,2.33-6.23c.36-.81.71-1.62,1.08-2.43l.44-1.06a4.79,4.79,0,0,0,0-2.32,4.51,4.51,0,0,0-2-2.65,4.78,4.78,0,0,0-3.39-.45Z" fill="#404040"/><path d="M502.83,149.64a16.76,16.76,0,0,0-.64,6.27l0,.39a2.49,2.49,0,0,1,.58-.63,15.88,15.88,0,0,1,.67-4.56c0-.59,0-1.18,0-1.77l-.6.3Z" fill="#ffd0af"/><path d="M281.24,471.37a4.73,4.73,0,0,0-3.52,2.19,4.56,4.56,0,0,0-.45,3.44,4.66,4.66,0,0,0,2.05,2.66l2.29,1.58c3,2.05,6.32,4.39,9.82,6.37a40.46,40.46,0,0,0,6.92,3.31,47.88,47.88,0,0,0,6.91,1.57,104.65,104.65,0,0,0,14.32,1.15c4.49.13,9.17.19,13.92.19,2.49,0,5-.18,6.84-.34s3.94-.49,5.7-.79l.18,0,.12,0,.19,0,1.66-.29a4.31,4.31,0,0,0,2.65-2,4.53,4.53,0,0,0,.45-3.43,4.59,4.59,0,0,0-2-2.67,4.22,4.22,0,0,0-2.16-.56,6.87,6.87,0,0,0-1.29.13l-.56.09c-1.33.22-2.65.44-4,.63a90.69,90.69,0,0,1-9.69.44c-1.68,0-3.35,0-5-.05h-1.44c-6.18-.09-11.35-.26-16.51-.82-1.65-.25-3-.48-4.3-.73a28.76,28.76,0,0,1-4.37-1.3,69.48,69.48,0,0,1-7.59-4.26c-1.91-1.22-3.8-2.53-5.69-3.83l-.28-.19-.27-.2-1.14-.78-1.14-.79a3.81,3.81,0,0,0-2.13-.63l-.45,0Z" fill="#cdbbb0"/><path d="M281.24,471.37a4.73,4.73,0,0,0-3.52,2.19,4.56,4.56,0,0,0-.45,3.44,4.66,4.66,0,0,0,2.05,2.66l2.29,1.58c3,2.05,6.32,4.39,9.82,6.37a40.46,40.46,0,0,0,6.92,3.31,47.88,47.88,0,0,0,6.91,1.57,104.65,104.65,0,0,0,14.32,1.15c4.49.13,9.17.19,13.92.19,2.49,0,5-.18,6.84-.34s3.94-.49,5.7-.79l.18,0,.12,0,.19,0,1.66-.29a4.31,4.31,0,0,0,2.65-2,4.53,4.53,0,0,0,.45-3.43,4.59,4.59,0,0,0-2-2.67,4.22,4.22,0,0,0-2.16-.56,6.87,6.87,0,0,0-1.29.13l-.56.09c-1.33.22-2.65.44-4,.63a90.69,90.69,0,0,1-9.69.44c-1.68,0-3.35,0-5-.05h-1.44c-6.18-.09-11.35-.26-16.51-.82-1.65-.25-3-.48-4.3-.73a28.76,28.76,0,0,1-4.37-1.3,69.48,69.48,0,0,1-7.59-4.26c-1.91-1.22-3.8-2.53-5.69-3.83l-.28-.19-.27-.2-1.14-.78-1.14-.79a3.81,3.81,0,0,0-2.13-.63l-.45,0Z" fill="#404040"/><path d="M502.83,149.64a16.76,16.76,0,0,0-.64,6.27l0,.39a2.24,2.24,0,0,1,.74-.73,2.94,2.94,0,0,1,.47-1.14c0-.35,0-.71,0-1.06,0-1.32,0-2.67,0-4l-.6.3Z" fill="#404040"/><path d="M482.62,158.3a300,300,0,0,1-36.44,11.1,394.66,394.66,0,0,1-74,10.08c-6.53.28-13.13.43-19.62.43a432.81,432.81,0,0,1-54.78-3.45,383.66,383.66,0,0,1-68.66-14.93l-.24.52c-.5,1-.95,2-1.37,3.1l-.28.63c-.63,1.21-1.22,2.41-1.75,3.56l-.38.8,0,.1c-.15.31-.31.64-.46,1l-.22.43a1.25,1.25,0,0,0-.12.31c-.15.36-.31.73-.44,1.09l-.87,2.22-.87,2.21c-.6,1.49-1.17,3.09-1.69,4.6l-.66,1.83c-1,2.6-1.7,4.76-2.24,6.58l-.23.77-.16.51c-1.15,3.7-2.52,8.13-3.9,12.88l-.22.74-.28,1-.21.67-.08.29-.07.22,0,.11-.05.18c-.34,1.09-.84,2.71-1.23,4.23l-.34,1.33L209,220c-.39,1.53-.76,3.13-1.09,4.64l-.09.38-.09.38-.47,2.1c-.4,1.74-.81,3.49-1.23,5.23l-.42,1.78c-.94,4-2,8.29-3.24,13.17-2.23,8.73-4.63,18.46-7.34,29.76-2.14,8.95-4.24,18.38-6.44,28.85l-.21,1-.2,1a1.76,1.76,0,0,0-.73-.2,19.79,19.79,0,0,0-2-.12h-.39c-2.33-.45-4.67-.79-7.6-1.08-2.32-.23-4.55-.35-6.63-.35h-.28a42,42,0,0,0-14.43,2.61,52.93,52.93,0,0,0-12.54,6.62,70.09,70.09,0,0,0-5.82,4.59c-.72.63-1.41,1.28-2.11,2a23.7,23.7,0,0,0-2.22,2.69l-.48.62a31.09,31.09,0,0,0-3.47,6,30.12,30.12,0,0,0-2.23,6.59c-.21,1.1-.36,2.22-.48,3.12l0,.22-.12.81c-.12,1.06-.22,2.25-.29,3.52a50.26,50.26,0,0,0,.3,7.1,36.46,36.46,0,0,0,1.61,7.38,42,42,0,0,0,3.07,6.91,25.44,25.44,0,0,0,4.42,5.91,24.87,24.87,0,0,0,6.2,4.27,41,41,0,0,0,6.77,2.75,41.61,41.61,0,0,0,7.36,1.28l.64.08a93.43,93.43,0,0,0,9.73.56c1,0,2.16,0,3.46-.08a40,40,0,0,0,5.59-.78c.57-.13,1.13-.27,1.7-.42a6.55,6.55,0,0,0-.27,1.29l-.07.52c-.32,2.43-.59,5-.82,7.93-.09,1.24-.14,2.48-.2,3.72s-.09,2.29-.17,3.44c-.1,1.34-.2,2.69-.32,4l-.06.73-.07.7,0,.28,0,.18c-.18,2.16-.44,5.12-.57,7.93-.26,5.21-.33,10.36-.38,14.71l0,2.22v.16c-.05,3.29-.11,7,.14,10.55l.12,1.81,0,.23v.14l0,.19c.07,1.17.18,2.77.33,4.2.17,1.68.37,3.36.58,5l.25,2c0,.3.07.59.12.88l.1,1.74,0,.86v.12l0,.41c0,.7.08,1.33.1,2l0,.91,0,.9c.06,1.43.13,3.05.25,4.65.17,2.16.42,4.28.69,6.44.64,5.09,1.61,10.23,2.38,14.14.13.67.25,1.34.37,2l0,.15c.23,1.3.47,2.64.82,3.95.43,1.64.91,3.37,1.73,6.17a57.65,57.65,0,0,0,2.22,6.22c.34.81.66,1.62,1,2.43l.17.43.15.4.16.4.15.38c.28.72.56,1.44.85,2.15,1.17,2.91,2.59,5.77,4,8.53l.05.12.1.19c.61,1.22,1.22,2.44,1.81,3.66a68,68,0,0,0,6.5,10.86c1.54,2.08,2.85,3.7,4.14,5.13,1.13,1.25,2.3,2.45,3.32,3.5l.15.15.11.11.1.11c.61.61,1.21,1.25,1.81,1.88l.2.21.38.4,1.53,1.58c1.49,1.49,3.09,3,5,4.63a33.67,33.67,0,0,0,5.88,4.18c.43.23.86.46,1.3.68l.32.18.39.2.25.13c1.15.58,2.29,1.17,3.42,1.8l1.65.94.45.26.36.21.32.18.25.14c.93.55,1.87,1.1,2.82,1.61A66.94,66.94,0,0,0,240,565c3.71,1.56,7.59,3,11.52,4.38,4.61,1.56,9.56,3,15.58,4.45,1.94.48,3.88.9,5.87,1.33l.2,0,.27.06,1.48.31c2.42.53,4.94.81,7.17,1.07l1.46.16.17,0,.15,0,.17,0c2,.26,3.61.48,5.27.6,1.88.13,4,.22,6.55.29,3.63.09,7.32.1,10.9.11H310c1.73,0,4,0,6.63-.13,3.12.12,6.17.16,8.85.19h2.15l5,0h1c1.83,0,3.7-.13,5.29-.24.91,0,1.84,0,2.73,0,1.58,0,3,0,4.45-.09,5.42-.24,9.94-.48,14.67-1.1,5.39-.73,10.73-1.93,14.78-2.9s8.74-2.12,13.44-3.46c2.22-.62,4.38-1.36,6.58-2.13,1-.33,1.91-.77,2.75-1.15.52-.24,1-.44,1.44-.63.74-.32,1.48-.69,2.23-1.07l1.09-.55a80,80,0,0,0,11.6-7.37l2-1.48c3.07-2.23,6.25-4.55,9.52-6.58,1.31-.8,2.67-1.58,4-2.33l.23-.14.25-.14.22-.12.32-.18.12-.07,1.32-.75,1-.57a55.05,55.05,0,0,0,4.87-3c2-1.39,4-3,5.37-4.11l.1-.08.78-.62a47.24,47.24,0,0,0,4.85-4.42c1.67-1.79,3.25-3.58,4.84-5.48,1.77-2.13,3.41-4.49,4.78-6.52a113.92,113.92,0,0,0,6.11-10.33l.12-.18.14-.19c.34-.44.66-.88.95-1.28l.11-.14.08-.11h-.26a2.29,2.29,0,0,0,.9-.84c1.1-1.35,2.09-2.72,3-4,1.16-1.48,2.4-3.07,3.53-4.74a36,36,0,0,0,2.22-3.84l.56-1,.56-1,.22-.4.11-.19c.51-.92,1.19-2.13,1.75-3.37.95-2,1.81-3.77,2.73-5.61l.12-.23.09-.17.15-.3c.68-1.32,1.43-2.78,2.19-4.17s1.4-2.74,1.83-3.68c.28-.59.55-1.17.83-1.74.19-.39.37-.77.55-1.16l.1-.22.11-.23.07-.16.43-.94c.39-.78.72-1.61,1-2.33l.1-.26.07-.2.14-.34.33-.83c.78-1.87,1.55-3.85,2.29-5.89.25-.71.47-1.42.7-2.14l.06-.2.07-.21c.2-.61.4-1.21.61-1.81.43-1.21.84-2.47,1.23-3.66l0-.1.07-.24.13-.41c.35-1.07.71-2.13,1.08-3.2l.05-.15.39-1.15c.21-.62.41-1.23.6-1.84l.15-.48.05-.12c.28-.88.56-1.75.86-2.61l.81-2.29c.74-2,1.66-4.57,2.28-7,.18-.73.39-1.44.61-2.15.37-1.21.63-2.08.83-3a43.23,43.23,0,0,0,.68-4.54c.1-.51.21-1,.34-1.55l.22-.93c.27-1.16.41-2.2.59-3.54.08-.43.2-.86.32-1.3l.05-.16.05-.18,0-.11,0-.12.05-.15c.13-.49.23-.84.3-1.18.23-1.22.38-2.51.49-3.63l0-.21a12.32,12.32,0,0,1,.33-1.45c.14-.52.28-1,.4-1.54.21-1.12.38-2.4.53-4,.07-.89.09-1.78.12-2.67v-.43c0-.86.05-1.78.15-2.66.39-2.89.69-5.36,1-8,.08-.56.18-1.12.28-1.68l.06-.32c.19-1.07.4-2.3.57-3.46.12-.91.25-1.86.33-2.8,0-.47.06-.95.08-1.43s.05-1,.09-1.45a81.36,81.36,0,0,0,1.17-8.82,4,4,0,0,0-.73-2.49,9.34,9.34,0,0,0,.4-1.16,54.51,54.51,0,0,0,7.76,1.58l.13,0,.15,0a58.86,58.86,0,0,0,7.13.63h.41c2,0,4.23-.11,6.75-.35s5.35-.6,8.1-1.16a70,70,0,0,0,6.78-1.82,61.84,61.84,0,0,0,7.26-2.82,31.48,31.48,0,0,0,5.34-3.29l.3-.22a36.68,36.68,0,0,0,10.55-11.19c2.51-4.27,3.54-9.11,4.33-15.06a55,55,0,0,0,.29-7.16c-.09-2.41-.44-5.05-.67-6.8l0-.16-.05-.43,0-.15a45,45,0,0,0-1.49-6.58,40.4,40.4,0,0,0-2.88-7.42,29.57,29.57,0,0,0-4.08-6,35.75,35.75,0,0,0-5.52-5,27,27,0,0,0-7-4,21.64,21.64,0,0,0-3-.93,30.47,30.47,0,0,0-6.25-.63h-.12a39.3,39.3,0,0,0-5.43.51l-.13,0h-.13l-.12,0-.12,0h-.12l-1.35.19c-2.16.32-4.3.8-6,1.18l-.14,0-.2.05-.23,0-.12,0-.17,0a49.3,49.3,0,0,0-6.54,1.87l-.17.06-1.11.43a8,8,0,0,0,.59-2l.09-.52c1.11-5.79,2.22-11.49,3.39-17.13a1.87,1.87,0,0,1,0-.25c.71-4.73,1.6-9.5,2.46-14.12.63-3.41,1.29-6.94,1.87-10.42.51-3,1-6.08,1.44-9.12l.52-3.39.69-4.36q.6-3.87,1.19-7.73c.22-1.57.43-3.15.67-4.72.3-2.35.57-4.7.83-7.06.12-1.08.24-2.17.37-3.25.21-1.87.38-3.74.55-5.61.16-1.69.31-3.38.49-5.07s.37-3.74.53-6.13l.08-1.09.12-1.86-.64.6c-.19.18-.4.36-.6.53a3.06,3.06,0,0,0,0,.32,2.19,2.19,0,0,1-1,1.34,2.28,2.28,0,0,1-1.53.28,13.08,13.08,0,0,1-2.72,1.44,16.48,16.48,0,0,1-.25,1.87,2.26,2.26,0,0,1-4.43-.59c.05-.34.08-.68.1-1a6.25,6.25,0,0,1-.81-.33,2.21,2.21,0,0,1-2,1.2,2.27,2.27,0,0,1-2.25-2.25c0-.44,0-.87,0-1.31-1.31.69-2.65,1.34-4,2l-.36.18c-1.93.92-3.81,1.76-5.59,2.48l-1.16.46c-1.34.56-2.74,1.13-4.15,1.59a33.69,33.69,0,0,1-6.58,1.46l-.8.11a17.12,17.12,0,0,1-2.37.22h-.27a5,5,0,0,1-3.65-1.66,4.06,4.06,0,0,1-1-1.77l-.06-.16-.07-.16a4.72,4.72,0,0,1-.13-1.89,9.46,9.46,0,0,1,.6-2.61l.07-.18.18-.43c.16-.45.32-.89.47-1.34s.28-.89.41-1.34.23-.77.35-1.15c.66-2,1.29-3.9,1.94-5.68l.07-.2c1.32-3.62,2.69-7.37,3.8-11.14q.81-2.76,1.4-5.44c-1.21-1.49-2.47-2.93-3.74-4.37a2.33,2.33,0,0,1-.66-1.59,2.25,2.25,0,0,1,3.84-1.59l.68.78h0c0-.14,0-.27,0-.4a15,15,0,0,1,0-2.52,15.44,15.44,0,0,1,.67-3.74c-6.37,3.09-13.17,6-20.21,8.66ZM265.15,247.41a4.53,4.53,0,0,1,3.1-5.42c2.07-.59,4.3-1.25,6.47-2.05,1.76-.64,3.84-1.38,6-2a45,45,0,0,1,5.51-1.1l.47-.07.39,0,2.18-.37.16,0,.63-.11c1.05-.18,2.1-.36,3.15-.52a4.48,4.48,0,0,1,1.19-.16,4.91,4.91,0,0,1,1.16.13l1.07.46a4.39,4.39,0,0,1,1.58,6,4.16,4.16,0,0,1-2.61,2l-2.66.44-.59.1c-1.09.18-2.18.37-3.28.54l-1.09.16c-.77.11-1.51.22-2.26.36-1,.2-2,.48-2.83.73l-.2.06c-2,.55-4.1,1.33-5.37,1.79l-.11,0-.56.21c-1.89.68-3.64,1.2-6.09,1.92a4.6,4.6,0,0,1-1.13.14,4.5,4.5,0,0,1-4.28-3.24Zm133.58,15.92a4.52,4.52,0,0,1-2-2.64,4.81,4.81,0,0,1,.45-3.4,4.87,4.87,0,0,1,2.65-2l2.29-.88.52-.2.18-.07.18-.07c1.06-.41,2.12-.82,3.19-1.21l.7-.26a39.47,39.47,0,0,1,4.84-1.53,59.92,59.92,0,0,1,6.42-1.09l.58-.05c2.15-.23,4.3-.29,6.3-.33a4.39,4.39,0,0,1,0,8.78c-2.2.06-4.57.15-7,.39-.77.13-1.57.29-2.61.51l-1,.2a28.78,28.78,0,0,0-3.3,1l-.61.22c-1.95.64-3.93,1.42-5.79,2.15l-.14.06-1.37.53-1,.39A3.29,3.29,0,0,1,401,264a4.84,4.84,0,0,1-2.31-.62Zm7.59,58.51a7.62,7.62,0,0,1-5.19-4.93,11,11,0,0,1-.49-3.47,29,29,0,0,1,.29-3.79,30.17,30.17,0,0,1,.62-3.8,25,25,0,0,1,1.29-3.66,17.28,17.28,0,0,1,5-6,4.61,4.61,0,0,1,2.41-1.23,5.21,5.21,0,0,1,2.91-.88,5.13,5.13,0,0,1,3.77,1.57,6.8,6.8,0,0,1,1.76,3.23,17.14,17.14,0,0,1-.14,6.26l-.11.68A37.46,37.46,0,0,1,417,312a38.09,38.09,0,0,1-1.56,4.13,15.25,15.25,0,0,1-2.09,3.21,7.31,7.31,0,0,1-5.48,2.74,6.14,6.14,0,0,1-1.57-.2Zm-126.83.31a6.45,6.45,0,0,1-3-1.94l-.25-.33-.08-.11-.15-.2a6.28,6.28,0,0,1-1.11-2.47,18.51,18.51,0,0,1-.32-3.3c0-.24,0-.47,0-.7a23.8,23.8,0,0,1,.19-2.48,37.81,37.81,0,0,1,1.08-6.22c.32-1.09.75-2.17,1.09-3l.07-.16c.25-.63.5-1.23.71-1.83a4.81,4.81,0,0,1,2-2.65,4.53,4.53,0,0,1,2.24-.58,5.05,5.05,0,0,1,1.15.13l.42.14c.27,0,.55.07.84.13a7.92,7.92,0,0,1,4.46,3.31,7.38,7.38,0,0,1,1.2,3.78,15.16,15.16,0,0,1,.17,2.11,21.55,21.55,0,0,1-.32,3l-.09.54c-.12.86-.3,1.81-.6,3.07a17.6,17.6,0,0,1-3.31,7.56,6.94,6.94,0,0,1-3.16,2.18,7.15,7.15,0,0,1-1.79.25c-.5-.05-1-.12-1.5-.21Zm264.9-2.69a12.92,12.92,0,0,1,2.19-2.47,4.36,4.36,0,0,1,1.94-1.14l.61-.06.55-.08a4.37,4.37,0,0,1,4.39,4.39,4.15,4.15,0,0,1-1.28,3.1,10.53,10.53,0,0,0-1.55,1.65l-.13.18c-1.34,1.79-2.6,3.52-4.07,5.61-.42.57-.86,1.15-1.29,1.72l-.18.23-.19.26-.2.26c-.44.58-.88,1.15-1.3,1.74l-.79,1.08L543,336l-.06.1a48,48,0,0,0-2.91,4.29c-1,1.75-2,3.76-2.59,5l-.08.18-.36.73a4.38,4.38,0,0,1-2.64,2,4.79,4.79,0,0,1-1.16.13,4.46,4.46,0,0,1-2.24-.59,4.55,4.55,0,0,1-2-2.63,4.69,4.69,0,0,1,.45-3.4l.38-.78.05-.09c.86-1.76,1.82-3.74,2.89-5.5s2.5-3.66,3.76-5.31,2.33-3.14,3.48-4.72c1.28-1.77,2.66-3.66,4-5.45l0,.06.43-.57ZM320.23,413.2a4.88,4.88,0,0,1-2.49-4.26,4.77,4.77,0,0,1,.2-1.4c.14-.4.29-.8.44-1.2s.21-.55.3-.8c.18-.5.34-1,.49-1.52.1-.34.2-.68.31-1l.6-1.81.41-1.21.78-2.32c.29-.86.77-2.33,1.35-4.47L323,392c.31-1.08.63-2.15.95-3.22l0-.15.08-.25c.74-2.47,1.75-5.85,2.5-9.15,1.16-5.14,2.19-9,3.32-12.61.85-2.62,1.59-5.24,2.2-7.49l0-.1.07-.26.06-.24c.4-1.42.8-2.84,1.21-4.26a103.77,103.77,0,0,1,5-13.06,4.33,4.33,0,0,1,2.65-2,4.66,4.66,0,0,1,1.15-.13,4.39,4.39,0,0,1,4.26,5.55l-.44,1.07c-.37.8-.72,1.6-1.08,2.42a65.56,65.56,0,0,0-2.32,6.24c-.82,2.53-1.49,5-2.06,7.07s-1.2,4.18-1.82,6.26l-.16.58-.14.49c-.51,1.71-1,3.42-1.5,5.13s-1,3.71-1.33,5.24l-.06.23,0,.16-.06.27-.06.25,0,.21-.05.22c-.39,1.68-1,4.22-1.64,6.49l-.81,2.74-.52,1.76-.52,1.76c-.2.66-.39,1.33-.58,2l-.1.35-.06.21c-.4,1.43-.73,2.55-1,3.53l-.49,1.44-.48,1.44-.87,2.61a.46.46,0,0,0,.35.13h.54c2.19-.08,4.4-.1,6.08-.12h.41c1.7,0,3.43.09,4.57.16l1.2.06c.55,0,1.11,0,1.66,0,.9,0,1.82,0,2.67-.07h.86l1.22,0h.15a4.39,4.39,0,0,1-.15,8.78l-1.39.06h-.15c-1.17.06-2.21.09-3.16.09-.49,0-1,0-1.48,0l-1.45-.08h-.94l-.16,0h-.23c-.94,0-1.91-.09-2.88-.09-1.91,0-3.76,0-5.59.08-1.49,0-3.05.16-4.42.25l-.38,0-.35,0-.22,0-.29,0c-.26,0-.53,0-.79,0a8.35,8.35,0,0,1-3.64-.77Zm-.65,80.44a104.39,104.39,0,0,1-14.31-1.15,46.51,46.51,0,0,1-6.92-1.58,39.65,39.65,0,0,1-6.92-3.3c-3.5-2-6.86-4.32-9.82-6.38l-2.29-1.57a4.7,4.7,0,0,1-2.05-2.66,4.52,4.52,0,0,1,.45-3.43,4.73,4.73,0,0,1,3.52-2.21l.45,0a3.81,3.81,0,0,1,2.13.63l1.14.79,1.14.78.28.2.27.19c1.89,1.3,3.78,2.6,5.69,3.83a69.48,69.48,0,0,0,7.59,4.26,28.52,28.52,0,0,0,4.38,1.3c1.28.25,2.64.48,4.29.73,5.16.55,10.34.73,16.51.81l1.44,0c1.67,0,3.34.05,5,.05a88.14,88.14,0,0,0,9.69-.44c1.33-.19,2.65-.41,4-.64l.56-.09a7.93,7.93,0,0,1,1.29-.12,4.19,4.19,0,0,1,2.16.56,4.47,4.47,0,0,1,1.59,6.1,4.27,4.27,0,0,1-2.65,2l-1.65.29-.2,0-.12,0-.18,0c-1.76.3-3.76.64-5.7.79s-4.35.33-6.84.34c-4.75,0-9.43-.07-13.92-.19Z" fill="#c48663"/><path d="M240.7,156.67h0q5.07,1.47,10.26,2.81c-3.44-.9-6.83-1.84-10.14-2.82Z" fill="#c48663"/><path d="M521.43,179.62l-.69.47c-1.58,1.32-2.9,2.37-4.16,3.29s-2.37,1.63-3.58,2.36a103.36,103.36,0,0,0,9.82-5.06l-.06-2-1.33.89Z" fill="#c48663"/><path d="M529.09,174c-.07.4-.13.79-.2,1.18l.29-.31c0-.33,0-.65,0-1l-.13.1Z" fill="#c48663"/><path d="M472.65,482.47a4.36,4.36,0,0,0-1.84,2.39c-.32.8-.64,1.61-1,2.41-1.28,2.88-2.57,5.73-4.08,8.5a60.81,60.81,0,0,1-4.22,6.31c-1.16,1.61-2.26,3.26-3.44,4.85s-2.18,3.2-3.33,4.77c-.89,1.12-1.8,2.22-2.65,3.38s-1.56,2.29-2.39,3.4c-3.23,4-6.72,7.82-10.25,11.58-1.61,1.71-3.34,3.35-5.1,4.91-1.95,1.73-3.9,3.47-5.93,5.1L427,541.22l.6-.46-.38.29,0,0c-1.18.92-2.42,1.76-3.68,2.58s-2.67,1.9-4,2.91a67.77,67.77,0,0,1-6.71,4.38c-2,1.13-4,2.31-6.05,3.24l-.46.19c-.23.1-.47.19-.71.27l-.16-.14a4.12,4.12,0,0,0-2.83-1.18,4,4,0,0,0-2.83,6.83,11.85,11.85,0,0,0,2.46,1.89,6.89,6.89,0,0,0,4.64.56,17.12,17.12,0,0,0,3.47-1.32l-.61.26a69.51,69.51,0,0,0,7.27-3.78,72.94,72.94,0,0,0,8.18-5.54l-.81.62c1.16-.88,2.33-1.73,3.54-2.54s2.56-1.76,3.8-2.71l-.24.18.3-.23.51-.4-.41.32c2.23-1.73,4.4-3.52,6.52-5.39,1.86-1.64,3.66-3.34,5.44-5.06s3.6-3.72,5.29-5.67c.83-.94,1.66-1.87,2.52-2.79s1.66-2,2.51-3c.59-.69,1.17-1.39,1.73-2.11,1.21-1.58,2.3-3.25,3.49-4.85.79-1,1.59-2,2.34-3s1.4-2.15,2.17-3.18c1.43-1.91,2.76-3.9,4.16-5.83.72-1,1.43-2,2.15-3a46.77,46.77,0,0,0,2.9-4.68A107.87,107.87,0,0,0,478.52,487a3.84,3.84,0,0,0-.4-3.08,4,4,0,0,0-2.39-1.84,4.15,4.15,0,0,0-1.05-.14,4,4,0,0,0-2,.55ZM450,518.13l-.19.24,0,0,.21-.26Zm5.73,5.56.16-.21-.16.21Zm.22-.29-.06.08.14-.18-.08.1Zm.08-.1.32-.42-.32.42Z" fill="#c48663"/><path d="M492.43,154.36a30.41,30.41,0,0,0-4.5,5.87,15.62,15.62,0,0,0-1.05,2.23,7.74,7.74,0,0,0-.54,1.69c0,.35-.09.71-.14,1.06.05.54.12,1.08.2,1.61s.39,1,.6,1.45a6.61,6.61,0,0,0,1,1.22,4.83,4.83,0,0,0,1.75,1.11c0,.31-.09.62-.11.93a8.5,8.5,0,0,0,.18,2,5,5,0,0,0,1.21,2,5,5,0,0,0,2,1.18,5.23,5.23,0,0,0,4.3-.94,11,11,0,0,0,1.3-1.07c.72-2,1.41-4.13,2-6.21a80.42,80.42,0,0,0,2.45-11.15,37.4,37.4,0,0,0,.33-4c0-1.32,0-2.67,0-4-3.54,1.74-7.22,3.41-11,5Z" fill="#c48663"/><path d="M535.22,168.26a47.2,47.2,0,0,1-4.21,4.12c-1.9,1.61-3.69,3.05-5.47,4.39-1.33,1-2.74,1.94-4.11,2.85l-.69.47c-1.58,1.32-2.9,2.37-4.16,3.29s-2.37,1.63-3.58,2.36a103.72,103.72,0,0,0,10.76-5.62,150,150,0,0,0,12.65-8.33c1-.76,1.93-1.58,2.9-2.42q0-3.06.07-6.1c-1.27,1.62-2.65,3.33-4.16,5Z" fill="#c48663"/><path d="M538.64,180.09c-1.14.84-2.35,1.62-3.53,2.38l-1.29.83c-1.64,1.08-3.32,2.12-5,3.12-1.84,1.11-3.52,2.09-5.26,3-1.49.8-3,1.55-4.54,2.27l-.36.18-.71.33a4,4,0,0,0,1.31.88q-.3,2.56-.54,5.13a9.07,9.07,0,0,0-.12,1.38,4,4,0,0,0,.54,2l.18.22,0,.5a6,6,0,0,0,1,4,4,4,0,0,0,3.46,2,4,4,0,0,0,3.45-2A17.89,17.89,0,0,0,528.5,203a6.37,6.37,0,0,0,.8.59,4,4,0,0,0,4,0l1.06-.81a5.83,5.83,0,0,0,1.26-2.3c.18-.55.33-1.1.47-1.66s.27-1.16.41-1.74a4.59,4.59,0,0,0,2-1.72l.05-.06c.13-1.38.25-2.9.37-4.65l.08-1.09c.1-1.51.21-3.06.22-4.59,0-1.79,0-3.59,0-5.37l-.66.5Z" fill="#c48663"/><path d="M438.14,87.5H431.9c-3.54,0-7.07,0-10.61.06-10.28.11-18.62.31-26.26.62l-2.13.08c-1.34,0-2.73.08-4.09.17l-4.32.28-2.89.19c-4.66.3-9.43.66-13.53,1l-1.31.1c-1.14.08-2.32.17-3.47.3l-8.59,1c-3.88.45-7.8,1.07-11.6,1.67l-2.27.35c-3.23.51-6.48,1.16-9.63,1.79l-3.32.67c-3,.58-6,1.29-8.86,2l-3.75.88c-1.18.27-2.36.61-3.51.94l-1.54.43-6.9,1.9c-.39.11-.78.25-1.16.38l-.58.2-2.25.76-2.27.76-1.49.48c-1.2.39-2.45.79-3.65,1.25L288.59,107c-2.93,1.09-6,2.22-8.91,3.4l-7.89,3.17c-1.47.59-2.94,1.25-4.37,1.9l-1.25.56-1.73.76c-1.24.54-2.52,1.1-3.75,1.71l-3.63,1.78L253.45,122c-1.32.65-2.61,1.41-3.87,2.15l-1.63.94c-1.2.69-2.33,1.37-3.43,2.09s-2.34,1.6-3.75,2.66a46.27,46.27,0,0,0-3.8,3.08c-2.44,2.3-5.28,5-7.86,8a35.14,35.14,0,0,0-3.83,5.25c-.46.76-.9,1.53-1.34,2.3l-.27.48c-.77,1.33-1.51,2.67-2.26,4l-.64,1.16a4.07,4.07,0,0,0,1.44,5.49,4,4,0,0,0,2,.53,4,4,0,0,0,.6,0c.13,0,.27.11.41.15a379.54,379.54,0,0,0,72.59,16.22,432.81,432.81,0,0,0,54.78,3.45c6.49,0,13.09-.14,19.62-.43a394.54,394.54,0,0,0,74-10.08,300,300,0,0,0,36.44-11.1c7.26-2.74,14.26-5.75,20.81-9,.05,1.36.06,2.71,0,4a37.4,37.4,0,0,1-.33,4,79,79,0,0,1-2.45,11.15c-1.11,3.77-2.48,7.52-3.8,11.14l-.07.2c-.65,1.78-1.28,3.63-1.94,5.68-.12.38-.23.77-.35,1.15s-.27.9-.41,1.34-.31.9-.47,1.34l-.18.43-.07.18a9.37,9.37,0,0,0-.6,2.61,4.72,4.72,0,0,0,.13,1.89l.06.15.07.17a4,4,0,0,0,1,1.76,5,5,0,0,0,3.65,1.66H498a18.81,18.81,0,0,0,2.37-.22l.8-.11a34.45,34.45,0,0,0,6.58-1.45c1.41-.47,2.81-1,4.16-1.6l1.15-.46c1.78-.72,3.67-1.55,5.59-2.48l.36-.18c1.5-.72,3.05-1.47,4.54-2.27,1.74-.94,3.41-1.93,5.27-3,1.67-1,3.35-2,5-3.12l1.28-.83c1.18-.76,2.39-1.54,3.53-2.38l.67-.5c0,1.78,0,3.58,0,5.37,0,1.53-.13,3.08-.23,4.59l-.08,1.09c-.16,2.4-.33,4.34-.53,6.13s-.33,3.38-.49,5.07c-.17,1.87-.34,3.74-.55,5.61-.13,1.08-.25,2.17-.37,3.25-.26,2.36-.53,4.71-.83,7.06-.23,1.57-.45,3.14-.67,4.71q-.59,3.87-1.2,7.74l-.68,4.35-.52,3.4c-.47,3-.93,6.08-1.44,9.12-.58,3.48-1.24,7-1.87,10.42-.86,4.62-1.75,9.39-2.46,14.11-.23,1.51-.45,3-.67,4.52l-.15,1.06a4,4,0,0,0,3,3.87,3.76,3.76,0,0,0,1.06.14,4.11,4.11,0,0,0,2-.54,3.79,3.79,0,0,0,1.84-2.4c.65-4.43,1.36-8.89,2.11-13.24.38-2.17.8-4.32,1.21-6.48q.54-2.75,1-5.5c.75-4.21,1.4-8.51,2-12.67q.44-2.85.9-5.7l.13-.83-.15,1.83-.13,1.82a4,4,0,0,0,1.12,3,4.75,4.75,0,0,0,3.39,1.53,4.54,4.54,0,0,0,3.19-1.32,4.67,4.67,0,0,0,1.32-3.19l.48-6.66c.54-7.42,1.1-15.1,1.57-22.65.06-1.1.13-2.2.19-3.31s.13-2.46.21-3.69c.1-1.58.28-3.17.44-4.71l.24-2.28c.22-2.32.45-4.79.62-7.28.1-1.47.16-2.94.21-4.42,0-.82.07-1.64.11-2.46a55.53,55.53,0,0,0,0-6.37,17.44,17.44,0,0,0-.31-2.33,3.73,3.73,0,0,0-.59-1.38,4.91,4.91,0,0,0-.84-1v-.2a4.23,4.23,0,0,0-.11-1l-.12.12c.33-.32.66-.65,1-1,2-2,3.66-3.74,5.22-5.64a4.29,4.29,0,0,0,1.17-2.83,4,4,0,0,0-4-4,4.34,4.34,0,0,0-2,.52,1.77,1.77,0,0,0,0-.33,4.55,4.55,0,0,0-1.26-3.13c.27-.35.54-.71.8-1.07a7,7,0,0,0,1.26-2.4,12.81,12.81,0,0,0,.22-1.53,5,5,0,0,0-.71-2.47,4.34,4.34,0,0,0-2.14-1.89c.44-1.06.84-2.13,1.19-3.17A3.61,3.61,0,0,0,553,136a4,4,0,0,0,.53-2,4.12,4.12,0,0,0-3-3.9,3.49,3.49,0,0,0-1-.15,3.86,3.86,0,0,0-3,1.28l-.09.11-.16.2a5.78,5.78,0,0,0-1,1.52c-.16.33-.3.68-.44,1a7.71,7.71,0,0,0-.29.75l0,.13h0c-.24.52-.51,1-.81,1.56a5.51,5.51,0,0,0-2.11.55,4.39,4.39,0,0,0-1.46-1.38,6.66,6.66,0,0,0-2.16-1l-1.19-.16c-.6.06-1.19.13-1.78.23l-.42.17a8.55,8.55,0,0,0-1.69.83,12,12,0,0,0-1.22.95,4.44,4.44,0,0,0-2.12-.53,3.72,3.72,0,0,0-1.2.19,2.86,2.86,0,0,0-.22-.3,3.89,3.89,0,0,0,0-1.08l2.75-2c1.94-.58,3.84-1.15,5.7-1.76a107.85,107.85,0,0,0,12.46-5.06l.35-.16c.74-.35,1.5-.71,2.22-1.13a13.78,13.78,0,0,0,2.56-2,6.52,6.52,0,0,0,1.44-2.3,4.87,4.87,0,0,0,.24-3.19,8.88,8.88,0,0,0-1-2.07,10.81,10.81,0,0,0-1.12-1.39,13.93,13.93,0,0,0-1.12-1.06l-.13-.11c1.35-1.62,2.67-3.33,3.93-5.08a3.9,3.9,0,0,0,.41-3.09,4,4,0,0,0-1.85-2.39,4,4,0,0,0-2-.55,4,4,0,0,0-3.45,2c-.48.66-1,1.32-1.47,2-.7.89-1.42,1.77-2.15,2.63-.63-.34-1.28-.66-1.93-1-1.75-.87-3.61-1.6-5.42-2.3l-1.13-.45c-1.66-.66-3.38-1.25-5.05-1.81l-.43-.15-.76-.26c-1.67-.57-3.39-1.16-5.1-1.68-4.43-1.35-8.79-2.59-13-3.7-3.69-1-7.88-2.1-12-3l-7.29-1.58c-1.5-.32-3.05-.58-4.55-.82l-2.1-.35c-2-.36-4.07-.62-6.06-.87l-.14,0L478.87,90c-1.42-.2-2.89-.4-4.33-.52l-3.29-.29c-3.09-.27-6.28-.55-9.43-.74l-1.16-.07c-4.06-.24-8.26-.48-12.39-.62l-7.82-.26c-.77,0-1.54,0-2.31,0Zm-187.23,72c-7-1.82-13.94-3.82-20.62-6l.52-.9a50.24,50.24,0,0,1,3-4.86c1.52-1.86,3.21-3.61,4.85-5.3l.81-.84a59.3,59.3,0,0,1,5.67-5.07,54.39,54.39,0,0,1,5.68-3.82l4-2.28.8-.46c.51-.3,1-.61,1.56-.87L261,127.2l.35-.18c1.78-.87,3.62-1.78,5.46-2.6l3.48-1.56,3.52-1.57,2.71-1.1c2.59-1.06,5.28-2.15,7.95-3.15l2.8-1.07c3.19-1.21,6.48-2.47,9.77-3.56l8-2.67c1.15-.38,2.35-.7,3.51-1,.52-.14,1-.27,1.55-.42l3.45-.95,3.46-1c1.36-.37,2.78-.67,4.15-1q1-.21,2.07-.45l1.78-.42c1.45-.34,2.95-.7,4.44-1l4.33-.85,5.17-1c3.48-.68,7.06-1.21,10.51-1.73l2.83-.42,4.17-.49,2-.23,1.85-.23c1.26-.16,2.56-.32,3.84-.42l4.34-.35c2.75-.23,5.6-.46,8.4-.64l1.46-.09c8.06-.52,16.39-1,24.6-1.23h.69c8.89-.19,18.08-.39,27.11-.39,9.48,0,17.8.22,25.44.67l7.23.43.48,0c1.61.09,3.24.24,4.82.39l2.32.21.2,0c1.72.15,3.49.3,5.23.52l3.42.43,3.38.43,7.19,1.26c1.52.27,3,.6,4.52.93l1.44.32c4.56,1,9,2.11,12.79,3.08a247.36,247.36,0,0,1,23.82,7.24c1.77.65,3.6,1.36,5.43,2.11.61.27,1.22.56,1.82.86a126.52,126.52,0,0,1-11.45,10.07l-1.6,1.21-1.09.33c-2.27.69-5,1.53-7.64,2.55-2.39.9-4.79,1.91-7.1,2.89l-.25.1-1,.41a4,4,0,0,0-1.44,1.44,3.76,3.76,0,0,0-.5,1.43,4.11,4.11,0,0,0-1.09.76l-.37,0a4.19,4.19,0,0,0-3,1.37,3.5,3.5,0,0,0-1,2.64l0,.53,0,.54-3.16,1.57-6.63.36-.52,0-15.93.89L450.56,145l-37.28,2.07-37.87,2.1-22.88,1.28c-6,.16-11,.44-15.95.88l-42.89,2.39-.66,0L270.84,155l-22.18,1.23-.66,0-.63,0-1.28.07-1.36.08-4,.23q5,1.47,10.21,2.83ZM513,185.74c1.21-.73,2.41-1.52,3.58-2.36s2.59-2,4.16-3.29l.69-.47c1.37-.91,2.78-1.85,4.11-2.85,1.78-1.34,3.57-2.78,5.47-4.39a47.2,47.2,0,0,0,4.21-4.12c1.51-1.66,2.89-3.38,4.16-5,0,2,0,4.06-.07,6.1-1,.84-1.94,1.66-2.89,2.42-4,3.05-8.3,5.68-12.66,8.33A101.82,101.82,0,0,1,513,185.74Z" fill="#404040"/><path d="M543.52,156.76a4.25,4.25,0,0,0-2.83,1.17,3.92,3.92,0,0,0-1.07,1.95l0,0c-1.85,1.4-3.73,2.76-5.57,4.18a2.89,2.89,0,0,0-.29-.32,4.83,4.83,0,0,0-2-1.13,5,5,0,0,0-2.24,0,18.42,18.42,0,0,0-2,.34c-1,.23-1.94.56-2.89.86a4.06,4.06,0,0,0-2.81,4.85l-.4.25c-1.75,1.1-3.46,2.28-5.16,3.46a48.13,48.13,0,0,0-5.15,4.09c-1.59,1.45-3.11,3.39-2.83,5.63a6.28,6.28,0,0,0-.56,1.29,4,4,0,0,0,3.86,5.06,8,8,0,0,0,1.54-.15,14.76,14.76,0,0,0,1.6-.63c.53-.24,1.05-.5,1.57-.75l2-1c1.52-.8,3-1.63,4.54-2.46,2.69-1.47,5.31-3.09,7.9-4.71l4.18-2.62c1.34-.74,2.68-1.46,4-2.18s2.89-1.58,4.31-2.42c.6-.35,1.19-.71,1.76-1.11s1.09-.75,1.62-1.16.8-.61,1.2-.93a7.08,7.08,0,0,0,1.18-1.43,3.87,3.87,0,0,0,.41-3.08,4.33,4.33,0,0,0-1.34-2.07,3.94,3.94,0,0,0,0-1.93,3.87,3.87,0,0,0-1.84-2.4,5.34,5.34,0,0,0-2.3-.64,2.06,2.06,0,0,0-.35,0Z" fill="#404040"/><path d="M269.87,469.21c-4.63,0-9.25.05-13.88.3-1.77.1-3.54.25-5.3.46l-2.05-.32-1.07-.15a4.11,4.11,0,0,0-2,.55,4,4,0,0,0-1.43,5.47,4.09,4.09,0,0,0,2.07,1.77,3.93,3.93,0,0,0,2,1.34,41.64,41.64,0,0,0,5.57.87c1.13.14,2.27.26,3.41.38l3.58.37c-.08.11-.15.23-.22.35a4,4,0,0,0-.55,2,4,4,0,0,0,2.94,3.86c.66.12,1.33.22,2,.31a9,9,0,0,0,1.83.63c.3.07.69.1,1,.15l1.49.22,3.31.47,6.62.89c4.58.61,9.18,1.14,13.78,1.67-2.72,1-5.45,2-8.22,2.77-1.47.25-2.95.46-4.39.85a4,4,0,0,0-2.39,5.88,4.39,4.39,0,0,0,2.39,1.84,6.08,6.08,0,0,0,3.46,0c2.13,0,4.26-.21,6.39-.37s4.45-.34,6.68-.53c4.57-.38,9.14-1,13.7-1.48,8.79-1,17.55-2.28,26.32-3.44l5.23-.69,4.12.32c1.83.15,3.67.23,5.5.34,2,.11,4,.26,6,.33l7.8.26c2,.06,4,0,6,0a28.43,28.43,0,0,0,5.05-.39,4,4,0,0,0,1.77-1,4,4,0,0,0,1.17-2.83,3.94,3.94,0,0,0-.55-2,3.75,3.75,0,0,0-2.39-1.84,31.79,31.79,0,0,0-3.51-.32l-1.66-.05-3.43-.07-3.63-.07a4.09,4.09,0,0,0-.41-1,3.7,3.7,0,0,0-.57-.75,3.93,3.93,0,0,0,.89-2.49,4.12,4.12,0,0,0-2-3.46,12.61,12.61,0,0,0-4.31-1.48l-3.21-.69c-2.06-.42-4.11-.86-6.17-1.23-4.61-.81-9.22-1.6-13.85-2.22q-13.42-1.79-26.86-3.29c-4.18-.47-8.37-.85-12.57-1.27-2.12-.2-4.25-.31-6.38-.47-1.78-.13-3.57-.31-5.36-.37l-8.47-.3c-1.1,0-2.19-.05-3.28-.05Z" fill="#c48663"/><path d="M370.06,474.58c-.76.15-1.52.34-2.28.47a57.63,57.63,0,0,0-6.29,1c-2.06.46-4.13.78-6.21,1.09a56.77,56.77,0,0,1-6.26.24H342c-2.46,0-4.92,0-7.38-.06-2.1,0-4.2-.11-6.29-.35-1.18-.19-2.36-.42-3.54-.65a46.87,46.87,0,0,1-4.64-1.28,4,4,0,0,0-2.12,7.71c1,.31,2,.62,2.95.89s2,.44,3,.63a51.74,51.74,0,0,0,6.08.87c4.08.29,8.2.24,12.3.25h6.3c1.93,0,3.85,0,5.78-.14,2.2-.19,4.41-.58,6.59-1,1.78-.33,3.55-.78,5.33-1.07l.39-.06c1-.12,2.07-.22,3.11-.37.79-.12,1.56-.35,2.35-.49a3.88,3.88,0,0,0,2.39-1.84,4,4,0,0,0-1.43-5.47,3.72,3.72,0,0,0-2-.52,6.44,6.44,0,0,0-1.13.11Z" fill="#404040"/><path d="M410.49,297.47a6.46,6.46,0,0,0-2.89,1.68,9.4,9.4,0,0,0-1.44,1.71,31.14,31.14,0,0,0-2.56,4.4,28.85,28.85,0,0,0-2.29,5.75,23.31,23.31,0,0,0-.53,3.53,12.42,12.42,0,0,0,.14,3.44,6.23,6.23,0,0,0,1.5,2.79,5,5,0,0,0,1.74,1.35,7.19,7.19,0,0,0,3.67.82,7.38,7.38,0,0,0,3-.89,10.88,10.88,0,0,0,1.38-1,10.05,10.05,0,0,0,1.85-2.11,13.51,13.51,0,0,0,.92-1.44,14.85,14.85,0,0,0,1.44-2.14,29.88,29.88,0,0,0,2.24-5.2,17.06,17.06,0,0,0,.6-2.82,14.64,14.64,0,0,0,.27-3.49,7.8,7.8,0,0,0-.37-2c-.17-.44-.35-.87-.55-1.3a6.09,6.09,0,0,0-2.06-2.14,3.56,3.56,0,0,0-.58-.31,7.83,7.83,0,0,0-1.76-.61c-.56-.08-1.12-.16-1.67-.22a3.39,3.39,0,0,0-.45,0,10.18,10.18,0,0,0-1.64.19Z" fill="#404040"/><path d="M281.44,293.92a8.11,8.11,0,0,0-3.73,2.25,15.35,15.35,0,0,0-3.08,5.28,21.87,21.87,0,0,0-1.24,4.26,20.21,20.21,0,0,0-1,4.71,14.56,14.56,0,0,0,.15,3.67,10,10,0,0,0,2.62,5.19,8.4,8.4,0,0,0,5.49,2.27,7.58,7.58,0,0,0,1.86-.18,7.19,7.19,0,0,0,1.74-.6,8.34,8.34,0,0,0,2.75-2,14.48,14.48,0,0,0,2.65-4.62,13.84,13.84,0,0,0,.72-2.59,41.63,41.63,0,0,0,.61-5.8,19.47,19.47,0,0,0-.34-6.28,8.56,8.56,0,0,0-5.73-5.39,6.74,6.74,0,0,0-2-.31,5.77,5.77,0,0,0-1.43.17Zm1.49,12c-.05,1-.13,2.06-.24,3.08a15.06,15.06,0,0,1-.69,2.74,13.55,13.55,0,0,1-.77,1.46l-.31.3-.12.08-.11,0-.18-.33a5.71,5.71,0,0,1-.19-.71c0-.12,0-.24,0-.36a4.86,4.86,0,0,0,.52-1.95l.15-1.53c.06-.34.12-.68.19-1l0-.12a10.33,10.33,0,0,1,.68-1.27l.11-.11c.31-.09.62-.17.93-.23Zm-1.15.36-.29.22.29-.22Z" fill="#404040"/></g></g></svg>